<svg width="103" height="101" viewBox="0 0 103 101" fill="none" xmlns="http://www.w3.org/2000/svg">
<circle cx="50.8813" cy="50" r="44" fill="white"/>
<path d="M52.6926 60V54.866H41.0646L40.2146 51.16L53.2706 36.03H57.6906V50.616H60.8866V54.866H57.6906V60H52.6926ZM46.3686 50.616H52.6926V43.204L46.3686 50.616Z" fill="#686868"/>
<path d="M50.8813 -2.18557e-06C40.9923 -1.7533e-06 31.3253 2.93245 23.1028 8.42652C14.8804 13.9206 8.47175 21.7295 4.68737 30.8658C0.902987 40.0021 -0.0871796 50.0555 1.84208 59.7545C3.77134 69.4536 8.53338 78.3627 15.526 85.3553C22.5186 92.348 31.4278 97.11 41.1268 99.0393C50.8259 100.969 60.8792 99.9784 70.0155 96.194C79.1518 92.4096 86.9608 86.001 92.4548 77.7785C97.9489 69.556 100.881 59.8891 100.881 50L94.8873 50C94.8873 58.7036 92.3064 67.2117 87.471 74.4484C82.6355 81.6852 75.7628 87.3255 67.7217 90.6562C59.6807 93.9869 50.8325 94.8584 42.2962 93.1604C33.7599 91.4624 25.9188 87.2713 19.7644 81.1169C13.6101 74.9626 9.4189 67.1215 7.72092 58.5851C6.02294 50.0488 6.89441 41.2007 10.2251 33.1596C13.5558 25.1186 19.1962 18.2458 26.4329 13.4104C33.6697 8.57492 42.1778 5.99401 50.8813 5.99401L50.8813 -2.18557e-06Z" fill="url(#paint0_linear_270_4964)"/>
<path d="M51.8813 -2.18557e-06C41.9923 -1.7533e-06 32.3253 2.93245 24.1028 8.42652C15.8804 13.9206 9.47175 21.7295 5.68737 30.8658C1.90299 40.0021 0.91282 50.0555 2.84208 59.7545C4.77134 69.4536 9.53338 78.3627 16.526 85.3553C23.5186 92.348 32.4278 97.11 42.1268 99.0393C51.8259 100.969 61.8792 99.9784 71.0155 96.194C80.1518 92.4096 87.9608 86.001 93.4548 77.7785C98.9489 69.556 101.881 59.8891 101.881 50L95.8873 50C95.8873 58.7036 93.3064 67.2117 88.471 74.4484C83.6355 81.6852 76.7628 87.3255 68.7217 90.6562C60.6807 93.9869 51.8325 94.8584 43.2962 93.1604C34.7599 91.4624 26.9188 87.2713 20.7644 81.1169C14.6101 74.9626 10.4189 67.1215 8.72092 58.5851C7.02294 50.0488 7.89441 41.2007 11.2251 33.1596C14.5558 25.1186 20.1962 18.2458 27.4329 13.4104C34.6697 8.57492 43.1778 5.99401 51.8813 5.99401L51.8813 -2.18557e-06Z" fill="url(#paint1_linear_270_4964)"/>
<path d="M52.1187 100.237C62.0077 100.237 71.6747 97.3049 79.8972 91.8108C88.1196 86.3167 94.5282 78.5078 98.3126 69.3715C102.097 60.2352 103.087 50.1818 101.158 40.4828C99.2287 30.7837 94.4666 21.8746 87.474 14.882C80.4814 7.88934 71.5722 3.1273 61.8732 1.19804C52.1741 -0.73122 42.1208 0.258947 32.9845 4.04333C23.8482 7.82771 16.0392 14.2363 10.5452 22.4588C5.0511 30.6813 2.11865 40.3482 2.11865 50.2373L8.11267 50.2373C8.11267 41.5337 10.6936 33.0256 15.529 25.7889C20.3645 18.5521 27.2372 12.9118 35.2783 9.58108C43.3193 6.25037 52.1675 5.3789 60.7038 7.07688C69.2401 8.77486 77.0812 12.966 83.2356 19.1204C89.3899 25.2747 93.5811 33.1158 95.2791 41.6522C96.9771 50.1885 96.1056 59.0366 92.7749 67.0777C89.4442 75.1187 83.8038 81.9915 76.5671 86.8269C69.3303 91.6624 60.8222 94.2433 52.1187 94.2433L52.1187 100.237Z" fill="url(#paint2_linear_270_4964)"/>
<path d="M2.11866 50.2373C2.11866 60.1264 5.0511 69.7934 10.5452 78.0158C16.0392 86.2383 23.8482 92.6469 32.9845 96.4313C42.1208 100.216 52.1741 101.206 61.8732 99.2766C71.5722 97.3473 80.4814 92.5853 87.474 85.5926C94.4666 78.6 99.2287 69.6909 101.158 59.9918C103.087 50.2928 102.097 40.2394 98.3126 31.1031C94.5283 21.9668 88.1196 14.1579 79.8972 8.66382C71.6747 3.16975 62.0077 0.237301 52.1187 0.2373L52.1187 6.23132C60.8222 6.23132 69.3303 8.81222 76.5671 13.6477C83.8038 18.4831 89.4442 25.3559 92.7749 33.3969C96.1056 41.438 96.9771 50.2861 95.2791 58.8224C93.5811 67.3588 89.3899 75.1999 83.2356 81.3542C77.0812 87.5086 69.2401 91.6997 60.7038 93.3977C52.1675 95.0957 43.3193 94.2242 35.2783 90.8935C27.2372 87.5628 20.3645 81.9225 15.529 74.6857C10.6936 67.449 8.11267 58.9409 8.11267 50.2373L2.11866 50.2373Z" fill="url(#paint3_linear_270_4964)"/>
<path d="M50.8813 -2.18557e-06C78.4956 -3.39263e-06 100.881 22.3858 100.881 50C100.881 77.6142 78.4956 100 50.8813 100C23.2671 100 0.881347 77.6142 0.881345 50C0.881344 22.3858 23.2671 -9.78513e-07 50.8813 -2.18557e-06ZM50.8813 94.006C75.1852 94.006 94.8873 74.3038 94.8873 50C94.8873 25.6962 75.1852 5.99401 50.8813 5.99401C26.5775 5.99401 6.87536 25.6962 6.87536 50C6.87536 74.3038 26.5775 94.006 50.8813 94.006Z" fill="#83C150"/>
<defs>
<linearGradient id="paint0_linear_270_4964" x1="50.8813" y1="1.50001" x2="97.8814" y2="50" gradientUnits="userSpaceOnUse">
<stop offset="0.00437832" stop-color="#9CD365"/>
<stop offset="0.486231" stop-color="#9CD365" stop-opacity="0.436578"/>
<stop offset="0.858227" stop-color="#9CD365" stop-opacity="0.120472"/>
<stop offset="1" stop-color="#9CD365" stop-opacity="0"/>
</linearGradient>
<linearGradient id="paint1_linear_270_4964" x1="51.8813" y1="1.50001" x2="98.8814" y2="50" gradientUnits="userSpaceOnUse">
<stop offset="0.00437832" stop-color="#9CD365"/>
<stop offset="0.486231" stop-color="#9CD365" stop-opacity="0.436578"/>
<stop offset="0.858227" stop-color="#9CD365" stop-opacity="0.120472"/>
<stop offset="1" stop-color="#9CD365" stop-opacity="0"/>
</linearGradient>
<linearGradient id="paint2_linear_270_4964" x1="52.1186" y1="98.7373" x2="5.11865" y2="50.2373" gradientUnits="userSpaceOnUse">
<stop offset="0.00437832" stop-color="#9CD365"/>
<stop offset="0.486231" stop-color="#9CD365" stop-opacity="0.436578"/>
<stop offset="0.858227" stop-color="#9CD365" stop-opacity="0.120472"/>
<stop offset="1" stop-color="#9CD365" stop-opacity="0"/>
</linearGradient>
<linearGradient id="paint3_linear_270_4964" x1="3.61867" y1="50.2373" x2="52.1187" y2="3.23729" gradientUnits="userSpaceOnUse">
<stop offset="0.00437832" stop-color="#9CD365"/>
<stop offset="0.486231" stop-color="#9CD365" stop-opacity="0.436578"/>
<stop offset="0.858227" stop-color="#9CD365" stop-opacity="0.120472"/>
<stop offset="1" stop-color="#9CD365" stop-opacity="0"/>
</linearGradient>
</defs>
</svg>
