<svg width="101" height="100" viewBox="0 0 101 100" fill="none" xmlns="http://www.w3.org/2000/svg">
<circle cx="50.5" cy="50" r="44" fill="white"/>
<path d="M50.5154 60.408C46.6394 60.408 43.5454 59.0367 41.2334 56.294L44.8374 52.86C46.5374 54.764 48.4527 55.716 50.5834 55.716C51.5807 55.716 52.3854 55.4553 52.9974 54.934C53.6321 54.39 53.9494 53.6647 53.9494 52.758C53.9494 51.7833 53.5414 51.0353 52.7254 50.514C51.9094 49.9927 50.7647 49.732 49.2914 49.732H47.1154L46.2994 46.4L51.9774 40.688H42.6274V36.2H58.7094V40.144L52.6914 45.89C56.9527 46.6153 59.0834 48.8593 59.0834 52.622C59.0834 54.9113 58.3014 56.7813 56.7374 58.232C55.1961 59.6827 53.1221 60.408 50.5154 60.408Z" fill="#686868"/>
<path d="M50.5 -2.18557e-06C60.3891 -1.7533e-06 70.0561 2.93245 78.2785 8.42652C86.501 13.9206 92.9096 21.7295 96.694 30.8658C100.478 40.0021 101.469 50.0555 99.5393 59.7545C97.61 69.4536 92.848 78.3627 85.8553 85.3553C78.8627 92.348 69.9536 97.11 60.2545 99.0393C50.5555 100.969 40.5021 99.9784 31.3658 96.194C22.2295 92.4096 14.4206 86.001 8.92652 77.7785C3.43245 69.556 0.500002 59.8891 0.500002 50L6.49402 50C6.49402 58.7036 9.07492 67.2117 13.9104 74.4484C18.7458 81.6852 25.6186 87.3255 33.6596 90.6562C41.7007 93.9869 50.5488 94.8584 59.0851 93.1604C67.6215 91.4624 75.4626 87.2713 81.6169 81.1169C87.7713 74.9626 91.9624 67.1215 93.6604 58.5851C95.3584 50.0488 94.4869 41.2007 91.1562 33.1596C87.8255 25.1186 82.1852 18.2458 74.9484 13.4104C67.7117 8.57492 59.2036 5.99401 50.5 5.99401L50.5 -2.18557e-06Z" fill="url(#paint0_linear_270_4920)"/>
<path d="M50.5 4.37114e-06C63.7608 4.95079e-06 76.4785 5.26785 85.8553 14.6447C95.2322 24.0215 100.5 36.7392 100.5 50C100.5 63.2608 95.2322 75.9785 85.8553 85.3553C76.4785 94.7322 63.7608 100 50.5 100L50.5 94.006C62.1711 94.006 73.3642 89.3697 81.6169 81.1169C89.8697 72.8642 94.506 61.6711 94.506 50C94.506 38.3289 89.8697 27.1358 81.6169 18.8831C73.3642 10.6304 62.1711 5.99402 50.5 5.99402L50.5 4.37114e-06Z" fill="#83C150"/>
<path d="M50.5 100C40.6109 100 30.944 97.0675 22.7215 91.5735C14.499 86.0794 8.09041 78.2705 4.30603 69.1342C0.521644 59.9979 -0.468523 49.9445 1.46074 40.2455C3.39 30.5464 8.15204 21.6373 15.1447 14.6447C22.1373 7.65203 31.0464 2.89 40.7455 0.960734C50.4445 -0.968527 60.4979 0.0216392 69.6342 3.80602C78.7705 7.5904 86.5794 13.999 92.0735 22.2215C97.5676 30.4439 100.5 40.1109 100.5 50L94.506 50C94.506 41.2964 91.9251 32.7883 87.0896 25.5516C82.2542 18.3148 75.3814 12.6745 67.3404 9.34377C59.2993 6.01306 50.4512 5.14159 41.9149 6.83958C33.3785 8.53756 25.5374 12.7287 19.3831 18.8831C13.2287 25.0374 9.03756 32.8785 7.33958 41.4149C5.6416 49.9512 6.51306 58.7993 9.84377 66.8404C13.1745 74.8814 18.8148 81.7542 26.0516 86.5896C33.2883 91.4251 41.7964 94.006 50.5 94.006L50.5 100Z" fill="url(#paint1_linear_270_4920)"/>
<defs>
<linearGradient id="paint0_linear_270_4920" x1="50.5" y1="1.50001" x2="3.5" y2="50" gradientUnits="userSpaceOnUse">
<stop offset="0.00437832" stop-color="#9CD365"/>
<stop offset="0.486231" stop-color="#9CD365" stop-opacity="0.436578"/>
<stop offset="0.858227" stop-color="#9CD365" stop-opacity="0.120472"/>
<stop offset="1" stop-color="#9CD365" stop-opacity="0"/>
</linearGradient>
<linearGradient id="paint1_linear_270_4920" x1="50.5" y1="98.5" x2="50.5" y2="50" gradientUnits="userSpaceOnUse">
<stop offset="0.00437832" stop-color="#83C150"/>
<stop offset="1" stop-color="#9CD365" stop-opacity="0"/>
</linearGradient>
</defs>
</svg>
