<svg width="88" height="8" viewBox="0 0 88 8" fill="none" xmlns="http://www.w3.org/2000/svg">
<path fill-rule="evenodd" clip-rule="evenodd" d="M4.00049 8C6.20963 8 8.00049 6.20914 8.00049 4C8.00049 1.79086 6.20963 0 4.00049 0C1.79135 0 0.000488281 1.79086 0.000488281 4C0.000488281 6.20914 1.79135 8 4.00049 8ZM28.0005 4C28.0005 6.20914 26.2096 8 24.0005 8C21.7913 8 20.0005 6.20914 20.0005 4C20.0005 1.79086 21.7913 0 24.0005 0C26.2096 0 28.0005 1.79086 28.0005 4ZM44.0005 8C46.2096 8 48.0005 6.20914 48.0005 4C48.0005 1.79086 46.2096 0 44.0005 0C41.7913 0 40.0005 1.79086 40.0005 4C40.0005 6.20914 41.7913 8 44.0005 8ZM68.0005 4C68.0005 6.20914 66.2096 8 64.0005 8C61.7913 8 60.0005 6.20914 60.0005 4C60.0005 1.79086 61.7913 0 64.0005 0C66.2096 0 68.0005 1.79086 68.0005 4ZM88.0005 4C88.0005 6.20914 86.2096 8 84.0005 8C81.7914 8 80.0005 6.20914 80.0005 4C80.0005 1.79086 81.7914 0 84.0005 0C86.2096 0 88.0005 1.79086 88.0005 4Z" fill="#E1E1E1"/>
</svg>
