<svg width="443" height="460" viewBox="0 0 443 460" fill="none" xmlns="http://www.w3.org/2000/svg">
<path d="M224.107 399C323.018 399 403.201 352.706 403.201 295.599C403.201 238.493 323.018 192.199 224.107 192.199C125.197 192.199 45.0137 238.493 45.0137 295.599C45.0137 352.706 125.197 399 224.107 399Z" fill="white"/>
<path d="M276.965 249.887L126.679 336.828C122.299 339.363 114.647 339.046 109.586 336.123L89.6567 324.661C84.6031 321.747 84.0487 317.327 88.429 314.792L238.754 227.819C243.134 225.293 250.786 225.609 255.847 228.532L275.737 240.018C280.798 242.933 281.345 247.353 276.965 249.887Z" fill="#E0E0E0"/>
<path d="M330.501 357.684C355.296 357.684 375.397 346.077 375.397 331.759C375.397 317.44 355.296 305.833 330.501 305.833C305.705 305.833 285.604 317.44 285.604 331.759C285.604 346.077 305.705 357.684 330.501 357.684Z" fill="#E0E0E0"/>
<path d="M77.5687 296.447C83.161 299.671 83.161 304.899 77.5687 308.122C71.9765 311.346 62.9307 311.346 57.3464 308.122C51.7621 304.899 51.7621 299.671 57.3464 296.447C62.9307 293.223 72.024 293.223 77.5687 296.447Z" fill="#E0E0E0"/>
<path d="M226.222 326.309L146.22 372.069C142.632 374.136 136.366 373.875 132.224 371.49L122.814 366.049C118.671 363.672 118.219 360.045 121.808 357.969L201.849 312.218C205.437 310.142 211.703 310.404 215.846 312.796L225.256 318.23C229.359 320.622 229.81 324.242 226.222 326.309Z" fill="#E0E0E0"/>
<path d="M221.66 345.256L189.556 363.871C185.968 365.938 179.702 365.677 175.56 363.284L166.149 357.851C162.007 355.474 161.555 351.846 165.144 349.771L197.247 331.157C200.836 329.089 207.101 329.351 211.244 331.743L220.662 337.177C224.804 339.593 225.248 343.205 221.66 345.256Z" fill="#E0E0E0"/>
<path d="M66.56 276.47C66.56 276.47 77.3405 265.935 71.2017 248.295C67.764 238.41 56.3657 231.194 49.8467 230.465C51.9928 233.02 53.7053 235.91 54.9161 239.02L63.0906 244.453L55.5736 242.077L57.1578 248.509C57.1578 248.509 64.152 252.739 65.1817 253.658L57.6489 251.685C57.6489 251.685 58.2746 269.919 66.56 276.47Z" fill="#83C150"/>
<path opacity="0.4" d="M66.56 276.47C66.56 276.47 77.3405 265.935 71.2017 248.295C67.764 238.41 56.3657 231.194 49.8467 230.465C51.9928 233.02 53.7053 235.91 54.9161 239.02L63.0906 244.453L55.5736 242.077L57.1578 248.509C57.1578 248.509 64.152 252.739 65.1817 253.658L57.6489 251.685C57.6489 251.685 58.2746 269.919 66.56 276.47Z" fill="black"/>
<path d="M66.5611 276.47C66.5611 276.47 72.1058 254.434 63.8838 241.578C63.8838 241.578 73.5632 252.921 66.5611 276.47Z" fill="white"/>
<path d="M54.2183 279.449L67.4067 279.29H67.5414L80.7378 279.449C80.7378 279.449 80.8883 295.71 75.8822 302.324C74.496 304.083 71.2563 305.311 67.478 305.311C63.6997 305.311 60.4442 304.075 59.0659 302.309C54.0678 295.695 54.2183 279.449 54.2183 279.449Z" fill="#37474F"/>
<path d="M54.2119 279.449C54.2119 283.409 60.1527 286.577 67.4796 286.577C74.8065 286.577 80.7393 283.409 80.7393 279.449C80.7393 275.488 74.7986 272.32 67.4796 272.32C60.1606 272.32 54.2119 275.551 54.2119 279.449Z" fill="#455A64"/>
<path d="M67.4793 277.563C62.9168 277.563 59.0513 279.029 57.6889 281.056C57.3587 280.593 57.1739 280.041 57.1582 279.472C57.1582 276.66 61.7761 274.387 67.4555 274.387C73.1349 274.387 77.7528 276.66 77.7528 279.472C77.7366 280.04 77.5549 280.591 77.23 281.056C75.9072 279.029 72.0259 277.563 67.4793 277.563Z" fill="#263238"/>
<path d="M67.4779 284.55C72.8849 284.55 77.2682 282.986 77.2682 281.056C77.2682 279.127 72.8849 277.563 67.4779 277.563C62.0708 277.563 57.6875 279.127 57.6875 281.056C57.6875 282.986 62.0708 284.55 67.4779 284.55Z" fill="#E0E0E0"/>
<path d="M67.3126 281.936C67.3126 281.936 72.4296 281.738 76.8178 274.949C78.6238 272.145 79.4951 270.68 79.4951 270.68L72.3662 270.149L80.3505 268.153L84.113 262.387L77.4911 261.895C77.4911 261.895 82.4258 260.161 85.9507 260.145C85.9507 260.145 92.0578 249.349 93.8717 247.812C89.2516 248.097 84.7355 249.305 80.5902 251.365C76.4448 253.425 72.7543 256.294 69.7364 259.804C59.6688 271.678 65.8234 282.237 67.3126 281.936Z" fill="#83C150"/>
<path d="M67.3109 281.936C67.3109 281.936 64.1425 262.68 84.5153 251.099C84.5153 251.099 63.3108 261.294 67.3109 281.936Z" fill="white"/>
<path d="M67.313 281.936C67.313 281.936 62.6872 282.237 58.093 276.526C56.1999 274.149 55.2731 272.922 55.2731 272.922L61.6099 271.773L54.2196 270.727L50.2591 265.88L56.1919 264.81C56.1919 264.81 51.574 263.717 48.3977 264.018C48.3977 264.018 41.8708 254.854 40.1123 253.634C44.3067 253.457 48.4941 254.121 52.4272 255.589C56.3603 257.057 59.9594 259.299 63.0119 262.181C73.2538 271.963 68.6913 282.07 67.313 281.936Z" fill="#83C150"/>
<path opacity="0.2" d="M67.313 281.936C67.313 281.936 62.6872 282.237 58.093 276.526C56.1999 274.149 55.2731 272.922 55.2731 272.922L61.6099 271.773L54.2196 270.727L50.2591 265.88L56.1919 264.81C56.1919 264.81 51.574 263.717 48.3977 264.018C48.3977 264.018 41.8708 254.854 40.1123 253.634C44.3067 253.457 48.4941 254.121 52.4272 255.589C56.3603 257.057 59.9594 259.299 63.0119 262.181C73.2538 271.963 68.6913 282.07 67.313 281.936Z" fill="black"/>
<path d="M67.3129 281.936C67.3129 281.936 68.3902 264.264 48.8887 255.749C48.8887 255.749 68.9526 262.917 67.3129 281.936Z" fill="white"/>
<path d="M217.771 295.504C217.469 295.504 217.176 295.404 216.937 295.22C216.698 295.036 216.526 294.778 216.448 294.486C216.371 294.195 216.392 293.886 216.508 293.607C216.624 293.328 216.828 293.096 217.09 292.946L273.868 260.406C274.742 259.908 275.472 259.19 275.984 258.323C276.496 257.457 276.773 256.471 276.787 255.465C276.802 254.458 276.553 253.465 276.066 252.584C275.579 251.703 274.87 250.965 274.01 250.442L269.511 247.741C267.111 246.302 264.37 245.531 261.572 245.509C258.774 245.487 256.02 246.213 253.598 247.614L248.663 250.434C246.854 251.37 244.847 251.859 242.809 251.859C240.772 251.859 238.765 251.37 236.956 250.434C235.166 249.404 234.136 247.883 234.136 246.267C234.136 244.651 235.166 243.099 236.956 242.093L245.217 237.34C246.627 236.523 247.798 235.35 248.614 233.94C249.429 232.529 249.861 230.93 249.867 229.3V201.268C249.867 200.905 250.011 200.556 250.268 200.299C250.525 200.042 250.874 199.898 251.237 199.898C251.417 199.896 251.596 199.929 251.763 199.996C251.93 200.063 252.082 200.162 252.211 200.288C252.34 200.414 252.442 200.563 252.513 200.729C252.584 200.894 252.621 201.072 252.624 201.252V229.285C252.617 231.394 252.058 233.465 251.002 235.292C249.945 237.118 248.429 238.635 246.604 239.693L238.342 244.445C237.423 244.976 236.892 245.634 236.892 246.243C236.892 246.853 237.423 247.511 238.342 248.041C239.735 248.733 241.27 249.093 242.825 249.093C244.381 249.093 245.915 248.733 247.309 248.041L252.204 245.214C255.051 243.571 258.285 242.719 261.572 242.747C264.859 242.775 268.079 243.681 270.897 245.372L275.396 248.065C276.668 248.83 277.717 249.914 278.442 251.208C279.167 252.503 279.541 253.965 279.528 255.448C279.515 256.932 279.116 258.386 278.369 259.669C277.622 260.951 276.554 262.016 275.27 262.759L218.484 295.354C218.264 295.467 218.018 295.519 217.771 295.504Z" fill="#83C150"/>
<path opacity="0.2" d="M217.771 295.504C217.469 295.504 217.176 295.404 216.937 295.22C216.698 295.036 216.526 294.778 216.448 294.486C216.371 294.195 216.392 293.886 216.508 293.607C216.624 293.328 216.828 293.096 217.09 292.946L273.868 260.406C274.742 259.908 275.472 259.19 275.984 258.323C276.496 257.457 276.773 256.471 276.787 255.465C276.802 254.458 276.553 253.465 276.066 252.584C275.579 251.703 274.87 250.965 274.01 250.442L269.511 247.741C267.111 246.302 264.37 245.531 261.572 245.509C258.774 245.487 256.02 246.213 253.598 247.614L248.663 250.434C246.854 251.37 244.847 251.859 242.809 251.859C240.772 251.859 238.765 251.37 236.956 250.434C235.166 249.404 234.136 247.883 234.136 246.267C234.136 244.651 235.166 243.099 236.956 242.093L245.217 237.34C246.627 236.523 247.798 235.35 248.614 233.94C249.429 232.529 249.861 230.93 249.867 229.3V201.268C249.867 200.905 250.011 200.556 250.268 200.299C250.525 200.042 250.874 199.898 251.237 199.898C251.417 199.896 251.596 199.929 251.763 199.996C251.93 200.063 252.082 200.162 252.211 200.288C252.34 200.414 252.442 200.563 252.513 200.729C252.584 200.894 252.621 201.072 252.624 201.252V229.285C252.617 231.394 252.058 233.465 251.002 235.292C249.945 237.118 248.429 238.635 246.604 239.693L238.342 244.445C237.423 244.976 236.892 245.634 236.892 246.243C236.892 246.853 237.423 247.511 238.342 248.041C239.735 248.733 241.27 249.093 242.825 249.093C244.381 249.093 245.915 248.733 247.309 248.041L252.204 245.214C255.051 243.571 258.285 242.719 261.572 242.747C264.859 242.775 268.079 243.681 270.897 245.372L275.396 248.065C276.668 248.83 277.717 249.914 278.442 251.208C279.167 252.503 279.541 253.965 279.528 255.448C279.515 256.932 279.116 258.386 278.369 259.669C277.622 260.951 276.554 262.016 275.27 262.759L218.484 295.354C218.264 295.467 218.018 295.519 217.771 295.504Z" fill="black"/>
<path d="M251.199 212.326C250.299 212.326 249.436 211.969 248.799 211.333C248.162 210.698 247.803 209.835 247.801 208.936V199.43H254.597V208.936C254.595 209.835 254.236 210.698 253.599 211.333C252.962 211.969 252.099 212.326 251.199 212.326Z" fill="#83C150"/>
<path opacity="0.4" d="M251.199 212.326C250.299 212.326 249.436 211.969 248.799 211.333C248.162 210.698 247.803 209.835 247.801 208.936V199.43H254.597V208.936C254.595 209.835 254.236 210.698 253.599 211.333C252.962 211.969 252.099 212.326 251.199 212.326Z" fill="black"/>
<path d="M232.067 259.654L208.454 273.12C206.619 274.168 204.541 274.72 202.427 274.72C200.312 274.72 198.234 274.168 196.399 273.12L181.27 264.406L179.543 263.408C177.749 262.371 176.259 260.88 175.224 259.085C174.188 257.29 173.642 255.255 173.642 253.182V209.617L209.056 189.347V233.847C209.057 235.638 209.529 237.396 210.424 238.946C211.32 240.497 212.607 241.784 214.158 242.679L232.075 253.024C232.657 253.36 233.14 253.844 233.476 254.426C233.811 255.009 233.987 255.669 233.987 256.341C233.986 257.013 233.808 257.673 233.471 258.255C233.134 258.837 232.65 259.319 232.067 259.654Z" fill="#263238"/>
<path d="M203.409 274.641C205.187 274.491 206.91 273.95 208.455 273.056L232.067 259.591C232.65 259.255 233.133 258.772 233.47 258.19C233.806 257.608 233.983 256.948 233.983 256.276C233.983 255.604 233.806 254.943 233.47 254.361C233.133 253.779 232.65 253.296 232.067 252.961L219.829 245.895H203.409V274.641Z" fill="#37474F"/>
<path d="M231.648 250.101L232.305 250.624C232.832 251.046 233.258 251.581 233.55 252.19C233.842 252.799 233.993 253.466 233.993 254.141V256.343H231.616L231.648 250.101Z" fill="#37474F"/>
<path d="M211.797 192.714V232.778C211.797 234.51 212.253 236.212 213.119 237.712C213.986 239.213 215.232 240.459 216.732 241.325L231.647 250.125C232.212 250.449 232.68 250.916 233.007 251.48C233.333 252.043 233.504 252.682 233.504 253.333C233.504 253.984 233.333 254.623 233.007 255.186C232.68 255.75 232.212 256.217 231.647 256.541L229.952 257.507L208.763 269.531C206.988 270.547 204.979 271.081 202.933 271.081C200.888 271.081 198.879 270.547 197.104 269.531L182.426 260.866C180.926 260 179.68 258.754 178.814 257.254C177.947 255.753 177.491 254.051 177.491 252.319V212.239L211.797 192.714Z" fill="#455A64"/>
<path d="M211.797 232.778V192.714L177.491 212.239V252.279C177.491 254.012 177.947 255.714 178.814 257.214C179.68 258.714 180.926 259.96 182.426 260.826L216.225 240.984C214.867 240.088 213.752 238.869 212.98 237.437C212.207 236.006 211.801 234.405 211.797 232.778Z" fill="#263238"/>
<path d="M103.24 282.094L99.3429 284.352V291.481C96.8335 291.484 94.37 290.808 92.214 289.524L91.913 289.342C91.0194 288.81 90.2428 288.103 89.6301 287.263C89.0175 286.423 88.5815 285.468 88.3485 284.455C88.2141 284.018 88.1447 283.565 88.1426 283.108V273.389L103.24 282.094Z" fill="#263238"/>
<path d="M272.686 20.1467L272.377 19.9566C270.22 18.6763 267.757 18.0004 265.248 18.0001C264.448 17.9943 263.66 18.2021 262.967 18.6021L94.9945 115.23C92.9277 116.423 91.2115 118.138 90.0184 120.205C88.8254 122.271 88.1976 124.615 88.1982 127.001V273.389L103.248 282.102L262.864 190.329C264.93 189.136 266.646 187.421 267.839 185.355C269.032 183.288 269.66 180.945 269.66 178.559V26.7687H276.449C276.448 25.4337 276.101 24.1217 275.442 22.961C274.782 21.8004 273.833 20.8306 272.686 20.1467Z" fill="#37474F"/>
<path d="M89.5988 120.902C88.6531 122.796 88.1596 124.884 88.1572 127.001V273.389L103.207 282.102L108.855 278.839V132.847L89.5988 120.902Z" fill="#263238"/>
<path d="M94.9473 277.302V287.021C94.9482 287.802 95.1546 288.569 95.5458 289.245C95.9369 289.921 96.4989 290.482 97.1755 290.872C97.852 291.262 98.6193 291.467 99.4003 291.467C100.181 291.467 100.948 291.261 101.625 290.87L269.653 194.234C271.719 193.041 273.435 191.326 274.628 189.259C275.821 187.193 276.449 184.85 276.449 182.464V172.515L94.9473 277.302Z" fill="#37474F"/>
<path d="M276.449 26.3806C276.449 25.599 276.244 24.831 275.853 24.154C275.463 23.4769 274.901 22.9146 274.224 22.5236C273.547 22.1327 272.78 21.9268 271.998 21.9267C271.216 21.9266 270.449 22.1323 269.772 22.5231L101.743 119.159C99.6767 120.352 97.9605 122.067 96.7674 124.133C95.5744 126.2 94.9466 128.544 94.9473 130.93V277.31L276.449 172.515" fill="#455A64"/>
<path d="M266.713 33.1211H266.673C265.906 33.1146 265.149 33.2911 264.463 33.636L106.542 124.419C104.717 125.473 103.201 126.989 102.147 128.814C101.093 130.64 100.538 132.711 100.538 134.819V259.543C100.534 260.088 100.644 260.628 100.863 261.127C101.087 261.629 101.413 262.079 101.82 262.448C102.228 262.817 102.707 263.097 103.229 263.271C103.75 263.445 104.302 263.508 104.85 263.456C105.397 263.405 105.928 263.24 106.408 262.973L264.36 172.158C266.185 171.105 267.7 169.59 268.754 167.766C269.808 165.942 270.363 163.873 270.364 161.766V37.042C270.357 36.0499 269.978 35.0965 269.302 34.3704C268.626 33.6443 267.702 33.1985 266.713 33.1211Z" fill="#83C150"/>
<path opacity="0.5" d="M266.713 33.1211H266.673C265.906 33.1146 265.149 33.2911 264.463 33.636L106.542 124.419C104.717 125.473 103.201 126.989 102.147 128.814C101.093 130.64 100.538 132.711 100.538 134.819V259.543C100.534 260.088 100.644 260.628 100.863 261.127C101.087 261.629 101.413 262.079 101.82 262.448C102.228 262.817 102.707 263.097 103.229 263.271C103.75 263.445 104.302 263.508 104.85 263.456C105.397 263.405 105.928 263.24 106.408 262.973L264.36 172.158C266.185 171.105 267.7 169.59 268.754 167.766C269.808 165.942 270.363 163.873 270.364 161.766V37.042C270.357 36.0499 269.978 35.0965 269.302 34.3704C268.626 33.6443 267.702 33.1985 266.713 33.1211Z" fill="white"/>
<path d="M117.396 127.682L268.465 40.4564C270.2 39.4504 271.753 39.5296 272.862 40.4564L278.089 44.0683L274.525 48.4803V170.305C274.525 174.773 271.808 179.953 268.465 181.886L118.885 268.225L118.608 272.977L113.063 269.199C111.962 268.367 111.289 266.743 111.289 264.51V139.263C111.337 134.795 114.046 129.615 117.396 127.682Z" fill="#83C150"/>
<path opacity="0.2" d="M117.396 127.682L268.465 40.4564C270.2 39.4504 271.753 39.5296 272.862 40.4564L278.089 44.0683L274.525 48.4803V170.305C274.525 174.773 271.808 179.953 268.465 181.886L118.885 268.225L118.608 272.977L113.063 269.199C111.962 268.367 111.289 266.743 111.289 264.51V139.263C111.337 134.795 114.046 129.615 117.396 127.682Z" fill="white"/>
<path d="M116.486 268.074V142.804C116.548 140.272 117.245 137.796 118.513 135.603L113.119 132.506C112.001 134.587 111.39 136.902 111.337 139.263V264.534C111.337 266.767 112.01 268.391 113.111 269.223L118.189 272.7C117.175 271.86 116.486 270.26 116.486 268.074Z" fill="#83C150"/>
<path opacity="0.3" d="M118.536 272.946L118.623 273.001C118.592 272.986 118.563 272.967 118.536 272.946Z" fill="#83C150"/>
<path d="M122.545 272.66L273.622 185.426C276.973 183.494 279.69 178.298 279.69 173.854V48.5754C279.69 44.1159 276.973 42.0643 273.622 43.9971L122.545 131.223C119.194 133.156 116.485 138.352 116.485 142.804V268.074C116.485 272.542 119.194 274.593 122.545 272.66Z" fill="#83C150"/>
<path d="M122.545 272.66L273.622 185.426C276.973 183.494 279.69 178.298 279.69 173.854V48.5754C279.69 44.1159 276.973 42.0643 273.622 43.9971L122.545 131.223C119.194 133.156 116.485 138.352 116.485 142.804V268.074C116.485 272.542 119.194 274.593 122.545 272.66Z" fill="#83C150"/>
<path opacity="0.7" d="M122.545 272.66L273.622 185.426C276.973 183.494 279.69 178.298 279.69 173.854V48.5754C279.69 44.1159 276.973 42.0643 273.622 43.9971L122.545 131.223C119.194 133.156 116.485 138.352 116.485 142.804V268.074C116.485 272.542 119.194 274.593 122.545 272.66Z" fill="white"/>
<path d="M122.545 131.223L273.622 43.9971C276.973 42.0643 279.689 44.1159 279.689 48.5754V54.6983L116.517 148.958V142.835C116.485 138.336 119.194 133.156 122.545 131.223Z" fill="#83C150"/>
<path opacity="0.5" d="M122.545 131.223L273.622 43.9971C276.973 42.0643 279.689 44.1159 279.689 48.5754V54.6983L116.517 148.958V142.835C116.485 138.336 119.194 133.156 122.545 131.223Z" fill="white"/>
<path d="M276.03 43.8149C277.923 43.8149 279.143 45.6843 279.143 48.5675V173.854C279.143 178.131 276.545 183.114 273.353 184.943L122.268 272.185C121.628 272.588 120.893 272.815 120.137 272.843C118.244 272.843 117.024 270.973 117.024 268.09V142.804C117.024 138.518 119.622 133.536 122.814 131.714L273.899 44.4644C274.54 44.0635 275.275 43.8394 276.03 43.8149ZM276.03 43.2684C275.188 43.2992 274.369 43.5505 273.654 43.9971L122.545 131.223C119.194 133.156 116.478 138.352 116.478 142.804V268.074C116.478 271.401 117.983 273.389 120.137 273.389C120.979 273.355 121.797 273.104 122.513 272.66L273.622 185.427C276.973 183.494 279.69 178.298 279.69 173.854V48.5754C279.69 45.2565 278.185 43.2684 276.03 43.2684Z" fill="#83C150"/>
<path d="M129.341 135.033C129.305 135.826 129.08 136.598 128.686 137.286C128.292 137.975 127.74 138.56 127.076 138.994C125.825 139.714 124.803 139.128 124.803 137.687C124.841 136.894 125.067 136.121 125.462 135.433C125.858 134.744 126.411 134.159 127.076 133.726C128.328 132.974 129.341 133.591 129.341 135.033Z" fill="white"/>
<path d="M137.34 130.415C137.304 131.207 137.079 131.98 136.685 132.668C136.291 133.357 135.739 133.942 135.075 134.375C133.824 135.096 132.802 134.51 132.802 133.068C132.84 132.276 133.066 131.503 133.461 130.814C133.857 130.126 134.41 129.541 135.075 129.108C136.327 128.387 137.34 129.013 137.34 130.415Z" fill="white"/>
<path d="M145.342 125.797C145.306 126.59 145.081 127.362 144.687 128.051C144.293 128.739 143.741 129.324 143.077 129.758C141.818 130.479 140.804 129.892 140.804 128.451C140.84 127.657 141.065 126.884 141.461 126.195C141.856 125.506 142.41 124.922 143.077 124.49C144.329 123.769 145.342 124.356 145.342 125.797Z" fill="white"/>
<path d="M147.923 230.093C147.817 230.096 147.712 230.12 147.614 230.164L125.626 242.838C125.37 242.984 125.158 243.195 125.01 243.449C124.863 243.704 124.785 243.993 124.786 244.288V261.658C124.786 261.732 124.802 261.805 124.834 261.872C124.864 261.945 124.91 262.011 124.968 262.064C125.027 262.117 125.096 262.158 125.171 262.182C125.247 262.206 125.326 262.213 125.405 262.204C125.483 262.194 125.559 262.167 125.626 262.126L147.614 249.452C147.868 249.306 148.08 249.096 148.227 248.843C148.374 248.59 148.453 248.303 148.454 248.01V230.64C148.454 230.497 148.399 230.361 148.3 230.259C148.201 230.157 148.066 230.097 147.923 230.093Z" fill="white"/>
<path d="M145.682 247.448L129.096 257.024L133.991 244.272L137.389 248.303L140.858 243.361L145.682 247.448Z" fill="#83C150"/>
<path opacity="0.4" d="M145.682 247.448L129.096 257.024L133.991 244.272L137.389 248.303L140.858 243.361L145.682 247.448Z" fill="white"/>
<path d="M139.923 239.495C139.896 240.021 139.744 240.532 139.481 240.988C139.219 241.443 138.851 241.83 138.41 242.117C137.579 242.6 136.897 242.204 136.897 241.238C136.927 240.714 137.079 240.204 137.342 239.75C137.605 239.296 137.971 238.91 138.41 238.624C139.25 238.141 139.923 238.529 139.923 239.495Z" fill="#83C150"/>
<path d="M177.429 213.015C177.322 213.013 177.216 213.037 177.12 213.087L155.132 225.76C154.876 225.906 154.664 226.117 154.516 226.372C154.369 226.626 154.291 226.915 154.292 227.21V244.573C154.291 244.649 154.307 244.725 154.34 244.794C154.37 244.867 154.416 244.933 154.474 244.986C154.533 245.04 154.602 245.08 154.677 245.104C154.752 245.128 154.832 245.135 154.911 245.126C154.989 245.116 155.064 245.089 155.132 245.048L177.12 232.374C177.374 232.229 177.586 232.019 177.733 231.766C177.88 231.513 177.959 231.225 177.96 230.933V213.562C177.96 213.42 177.905 213.283 177.806 213.181C177.706 213.079 177.571 213.019 177.429 213.015Z" fill="white"/>
<path d="M175.196 230.37L158.609 239.947L163.505 227.194L166.903 231.226L170.372 226.283L175.196 230.37Z" fill="#83C150"/>
<path opacity="0.4" d="M175.196 230.37L158.609 239.947L163.505 227.194L166.903 231.226L170.372 226.283L175.196 230.37Z" fill="white"/>
<path d="M168.994 223.899C169.584 222.877 169.584 221.771 168.993 221.429C168.402 221.088 167.444 221.641 166.854 222.664C166.263 223.687 166.263 224.793 166.854 225.134C167.445 225.475 168.403 224.922 168.994 223.899Z" fill="#83C150"/>
<path d="M265.615 161.98C265.507 161.978 265.401 162.002 265.306 162.052L243.317 174.725C243.063 174.873 242.853 175.084 242.707 175.339C242.561 175.593 242.485 175.881 242.485 176.175V193.538C242.486 193.613 242.499 193.688 242.525 193.759C242.555 193.832 242.601 193.898 242.66 193.951C242.718 194.005 242.787 194.045 242.863 194.069C242.938 194.093 243.017 194.101 243.096 194.091C243.174 194.081 243.25 194.055 243.317 194.013L265.314 181.339C265.567 181.192 265.778 180.98 265.924 180.726C266.07 180.472 266.146 180.183 266.145 179.89V162.527C266.146 162.456 266.134 162.386 266.107 162.32C266.081 162.254 266.043 162.195 265.993 162.144C265.944 162.093 265.885 162.052 265.82 162.024C265.755 161.996 265.685 161.981 265.615 161.98Z" fill="white"/>
<path d="M263.373 179.335L246.786 188.912L251.689 176.159L255.079 180.191L258.549 175.248L263.373 179.335Z" fill="#83C150"/>
<path opacity="0.4" d="M263.373 179.335L246.786 188.912L251.689 176.159L255.079 180.191L258.549 175.248L263.373 179.335Z" fill="white"/>
<path d="M257.623 171.382C257.593 171.906 257.441 172.416 257.178 172.87C256.915 173.324 256.549 173.71 256.11 173.996C255.27 174.48 254.597 174.091 254.597 173.125C254.624 172.6 254.776 172.088 255.039 171.633C255.301 171.177 255.668 170.79 256.11 170.503C256.941 170.02 257.623 170.416 257.623 171.382Z" fill="#83C150"/>
<path d="M206.943 195.938C206.836 195.935 206.729 195.96 206.634 196.009L184.645 208.682C184.39 208.828 184.177 209.039 184.03 209.294C183.882 209.549 183.805 209.838 183.806 210.132V227.495C183.805 227.571 183.821 227.647 183.853 227.717C183.884 227.79 183.93 227.855 183.988 227.908C184.046 227.962 184.116 228.002 184.191 228.026C184.266 228.05 184.346 228.058 184.424 228.048C184.503 228.038 184.578 228.012 184.645 227.97L206.634 215.297C206.889 215.15 207.101 214.939 207.249 214.685C207.396 214.43 207.474 214.141 207.474 213.847V196.484C207.475 196.413 207.462 196.343 207.436 196.277C207.41 196.212 207.371 196.152 207.322 196.101C207.272 196.05 207.213 196.01 207.148 195.982C207.084 195.954 207.014 195.939 206.943 195.938Z" fill="white"/>
<path d="M204.711 213.293L188.124 222.869L193.019 210.116L196.417 214.148L199.887 209.205L204.711 213.293Z" fill="#83C150"/>
<path opacity="0.4" d="M204.711 213.293L188.124 222.869L193.019 210.116L196.417 214.148L199.887 209.205L204.711 213.293Z" fill="white"/>
<path d="M198.952 205.34C198.924 205.865 198.773 206.377 198.51 206.832C198.247 207.288 197.88 207.675 197.439 207.962C196.607 208.437 195.926 208.049 195.926 207.083C195.955 206.558 196.107 206.047 196.37 205.591C196.633 205.136 196.999 204.749 197.439 204.461C198.278 203.977 198.952 204.374 198.952 205.34Z" fill="#83C150"/>
<path d="M236.458 178.915C236.351 178.916 236.245 178.941 236.149 178.987L214.16 191.66C213.905 191.807 213.693 192.018 213.545 192.272C213.398 192.527 213.32 192.816 213.32 193.11V210.481C213.319 210.555 213.336 210.628 213.368 210.694C213.399 210.767 213.445 210.832 213.503 210.886C213.561 210.939 213.63 210.98 213.705 211.005C213.78 211.029 213.859 211.038 213.938 211.029C214.016 211.021 214.092 210.996 214.16 210.956L236.149 198.282C236.403 198.135 236.614 197.923 236.761 197.669C236.908 197.415 236.987 197.126 236.988 196.833V179.43C236.979 179.294 236.919 179.166 236.821 179.071C236.723 178.976 236.594 178.921 236.458 178.915Z" fill="white"/>
<path d="M234.222 196.239L217.636 205.815L222.531 193.07L225.929 197.094L229.398 192.159L234.222 196.239Z" fill="#83C150"/>
<path opacity="0.4" d="M234.222 196.239L217.636 205.815L222.531 193.07L225.929 197.094L229.398 192.159L234.222 196.239Z" fill="white"/>
<path d="M228.463 188.286C228.436 188.811 228.284 189.323 228.021 189.778C227.759 190.234 227.392 190.621 226.95 190.908C226.119 191.391 225.438 190.995 225.438 190.036C225.467 189.511 225.619 189.001 225.882 188.545C226.145 188.09 226.511 187.703 226.95 187.415C227.79 186.931 228.463 187.319 228.463 188.286Z" fill="#83C150"/>
<path d="M241.534 90.113C241.122 90.1104 240.715 90.2054 240.346 90.3903L155.908 138.914C154.935 139.476 154.126 140.285 153.563 141.258C153 142.231 152.702 143.335 152.7 144.459V211.122C152.7 211.411 152.759 211.697 152.874 211.962C152.994 212.233 153.169 212.476 153.389 212.675C153.608 212.874 153.867 213.025 154.149 213.118C154.43 213.21 154.728 213.243 155.023 213.213C155.318 213.183 155.603 213.091 155.861 212.944L240.267 164.412C241.242 163.851 242.051 163.043 242.614 162.07C243.178 161.096 243.474 159.992 243.475 158.867V92.2121C243.476 91.6818 243.277 91.1705 242.917 90.7811C242.557 90.3917 242.063 90.1531 241.534 90.113Z" fill="white"/>
<path d="M232.923 156.729L169.254 193.49L188.066 144.546L201.088 160.016L214.404 141.053L232.923 156.729Z" fill="#83C150"/>
<path opacity="0.4" d="M232.923 156.729L169.254 193.49L188.066 144.546L201.088 160.016L214.404 141.053L232.923 156.729Z" fill="white"/>
<path d="M210.841 126.201C210.73 128.217 210.145 130.178 209.135 131.925C208.125 133.673 206.718 135.158 205.027 136.261C201.858 138.106 199.221 136.609 199.221 132.902C199.33 130.887 199.913 128.927 200.922 127.179C201.931 125.431 203.337 123.946 205.027 122.843C208.266 120.989 210.841 122.494 210.841 126.201Z" fill="#83C150"/>
<path d="M264.101 121.971C266.793 117.307 266.792 112.265 264.099 110.71C261.405 109.155 257.039 111.675 254.346 116.339C251.653 121.002 251.654 126.044 254.348 127.599C257.042 129.154 261.408 126.634 264.101 121.971Z" fill="white"/>
<path d="M256.433 121.092C256.292 121.094 256.154 121.049 256.041 120.964C255.928 120.879 255.847 120.758 255.81 120.622C255.774 120.485 255.784 120.34 255.84 120.21C255.895 120.08 255.992 119.972 256.116 119.904L261.661 116.672C261.733 116.63 261.814 116.602 261.897 116.592C261.98 116.581 262.065 116.586 262.146 116.608C262.227 116.631 262.303 116.669 262.369 116.72C262.436 116.772 262.491 116.836 262.532 116.91C262.616 117.056 262.639 117.229 262.596 117.393C262.553 117.556 262.448 117.695 262.302 117.781L256.71 121.005C256.625 121.054 256.531 121.083 256.433 121.092Z" fill="#83C150"/>
<path d="M258.613 123.73C258.502 123.73 258.393 123.703 258.296 123.651C258.151 123.565 258.045 123.425 258.002 123.262C257.959 123.099 257.982 122.926 258.066 122.779L261.155 117.425L258.296 115.777C258.224 115.735 258.16 115.679 258.11 115.613C258.059 115.546 258.022 115.47 258.001 115.389C257.979 115.308 257.974 115.224 257.985 115.141C257.997 115.058 258.024 114.978 258.066 114.906C258.108 114.834 258.164 114.77 258.231 114.72C258.297 114.669 258.373 114.632 258.454 114.611C258.535 114.589 258.619 114.584 258.702 114.595C258.785 114.607 258.865 114.634 258.937 114.676L262.343 116.641C262.487 116.728 262.592 116.867 262.637 117.029C262.66 117.109 262.667 117.194 262.656 117.277C262.645 117.36 262.617 117.44 262.573 117.512L259.167 123.413C259.111 123.51 259.03 123.591 258.933 123.646C258.835 123.702 258.725 123.731 258.613 123.73Z" fill="#83C150"/>
<path d="M143.835 185.926C143.835 190.322 140.746 195.668 136.936 197.87C133.126 200.072 130.045 198.282 130.045 193.91C130.045 189.538 133.134 184.167 136.936 181.973C140.738 179.779 143.835 181.529 143.835 185.926Z" fill="white"/>
<path d="M134.15 192.516C134.037 192.515 133.926 192.485 133.829 192.428C133.732 192.371 133.651 192.289 133.595 192.191C133.512 192.046 133.489 191.874 133.532 191.712C133.575 191.55 133.68 191.412 133.825 191.328L139.417 188.096C139.563 188.011 139.737 187.987 139.9 188.03C140.064 188.073 140.203 188.18 140.288 188.326C140.374 188.472 140.397 188.646 140.354 188.809C140.311 188.972 140.205 189.112 140.059 189.197L134.467 192.429C134.37 192.483 134.261 192.513 134.15 192.516Z" fill="#83C150"/>
<path d="M137.546 194.48C137.435 194.477 137.326 194.447 137.229 194.393L133.823 192.429C133.68 192.341 133.575 192.203 133.53 192.041C133.507 191.96 133.5 191.875 133.511 191.792C133.522 191.709 133.55 191.629 133.594 191.557L137 185.656C137.084 185.51 137.222 185.404 137.385 185.36C137.548 185.316 137.721 185.338 137.867 185.422C138.013 185.507 138.12 185.645 138.164 185.808C138.207 185.97 138.185 186.144 138.101 186.29L135.012 191.644L137.871 193.292C138.016 193.378 138.122 193.517 138.165 193.681C138.208 193.844 138.185 194.017 138.101 194.163C138.043 194.259 137.962 194.339 137.865 194.395C137.768 194.45 137.658 194.48 137.546 194.48Z" fill="#83C150"/>
<path d="M223.887 268.074V320.978C223.887 322.143 223.19 323.244 221.748 324.076L146.618 367.435C145.33 368.13 143.904 368.53 142.443 368.607C142.42 368.616 142.395 368.616 142.372 368.607V313.691L223.887 268.074Z" fill="#83C150"/>
<path opacity="0.2" d="M157.523 325.826V349.035C157.517 349.863 157.294 350.675 156.877 351.39C156.461 352.106 155.864 352.7 155.147 353.114L146.592 358.049C145.305 358.743 143.879 359.144 142.418 359.221H142.347V330.206C143.832 330.136 145.283 329.733 146.592 329.026L154.775 324.274C155.05 324.111 155.364 324.023 155.684 324.02C156.004 324.017 156.319 324.098 156.598 324.256C156.876 324.413 157.108 324.641 157.271 324.917C157.433 325.192 157.521 325.506 157.523 325.826Z" fill="black"/>
<path d="M142.443 307.861V368.647H140.146C138.093 368.517 136.095 367.936 134.293 366.944L125.999 362.192C124.154 361.13 123.14 359.815 122.989 358.492V307.861H142.443Z" fill="#83C150"/>
<path opacity="0.3" d="M142.443 307.861V368.647H140.146C138.093 368.517 136.095 367.936 134.293 366.944L125.999 362.192C124.154 361.13 123.14 359.815 122.989 358.492V307.861H142.443Z" fill="black"/>
<path d="M211.029 261.975C207.504 260.581 202.989 260.62 200.24 262.205L142.417 295.568L125.094 305.58C123.66 306.372 122.955 307.513 122.955 308.677C122.955 310.071 123.977 311.553 125.981 312.701L134.282 317.533C136.055 318.511 138.021 319.087 140.041 319.22C140.831 319.29 141.626 319.29 142.417 319.22C143.879 319.144 145.306 318.74 146.591 318.04L221.73 274.617C223.172 273.825 223.869 272.692 223.869 271.528V256.169L211.029 261.975Z" fill="#83C150"/>
<path opacity="0.7" d="M211.029 261.975C207.504 260.581 202.989 260.62 200.24 262.205L142.417 295.568L125.094 305.58C123.66 306.372 122.955 307.513 122.955 308.677C122.955 310.071 123.977 311.553 125.981 312.701L134.282 317.533C136.055 318.511 138.021 319.087 140.041 319.22C140.831 319.29 141.626 319.29 142.417 319.22C143.879 319.144 145.306 318.74 146.591 318.04L221.73 274.617C223.172 273.825 223.869 272.692 223.869 271.528V256.169L211.029 261.975Z" fill="white"/>
<path d="M142.444 292.978V319.212H140.067C138.04 319.085 136.065 318.511 134.285 317.533L125.992 312.741C123.988 311.592 122.966 310.111 122.966 308.717V292.978H142.444Z" fill="#83C150"/>
<path opacity="0.5" d="M142.444 292.978V319.212H140.067C138.04 319.085 136.065 318.511 134.285 317.533L125.992 312.741C123.988 311.592 122.966 310.111 122.966 308.717V292.978H142.444Z" fill="white"/>
<path d="M221.732 259.147L146.593 302.531C143.425 304.36 137.88 304.115 134.26 302.024L125.959 297.231C122.315 295.124 121.919 291.932 125.08 290.102L200.218 246.719C203.387 244.897 208.931 245.135 212.551 247.234L220.844 251.987C224.52 254.165 224.9 257.333 221.732 259.147Z" fill="#83C150"/>
<path opacity="0.6" d="M221.732 259.147L146.593 302.531C143.425 304.36 137.88 304.115 134.26 302.024L125.959 297.231C122.315 295.124 121.919 291.932 125.08 290.102L200.218 246.719C203.387 244.897 208.931 245.135 212.551 247.234L220.844 251.987C224.52 254.165 224.9 257.333 221.732 259.147Z" fill="white"/>
<path d="M217.454 291.536L209.762 287.069C205.065 284.193 198.499 284.51 191.219 288.708C176.961 296.946 165.381 316.986 165.381 333.47C165.381 341.034 167.821 346.524 171.836 349.462C172.495 349.948 173.201 350.364 173.943 350.706L180.051 354.294L181.548 351.783C184.969 351.343 188.262 350.2 191.219 348.425C205.477 340.187 217.065 320.147 217.065 303.671C217.115 300.605 216.624 297.553 215.616 294.657L217.454 291.536Z" fill="#83C150"/>
<path opacity="0.5" d="M217.454 291.536L209.762 287.069C205.065 284.193 198.499 284.51 191.219 288.708C176.961 296.946 165.381 316.986 165.381 333.47C165.381 341.034 167.821 346.524 171.836 349.462C172.495 349.948 173.201 350.364 173.943 350.706L180.051 354.294L181.548 351.783C184.969 351.343 188.262 350.2 191.219 348.425C205.477 340.187 217.065 320.147 217.065 303.671C217.115 300.605 216.624 297.553 215.616 294.657L217.454 291.536Z" fill="black"/>
<path d="M216.655 333.234C226.747 315.754 226.747 296.859 216.654 291.032C206.561 285.205 190.198 294.652 180.106 312.133C170.013 329.613 170.014 348.507 180.107 354.334C190.199 360.161 206.562 350.714 216.655 333.234Z" fill="#83C150"/>
<path opacity="0.2" d="M216.655 333.234C226.747 315.754 226.747 296.859 216.654 291.032C206.561 285.205 190.198 294.652 180.106 312.133C170.013 329.613 170.014 348.507 180.107 354.334C190.199 360.161 206.562 350.714 216.655 333.234Z" fill="black"/>
<path d="M220.321 301.374L214.079 297.73C210.269 295.394 204.931 295.655 199.029 299.061C187.441 305.754 178.055 322.032 178.055 335.395C178.055 341.533 180.035 345.993 183.29 348.377C183.829 348.769 184.405 349.106 185.009 349.383L189.968 352.298L191.18 350.262C193.954 349.887 196.621 348.943 199.014 347.49C210.594 340.805 219.988 324.519 219.988 311.156C220.026 308.67 219.629 306.196 218.816 303.845L220.321 301.374Z" fill="#83C150"/>
<path opacity="0.4" d="M220.321 301.374L214.079 297.73C210.269 295.394 204.931 295.655 199.029 299.061C187.441 305.754 178.055 322.032 178.055 335.395C178.055 341.533 180.035 345.993 183.29 348.377C183.829 348.769 184.405 349.106 185.009 349.383L189.968 352.298L191.18 350.262C193.954 349.887 196.621 348.943 199.014 347.49C210.594 340.805 219.988 324.519 219.988 311.156C220.026 308.67 219.629 306.196 218.816 303.845L220.321 301.374Z" fill="black"/>
<path d="M219.669 335.224C227.86 321.035 227.861 305.7 219.67 300.971C211.479 296.242 198.198 303.91 190.007 318.098C181.815 332.287 181.815 347.622 190.006 352.351C198.197 357.08 211.477 349.412 219.669 335.224Z" fill="#83C150"/>
<path opacity="0.6" d="M214.052 331.98C219.139 323.168 219.139 313.643 214.051 310.705C208.963 307.768 200.714 312.53 195.626 321.342C190.538 330.154 190.539 339.679 195.627 342.617C200.715 345.554 208.964 340.792 214.052 331.98Z" fill="black"/>
<path d="M203.877 312.226C197.454 316.479 192.329 325.343 191.861 333.034C193.382 335.173 196.21 335.577 199.45 333.699C204.305 330.895 208.266 324.075 208.266 318.467C208.266 314.721 206.491 312.479 203.877 312.226Z" fill="#83C150"/>
<path opacity="0.8" d="M203.877 312.226C197.454 316.479 192.329 325.343 191.861 333.034C193.382 335.173 196.21 335.577 199.45 333.699C204.305 330.895 208.266 324.075 208.266 318.467C208.266 314.721 206.491 312.479 203.877 312.226Z" fill="black"/>
<path d="M203.813 319.347C203.768 320.171 203.53 320.972 203.117 321.687C202.704 322.401 202.128 323.008 201.437 323.458C200.13 324.25 199.061 323.6 199.061 322.087C199.107 321.263 199.346 320.461 199.759 319.745C200.172 319.03 200.746 318.422 201.437 317.968C202.72 317.216 203.813 317.826 203.813 319.347Z" fill="#FAFAFA"/>
<path d="M148.138 332.036C148.138 332.16 148.101 332.282 148.032 332.385C147.963 332.488 147.865 332.568 147.75 332.615C147.635 332.662 147.509 332.674 147.387 332.649C147.266 332.625 147.154 332.564 147.067 332.476C146.98 332.388 146.921 332.275 146.898 332.153C146.875 332.031 146.888 331.905 146.937 331.791C146.985 331.677 147.067 331.58 147.171 331.512C147.275 331.444 147.396 331.409 147.52 331.41C147.602 331.41 147.683 331.427 147.759 331.458C147.834 331.49 147.903 331.536 147.96 331.594C148.018 331.652 148.063 331.721 148.093 331.797C148.124 331.873 148.139 331.954 148.138 332.036Z" fill="#83C150"/>
<path d="M150.958 330.325C150.958 330.449 150.921 330.571 150.852 330.674C150.782 330.777 150.684 330.857 150.569 330.904C150.455 330.951 150.328 330.963 150.207 330.938C150.085 330.913 149.974 330.853 149.887 330.765C149.799 330.676 149.74 330.564 149.717 330.442C149.694 330.32 149.707 330.194 149.756 330.08C149.805 329.966 149.886 329.869 149.99 329.801C150.094 329.733 150.216 329.698 150.34 329.699C150.422 329.699 150.503 329.716 150.578 329.747C150.653 329.779 150.722 329.825 150.779 329.883C150.837 329.941 150.882 330.01 150.913 330.086C150.943 330.162 150.959 330.243 150.958 330.325Z" fill="#83C150"/>
<path d="M153.777 328.725C153.778 328.85 153.743 328.972 153.675 329.076C153.607 329.18 153.509 329.261 153.394 329.31C153.28 329.358 153.153 329.371 153.031 329.347C152.909 329.323 152.797 329.264 152.709 329.176C152.621 329.088 152.561 328.975 152.537 328.853C152.513 328.731 152.526 328.605 152.575 328.49C152.623 328.375 152.704 328.278 152.808 328.21C152.913 328.141 153.035 328.106 153.159 328.107C153.323 328.107 153.48 328.172 153.596 328.288C153.712 328.404 153.777 328.561 153.777 328.725Z" fill="#83C150"/>
<path d="M147.519 336.218C147.86 336.218 148.137 335.942 148.137 335.601C148.137 335.259 147.86 334.983 147.519 334.983C147.178 334.983 146.901 335.259 146.901 335.601C146.901 335.942 147.178 336.218 147.519 336.218Z" fill="#83C150"/>
<path d="M150.958 333.89C150.959 334.014 150.924 334.136 150.855 334.24C150.787 334.345 150.69 334.426 150.575 334.474C150.46 334.523 150.334 334.536 150.212 334.512C150.09 334.488 149.977 334.428 149.889 334.34C149.801 334.252 149.742 334.14 149.718 334.018C149.694 333.896 149.707 333.769 149.755 333.655C149.804 333.54 149.885 333.442 149.989 333.374C150.093 333.306 150.215 333.27 150.34 333.272C150.504 333.272 150.661 333.337 150.777 333.453C150.892 333.569 150.958 333.726 150.958 333.89Z" fill="#83C150"/>
<path d="M153.777 332.298C153.777 332.422 153.74 332.543 153.671 332.646C153.602 332.749 153.504 332.829 153.389 332.877C153.274 332.924 153.148 332.936 153.026 332.911C152.905 332.886 152.793 332.826 152.706 332.737C152.619 332.649 152.56 332.537 152.536 332.415C152.513 332.293 152.527 332.167 152.575 332.053C152.624 331.939 152.705 331.841 152.809 331.774C152.913 331.706 153.035 331.67 153.159 331.672C153.241 331.672 153.322 331.688 153.397 331.72C153.473 331.751 153.541 331.798 153.599 331.856C153.656 331.914 153.702 331.983 153.732 332.059C153.763 332.135 153.778 332.216 153.777 332.298Z" fill="#83C150"/>
<path d="M147.519 339.783C147.86 339.783 148.137 339.506 148.137 339.165C148.137 338.824 147.86 338.547 147.519 338.547C147.178 338.547 146.901 338.824 146.901 339.165C146.901 339.506 147.178 339.783 147.519 339.783Z" fill="#83C150"/>
<path d="M150.339 338.072C150.68 338.072 150.956 337.795 150.956 337.454C150.956 337.113 150.68 336.836 150.339 336.836C149.997 336.836 149.721 337.113 149.721 337.454C149.721 337.795 149.997 338.072 150.339 338.072Z" fill="#83C150"/>
<path d="M153.777 335.862C153.778 335.986 153.743 336.108 153.675 336.213C153.607 336.317 153.509 336.398 153.394 336.446C153.28 336.495 153.153 336.508 153.031 336.484C152.909 336.46 152.797 336.4 152.709 336.312C152.621 336.224 152.561 336.112 152.537 335.99C152.513 335.868 152.526 335.741 152.575 335.627C152.623 335.512 152.704 335.414 152.808 335.346C152.913 335.278 153.035 335.243 153.159 335.244C153.323 335.244 153.48 335.309 153.596 335.425C153.712 335.541 153.777 335.698 153.777 335.862Z" fill="#83C150"/>
<path d="M147.519 343.355C147.86 343.355 148.137 343.079 148.137 342.737C148.137 342.396 147.86 342.12 147.519 342.12C147.178 342.12 146.901 342.396 146.901 342.737C146.901 343.079 147.178 343.355 147.519 343.355Z" fill="#83C150"/>
<path d="M150.339 341.644C150.68 341.644 150.956 341.368 150.956 341.027C150.956 340.685 150.68 340.409 150.339 340.409C149.997 340.409 149.721 340.685 149.721 341.027C149.721 341.368 149.997 341.644 150.339 341.644Z" fill="#83C150"/>
<path d="M153.777 339.426C153.778 339.551 153.743 339.673 153.675 339.777C153.607 339.881 153.509 339.962 153.394 340.011C153.28 340.059 153.153 340.072 153.031 340.048C152.909 340.024 152.797 339.965 152.709 339.877C152.621 339.789 152.561 339.676 152.537 339.554C152.513 339.432 152.526 339.306 152.575 339.191C152.623 339.076 152.704 338.979 152.808 338.911C152.913 338.842 153.035 338.807 153.159 338.808C153.323 338.808 153.48 338.874 153.596 338.989C153.712 339.105 153.777 339.262 153.777 339.426Z" fill="#83C150"/>
<path d="M148.138 346.302C148.121 346.455 148.048 346.596 147.933 346.698C147.819 346.801 147.67 346.858 147.516 346.858C147.363 346.858 147.214 346.801 147.099 346.698C146.985 346.596 146.912 346.455 146.895 346.302C146.885 346.215 146.893 346.126 146.92 346.042C146.947 345.958 146.991 345.881 147.05 345.815C147.108 345.749 147.18 345.697 147.261 345.661C147.341 345.625 147.428 345.606 147.516 345.606C147.604 345.606 147.692 345.625 147.772 345.661C147.852 345.697 147.924 345.749 147.983 345.815C148.042 345.881 148.086 345.958 148.113 346.042C148.139 346.126 148.148 346.215 148.138 346.302Z" fill="#83C150"/>
<path d="M150.339 345.209C150.68 345.209 150.956 344.932 150.956 344.591C150.956 344.25 150.68 343.973 150.339 343.973C149.997 343.973 149.721 344.25 149.721 344.591C149.721 344.932 149.997 345.209 150.339 345.209Z" fill="#83C150"/>
<path d="M153.777 342.999C153.777 343.123 153.74 343.244 153.671 343.347C153.602 343.45 153.504 343.531 153.389 343.578C153.274 343.625 153.148 343.637 153.026 343.612C152.905 343.587 152.793 343.527 152.706 343.438C152.619 343.35 152.56 343.238 152.536 343.116C152.513 342.994 152.527 342.868 152.575 342.754C152.624 342.64 152.705 342.542 152.809 342.475C152.913 342.407 153.035 342.372 153.159 342.373C153.241 342.373 153.322 342.389 153.397 342.421C153.473 342.452 153.541 342.499 153.599 342.557C153.656 342.615 153.702 342.684 153.732 342.76C153.763 342.836 153.778 342.917 153.777 342.999Z" fill="#83C150"/>
<path d="M147.519 350.484C147.86 350.484 148.137 350.208 148.137 349.866C148.137 349.525 147.86 349.249 147.519 349.249C147.178 349.249 146.901 349.525 146.901 349.866C146.901 350.208 147.178 350.484 147.519 350.484Z" fill="#83C150"/>
<path d="M150.958 348.155C150.959 348.28 150.924 348.402 150.855 348.506C150.787 348.61 150.69 348.691 150.575 348.74C150.46 348.788 150.334 348.801 150.212 348.777C150.09 348.753 149.977 348.694 149.889 348.606C149.801 348.518 149.742 348.406 149.718 348.283C149.694 348.161 149.707 348.035 149.755 347.92C149.804 347.805 149.885 347.708 149.989 347.64C150.093 347.572 150.215 347.536 150.34 347.538C150.504 347.538 150.661 347.603 150.777 347.718C150.892 347.834 150.958 347.992 150.958 348.155Z" fill="#83C150"/>
<path d="M153.777 346.563C153.778 346.688 153.743 346.81 153.675 346.914C153.607 347.018 153.509 347.099 153.394 347.148C153.28 347.196 153.153 347.209 153.031 347.185C152.909 347.161 152.797 347.102 152.709 347.014C152.621 346.926 152.561 346.813 152.537 346.691C152.513 346.569 152.526 346.443 152.575 346.328C152.623 346.213 152.704 346.116 152.808 346.048C152.913 345.98 153.035 345.944 153.159 345.946C153.323 345.946 153.48 346.011 153.596 346.126C153.712 346.242 153.777 346.399 153.777 346.563Z" fill="#83C150"/>
<path d="M147.519 354.057C147.86 354.057 148.137 353.78 148.137 353.439C148.137 353.098 147.86 352.821 147.519 352.821C147.178 352.821 146.901 353.098 146.901 353.439C146.901 353.78 147.178 354.057 147.519 354.057Z" fill="#83C150"/>
<path d="M150.958 351.728C150.958 351.852 150.921 351.973 150.852 352.076C150.782 352.179 150.684 352.259 150.569 352.307C150.455 352.354 150.328 352.366 150.207 352.341C150.085 352.316 149.974 352.256 149.887 352.167C149.799 352.079 149.74 351.967 149.717 351.845C149.694 351.723 149.707 351.597 149.756 351.483C149.805 351.369 149.886 351.271 149.99 351.204C150.094 351.136 150.216 351.1 150.34 351.102C150.422 351.102 150.503 351.118 150.578 351.15C150.653 351.181 150.722 351.227 150.779 351.286C150.837 351.344 150.882 351.413 150.913 351.489C150.943 351.565 150.959 351.646 150.958 351.728Z" fill="#83C150"/>
<path d="M153.777 350.128C153.778 350.252 153.743 350.374 153.675 350.479C153.607 350.583 153.509 350.664 153.394 350.712C153.28 350.761 153.153 350.774 153.031 350.75C152.909 350.726 152.797 350.666 152.709 350.578C152.621 350.49 152.561 350.378 152.537 350.256C152.513 350.134 152.526 350.007 152.575 349.893C152.623 349.778 152.704 349.68 152.808 349.612C152.913 349.544 153.035 349.509 153.159 349.51C153.323 349.51 153.48 349.575 153.596 349.691C153.712 349.807 153.777 349.964 153.777 350.128Z" fill="#83C150"/>
<path d="M193.406 266.094L190.88 266.482L183.41 262.165L170.586 269.571L162.665 270.775V274.126L170.697 278.759C173.073 280.13 176.661 280.28 178.721 279.092L191.981 271.433C192.358 271.263 192.684 270.997 192.927 270.662C193.17 270.327 193.322 269.935 193.367 269.524L193.406 266.094Z" fill="#83C150"/>
<path opacity="0.2" d="M193.406 266.094L190.88 266.482L183.41 262.165L170.586 269.571L162.665 270.775V274.126L170.697 278.759C173.073 280.13 176.661 280.28 178.721 279.092L191.981 271.433C192.358 271.263 192.684 270.997 192.927 270.662C193.17 270.327 193.322 269.935 193.367 269.524L193.406 266.094Z" fill="black"/>
<path d="M192.012 268.082L178.752 275.742C176.693 276.93 173.104 276.779 170.728 275.409L162.696 270.799L183.41 258.838L191.442 263.472C193.818 264.819 194.071 266.894 192.012 268.082Z" fill="#83C150"/>
<path d="M187.601 263.337L185.795 263.615L180.448 260.525L171.268 265.825L165.628 266.688V269.064L171.371 272.375C172.241 272.865 173.216 273.141 174.214 273.183C175.212 273.224 176.205 273.029 177.113 272.613L186.619 267.139C186.887 267.015 187.119 266.824 187.293 266.584C187.466 266.344 187.575 266.063 187.609 265.769L187.601 263.337Z" fill="#83C150"/>
<path opacity="0.2" d="M187.601 263.337L185.795 263.615L180.448 260.525L171.268 265.825L165.628 266.688V269.064L171.371 272.375C172.241 272.865 173.216 273.141 174.214 273.183C175.212 273.224 176.205 273.029 177.113 272.613L186.619 267.139C186.887 267.015 187.119 266.824 187.293 266.584C187.466 266.344 187.575 266.063 187.609 265.769L187.601 263.337Z" fill="black"/>
<path d="M186.602 264.763L177.097 270.237C176.189 270.652 175.195 270.848 174.197 270.806C173.199 270.765 172.225 270.488 171.354 269.999L165.611 266.688L180.447 258.125L186.19 261.444C187.893 262.426 188.075 263.908 186.602 264.763Z" fill="#83C150"/>
<path d="M151.425 290.926C151.433 290.808 151.433 290.689 151.425 290.57V285.508H134.886V290.974C134.973 292.122 135.773 293.247 137.262 294.142C139.077 295.06 141.082 295.539 143.116 295.539C145.149 295.539 147.155 295.06 148.969 294.142C150.49 293.263 151.282 292.138 151.346 290.974L151.425 290.926Z" fill="#83C150"/>
<path opacity="0.2" d="M151.425 290.926C151.433 290.808 151.433 290.689 151.425 290.57V285.508H134.886V290.974C134.973 292.122 135.773 293.247 137.262 294.142C139.077 295.06 141.082 295.539 143.116 295.539C145.149 295.539 147.155 295.06 148.969 294.142C150.49 293.263 151.282 292.138 151.346 290.974L151.425 290.926Z" fill="black"/>
<path d="M149.017 282.126C152.249 283.995 152.249 287.021 149.017 288.883C147.203 289.804 145.198 290.285 143.163 290.285C141.129 290.285 139.123 289.804 137.31 288.883C134.078 287.021 134.078 283.995 137.31 282.126C139.123 281.204 141.129 280.724 143.163 280.724C145.198 280.724 147.203 281.204 149.017 282.126Z" fill="#83C150"/>
<path d="M198.065 257.135V254.957H191.419V257.159C191.466 257.432 191.578 257.691 191.746 257.911C191.915 258.132 192.134 258.309 192.385 258.426C193.115 258.793 193.921 258.984 194.738 258.984C195.555 258.984 196.361 258.793 197.09 258.426C197.341 258.308 197.56 258.131 197.728 257.91C197.896 257.69 198.009 257.432 198.057 257.159L198.065 257.135Z" fill="#83C150"/>
<path opacity="0.2" d="M198.065 257.135V254.957H191.419V257.159C191.466 257.432 191.578 257.691 191.746 257.911C191.915 258.132 192.134 258.309 192.385 258.426C193.115 258.793 193.921 258.984 194.738 258.984C195.555 258.984 196.361 258.793 197.09 258.426C197.341 258.308 197.56 258.131 197.728 257.91C197.896 257.69 198.009 257.432 198.057 257.159L198.065 257.135Z" fill="black"/>
<path d="M197.098 253.603C198.397 254.355 198.397 255.567 197.098 256.319C196.368 256.687 195.563 256.878 194.746 256.878C193.929 256.878 193.123 256.687 192.393 256.319C191.094 255.527 191.094 254.355 192.393 253.603C193.122 253.232 193.928 253.039 194.746 253.039C195.563 253.039 196.37 253.232 197.098 253.603Z" fill="#83C150"/>
<path d="M213.059 256.541C213.067 256.444 213.067 256.346 213.059 256.248V252.098H199.506V256.581C199.599 257.14 199.827 257.667 200.171 258.117C200.515 258.567 200.964 258.926 201.478 259.163C202.965 259.917 204.608 260.309 206.274 260.309C207.941 260.309 209.584 259.917 211.071 259.163C211.583 258.925 212.03 258.565 212.372 258.115C212.715 257.665 212.942 257.139 213.035 256.581L213.059 256.541Z" fill="#83C150"/>
<path opacity="0.2" d="M213.059 256.541C213.067 256.444 213.067 256.346 213.059 256.248V252.098H199.506V256.581C199.599 257.14 199.827 257.667 200.171 258.117C200.515 258.567 200.964 258.926 201.478 259.163C202.965 259.917 204.608 260.309 206.274 260.309C207.941 260.309 209.584 259.917 211.071 259.163C211.583 258.925 212.03 258.565 212.372 258.115C212.715 257.665 212.942 257.139 213.035 256.581L213.059 256.541Z" fill="black"/>
<path d="M200.829 253.088V258.704C200.645 258.574 200.477 258.423 200.33 258.252V253.088H200.829Z" fill="#83C150"/>
<path d="M202.72 253.088V259.71C202.549 259.655 202.382 259.589 202.221 259.512V253.08L202.72 253.088Z" fill="#83C150"/>
<path d="M204.63 253.088V260.177C204.462 260.162 204.295 260.136 204.131 260.098V253.088H204.63Z" fill="#83C150"/>
<path d="M206.531 253.088V260.296H206.04V253.088H206.531Z" fill="#83C150"/>
<path d="M208.44 253.088V260.098C208.279 260.135 208.115 260.161 207.949 260.177V253.088H208.44Z" fill="#83C150"/>
<path d="M210.342 253.088V259.519C210.183 259.597 210.019 259.663 209.851 259.717V253.088H210.342Z" fill="#83C150"/>
<path d="M212.226 253.088V258.26C212.078 258.422 211.913 258.568 211.735 258.696V253.088H212.226Z" fill="#83C150"/>
<path d="M211.086 249.325C213.732 250.854 213.732 253.333 211.086 254.87C209.6 255.624 207.957 256.016 206.29 256.016C204.624 256.016 202.981 255.624 201.494 254.87C198.841 253.333 198.841 250.854 201.494 249.325C202.981 248.572 204.624 248.179 206.29 248.179C207.957 248.179 209.6 248.572 211.086 249.325Z" fill="#83C150"/>
<path opacity="0.2" d="M206.286 253.8C207.917 253.8 209.24 253.038 209.24 252.097C209.24 251.157 207.917 250.394 206.286 250.394C204.654 250.394 203.331 251.157 203.331 252.097C203.331 253.038 204.654 253.8 206.286 253.8Z" fill="black"/>
<path d="M361.728 333.153C361.728 333.153 366.409 330.539 367.003 327.608C367.597 324.678 362.449 317.969 362.449 317.969C362.449 317.969 358.607 320.171 361.728 333.153Z" fill="#83C150"/>
<path opacity="0.2" d="M361.728 333.153C361.728 333.153 366.409 330.539 367.003 327.608C367.597 324.678 362.449 317.969 362.449 317.969C362.449 317.969 358.607 320.171 361.728 333.153Z" fill="black"/>
<path d="M304.402 342.191L311.238 338.159L312.133 331.323L309.781 330.769L304.402 342.191Z" fill="#83C150"/>
<path opacity="0.3" d="M304.402 342.191L311.238 338.159L312.133 331.323L309.781 330.769L304.402 342.191Z" fill="black"/>
<path d="M344.848 302.871L351.232 313.066L355.493 327.181C355.493 327.181 363.343 326.206 358.4 308.083L354.709 297.152L344.848 302.871Z" fill="#FFA8A7"/>
<path d="M303.055 306.681L304.401 322.927L299.696 335.355C299.696 335.355 302.073 341.185 309.447 328.86C313.36 322.325 313.495 321.026 313.495 321.026L315.079 306.681H303.055Z" fill="#FFA8A7"/>
<path d="M309.147 148.467L306.77 153.22C306.736 153.289 306.716 153.364 306.713 153.441C306.71 153.518 306.724 153.595 306.753 153.666C306.783 153.738 306.827 153.802 306.883 153.855C306.939 153.908 307.006 153.948 307.079 153.972L309.931 154.923L309.147 148.467Z" fill="#F28F8F"/>
<path d="M312.473 140.499C312.473 140.499 308.861 142.479 308.861 153.711C308.861 159.897 309.289 163.834 312.505 163.596C315.721 163.359 324.965 162.139 324.965 162.139V140.499H312.473Z" fill="#FFA8A7"/>
<path d="M312.473 163.596C313.598 163.509 315.475 163.303 317.432 163.073V161.925C315.668 162.684 313.824 163.242 311.935 163.588C312.114 163.607 312.294 163.61 312.473 163.596Z" fill="#703838"/>
<path d="M316.886 161.442V168.507H326.541V158.582L316.886 161.442Z" fill="#FFA8A7"/>
<path d="M333.417 186.242L339.69 199.13L335.001 205.292L338.257 216.303L348.34 204.421C349.219 203.39 349.801 202.139 350.026 200.803C350.251 199.467 350.109 198.095 349.615 196.833C346.843 189.704 341.314 175.644 339.817 173.157C337.805 169.798 335.397 168.008 331.785 168.119C328.173 168.23 333.417 186.242 333.417 186.242Z" fill="#FFA8A7"/>
<path d="M336.442 207.431C337.899 211.803 341.076 217.95 340.941 238.624C340.854 253.072 340.988 261.199 341.076 264.763C341.104 266.044 341.607 267.269 342.486 268.201C344.014 269.785 346.636 273.207 349.1 279.67C351.303 285.382 353.176 291.217 354.708 297.144C354.708 297.144 352.91 302.974 344.846 302.863L324.703 270.442C323.892 269.146 323.371 267.69 323.174 266.173L317.875 225.903V209.435L336.442 207.431Z" fill="#37474F"/>
<path d="M322.098 258.197L327.706 238.117C327.706 238.117 335.579 230.109 332.775 216.303L320.894 231.281L321.496 254.149L322.098 258.197Z" fill="#263238"/>
<path d="M303.618 208.54C303.285 215.035 299.753 255.48 300.26 267.243C300.767 279.005 303.056 306.681 303.056 306.681C303.056 306.681 310.676 309.85 315.048 306.681C315.048 306.681 316.894 295.782 318.098 287.148C318.834 282.692 318.68 278.134 317.646 273.738C317.223 272.128 317.223 270.436 317.646 268.827L326.225 235.875C326.225 235.875 333.639 230.671 333.639 216.303V205.514L303.618 208.54Z" fill="#37474F"/>
<path d="M324.235 163.549L308.861 169.212C308.861 169.212 301.629 175.486 301.629 187.478C301.629 190.837 304.884 193.862 304.884 193.862C304.884 193.862 303.76 204.389 303.649 208.54C303.649 208.54 311.57 214.085 326.263 211.898C331.547 211.106 336.473 207.415 336.473 207.415C336.473 207.415 334.232 198.116 333.899 197.221C333.566 196.326 337.067 185.458 337.067 176.832L324.235 163.549Z" fill="#83C150"/>
<path d="M310.596 143.002C310.596 143.002 311.214 148.443 314.683 149.925C314.683 149.925 311.934 153.695 316.022 155.35V152.436L317.733 155.77C317.733 155.77 312.917 175.264 321.265 175.264C322.711 175.287 324.117 174.79 325.226 173.862C325.226 173.862 326.509 178.963 334.24 178.963C341.971 178.963 343.428 171.398 343.428 171.398C343.428 171.398 338.28 172.983 338.28 167.588C338.28 162.194 337.884 144.958 337.606 142.328C337.084 139.574 335.682 137.063 333.611 135.173C331.54 133.284 328.912 132.117 326.121 131.849C320.101 131.136 312.283 131.184 307.8 137.394C303.316 143.604 309.74 145.315 309.74 145.315C309.74 145.315 309.843 145.14 310.596 143.002Z" fill="#263238"/>
<path d="M315.99 152.435C315.99 152.435 315.729 147.683 319.412 148.047C323.642 148.467 322.295 156.111 317.139 156.111L315.99 152.435Z" fill="#F28F8F"/>
<path d="M308.862 169.212C299.46 172.198 281.583 181.648 281.583 181.648L265.226 167.2L259.087 173.806C264.149 180.584 269.91 186.81 276.275 192.381C277.29 193.275 278.533 193.87 279.865 194.101C281.198 194.332 282.568 194.189 283.824 193.688C287.103 192.381 291.745 190.567 295.215 189.268C301.266 187.027 314.035 183.89 314.035 176.943C314.035 169.996 308.862 169.212 308.862 169.212Z" fill="#FFA8A7"/>
<path d="M313.497 321.026C312.323 321.217 311.21 321.681 310.247 322.38C309.284 323.079 308.499 323.993 307.953 325.05C306.155 328.638 302.796 338.722 299.659 335.347L300.721 332.535C300.721 332.535 288.19 335.284 291.216 338.563C294.241 341.843 303.62 343.316 304.404 342.183C305.188 341.05 309.45 332.995 309.45 332.995L311.826 343.751C312.168 344.049 312.605 344.212 313.058 344.212C313.51 344.212 313.948 344.049 314.289 343.751C314.289 343.751 317.331 323.157 313.497 321.026Z" fill="#83C150"/>
<path d="M355.493 327.181C355.493 327.181 358.4 325.945 357.957 322.143C357.513 318.341 354.598 310.745 358.4 308.083C360.088 306.903 363.834 312.044 367.003 318.222C370.171 324.4 371.066 326.143 371.066 326.143C371.066 326.143 370.71 327.783 369.268 327.727L362.321 320.559C361.872 322.748 361.951 325.012 362.551 327.165C363.557 330.523 363.692 332.48 360.032 334.112C356.373 335.743 346.352 337.969 351.707 331.197C354.369 327.83 355.493 327.181 355.493 327.181Z" fill="#83C150"/>
<path d="M265.352 168.151C265.736 165.87 266.265 163.616 266.936 161.402C267.673 159.501 267.998 157.885 266.192 158.606C264.386 159.327 262.96 162.567 262.833 162.978C262.833 162.978 253.653 152.111 252.385 152.222C251.118 152.333 251.284 153.877 253.724 157.196L256.156 160.523C256.156 160.523 249.732 163.557 250.421 167.485C251.11 171.414 259.047 173.822 259.047 173.822L265.352 168.151Z" fill="#FFA8A7"/>
</svg>
