<svg width="386" height="316" viewBox="0 0 386 316" fill="none" xmlns="http://www.w3.org/2000/svg">
<g id="illustration 3">
<g id="illustration">
<g clip-path="url(#clip0_996_13959)">
<path d="M0 76C0 58.3269 14.3269 44 32 44H354C371.673 44 386 58.3269 386 76V316H0V76Z" fill="white"/>
<g id="Group 480">
<g id="Group 479">
<g id="circule">
<path id="Ellipse 181" d="M276 161C276 175.359 264.359 187 250 187C235.641 187 224 175.359 224 161C224 146.641 235.641 135 250 135C264.359 135 276 146.641 276 161ZM228.793 161C228.793 172.712 238.288 182.207 250 182.207C261.712 182.207 271.207 172.712 271.207 161C271.207 149.288 261.712 139.793 250 139.793C238.288 139.793 228.793 149.288 228.793 161Z" fill="#569F29"/>
<path id="Ellipse 182" d="M250 135C245.098 135 240.297 136.386 236.148 138.997C232 141.608 228.675 145.339 226.556 149.759C224.436 154.179 223.61 159.108 224.171 163.977C224.732 168.847 226.659 173.458 229.728 177.28C232.797 181.102 236.884 183.978 241.518 185.577C246.151 187.177 251.142 187.433 255.915 186.318C260.688 185.203 265.049 182.761 268.494 179.275C271.939 175.788 274.329 171.398 275.387 166.612L270.707 165.578C269.844 169.481 267.895 173.062 265.085 175.905C262.275 178.749 258.718 180.741 254.825 181.65C250.932 182.56 246.861 182.351 243.081 181.046C239.302 179.742 235.969 177.396 233.465 174.279C230.962 171.161 229.391 167.4 228.933 163.428C228.475 159.457 229.149 155.436 230.878 151.831C232.606 148.226 235.319 145.183 238.702 143.054C242.085 140.924 246.002 139.793 250 139.793V135Z" fill="#9CD365"/>
<path id="65%" d="M241.707 164.132C243.324 164.132 244.567 163.043 244.567 161.514C244.567 159.952 243.368 159.072 241.872 159.072C240.97 159.072 240.442 159.446 240.035 159.842C240.101 158.434 240.739 157.4 241.883 157.4C242.554 157.4 243.016 157.653 243.555 158.071L244.281 157.026C243.61 156.487 242.928 156.168 241.927 156.168C239.749 156.168 238.627 158.005 238.627 160.359C238.627 161.932 238.979 162.735 239.573 163.329C240.079 163.835 240.761 164.132 241.707 164.132ZM241.674 162.966C240.706 162.966 240.079 162.361 240.079 161.58C240.079 160.821 240.684 160.205 241.641 160.205C242.598 160.205 243.214 160.777 243.214 161.547C243.214 162.361 242.631 162.966 241.674 162.966ZM248.563 164.132C250.268 164.132 251.412 163.098 251.412 161.525C251.412 159.875 250.235 159.083 248.739 159.083C248.222 159.083 247.881 159.171 247.518 159.303L247.639 157.499H251.071V156.3H246.473L246.253 160.073L247.067 160.612C247.463 160.425 247.936 160.271 248.486 160.271C249.421 160.271 250.081 160.766 250.081 161.547C250.081 162.372 249.476 162.9 248.552 162.9C247.837 162.9 247.188 162.548 246.572 161.976L245.736 162.955C246.462 163.659 247.386 164.132 248.563 164.132ZM254.394 160.15C255.483 160.15 256.22 159.248 256.22 158.181C256.22 157.103 255.494 156.212 254.416 156.212C253.327 156.212 252.59 157.114 252.59 158.181C252.59 159.259 253.316 160.15 254.394 160.15ZM253.371 164H254.46L260.092 156.3H259.003L253.371 164ZM259.047 164.088C260.136 164.088 260.873 163.186 260.873 162.119C260.873 161.041 260.147 160.15 259.069 160.15C257.98 160.15 257.243 161.052 257.243 162.119C257.243 163.197 257.969 164.088 259.047 164.088ZM254.416 159.303C253.921 159.303 253.569 158.808 253.569 158.181C253.569 157.565 253.877 157.059 254.394 157.059C254.889 157.059 255.241 157.565 255.241 158.181C255.241 158.797 254.933 159.303 254.416 159.303ZM259.069 163.241C258.574 163.241 258.222 162.746 258.222 162.119C258.222 161.503 258.53 160.997 259.047 160.997C259.542 160.997 259.894 161.503 259.894 162.119C259.894 162.735 259.586 163.241 259.069 163.241Z" fill="#F4F5F6"/>
</g>
<g id="circule_2">
<path id="Ellipse 181_2" d="M290 161C290 166.142 291.525 171.169 294.382 175.445C297.239 179.721 301.299 183.053 306.05 185.021C310.801 186.989 316.029 187.504 321.072 186.5C326.116 185.497 330.749 183.021 334.385 179.385C338.021 175.749 340.497 171.116 341.5 166.072C342.504 161.029 341.989 155.801 340.021 151.05C338.053 146.299 334.721 142.239 330.445 139.382C326.169 136.525 321.142 135 316 135V139.793C320.194 139.793 324.294 141.037 327.782 143.367C331.269 145.698 333.987 149.01 335.592 152.885C337.197 156.76 337.617 161.024 336.799 165.137C335.981 169.251 333.961 173.03 330.995 175.995C328.03 178.961 324.251 180.981 320.137 181.799C316.024 182.617 311.76 182.197 307.885 180.592C304.01 178.987 300.698 176.269 298.367 172.782C296.037 169.294 294.793 165.194 294.793 161H290Z" fill="#569F29"/>
<path id="Ellipse 182_2" d="M316 135C312.586 135 309.205 135.673 306.05 136.979C302.896 138.286 300.03 140.201 297.615 142.615C295.201 145.03 293.286 147.896 291.979 151.05C290.673 154.205 290 157.586 290 161H294.793C294.793 158.215 295.342 155.457 296.408 152.885C297.473 150.312 299.035 147.974 301.005 146.005C302.974 144.035 305.312 142.473 307.885 141.408C310.457 140.342 313.215 139.793 316 139.793V135Z" fill="#9CD365"/>
<path id="25%" d="M304.539 164H310.105V162.812H306.442L308.026 161.492C309.379 160.37 310.028 159.721 310.028 158.511C310.028 157.114 308.994 156.19 307.487 156.19C306.112 156.19 305.386 156.773 304.649 157.807L305.606 158.555C306.2 157.785 306.684 157.4 307.388 157.4C308.092 157.4 308.631 157.84 308.631 158.599C308.631 159.292 308.246 159.787 307.19 160.678L304.539 162.933V164ZM314.09 164.132C315.795 164.132 316.939 163.098 316.939 161.525C316.939 159.875 315.762 159.083 314.266 159.083C313.749 159.083 313.408 159.171 313.045 159.303L313.166 157.499H316.598V156.3H312L311.78 160.073L312.594 160.612C312.99 160.425 313.463 160.271 314.013 160.271C314.948 160.271 315.608 160.766 315.608 161.547C315.608 162.372 315.003 162.9 314.079 162.9C313.364 162.9 312.715 162.548 312.099 161.976L311.263 162.955C311.989 163.659 312.913 164.132 314.09 164.132ZM319.921 160.15C321.01 160.15 321.747 159.248 321.747 158.181C321.747 157.103 321.021 156.212 319.943 156.212C318.854 156.212 318.117 157.114 318.117 158.181C318.117 159.259 318.843 160.15 319.921 160.15ZM318.898 164H319.987L325.619 156.3H324.53L318.898 164ZM324.574 164.088C325.663 164.088 326.4 163.186 326.4 162.119C326.4 161.041 325.674 160.15 324.596 160.15C323.507 160.15 322.77 161.052 322.77 162.119C322.77 163.197 323.496 164.088 324.574 164.088ZM319.943 159.303C319.448 159.303 319.096 158.808 319.096 158.181C319.096 157.565 319.404 157.059 319.921 157.059C320.416 157.059 320.768 157.565 320.768 158.181C320.768 158.797 320.46 159.303 319.943 159.303ZM324.596 163.241C324.101 163.241 323.749 162.746 323.749 162.119C323.749 161.503 324.057 160.997 324.574 160.997C325.069 160.997 325.421 161.503 325.421 162.119C325.421 162.735 325.113 163.241 324.596 163.241Z" fill="#F4F5F6"/>
</g>
<rect id="Rectangle 313" x="206" y="108" width="156" height="92" rx="16" fill="#F4F5F6"/>
<g id="graf">
<rect x="24" y="108" width="168" height="92" rx="16" fill="#F4F5F6"/>
<g id="lines">
<rect id="Rectangle 304" x="40" y="142" width="8" height="46" rx="4" fill="#9CD365"/>
<rect id="Rectangle 306" x="56" y="136" width="8" height="52" rx="4" fill="#9CD365"/>
<rect id="Rectangle 307" x="72" y="146" width="8" height="42" rx="4" fill="#9CD365"/>
<rect id="Rectangle 308" x="88" y="120" width="8" height="68" rx="4" fill="#9CD365"/>
<rect id="Rectangle 310" x="104" y="160" width="8" height="28" rx="4" fill="#9CD365"/>
<rect id="Rectangle 309" x="120" y="126" width="8" height="62" rx="4" fill="#9CD365"/>
<rect id="Rectangle 311" x="136" y="153" width="8" height="35" rx="4" fill="#9CD365"/>
<rect id="Rectangle 312" x="152" y="136" width="8" height="52" rx="4" fill="#9CD365"/>
<rect id="Rectangle 305" x="168" y="151" width="8" height="37" rx="4" fill="#9CD365"/>
</g>
</g>
</g>
</g>
<rect id="Rectangle 314" x="24" y="214" width="338" height="111" rx="16" fill="#F4F5F6"/>
<g id="Group 482">
<path id="Ellipse 181_3" d="M277 154C277 168.359 265.359 180 251 180C236.641 180 225 168.359 225 154C225 139.641 236.641 128 251 128C265.359 128 277 139.641 277 154ZM229.793 154C229.793 165.712 239.288 175.207 251 175.207C262.712 175.207 272.207 165.712 272.207 154C272.207 142.288 262.712 132.793 251 132.793C239.288 132.793 229.793 142.288 229.793 154Z" fill="#9CD365"/>
<path id="Ellipse 182_3" d="M251 128C245.858 128 240.831 129.525 236.555 132.382C232.279 135.239 228.947 139.299 226.979 144.05C225.011 148.801 224.496 154.029 225.5 159.072C226.503 164.116 228.979 168.749 232.615 172.385C236.251 176.021 240.884 178.497 245.928 179.5C250.971 180.504 256.199 179.989 260.95 178.021C265.701 176.053 269.761 172.721 272.618 168.445C275.475 164.169 277 159.142 277 154H272.207C272.207 158.194 270.963 162.294 268.633 165.782C266.302 169.269 262.99 171.987 259.115 173.592C255.24 175.197 250.976 175.617 246.863 174.799C242.749 173.981 238.97 171.961 236.005 168.995C233.039 166.03 231.019 162.251 230.201 158.137C229.383 154.024 229.803 149.76 231.408 145.885C233.013 142.01 235.731 138.698 239.218 136.367C242.706 134.037 246.806 132.793 251 132.793V128Z" fill="white"/>
<path id="65%_2" d="M242.663 157.132C241.739 157.132 241.009 156.828 240.474 156.219C239.939 155.61 239.671 154.653 239.671 153.348C239.671 152.145 239.957 151.148 240.529 150.356C241.108 149.564 241.889 149.168 242.872 149.168C243.671 149.168 244.43 149.461 245.149 150.048L244.643 150.719C244.042 150.213 243.437 149.96 242.828 149.96C242.146 149.96 241.6 150.272 241.189 150.895C240.778 151.518 240.573 152.329 240.573 153.326V153.359C241.108 152.574 241.838 152.182 242.762 152.182C243.503 152.182 244.13 152.402 244.643 152.842C245.164 153.282 245.424 153.858 245.424 154.569C245.424 155.31 245.16 155.922 244.632 156.406C244.104 156.89 243.448 157.132 242.663 157.132ZM242.674 156.362C243.231 156.362 243.679 156.193 244.016 155.856C244.361 155.519 244.533 155.093 244.533 154.58C244.533 154.103 244.357 153.711 244.005 153.403C243.653 153.088 243.202 152.93 242.652 152.93C242.095 152.93 241.633 153.102 241.266 153.447C240.907 153.784 240.727 154.18 240.727 154.635C240.727 155.126 240.91 155.537 241.277 155.867C241.644 156.197 242.109 156.362 242.674 156.362ZM249.455 157.132C248.436 157.132 247.519 156.725 246.705 155.911L247.277 155.284C248.003 155.988 248.733 156.34 249.466 156.34C250.016 156.34 250.463 156.179 250.808 155.856C251.153 155.533 251.325 155.119 251.325 154.613C251.325 154.136 251.145 153.748 250.786 153.447C250.434 153.146 249.976 152.996 249.411 152.996C248.883 152.996 248.344 153.143 247.794 153.436L247.211 153.051L247.431 149.3H251.864V150.103H248.19L248.025 152.567C248.546 152.34 249.052 152.226 249.543 152.226C250.313 152.226 250.947 152.442 251.446 152.875C251.952 153.3 252.205 153.876 252.205 154.602C252.205 155.35 251.948 155.959 251.435 156.428C250.922 156.897 250.262 157.132 249.455 157.132ZM256.421 152.567C256.091 152.956 255.673 153.15 255.167 153.15C254.661 153.15 254.243 152.959 253.913 152.578C253.591 152.189 253.429 151.724 253.429 151.181C253.429 150.646 253.594 150.184 253.924 149.795C254.254 149.406 254.676 149.212 255.189 149.212C255.695 149.212 256.11 149.406 256.432 149.795C256.755 150.176 256.916 150.638 256.916 151.181C256.916 151.716 256.751 152.178 256.421 152.567ZM254.221 157L259.875 149.3H260.656L255.013 157H254.221ZM259.699 157.088C259.193 157.088 258.779 156.897 258.456 156.516C258.134 156.127 257.972 155.662 257.972 155.119C257.972 154.584 258.137 154.122 258.467 153.733C258.797 153.344 259.215 153.15 259.721 153.15C260.227 153.15 260.642 153.344 260.964 153.733C261.287 154.114 261.448 154.576 261.448 155.119C261.448 155.662 261.283 156.127 260.953 156.516C260.631 156.897 260.213 157.088 259.699 157.088ZM255.189 152.534C255.483 152.534 255.721 152.406 255.904 152.149C256.095 151.885 256.19 151.562 256.19 151.181C256.19 150.8 256.091 150.481 255.893 150.224C255.695 149.96 255.453 149.828 255.167 149.828C254.874 149.828 254.632 149.96 254.441 150.224C254.258 150.481 254.166 150.8 254.166 151.181C254.166 151.562 254.265 151.885 254.463 152.149C254.661 152.406 254.903 152.534 255.189 152.534ZM259.721 156.472C260.022 156.472 260.264 156.344 260.447 156.087C260.631 155.83 260.722 155.508 260.722 155.119C260.722 154.738 260.623 154.419 260.425 154.162C260.227 153.898 259.985 153.766 259.699 153.766C259.406 153.766 259.164 153.898 258.973 154.162C258.79 154.419 258.698 154.738 258.698 155.119C258.698 155.5 258.797 155.823 258.995 156.087C259.193 156.344 259.435 156.472 259.721 156.472Z" fill="#A1A1A1"/>
<circle id="Ellipse 209" cx="274.5" cy="154.5" r="2.5" fill="#FEFEFE"/>
<circle id="Ellipse 210" cx="250.5" cy="130.5" r="2.5" fill="#FEFEFE"/>
</g>
<g id="Group 481">
<path id="Ellipse 181_4" d="M291 154C291 159.142 292.525 164.169 295.382 168.445C298.239 172.721 302.299 176.053 307.05 178.021C311.801 179.989 317.029 180.504 322.072 179.5C327.116 178.497 331.749 176.021 335.385 172.385C339.021 168.749 341.497 164.116 342.5 159.072C343.504 154.029 342.989 148.801 341.021 144.05C339.053 139.299 335.721 135.239 331.445 132.382C327.169 129.525 322.142 128 317 128V132.793C321.194 132.793 325.294 134.037 328.782 136.367C332.269 138.698 334.987 142.01 336.592 145.885C338.197 149.76 338.617 154.024 337.799 158.137C336.981 162.251 334.961 166.03 331.995 168.995C329.03 171.961 325.251 173.981 321.137 174.799C317.024 175.617 312.76 175.197 308.885 173.592C305.01 171.987 301.698 169.269 299.367 165.782C297.037 162.294 295.793 158.194 295.793 154H291Z" fill="#9CD365"/>
<path id="Ellipse 182_4" d="M317 128C313.586 128 310.205 128.673 307.05 129.979C303.896 131.286 301.03 133.201 298.615 135.615C296.201 138.03 294.286 140.896 292.979 144.05C291.673 147.205 291 150.586 291 154H295.793C295.793 151.215 296.342 148.457 297.408 145.885C298.473 143.312 300.035 140.974 302.005 139.005C303.974 137.035 306.312 135.473 308.885 134.408C311.457 133.342 314.215 132.793 317 132.793V128Z" fill="white"/>
<path id="25%_2" d="M305.528 157V156.329L308.322 153.865C308.923 153.337 309.341 152.897 309.576 152.545C309.811 152.193 309.928 151.826 309.928 151.445C309.928 151.005 309.778 150.649 309.477 150.378C309.176 150.107 308.81 149.971 308.377 149.971C307.959 149.971 307.589 150.077 307.266 150.29C306.951 150.503 306.632 150.836 306.309 151.291L305.671 150.829C306.045 150.272 306.441 149.861 306.859 149.597C307.277 149.326 307.805 149.19 308.443 149.19C309.132 149.19 309.701 149.399 310.148 149.817C310.603 150.228 310.83 150.752 310.83 151.39C310.83 151.918 310.687 152.387 310.401 152.798C310.115 153.209 309.609 153.737 308.883 154.382L306.826 156.208H310.907V157H305.528ZM314.918 157.132C313.899 157.132 312.982 156.725 312.168 155.911L312.74 155.284C313.466 155.988 314.196 156.34 314.929 156.34C315.479 156.34 315.926 156.179 316.271 155.856C316.616 155.533 316.788 155.119 316.788 154.613C316.788 154.136 316.608 153.748 316.249 153.447C315.897 153.146 315.439 152.996 314.874 152.996C314.346 152.996 313.807 153.143 313.257 153.436L312.674 153.051L312.894 149.3H317.327V150.103H313.653L313.488 152.567C314.009 152.34 314.515 152.226 315.006 152.226C315.776 152.226 316.41 152.442 316.909 152.875C317.415 153.3 317.668 153.876 317.668 154.602C317.668 155.35 317.411 155.959 316.898 156.428C316.385 156.897 315.725 157.132 314.918 157.132ZM321.884 152.567C321.554 152.956 321.136 153.15 320.63 153.15C320.124 153.15 319.706 152.959 319.376 152.578C319.054 152.189 318.892 151.724 318.892 151.181C318.892 150.646 319.057 150.184 319.387 149.795C319.717 149.406 320.139 149.212 320.652 149.212C321.158 149.212 321.573 149.406 321.895 149.795C322.218 150.176 322.379 150.638 322.379 151.181C322.379 151.716 322.214 152.178 321.884 152.567ZM319.684 157L325.338 149.3H326.119L320.476 157H319.684ZM325.162 157.088C324.656 157.088 324.242 156.897 323.919 156.516C323.597 156.127 323.435 155.662 323.435 155.119C323.435 154.584 323.6 154.122 323.93 153.733C324.26 153.344 324.678 153.15 325.184 153.15C325.69 153.15 326.105 153.344 326.427 153.733C326.75 154.114 326.911 154.576 326.911 155.119C326.911 155.662 326.746 156.127 326.416 156.516C326.094 156.897 325.676 157.088 325.162 157.088ZM320.652 152.534C320.946 152.534 321.184 152.406 321.367 152.149C321.558 151.885 321.653 151.562 321.653 151.181C321.653 150.8 321.554 150.481 321.356 150.224C321.158 149.96 320.916 149.828 320.63 149.828C320.337 149.828 320.095 149.96 319.904 150.224C319.721 150.481 319.629 150.8 319.629 151.181C319.629 151.562 319.728 151.885 319.926 152.149C320.124 152.406 320.366 152.534 320.652 152.534ZM325.184 156.472C325.485 156.472 325.727 156.344 325.91 156.087C326.094 155.83 326.185 155.508 326.185 155.119C326.185 154.738 326.086 154.419 325.888 154.162C325.69 153.898 325.448 153.766 325.162 153.766C324.869 153.766 324.627 153.898 324.436 154.162C324.253 154.419 324.161 154.738 324.161 155.119C324.161 155.5 324.26 155.823 324.458 156.087C324.656 156.344 324.898 156.472 325.184 156.472Z" fill="#A1A1A1"/>
<circle id="Ellipse 211" cx="293.5" cy="154.5" r="2.5" fill="#FEFEFE"/>
<circle id="Ellipse 212" cx="317.5" cy="130.5" r="2.5" fill="#FEFEFE"/>
</g>
<path id="&#208;&#158;&#209;&#130;&#208;&#179;&#209;&#128;&#209;&#131;&#208;&#183;&#208;&#186;&#208;&#176;" d="M50.491 243.966C49.7503 244.743 48.808 245.132 47.664 245.132C46.52 245.132 45.5813 244.743 44.848 243.966C44.1147 243.189 43.748 242.25 43.748 241.15C43.748 240.057 44.1183 239.122 44.859 238.345C45.5997 237.56 46.542 237.168 47.686 237.168C48.83 237.168 49.7687 237.557 50.502 238.334C51.2353 239.111 51.602 240.05 51.602 241.15C51.602 242.243 51.2317 243.181 50.491 243.966ZM45.508 243.405C46.0873 244.021 46.8133 244.329 47.686 244.329C48.5587 244.329 49.2773 244.025 49.842 243.416C50.414 242.8 50.7 242.045 50.7 241.15C50.7 240.263 50.4103 239.511 49.831 238.895C49.259 238.279 48.5367 237.971 47.664 237.971C46.7913 237.971 46.069 238.279 45.497 238.895C44.9323 239.504 44.65 240.255 44.65 241.15C44.65 242.037 44.936 242.789 45.508 243.405ZM54.6667 245V240.061H52.6317V239.313H57.5597V240.061H55.5247V245H54.6667ZM58.7917 245V239.313H62.6527V240.061H59.6387V245H58.7917ZM63.8835 246.76V239.313H64.7305V240.457C65.3025 239.614 66.0285 239.192 66.9085 239.192C67.6345 239.192 68.2688 239.463 68.8115 240.006C69.3542 240.541 69.6255 241.26 69.6255 242.162C69.6255 243.049 69.3542 243.764 68.8115 244.307C68.2688 244.85 67.6345 245.121 66.9085 245.121C66.0138 245.121 65.2878 244.718 64.7305 243.911V246.76H63.8835ZM66.7545 244.362C67.3265 244.362 67.8032 244.164 68.1845 243.768C68.5658 243.365 68.7565 242.826 68.7565 242.151C68.7565 241.498 68.5622 240.97 68.1735 240.567C67.7848 240.156 67.3118 239.951 66.7545 239.951C66.2045 239.951 65.7242 240.16 65.3135 240.578C64.9028 240.996 64.6975 241.524 64.6975 242.162C64.6975 242.8 64.9028 243.328 65.3135 243.746C65.7242 244.157 66.2045 244.362 66.7545 244.362ZM72.0682 246.793C71.6575 246.793 71.2542 246.698 70.8582 246.507L71.1442 245.836C71.4155 245.975 71.7125 246.045 72.0352 246.045C72.2919 246.045 72.5082 245.964 72.6842 245.803C72.8602 245.649 73.0325 245.374 73.2012 244.978L70.6162 239.313H71.5512L73.6192 244.054L75.4452 239.313H76.3472L73.9602 245.187C73.7182 245.766 73.4505 246.177 73.1572 246.419C72.8639 246.668 72.5009 246.793 72.0682 246.793ZM79.4912 245.132C78.6185 245.132 77.8339 244.85 77.1372 244.285L77.5662 243.658C78.1455 244.149 78.7799 244.395 79.4692 244.395C79.8579 244.395 80.1879 244.307 80.4592 244.131C80.7379 243.948 80.8772 243.698 80.8772 243.383C80.8772 243.09 80.7525 242.862 80.5032 242.701C80.2539 242.532 79.9019 242.448 79.4472 242.448H78.6882V241.755H79.4582C79.8322 241.755 80.1365 241.667 80.3712 241.491C80.6059 241.308 80.7232 241.069 80.7232 240.776C80.7232 240.519 80.6059 240.314 80.3712 240.16C80.1439 240.006 79.8505 239.929 79.4912 239.929C78.8165 239.929 78.2409 240.12 77.7642 240.501L77.3462 239.907C77.9622 239.43 78.6955 239.192 79.5462 239.192C80.1769 239.192 80.6755 239.335 81.0422 239.621C81.4162 239.9 81.6032 240.263 81.6032 240.71C81.6032 241.333 81.2989 241.77 80.6902 242.019C81.3942 242.268 81.7462 242.734 81.7462 243.416C81.7462 243.893 81.5409 244.3 81.1302 244.637C80.7195 244.967 80.1732 245.132 79.4912 245.132ZM83.3161 245V239.313H84.1631V242.591L87.2761 239.313H88.3211L85.9451 241.777L88.3871 245H87.3861L85.3621 242.393L84.1631 243.625V245H83.3161ZM91.2513 245.121C90.672 245.121 90.1733 244.963 89.7553 244.648C89.3373 244.333 89.1283 243.893 89.1283 243.328C89.1283 242.734 89.3483 242.276 89.7883 241.953C90.2283 241.63 90.8187 241.469 91.5593 241.469C92.146 241.469 92.7253 241.55 93.2973 241.711V241.535C93.2973 241.036 93.1507 240.655 92.8573 240.391C92.564 240.127 92.1497 239.995 91.6143 239.995C91.057 239.995 90.4813 240.131 89.8873 240.402L89.6343 239.709C90.3383 239.386 91.0277 239.225 91.7023 239.225C92.509 239.225 93.1213 239.434 93.5393 239.852C93.9353 240.248 94.1333 240.805 94.1333 241.524V245H93.2973V244.153C92.7913 244.798 92.1093 245.121 91.2513 245.121ZM91.4163 244.439C91.9443 244.439 92.3917 244.296 92.7583 244.01C93.125 243.724 93.3083 243.357 93.3083 242.91V242.382C92.751 242.221 92.1973 242.14 91.6473 242.14C91.1267 242.14 90.7197 242.246 90.4263 242.459C90.133 242.664 89.9863 242.947 89.9863 243.306C89.9863 243.651 90.122 243.926 90.3933 244.131C90.672 244.336 91.013 244.439 91.4163 244.439Z" fill="#686868"/>
<path id="&#208;&#163;&#208;&#191;&#208;&#176;&#208;&#186;&#208;&#190;&#208;&#178;&#208;&#186;&#208;&#176;" d="M133.222 245.132C132.767 245.132 132.335 245.026 131.924 244.813L132.265 244.12C132.551 244.274 132.877 244.351 133.244 244.351C133.867 244.351 134.381 243.966 134.784 243.196L131.396 237.3H132.386L135.224 242.327L137.677 237.3H138.623L135.576 243.383C134.997 244.549 134.212 245.132 133.222 245.132ZM139.96 245V239.313H144.888V245H144.041V240.061H140.807V245H139.96ZM148.475 245.121C147.896 245.121 147.397 244.963 146.979 244.648C146.561 244.333 146.352 243.893 146.352 243.328C146.352 242.734 146.572 242.276 147.012 241.953C147.452 241.63 148.042 241.469 148.783 241.469C149.37 241.469 149.949 241.55 150.521 241.711V241.535C150.521 241.036 150.374 240.655 150.081 240.391C149.788 240.127 149.373 239.995 148.838 239.995C148.281 239.995 147.705 240.131 147.111 240.402L146.858 239.709C147.562 239.386 148.251 239.225 148.926 239.225C149.733 239.225 150.345 239.434 150.763 239.852C151.159 240.248 151.357 240.805 151.357 241.524V245H150.521V244.153C150.015 244.798 149.333 245.121 148.475 245.121ZM148.64 244.439C149.168 244.439 149.615 244.296 149.982 244.01C150.349 243.724 150.532 243.357 150.532 242.91V242.382C149.975 242.221 149.421 242.14 148.871 242.14C148.35 242.14 147.943 242.246 147.65 242.459C147.357 242.664 147.21 242.947 147.21 243.306C147.21 243.651 147.346 243.926 147.617 244.131C147.896 244.336 148.237 244.439 148.64 244.439ZM153.151 245V239.313H153.998V242.591L157.111 239.313H158.156L155.78 241.777L158.222 245H157.221L155.197 242.393L153.998 243.625V245H153.151ZM164.111 244.263C163.539 244.842 162.832 245.132 161.988 245.132C161.145 245.132 160.441 244.842 159.876 244.263C159.319 243.684 159.04 242.983 159.04 242.162C159.04 241.348 159.323 240.651 159.887 240.072C160.459 239.485 161.167 239.192 162.01 239.192C162.854 239.192 163.558 239.482 164.122 240.061C164.687 240.64 164.969 241.341 164.969 242.162C164.969 242.976 164.683 243.676 164.111 244.263ZM162.01 244.373C162.619 244.373 163.118 244.16 163.506 243.735C163.902 243.31 164.1 242.785 164.1 242.162C164.1 241.546 163.895 241.022 163.484 240.589C163.081 240.156 162.582 239.94 161.988 239.94C161.38 239.94 160.881 240.156 160.492 240.589C160.104 241.014 159.909 241.539 159.909 242.162C159.909 242.778 160.111 243.302 160.514 243.735C160.918 244.16 161.416 244.373 162.01 244.373ZM166.504 245V239.313H169.254C169.818 239.313 170.269 239.441 170.607 239.698C170.944 239.955 171.113 240.299 171.113 240.732C171.113 241.341 170.797 241.777 170.167 242.041C171.003 242.268 171.421 242.738 171.421 243.449C171.421 243.926 171.234 244.303 170.86 244.582C170.486 244.861 169.983 245 169.353 245H166.504ZM167.351 244.274H169.243C169.646 244.274 169.965 244.19 170.2 244.021C170.434 243.852 170.552 243.618 170.552 243.317C170.552 243.038 170.427 242.822 170.178 242.668C169.936 242.514 169.587 242.437 169.133 242.437H167.351V244.274ZM167.351 241.755H169.1C169.452 241.755 169.73 241.678 169.936 241.524C170.148 241.363 170.255 241.135 170.255 240.842C170.255 240.6 170.156 240.406 169.958 240.259C169.76 240.112 169.481 240.039 169.122 240.039H167.351V241.755ZM172.949 245V239.313H173.796V242.591L176.909 239.313H177.954L175.578 241.777L178.02 245H177.019L174.995 242.393L173.796 243.625V245H172.949ZM180.884 245.121C180.305 245.121 179.806 244.963 179.388 244.648C178.97 244.333 178.761 243.893 178.761 243.328C178.761 242.734 178.981 242.276 179.421 241.953C179.861 241.63 180.451 241.469 181.192 241.469C181.779 241.469 182.358 241.55 182.93 241.711V241.535C182.93 241.036 182.783 240.655 182.49 240.391C182.197 240.127 181.782 239.995 181.247 239.995C180.69 239.995 180.114 240.131 179.52 240.402L179.267 239.709C179.971 239.386 180.66 239.225 181.335 239.225C182.142 239.225 182.754 239.434 183.172 239.852C183.568 240.248 183.766 240.805 183.766 241.524V245H182.93V244.153C182.424 244.798 181.742 245.121 180.884 245.121ZM181.049 244.439C181.577 244.439 182.024 244.296 182.391 244.01C182.758 243.724 182.941 243.357 182.941 242.91V242.382C182.384 242.221 181.83 242.14 181.28 242.14C180.759 242.14 180.352 242.246 180.059 242.459C179.766 242.664 179.619 242.947 179.619 243.306C179.619 243.651 179.755 243.926 180.026 244.131C180.305 244.336 180.646 244.439 181.049 244.439Z" fill="#686868"/>
<path id="&#208;&#148;&#208;&#190;&#209;&#129;&#209;&#130;&#208;&#176;&#208;&#178;&#208;&#186;&#208;&#176;" d="M214.11 246.716V244.208H214.902C215.679 242.969 216.068 241.113 216.068 238.642V237.3H221.106V244.208H222.107L221.975 246.716H221.249V245H215.001L214.847 246.716H214.11ZM215.881 244.208H220.237V238.092H216.904V239.093C216.904 240.105 216.812 241.08 216.629 242.019C216.446 242.958 216.196 243.687 215.881 244.208ZM227.958 244.263C227.386 244.842 226.678 245.132 225.835 245.132C224.992 245.132 224.288 244.842 223.723 244.263C223.166 243.684 222.887 242.983 222.887 242.162C222.887 241.348 223.169 240.651 223.734 240.072C224.306 239.485 225.014 239.192 225.857 239.192C226.7 239.192 227.404 239.482 227.969 240.061C228.534 240.64 228.816 241.341 228.816 242.162C228.816 242.976 228.53 243.676 227.958 244.263ZM225.857 244.373C226.466 244.373 226.964 244.16 227.353 243.735C227.749 243.31 227.947 242.785 227.947 242.162C227.947 241.546 227.742 241.022 227.331 240.589C226.928 240.156 226.429 239.94 225.835 239.94C225.226 239.94 224.728 240.156 224.339 240.589C223.95 241.014 223.756 241.539 223.756 242.162C223.756 242.778 223.958 243.302 224.361 243.735C224.764 244.16 225.263 244.373 225.857 244.373ZM232.913 245.132C232.092 245.132 231.399 244.842 230.834 244.263C230.277 243.676 229.998 242.976 229.998 242.162C229.998 241.348 230.277 240.651 230.834 240.072C231.399 239.485 232.092 239.192 232.913 239.192C233.793 239.192 234.552 239.529 235.19 240.204L234.651 240.776C234.123 240.219 233.54 239.94 232.902 239.94C232.33 239.94 231.846 240.156 231.45 240.589C231.062 241.014 230.867 241.539 230.867 242.162C230.867 242.778 231.065 243.302 231.461 243.735C231.865 244.16 232.363 244.373 232.957 244.373C233.566 244.373 234.138 244.087 234.673 243.515L235.234 244.032C234.574 244.765 233.801 245.132 232.913 245.132ZM238.009 245V240.061H235.974V239.313H240.902V240.061H238.867V245H238.009ZM243.828 245.121C243.249 245.121 242.75 244.963 242.332 244.648C241.914 244.333 241.705 243.893 241.705 243.328C241.705 242.734 241.925 242.276 242.365 241.953C242.805 241.63 243.396 241.469 244.136 241.469C244.723 241.469 245.302 241.55 245.874 241.711V241.535C245.874 241.036 245.728 240.655 245.434 240.391C245.141 240.127 244.727 239.995 244.191 239.995C243.634 239.995 243.058 240.131 242.464 240.402L242.211 239.709C242.915 239.386 243.605 239.225 244.279 239.225C245.086 239.225 245.698 239.434 246.116 239.852C246.512 240.248 246.71 240.805 246.71 241.524V245H245.874V244.153C245.368 244.798 244.686 245.121 243.828 245.121ZM243.993 244.439C244.521 244.439 244.969 244.296 245.335 244.01C245.702 243.724 245.885 243.357 245.885 242.91V242.382C245.328 242.221 244.774 242.14 244.224 242.14C243.704 242.14 243.297 242.246 243.003 242.459C242.71 242.664 242.563 242.947 242.563 243.306C242.563 243.651 242.699 243.926 242.97 244.131C243.249 244.336 243.59 244.439 243.993 244.439ZM248.505 245V239.313H251.255C251.819 239.313 252.27 239.441 252.608 239.698C252.945 239.955 253.114 240.299 253.114 240.732C253.114 241.341 252.798 241.777 252.168 242.041C253.004 242.268 253.422 242.738 253.422 243.449C253.422 243.926 253.235 244.303 252.861 244.582C252.487 244.861 251.984 245 251.354 245H248.505ZM249.352 244.274H251.244C251.647 244.274 251.966 244.19 252.201 244.021C252.435 243.852 252.553 243.618 252.553 243.317C252.553 243.038 252.428 242.822 252.179 242.668C251.937 242.514 251.588 242.437 251.134 242.437H249.352V244.274ZM249.352 241.755H251.101C251.453 241.755 251.731 241.678 251.937 241.524C252.149 241.363 252.256 241.135 252.256 240.842C252.256 240.6 252.157 240.406 251.959 240.259C251.761 240.112 251.482 240.039 251.123 240.039H249.352V241.755ZM254.95 245V239.313H255.797V242.591L258.91 239.313H259.955L257.579 241.777L260.021 245H259.02L256.996 242.393L255.797 243.625V245H254.95ZM262.885 245.121C262.306 245.121 261.807 244.963 261.389 244.648C260.971 244.333 260.762 243.893 260.762 243.328C260.762 242.734 260.982 242.276 261.422 241.953C261.862 241.63 262.452 241.469 263.193 241.469C263.78 241.469 264.359 241.55 264.931 241.711V241.535C264.931 241.036 264.784 240.655 264.491 240.391C264.198 240.127 263.783 239.995 263.248 239.995C262.691 239.995 262.115 240.131 261.521 240.402L261.268 239.709C261.972 239.386 262.661 239.225 263.336 239.225C264.143 239.225 264.755 239.434 265.173 239.852C265.569 240.248 265.767 240.805 265.767 241.524V245H264.931V244.153C264.425 244.798 263.743 245.121 262.885 245.121ZM263.05 244.439C263.578 244.439 264.025 244.296 264.392 244.01C264.759 243.724 264.942 243.357 264.942 242.91V242.382C264.385 242.221 263.831 242.14 263.281 242.14C262.76 242.14 262.353 242.246 262.06 242.459C261.767 242.664 261.62 242.947 261.62 243.306C261.62 243.651 261.756 243.926 262.027 244.131C262.306 244.336 262.647 244.439 263.05 244.439Z" fill="#686868"/>
<path id="&#208;&#146;&#209;&#129;&#208;&#181;&#208;&#179;&#208;&#190;" d="M311.089 245V237.3H314.367C315.269 237.3 315.94 237.527 316.38 237.982C316.71 238.327 316.875 238.745 316.875 239.236C316.875 240.072 316.468 240.666 315.654 241.018C316.754 241.348 317.304 241.975 317.304 242.899C317.304 243.552 317.051 244.065 316.545 244.439C316.039 244.813 315.361 245 314.51 245H311.089ZM311.947 244.219H314.532C315.119 244.219 315.581 244.098 315.918 243.856C316.255 243.607 316.424 243.262 316.424 242.822C316.424 242.397 316.248 242.07 315.896 241.843C315.551 241.616 315.045 241.502 314.378 241.502H311.947V244.219ZM311.947 240.732H314.224C314.759 240.732 315.188 240.611 315.511 240.369C315.834 240.127 315.995 239.782 315.995 239.335C315.995 238.946 315.845 238.642 315.544 238.422C315.251 238.195 314.833 238.081 314.29 238.081H311.947V240.732ZM321.447 245.132C320.626 245.132 319.933 244.842 319.368 244.263C318.811 243.676 318.532 242.976 318.532 242.162C318.532 241.348 318.811 240.651 319.368 240.072C319.933 239.485 320.626 239.192 321.447 239.192C322.327 239.192 323.086 239.529 323.724 240.204L323.185 240.776C322.657 240.219 322.074 239.94 321.436 239.94C320.864 239.94 320.38 240.156 319.984 240.589C319.596 241.014 319.401 241.539 319.401 242.162C319.401 242.778 319.599 243.302 319.995 243.735C320.399 244.16 320.897 244.373 321.491 244.373C322.1 244.373 322.672 244.087 323.207 243.515L323.768 244.032C323.108 244.765 322.335 245.132 321.447 245.132ZM327.655 245.132C326.855 245.132 326.181 244.857 325.631 244.307C325.088 243.75 324.817 243.035 324.817 242.162C324.817 241.333 325.077 240.633 325.598 240.061C326.118 239.482 326.767 239.192 327.545 239.192C328.359 239.192 329.004 239.478 329.481 240.05C329.957 240.622 330.196 241.341 330.196 242.206C330.196 242.316 330.192 242.415 330.185 242.503H325.675C325.733 243.082 325.95 243.544 326.324 243.889C326.705 244.226 327.156 244.395 327.677 244.395C328.359 244.395 328.956 244.127 329.47 243.592L329.998 244.065C329.36 244.776 328.579 245.132 327.655 245.132ZM325.675 241.821H329.338C329.286 241.271 329.103 240.816 328.788 240.457C328.48 240.09 328.058 239.907 327.523 239.907C327.039 239.907 326.624 240.087 326.28 240.446C325.935 240.805 325.733 241.264 325.675 241.821ZM331.678 245V239.313H335.539V240.061H332.525V245H331.678ZM341.489 244.263C340.917 244.842 340.21 245.132 339.366 245.132C338.523 245.132 337.819 244.842 337.254 244.263C336.697 243.684 336.418 242.983 336.418 242.162C336.418 241.348 336.701 240.651 337.265 240.072C337.837 239.485 338.545 239.192 339.388 239.192C340.232 239.192 340.936 239.482 341.5 240.061C342.065 240.64 342.347 241.341 342.347 242.162C342.347 242.976 342.061 243.676 341.489 244.263ZM339.388 244.373C339.997 244.373 340.496 244.16 340.884 243.735C341.28 243.31 341.478 242.785 341.478 242.162C341.478 241.546 341.273 241.022 340.862 240.589C340.459 240.156 339.96 239.94 339.366 239.94C338.758 239.94 338.259 240.156 337.87 240.589C337.482 241.014 337.287 241.539 337.287 242.162C337.287 242.778 337.489 243.302 337.892 243.735C338.296 244.16 338.794 244.373 339.388 244.373Z" fill="#686868"/>
<g id="Group 483">
<path id="48 800 &#226;&#130;&#189;" d="M218.752 272V270.174H214.693L214.473 269.547L218.829 264.245H219.588V269.448H220.787V270.174H219.588V272H218.752ZM215.518 269.448H218.752V265.477L215.518 269.448ZM226.913 271.505C226.363 271.908 225.674 272.11 224.845 272.11C224.016 272.11 223.327 271.905 222.777 271.494C222.227 271.083 221.952 270.555 221.952 269.91C221.952 269.47 222.095 269.089 222.381 268.766C222.667 268.443 223.052 268.194 223.536 268.018C222.656 267.615 222.216 267.017 222.216 266.225C222.216 265.646 222.473 265.162 222.986 264.773C223.507 264.384 224.126 264.19 224.845 264.19C225.564 264.19 226.18 264.384 226.693 264.773C227.214 265.162 227.474 265.653 227.474 266.247C227.474 267.024 227.034 267.615 226.154 268.018C227.21 268.414 227.738 269.048 227.738 269.921C227.738 270.566 227.463 271.094 226.913 271.505ZM223.591 267.314C223.928 267.578 224.346 267.71 224.845 267.71C225.344 267.71 225.762 267.578 226.099 267.314C226.436 267.05 226.605 266.705 226.605 266.28C226.605 265.899 226.436 265.583 226.099 265.334C225.762 265.077 225.344 264.949 224.845 264.949C224.339 264.949 223.917 265.077 223.58 265.334C223.25 265.583 223.085 265.906 223.085 266.302C223.085 266.713 223.254 267.05 223.591 267.314ZM223.371 270.933C223.738 271.212 224.229 271.351 224.845 271.351C225.461 271.351 225.949 271.212 226.308 270.933C226.675 270.654 226.858 270.306 226.858 269.888C226.858 269.463 226.664 269.114 226.275 268.843C225.886 268.564 225.41 268.425 224.845 268.425C224.273 268.425 223.793 268.564 223.404 268.843C223.023 269.122 222.832 269.477 222.832 269.91C222.832 270.313 223.012 270.654 223.371 270.933ZM237.139 271.505C236.589 271.908 235.9 272.11 235.071 272.11C234.243 272.11 233.553 271.905 233.003 271.494C232.453 271.083 232.178 270.555 232.178 269.91C232.178 269.47 232.321 269.089 232.607 268.766C232.893 268.443 233.278 268.194 233.762 268.018C232.882 267.615 232.442 267.017 232.442 266.225C232.442 265.646 232.699 265.162 233.212 264.773C233.733 264.384 234.353 264.19 235.071 264.19C235.79 264.19 236.406 264.384 236.919 264.773C237.44 265.162 237.7 265.653 237.7 266.247C237.7 267.024 237.26 267.615 236.38 268.018C237.436 268.414 237.964 269.048 237.964 269.921C237.964 270.566 237.689 271.094 237.139 271.505ZM233.817 267.314C234.155 267.578 234.573 267.71 235.071 267.71C235.57 267.71 235.988 267.578 236.325 267.314C236.663 267.05 236.831 266.705 236.831 266.28C236.831 265.899 236.663 265.583 236.325 265.334C235.988 265.077 235.57 264.949 235.071 264.949C234.565 264.949 234.144 265.077 233.806 265.334C233.476 265.583 233.311 265.906 233.311 266.302C233.311 266.713 233.48 267.05 233.817 267.314ZM233.597 270.933C233.964 271.212 234.455 271.351 235.071 271.351C235.687 271.351 236.175 271.212 236.534 270.933C236.901 270.654 237.084 270.306 237.084 269.888C237.084 269.463 236.89 269.114 236.501 268.843C236.113 268.564 235.636 268.425 235.071 268.425C234.499 268.425 234.019 268.564 233.63 268.843C233.249 269.122 233.058 269.477 233.058 269.91C233.058 270.313 233.238 270.654 233.597 270.933ZM244.816 270.977C244.215 271.747 243.43 272.132 242.462 272.132C241.494 272.132 240.709 271.751 240.108 270.988C239.514 270.218 239.217 269.272 239.217 268.15C239.217 267.043 239.518 266.104 240.119 265.334C240.728 264.557 241.516 264.168 242.484 264.168C243.452 264.168 244.233 264.553 244.827 265.323C245.421 266.086 245.718 267.028 245.718 268.15C245.718 269.257 245.417 270.2 244.816 270.977ZM240.779 270.405C241.219 271.028 241.787 271.34 242.484 271.34C243.181 271.34 243.742 271.032 244.167 270.416C244.6 269.793 244.816 269.037 244.816 268.15C244.816 267.277 244.596 266.529 244.156 265.906C243.723 265.275 243.159 264.96 242.462 264.96C241.765 264.96 241.201 265.272 240.768 265.895C240.335 266.511 240.119 267.263 240.119 268.15C240.119 269.023 240.339 269.774 240.779 270.405ZM252.679 270.977C252.078 271.747 251.293 272.132 250.325 272.132C249.357 272.132 248.573 271.751 247.971 270.988C247.377 270.218 247.08 269.272 247.08 268.15C247.08 267.043 247.381 266.104 247.982 265.334C248.591 264.557 249.379 264.168 250.347 264.168C251.315 264.168 252.096 264.553 252.69 265.323C253.284 266.086 253.581 267.028 253.581 268.15C253.581 269.257 253.281 270.2 252.679 270.977ZM248.642 270.405C249.082 271.028 249.651 271.34 250.347 271.34C251.044 271.34 251.605 271.032 252.03 270.416C252.463 269.793 252.679 269.037 252.679 268.15C252.679 267.277 252.459 266.529 252.019 265.906C251.587 265.275 251.022 264.96 250.325 264.96C249.629 264.96 249.064 265.272 248.631 265.895C248.199 266.511 247.982 267.263 247.982 268.15C247.982 269.023 248.202 269.774 248.642 270.405ZM259.44 269.415V270.086H261.915V270.57H259.44V272H258.626V270.57H257.471V270.086H258.626V264.3H261.508C262.498 264.3 263.268 264.524 263.818 264.971C264.375 265.411 264.654 266.038 264.654 266.852C264.654 267.673 264.375 268.308 263.818 268.755C263.268 269.195 262.498 269.415 261.508 269.415H259.44ZM259.44 265.004V268.722H261.519C262.267 268.722 262.839 268.561 263.235 268.238C263.638 267.915 263.84 267.457 263.84 266.863C263.84 266.269 263.638 265.811 263.235 265.488C262.839 265.165 262.267 265.004 261.519 265.004H259.44Z" fill="#393939"/>
<path id="12 600 &#226;&#130;&#189;" d="M44.969 272V265.147L43.517 265.598L43.308 264.894L45.189 264.245H45.827V272H44.969ZM47.4704 272V271.329L50.2644 268.865C50.8657 268.337 51.2837 267.897 51.5184 267.545C51.753 267.193 51.8704 266.826 51.8704 266.445C51.8704 266.005 51.72 265.649 51.4194 265.378C51.1187 265.107 50.752 264.971 50.3194 264.971C49.9014 264.971 49.531 265.077 49.2084 265.29C48.893 265.503 48.574 265.836 48.2514 266.291L47.6134 265.829C47.9874 265.272 48.3834 264.861 48.8014 264.597C49.2194 264.326 49.7474 264.19 50.3854 264.19C51.0747 264.19 51.643 264.399 52.0904 264.817C52.545 265.228 52.7724 265.752 52.7724 266.39C52.7724 266.918 52.6294 267.387 52.3434 267.798C52.0574 268.209 51.5514 268.737 50.8254 269.382L48.7684 271.208H52.8494V272H47.4704ZM60.4882 272.132C59.5642 272.132 58.8345 271.828 58.2992 271.219C57.7639 270.61 57.4962 269.653 57.4962 268.348C57.4962 267.145 57.7822 266.148 58.3542 265.356C58.9335 264.564 59.7145 264.168 60.6972 264.168C61.4965 264.168 62.2555 264.461 62.9742 265.048L62.4682 265.719C61.8669 265.213 61.2619 264.96 60.6532 264.96C59.9712 264.96 59.4249 265.272 59.0142 265.895C58.6035 266.518 58.3982 267.329 58.3982 268.326V268.359C58.9335 267.574 59.6632 267.182 60.5872 267.182C61.3279 267.182 61.9549 267.402 62.4682 267.842C62.9889 268.282 63.2492 268.858 63.2492 269.569C63.2492 270.31 62.9852 270.922 62.4572 271.406C61.9292 271.89 61.2729 272.132 60.4882 272.132ZM60.4992 271.362C61.0565 271.362 61.5039 271.193 61.8412 270.856C62.1859 270.519 62.3582 270.093 62.3582 269.58C62.3582 269.103 62.1822 268.711 61.8302 268.403C61.4782 268.088 61.0272 267.93 60.4772 267.93C59.9199 267.93 59.4579 268.102 59.0912 268.447C58.7319 268.784 58.5522 269.18 58.5522 269.635C58.5522 270.126 58.7355 270.537 59.1022 270.867C59.4689 271.197 59.9345 271.362 60.4992 271.362ZM70.2283 270.977C69.6269 271.747 68.8423 272.132 67.8743 272.132C66.9063 272.132 66.1216 271.751 65.5203 270.988C64.9263 270.218 64.6293 269.272 64.6293 268.15C64.6293 267.043 64.9299 266.104 65.5313 265.334C66.1399 264.557 66.9283 264.168 67.8963 264.168C68.8643 264.168 69.6453 264.553 70.2393 265.323C70.8333 266.086 71.1303 267.028 71.1303 268.15C71.1303 269.257 70.8296 270.2 70.2283 270.977ZM66.1913 270.405C66.6313 271.028 67.1996 271.34 67.8963 271.34C68.5929 271.34 69.1539 271.032 69.5793 270.416C70.0119 269.793 70.2283 269.037 70.2283 268.15C70.2283 267.277 70.0083 266.529 69.5683 265.906C69.1356 265.275 68.5709 264.96 67.8743 264.96C67.1776 264.96 66.6129 265.272 66.1803 265.895C65.7476 266.511 65.5313 267.263 65.5313 268.15C65.5313 269.023 65.7513 269.774 66.1913 270.405ZM78.0915 270.977C77.4902 271.747 76.7055 272.132 75.7375 272.132C74.7695 272.132 73.9849 271.751 73.3835 270.988C72.7895 270.218 72.4925 269.272 72.4925 268.15C72.4925 267.043 72.7932 266.104 73.3945 265.334C74.0032 264.557 74.7915 264.168 75.7595 264.168C76.7275 264.168 77.5085 264.553 78.1025 265.323C78.6965 266.086 78.9935 267.028 78.9935 268.15C78.9935 269.257 78.6929 270.2 78.0915 270.977ZM74.0545 270.405C74.4945 271.028 75.0629 271.34 75.7595 271.34C76.4562 271.34 77.0172 271.032 77.4425 270.416C77.8752 269.793 78.0915 269.037 78.0915 268.15C78.0915 267.277 77.8715 266.529 77.4315 265.906C76.9989 265.275 76.4342 264.96 75.7375 264.96C75.0409 264.96 74.4762 265.272 74.0435 265.895C73.6109 266.511 73.3945 267.263 73.3945 268.15C73.3945 269.023 73.6145 269.774 74.0545 270.405ZM84.8517 269.415V270.086H87.3267V270.57H84.8517V272H84.0377V270.57H82.8827V270.086H84.0377V264.3H86.9197C87.9097 264.3 88.6797 264.524 89.2297 264.971C89.7871 265.411 90.0657 266.038 90.0657 266.852C90.0657 267.673 89.7871 268.308 89.2297 268.755C88.6797 269.195 87.9097 269.415 86.9197 269.415H84.8517ZM84.8517 265.004V268.722H86.9307C87.6787 268.722 88.2507 268.561 88.6467 268.238C89.0501 267.915 89.2517 267.457 89.2517 266.863C89.2517 266.269 89.0501 265.811 88.6467 265.488C88.2507 265.165 87.6787 265.004 86.9307 265.004H84.8517Z" fill="#393939"/>
<path id="6 000 &#226;&#130;&#189;" d="M135.663 272.132C134.739 272.132 134.009 271.828 133.474 271.219C132.939 270.61 132.671 269.653 132.671 268.348C132.671 267.145 132.957 266.148 133.529 265.356C134.108 264.564 134.889 264.168 135.872 264.168C136.671 264.168 137.43 264.461 138.149 265.048L137.643 265.719C137.042 265.213 136.437 264.96 135.828 264.96C135.146 264.96 134.6 265.272 134.189 265.895C133.778 266.518 133.573 267.329 133.573 268.326V268.359C134.108 267.574 134.838 267.182 135.762 267.182C136.503 267.182 137.13 267.402 137.643 267.842C138.164 268.282 138.424 268.858 138.424 269.569C138.424 270.31 138.16 270.922 137.632 271.406C137.104 271.89 136.448 272.132 135.663 272.132ZM135.674 271.362C136.231 271.362 136.679 271.193 137.016 270.856C137.361 270.519 137.533 270.093 137.533 269.58C137.533 269.103 137.357 268.711 137.005 268.403C136.653 268.088 136.202 267.93 135.652 267.93C135.095 267.93 134.633 268.102 134.266 268.447C133.907 268.784 133.727 269.18 133.727 269.635C133.727 270.126 133.91 270.537 134.277 270.867C134.644 271.197 135.109 271.362 135.674 271.362ZM148.701 270.977C148.1 271.747 147.315 272.132 146.347 272.132C145.379 272.132 144.594 271.751 143.993 270.988C143.399 270.218 143.102 269.272 143.102 268.15C143.102 267.043 143.403 266.104 144.004 265.334C144.613 264.557 145.401 264.168 146.369 264.168C147.337 264.168 148.118 264.553 148.712 265.323C149.306 266.086 149.603 267.028 149.603 268.15C149.603 269.257 149.302 270.2 148.701 270.977ZM144.664 270.405C145.104 271.028 145.672 271.34 146.369 271.34C147.066 271.34 147.627 271.032 148.052 270.416C148.485 269.793 148.701 269.037 148.701 268.15C148.701 267.277 148.481 266.529 148.041 265.906C147.608 265.275 147.044 264.96 146.347 264.96C145.65 264.96 145.086 265.272 144.653 265.895C144.22 266.511 144.004 267.263 144.004 268.15C144.004 269.023 144.224 269.774 144.664 270.405ZM156.564 270.977C155.963 271.747 155.178 272.132 154.21 272.132C153.242 272.132 152.458 271.751 151.856 270.988C151.262 270.218 150.965 269.272 150.965 268.15C150.965 267.043 151.266 266.104 151.867 265.334C152.476 264.557 153.264 264.168 154.232 264.168C155.2 264.168 155.981 264.553 156.575 265.323C157.169 266.086 157.466 267.028 157.466 268.15C157.466 269.257 157.166 270.2 156.564 270.977ZM152.527 270.405C152.967 271.028 153.536 271.34 154.232 271.34C154.929 271.34 155.49 271.032 155.915 270.416C156.348 269.793 156.564 269.037 156.564 268.15C156.564 267.277 156.344 266.529 155.904 265.906C155.472 265.275 154.907 264.96 154.21 264.96C153.514 264.96 152.949 265.272 152.516 265.895C152.084 266.511 151.867 267.263 151.867 268.15C151.867 269.023 152.087 269.774 152.527 270.405ZM164.427 270.977C163.826 271.747 163.041 272.132 162.073 272.132C161.105 272.132 160.321 271.751 159.719 270.988C159.125 270.218 158.828 269.272 158.828 268.15C158.828 267.043 159.129 266.104 159.73 265.334C160.339 264.557 161.127 264.168 162.095 264.168C163.063 264.168 163.844 264.553 164.438 265.323C165.032 266.086 165.329 267.028 165.329 268.15C165.329 269.257 165.029 270.2 164.427 270.977ZM160.39 270.405C160.83 271.028 161.399 271.34 162.095 271.34C162.792 271.34 163.353 271.032 163.778 270.416C164.211 269.793 164.427 269.037 164.427 268.15C164.427 267.277 164.207 266.529 163.767 265.906C163.335 265.275 162.77 264.96 162.073 264.96C161.377 264.96 160.812 265.272 160.379 265.895C159.947 266.511 159.73 267.263 159.73 268.15C159.73 269.023 159.95 269.774 160.39 270.405ZM171.188 269.415V270.086H173.663V270.57H171.188V272H170.374V270.57H169.219V270.086H170.374V264.3H173.256C174.246 264.3 175.016 264.524 175.566 264.971C176.123 265.411 176.402 266.038 176.402 266.852C176.402 267.673 176.123 268.308 175.566 268.755C175.016 269.195 174.246 269.415 173.256 269.415H171.188ZM171.188 265.004V268.722H173.267C174.015 268.722 174.587 268.561 174.983 268.238C175.386 267.915 175.588 267.457 175.588 266.863C175.588 266.269 175.386 265.811 174.983 265.488C174.587 265.165 174.015 265.004 173.267 265.004H171.188Z" fill="#393939"/>
<path id="67 400 &#226;&#130;&#189;" d="M295.82 272.132C294.896 272.132 294.167 271.828 293.631 271.219C293.096 270.61 292.828 269.653 292.828 268.348C292.828 267.145 293.114 266.148 293.686 265.356C294.266 264.564 295.047 264.168 296.029 264.168C296.829 264.168 297.588 264.461 298.306 265.048L297.8 265.719C297.199 265.213 296.594 264.96 295.985 264.96C295.303 264.96 294.757 265.272 294.346 265.895C293.936 266.518 293.73 267.329 293.73 268.326V268.359C294.266 267.574 294.995 267.182 295.919 267.182C296.66 267.182 297.287 267.402 297.8 267.842C298.321 268.282 298.581 268.858 298.581 269.569C298.581 270.31 298.317 270.922 297.789 271.406C297.261 271.89 296.605 272.132 295.82 272.132ZM295.831 271.362C296.389 271.362 296.836 271.193 297.173 270.856C297.518 270.519 297.69 270.093 297.69 269.58C297.69 269.103 297.514 268.711 297.162 268.403C296.81 268.088 296.359 267.93 295.809 267.93C295.252 267.93 294.79 268.102 294.423 268.447C294.064 268.784 293.884 269.18 293.884 269.635C293.884 270.126 294.068 270.537 294.434 270.867C294.801 271.197 295.267 271.362 295.831 271.362ZM300.539 272L304.015 265.092H299.78V264.3H305.005V264.949L301.507 272H300.539ZM313.635 272V270.174H309.576L309.356 269.547L313.712 264.245H314.471V269.448H315.67V270.174H314.471V272H313.635ZM310.401 269.448H313.635V265.477L310.401 269.448ZM322.544 270.977C321.942 271.747 321.158 272.132 320.19 272.132C319.222 272.132 318.437 271.751 317.836 270.988C317.242 270.218 316.945 269.272 316.945 268.15C316.945 267.043 317.245 266.104 317.847 265.334C318.455 264.557 319.244 264.168 320.212 264.168C321.18 264.168 321.961 264.553 322.555 265.323C323.149 266.086 323.446 267.028 323.446 268.15C323.446 269.257 323.145 270.2 322.544 270.977ZM318.507 270.405C318.947 271.028 319.515 271.34 320.212 271.34C320.908 271.34 321.469 271.032 321.895 270.416C322.327 269.793 322.544 269.037 322.544 268.15C322.544 267.277 322.324 266.529 321.884 265.906C321.451 265.275 320.886 264.96 320.19 264.96C319.493 264.96 318.928 265.272 318.496 265.895C318.063 266.511 317.847 267.263 317.847 268.15C317.847 269.023 318.067 269.774 318.507 270.405ZM330.407 270.977C329.806 271.747 329.021 272.132 328.053 272.132C327.085 272.132 326.3 271.751 325.699 270.988C325.105 270.218 324.808 269.272 324.808 268.15C324.808 267.043 325.109 266.104 325.71 265.334C326.319 264.557 327.107 264.168 328.075 264.168C329.043 264.168 329.824 264.553 330.418 265.323C331.012 266.086 331.309 267.028 331.309 268.15C331.309 269.257 331.008 270.2 330.407 270.977ZM326.37 270.405C326.81 271.028 327.378 271.34 328.075 271.34C328.772 271.34 329.333 271.032 329.758 270.416C330.191 269.793 330.407 269.037 330.407 268.15C330.407 267.277 330.187 266.529 329.747 265.906C329.314 265.275 328.75 264.96 328.053 264.96C327.356 264.96 326.792 265.272 326.359 265.895C325.926 266.511 325.71 267.263 325.71 268.15C325.71 269.023 325.93 269.774 326.37 270.405ZM337.167 269.415V270.086H339.642V270.57H337.167V272H336.353V270.57H335.198V270.086H336.353V264.3H339.235C340.225 264.3 340.995 264.524 341.545 264.971C342.102 265.411 342.381 266.038 342.381 266.852C342.381 267.673 342.102 268.308 341.545 268.755C340.995 269.195 340.225 269.415 339.235 269.415H337.167ZM337.167 265.004V268.722H339.246C339.994 268.722 340.566 268.561 340.962 268.238C341.365 267.915 341.567 267.457 341.567 266.863C341.567 266.269 341.365 265.811 340.962 265.488C340.566 265.165 339.994 265.004 339.246 265.004H337.167Z" fill="#393939"/>
</g>
<g id="Group 484">
<path id="56 640 &#226;&#130;&#189;" d="M217.333 294.132C216.314 294.132 215.397 293.725 214.583 292.911L215.155 292.284C215.881 292.988 216.611 293.34 217.344 293.34C217.894 293.34 218.341 293.179 218.686 292.856C219.031 292.533 219.203 292.119 219.203 291.613C219.203 291.136 219.023 290.748 218.664 290.447C218.312 290.146 217.854 289.996 217.289 289.996C216.761 289.996 216.222 290.143 215.672 290.436L215.089 290.051L215.309 286.3H219.742V287.103H216.068L215.903 289.567C216.424 289.34 216.93 289.226 217.421 289.226C218.191 289.226 218.825 289.442 219.324 289.875C219.83 290.3 220.083 290.876 220.083 291.602C220.083 292.35 219.826 292.959 219.313 293.428C218.8 293.897 218.14 294.132 217.333 294.132ZM224.398 294.132C223.474 294.132 222.745 293.828 222.209 293.219C221.674 292.61 221.406 291.653 221.406 290.348C221.406 289.145 221.692 288.148 222.264 287.356C222.844 286.564 223.625 286.168 224.607 286.168C225.407 286.168 226.166 286.461 226.884 287.048L226.378 287.719C225.777 287.213 225.172 286.96 224.563 286.96C223.881 286.96 223.335 287.272 222.924 287.895C222.514 288.518 222.308 289.329 222.308 290.326V290.359C222.844 289.574 223.573 289.182 224.497 289.182C225.238 289.182 225.865 289.402 226.378 289.842C226.899 290.282 227.159 290.858 227.159 291.569C227.159 292.31 226.895 292.922 226.367 293.406C225.839 293.89 225.183 294.132 224.398 294.132ZM224.409 293.362C224.967 293.362 225.414 293.193 225.751 292.856C226.096 292.519 226.268 292.093 226.268 291.58C226.268 291.103 226.092 290.711 225.74 290.403C225.388 290.088 224.937 289.93 224.387 289.93C223.83 289.93 223.368 290.102 223.001 290.447C222.642 290.784 222.462 291.18 222.462 291.635C222.462 292.126 222.646 292.537 223.012 292.867C223.379 293.197 223.845 293.362 224.409 293.362ZM234.818 294.132C233.894 294.132 233.165 293.828 232.629 293.219C232.094 292.61 231.826 291.653 231.826 290.348C231.826 289.145 232.112 288.148 232.684 287.356C233.264 286.564 234.045 286.168 235.027 286.168C235.827 286.168 236.586 286.461 237.304 287.048L236.798 287.719C236.197 287.213 235.592 286.96 234.983 286.96C234.301 286.96 233.755 287.272 233.344 287.895C232.934 288.518 232.728 289.329 232.728 290.326V290.359C233.264 289.574 233.993 289.182 234.917 289.182C235.658 289.182 236.285 289.402 236.798 289.842C237.319 290.282 237.579 290.858 237.579 291.569C237.579 292.31 237.315 292.922 236.787 293.406C236.259 293.89 235.603 294.132 234.818 294.132ZM234.829 293.362C235.387 293.362 235.834 293.193 236.171 292.856C236.516 292.519 236.688 292.093 236.688 291.58C236.688 291.103 236.512 290.711 236.16 290.403C235.808 290.088 235.357 289.93 234.807 289.93C234.25 289.93 233.788 290.102 233.421 290.447C233.062 290.784 232.882 291.18 232.882 291.635C232.882 292.126 233.066 292.537 233.432 292.867C233.799 293.197 234.265 293.362 234.829 293.362ZM243.029 294V292.174H238.97L238.75 291.547L243.106 286.245H243.865V291.448H245.064V292.174H243.865V294H243.029ZM239.795 291.448H243.029V287.477L239.795 291.448ZM251.938 292.977C251.337 293.747 250.552 294.132 249.584 294.132C248.616 294.132 247.832 293.751 247.23 292.988C246.636 292.218 246.339 291.272 246.339 290.15C246.339 289.043 246.64 288.104 247.241 287.334C247.85 286.557 248.638 286.168 249.606 286.168C250.574 286.168 251.355 286.553 251.949 287.323C252.543 288.086 252.84 289.028 252.84 290.15C252.84 291.257 252.54 292.2 251.938 292.977ZM247.901 292.405C248.341 293.028 248.91 293.34 249.606 293.34C250.303 293.34 250.864 293.032 251.289 292.416C251.722 291.793 251.938 291.037 251.938 290.15C251.938 289.277 251.718 288.529 251.278 287.906C250.846 287.275 250.281 286.96 249.584 286.96C248.888 286.96 248.323 287.272 247.89 287.895C247.458 288.511 247.241 289.263 247.241 290.15C247.241 291.023 247.461 291.774 247.901 292.405ZM258.698 291.415V292.086H261.173V292.57H258.698V294H257.884V292.57H256.729V292.086H257.884V286.3H260.766C261.756 286.3 262.526 286.524 263.076 286.971C263.634 287.411 263.912 288.038 263.912 288.852C263.912 289.673 263.634 290.308 263.076 290.755C262.526 291.195 261.756 291.415 260.766 291.415H258.698ZM258.698 287.004V290.722H260.777C261.525 290.722 262.097 290.561 262.493 290.238C262.897 289.915 263.098 289.457 263.098 288.863C263.098 288.269 262.897 287.811 262.493 287.488C262.097 287.165 261.525 287.004 260.777 287.004H258.698Z" fill="#393939"/>
<path id="14 680 &#226;&#130;&#189;" d="M43.969 294V287.147L42.517 287.598L42.308 286.894L44.189 286.245H44.827V294H43.969ZM50.6944 294V292.174H46.6354L46.4154 291.547L50.7714 286.245H51.5304V291.448H52.7294V292.174H51.5304V294H50.6944ZM47.4604 291.448H50.6944V287.477L47.4604 291.448ZM60.2831 294.132C59.3591 294.132 58.6295 293.828 58.0941 293.219C57.5588 292.61 57.2911 291.653 57.2911 290.348C57.2911 289.145 57.5771 288.148 58.1491 287.356C58.7285 286.564 59.5095 286.168 60.4921 286.168C61.2915 286.168 62.0505 286.461 62.7691 287.048L62.2631 287.719C61.6618 287.213 61.0568 286.96 60.4481 286.96C59.7661 286.96 59.2198 287.272 58.8091 287.895C58.3985 288.518 58.1931 289.329 58.1931 290.326V290.359C58.7285 289.574 59.4581 289.182 60.3821 289.182C61.1228 289.182 61.7498 289.402 62.2631 289.842C62.7838 290.282 63.0441 290.858 63.0441 291.569C63.0441 292.31 62.7801 292.922 62.2521 293.406C61.7241 293.89 61.0678 294.132 60.2831 294.132ZM60.2941 293.362C60.8515 293.362 61.2988 293.193 61.6361 292.856C61.9808 292.519 62.1531 292.093 62.1531 291.58C62.1531 291.103 61.9771 290.711 61.6251 290.403C61.2731 290.088 60.8221 289.93 60.2721 289.93C59.7148 289.93 59.2528 290.102 58.8861 290.447C58.5268 290.784 58.3471 291.18 58.3471 291.635C58.3471 292.126 58.5305 292.537 58.8971 292.867C59.2638 293.197 59.7295 293.362 60.2941 293.362ZM69.2752 293.505C68.7252 293.908 68.0359 294.11 67.2072 294.11C66.3785 294.11 65.6892 293.905 65.1392 293.494C64.5892 293.083 64.3142 292.555 64.3142 291.91C64.3142 291.47 64.4572 291.089 64.7432 290.766C65.0292 290.443 65.4142 290.194 65.8982 290.018C65.0182 289.615 64.5782 289.017 64.5782 288.225C64.5782 287.646 64.8349 287.162 65.3482 286.773C65.8689 286.384 66.4885 286.19 67.2072 286.19C67.9259 286.19 68.5419 286.384 69.0552 286.773C69.5759 287.162 69.8362 287.653 69.8362 288.247C69.8362 289.024 69.3962 289.615 68.5162 290.018C69.5722 290.414 70.1002 291.048 70.1002 291.921C70.1002 292.566 69.8252 293.094 69.2752 293.505ZM65.9532 289.314C66.2905 289.578 66.7085 289.71 67.2072 289.71C67.7059 289.71 68.1239 289.578 68.4612 289.314C68.7985 289.05 68.9672 288.705 68.9672 288.28C68.9672 287.899 68.7985 287.583 68.4612 287.334C68.1239 287.077 67.7059 286.949 67.2072 286.949C66.7012 286.949 66.2795 287.077 65.9422 287.334C65.6122 287.583 65.4472 287.906 65.4472 288.302C65.4472 288.713 65.6159 289.05 65.9532 289.314ZM65.7332 292.933C66.0999 293.212 66.5912 293.351 67.2072 293.351C67.8232 293.351 68.3109 293.212 68.6702 292.933C69.0369 292.654 69.2202 292.306 69.2202 291.888C69.2202 291.463 69.0259 291.114 68.6372 290.843C68.2485 290.564 67.7719 290.425 67.2072 290.425C66.6352 290.425 66.1549 290.564 65.7662 290.843C65.3849 291.122 65.1942 291.477 65.1942 291.91C65.1942 292.313 65.3739 292.654 65.7332 292.933ZM76.9519 292.977C76.3506 293.747 75.5659 294.132 74.5979 294.132C73.6299 294.132 72.8452 293.751 72.2439 292.988C71.6499 292.218 71.3529 291.272 71.3529 290.15C71.3529 289.043 71.6536 288.104 72.2549 287.334C72.8636 286.557 73.6519 286.168 74.6199 286.168C75.5879 286.168 76.3689 286.553 76.9629 287.323C77.5569 288.086 77.8539 289.028 77.8539 290.15C77.8539 291.257 77.5532 292.2 76.9519 292.977ZM72.9149 292.405C73.3549 293.028 73.9232 293.34 74.6199 293.34C75.3166 293.34 75.8776 293.032 76.3029 292.416C76.7356 291.793 76.9519 291.037 76.9519 290.15C76.9519 289.277 76.7319 288.529 76.2919 287.906C75.8592 287.275 75.2946 286.96 74.5979 286.96C73.9012 286.96 73.3366 287.272 72.9039 287.895C72.4712 288.511 72.2549 289.263 72.2549 290.15C72.2549 291.023 72.4749 291.774 72.9149 292.405ZM84.131 291.415V292.086H86.606V292.57H84.131V294H83.317V292.57H82.162V292.086H83.317V286.3H86.199C87.189 286.3 87.959 286.524 88.509 286.971C89.0664 287.411 89.345 288.038 89.345 288.852C89.345 289.673 89.0664 290.308 88.509 290.755C87.959 291.195 87.189 291.415 86.199 291.415H84.131ZM84.131 287.004V290.722H86.21C86.958 290.722 87.53 290.561 87.926 290.238C88.3294 289.915 88.531 289.457 88.531 288.863C88.531 288.269 88.3294 287.811 87.926 287.488C87.53 287.165 86.958 287.004 86.21 287.004H84.131Z" fill="#393939"/>
<path id="2 560 &#226;&#130;&#189;" d="M131.528 294V293.329L134.322 290.865C134.923 290.337 135.341 289.897 135.576 289.545C135.811 289.193 135.928 288.826 135.928 288.445C135.928 288.005 135.778 287.649 135.477 287.378C135.176 287.107 134.81 286.971 134.377 286.971C133.959 286.971 133.589 287.077 133.266 287.29C132.951 287.503 132.632 287.836 132.309 288.291L131.671 287.829C132.045 287.272 132.441 286.861 132.859 286.597C133.277 286.326 133.805 286.19 134.443 286.19C135.132 286.19 135.701 286.399 136.148 286.817C136.603 287.228 136.83 287.752 136.83 288.39C136.83 288.918 136.687 289.387 136.401 289.798C136.115 290.209 135.609 290.737 134.883 291.382L132.826 293.208H136.907V294H131.528ZM144.216 294.132C143.196 294.132 142.28 293.725 141.466 292.911L142.038 292.284C142.764 292.988 143.493 293.34 144.227 293.34C144.777 293.34 145.224 293.179 145.569 292.856C145.913 292.533 146.086 292.119 146.086 291.613C146.086 291.136 145.906 290.748 145.547 290.447C145.195 290.146 144.736 289.996 144.172 289.996C143.644 289.996 143.105 290.143 142.555 290.436L141.972 290.051L142.192 286.3H146.625V287.103H142.951L142.786 289.567C143.306 289.34 143.812 289.226 144.304 289.226C145.074 289.226 145.708 289.442 146.207 289.875C146.713 290.3 146.966 290.876 146.966 291.602C146.966 292.35 146.709 292.959 146.196 293.428C145.682 293.897 145.022 294.132 144.216 294.132ZM151.281 294.132C150.357 294.132 149.627 293.828 149.092 293.219C148.557 292.61 148.289 291.653 148.289 290.348C148.289 289.145 148.575 288.148 149.147 287.356C149.726 286.564 150.507 286.168 151.49 286.168C152.289 286.168 153.048 286.461 153.767 287.048L153.261 287.719C152.66 287.213 152.055 286.96 151.446 286.96C150.764 286.96 150.218 287.272 149.807 287.895C149.396 288.518 149.191 289.329 149.191 290.326V290.359C149.726 289.574 150.456 289.182 151.38 289.182C152.121 289.182 152.748 289.402 153.261 289.842C153.782 290.282 154.042 290.858 154.042 291.569C154.042 292.31 153.778 292.922 153.25 293.406C152.722 293.89 152.066 294.132 151.281 294.132ZM151.292 293.362C151.849 293.362 152.297 293.193 152.634 292.856C152.979 292.519 153.151 292.093 153.151 291.58C153.151 291.103 152.975 290.711 152.623 290.403C152.271 290.088 151.82 289.93 151.27 289.93C150.713 289.93 150.251 290.102 149.884 290.447C149.525 290.784 149.345 291.18 149.345 291.635C149.345 292.126 149.528 292.537 149.895 292.867C150.262 293.197 150.727 293.362 151.292 293.362ZM161.021 292.977C160.42 293.747 159.635 294.132 158.667 294.132C157.699 294.132 156.915 293.751 156.313 292.988C155.719 292.218 155.422 291.272 155.422 290.15C155.422 289.043 155.723 288.104 156.324 287.334C156.933 286.557 157.721 286.168 158.689 286.168C159.657 286.168 160.438 286.553 161.032 287.323C161.626 288.086 161.923 289.028 161.923 290.15C161.923 291.257 161.623 292.2 161.021 292.977ZM156.984 292.405C157.424 293.028 157.993 293.34 158.689 293.34C159.386 293.34 159.947 293.032 160.372 292.416C160.805 291.793 161.021 291.037 161.021 290.15C161.021 289.277 160.801 288.529 160.361 287.906C159.929 287.275 159.364 286.96 158.667 286.96C157.971 286.96 157.406 287.272 156.973 287.895C156.541 288.511 156.324 289.263 156.324 290.15C156.324 291.023 156.544 291.774 156.984 292.405ZM167.781 291.415V292.086H170.256V292.57H167.781V294H166.967V292.57H165.812V292.086H166.967V286.3H169.849C170.839 286.3 171.609 286.524 172.159 286.971C172.717 287.411 172.995 288.038 172.995 288.852C172.995 289.673 172.717 290.308 172.159 290.755C171.609 291.195 170.839 291.415 169.849 291.415H167.781ZM167.781 287.004V290.722H169.86C170.608 290.722 171.18 290.561 171.576 290.238C171.98 289.915 172.181 289.457 172.181 288.863C172.181 288.269 171.98 287.811 171.576 287.488C171.18 287.165 170.608 287.004 169.86 287.004H167.781Z" fill="#393939"/>
<path id="73 880 &#226;&#130;&#189;" d="M294.394 294L297.87 287.092H293.635V286.3H298.86V286.949L295.362 294H294.394ZM302.646 294.132C301.436 294.132 300.479 293.674 299.775 292.757L300.402 292.196C301.025 292.959 301.777 293.34 302.657 293.34C303.133 293.34 303.533 293.201 303.856 292.922C304.178 292.643 304.34 292.277 304.34 291.822C304.34 291.353 304.142 290.99 303.746 290.733C303.35 290.469 302.829 290.337 302.184 290.337H301.689L301.513 289.82L303.944 287.081H300.182V286.3H305.099V286.938L302.679 289.622C303.412 289.681 304.017 289.893 304.494 290.26C304.978 290.619 305.22 291.136 305.22 291.811C305.22 292.486 304.97 293.043 304.472 293.483C303.98 293.916 303.372 294.132 302.646 294.132ZM314.802 293.505C314.252 293.908 313.562 294.11 312.734 294.11C311.905 294.11 311.216 293.905 310.666 293.494C310.116 293.083 309.841 292.555 309.841 291.91C309.841 291.47 309.984 291.089 310.27 290.766C310.556 290.443 310.941 290.194 311.425 290.018C310.545 289.615 310.105 289.017 310.105 288.225C310.105 287.646 310.361 287.162 310.875 286.773C311.395 286.384 312.015 286.19 312.734 286.19C313.452 286.19 314.068 286.384 314.582 286.773C315.102 287.162 315.363 287.653 315.363 288.247C315.363 289.024 314.923 289.615 314.043 290.018C315.099 290.414 315.627 291.048 315.627 291.921C315.627 292.566 315.352 293.094 314.802 293.505ZM311.48 289.314C311.817 289.578 312.235 289.71 312.734 289.71C313.232 289.71 313.65 289.578 313.988 289.314C314.325 289.05 314.494 288.705 314.494 288.28C314.494 287.899 314.325 287.583 313.988 287.334C313.65 287.077 313.232 286.949 312.734 286.949C312.228 286.949 311.806 287.077 311.469 287.334C311.139 287.583 310.974 287.906 310.974 288.302C310.974 288.713 311.142 289.05 311.48 289.314ZM311.26 292.933C311.626 293.212 312.118 293.351 312.734 293.351C313.35 293.351 313.837 293.212 314.197 292.933C314.563 292.654 314.747 292.306 314.747 291.888C314.747 291.463 314.552 291.114 314.164 290.843C313.775 290.564 313.298 290.425 312.734 290.425C312.162 290.425 311.681 290.564 311.293 290.843C310.911 291.122 310.721 291.477 310.721 291.91C310.721 292.313 310.9 292.654 311.26 292.933ZM321.73 293.505C321.18 293.908 320.491 294.11 319.662 294.11C318.834 294.11 318.144 293.905 317.594 293.494C317.044 293.083 316.769 292.555 316.769 291.91C316.769 291.47 316.912 291.089 317.198 290.766C317.484 290.443 317.869 290.194 318.353 290.018C317.473 289.615 317.033 289.017 317.033 288.225C317.033 287.646 317.29 287.162 317.803 286.773C318.324 286.384 318.944 286.19 319.662 286.19C320.381 286.19 320.997 286.384 321.51 286.773C322.031 287.162 322.291 287.653 322.291 288.247C322.291 289.024 321.851 289.615 320.971 290.018C322.027 290.414 322.555 291.048 322.555 291.921C322.555 292.566 322.28 293.094 321.73 293.505ZM318.408 289.314C318.746 289.578 319.164 289.71 319.662 289.71C320.161 289.71 320.579 289.578 320.916 289.314C321.254 289.05 321.422 288.705 321.422 288.28C321.422 287.899 321.254 287.583 320.916 287.334C320.579 287.077 320.161 286.949 319.662 286.949C319.156 286.949 318.735 287.077 318.397 287.334C318.067 287.583 317.902 287.906 317.902 288.302C317.902 288.713 318.071 289.05 318.408 289.314ZM318.188 292.933C318.555 293.212 319.046 293.351 319.662 293.351C320.278 293.351 320.766 293.212 321.125 292.933C321.492 292.654 321.675 292.306 321.675 291.888C321.675 291.463 321.481 291.114 321.092 290.843C320.704 290.564 320.227 290.425 319.662 290.425C319.09 290.425 318.61 290.564 318.221 290.843C317.84 291.122 317.649 291.477 317.649 291.91C317.649 292.313 317.829 292.654 318.188 292.933ZM329.407 292.977C328.806 293.747 328.021 294.132 327.053 294.132C326.085 294.132 325.3 293.751 324.699 292.988C324.105 292.218 323.808 291.272 323.808 290.15C323.808 289.043 324.109 288.104 324.71 287.334C325.319 286.557 326.107 286.168 327.075 286.168C328.043 286.168 328.824 286.553 329.418 287.323C330.012 288.086 330.309 289.028 330.309 290.15C330.309 291.257 330.008 292.2 329.407 292.977ZM325.37 292.405C325.81 293.028 326.378 293.34 327.075 293.34C327.772 293.34 328.333 293.032 328.758 292.416C329.191 291.793 329.407 291.037 329.407 290.15C329.407 289.277 329.187 288.529 328.747 287.906C328.314 287.275 327.75 286.96 327.053 286.96C326.356 286.96 325.792 287.272 325.359 287.895C324.926 288.511 324.71 289.263 324.71 290.15C324.71 291.023 324.93 291.774 325.37 292.405ZM336.167 291.415V292.086H338.642V292.57H336.167V294H335.353V292.57H334.198V292.086H335.353V286.3H338.235C339.225 286.3 339.995 286.524 340.545 286.971C341.102 287.411 341.381 288.038 341.381 288.852C341.381 289.673 341.102 290.308 340.545 290.755C339.995 291.195 339.225 291.415 338.235 291.415H336.167ZM336.167 287.004V290.722H338.246C338.994 290.722 339.566 290.561 339.962 290.238C340.365 289.915 340.567 289.457 340.567 288.863C340.567 288.269 340.365 287.811 339.962 287.488C339.566 287.165 338.994 287.004 338.246 287.004H336.167Z" fill="#393939"/>
</g>
</g>
</g>
<g id="download" filter="url(#filter0_ddd_996_13959)">
<rect x="72" y="28" width="243" height="56" rx="8" fill="white"/>
<g id="Group 467">
<g id="Icons/20x28/Xls">
<rect id="Rectangle 267" x="88" y="36" width="30" height="40" rx="2.5" fill="#83C150"/>
<path id="xls" d="M97.6497 45.3064L98.6329 47.1136L99.6437 45.3064H101.33L99.6492 48.2123L101.407 51.25H99.7151L98.6439 49.3384L97.5728 51.25H95.8809L97.6387 48.2123L95.9578 45.3064H97.6497ZM103.769 42.8125V51.25H102.182V42.8125H103.769ZM108.29 49.6075C108.29 49.494 108.257 49.3915 108.191 49.2999C108.125 49.2084 108.002 49.1241 107.823 49.0472C107.647 48.9667 107.393 48.8934 107.059 48.8275C106.759 48.7616 106.479 48.6792 106.219 48.5803C105.963 48.4778 105.739 48.3551 105.549 48.2123C105.362 48.0695 105.216 47.901 105.109 47.7069C105.003 47.5092 104.95 47.2839 104.95 47.0312C104.95 46.7822 105.003 46.5479 105.109 46.3281C105.219 46.1084 105.375 45.9143 105.576 45.7458C105.781 45.5737 106.03 45.4401 106.323 45.3448C106.62 45.246 106.953 45.1965 107.323 45.1965C107.839 45.1965 108.283 45.2789 108.652 45.4437C109.026 45.6085 109.312 45.8356 109.509 46.1249C109.711 46.4105 109.812 46.7365 109.812 47.1027H108.229C108.229 46.9489 108.197 46.8115 108.131 46.6907C108.068 46.5662 107.969 46.4691 107.834 46.3995C107.702 46.3263 107.53 46.2897 107.318 46.2897C107.142 46.2897 106.99 46.3208 106.862 46.3831C106.734 46.4417 106.635 46.5222 106.565 46.6248C106.499 46.7236 106.466 46.8335 106.466 46.9543C106.466 47.0459 106.484 47.1283 106.521 47.2015C106.561 47.2711 106.625 47.3352 106.713 47.3938C106.801 47.4524 106.915 47.5073 107.054 47.5586C107.197 47.6062 107.373 47.6501 107.581 47.6904C108.01 47.7783 108.392 47.8937 108.729 48.0365C109.066 48.1757 109.334 48.3661 109.531 48.6078C109.729 48.8458 109.828 49.1589 109.828 49.5471C109.828 49.8108 109.769 50.0525 109.652 50.2722C109.535 50.4919 109.367 50.6842 109.147 50.849C108.927 51.0101 108.663 51.1365 108.356 51.228C108.052 51.3159 107.709 51.3599 107.329 51.3599C106.776 51.3599 106.307 51.261 105.922 51.0632C105.542 50.8655 105.252 50.6146 105.054 50.3107C104.86 50.0031 104.763 49.6881 104.763 49.3658H106.263C106.27 49.5819 106.325 49.7559 106.428 49.8877C106.534 50.0195 106.668 50.1147 106.829 50.1733C106.994 50.2319 107.171 50.2612 107.362 50.2612C107.567 50.2612 107.737 50.2338 107.872 50.1788C108.008 50.1202 108.11 50.0433 108.18 49.9481C108.253 49.8492 108.29 49.7357 108.29 49.6075Z" fill="white"/>
<rect id="Rectangle 268" x="91.75" y="54.75" width="22.5" height="1.25" fill="white" fill-opacity="0.5"/>
<rect id="Rectangle 269" x="91.75" y="58.5" width="22.5" height="1.25" fill="white" fill-opacity="0.5"/>
<rect id="Rectangle 270" x="91.75" y="62.25" width="22.5" height="1.25" fill="white" fill-opacity="0.5"/>
<rect id="Rectangle 271" x="91.75" y="66" width="13.75" height="1.25" fill="white" fill-opacity="0.5"/>
</g>
<path id="&#208;&#158;&#209;&#130;&#209;&#135;&#208;&#181;&#209;&#130; &#208;&#191;&#208;&#190; &#208;&#184;&#209;&#130;&#208;&#190;&#208;&#179;&#208;&#176;&#208;&#188; IV &#208;&#186;&#208;&#178;&#208;&#176;&#209;&#128;&#209;&#130;&#208;&#176;&#208;&#187;&#208;&#176;" d="M131.664 47.132C134.029 47.132 135.701 45.317 135.701 43.15C135.701 40.961 134.051 39.168 131.686 39.168C129.321 39.168 127.649 40.983 127.649 43.15C127.649 45.339 129.299 47.132 131.664 47.132ZM131.686 45.889C130.157 45.889 129.068 44.646 129.068 43.15C129.068 41.632 130.135 40.411 131.664 40.411C133.193 40.411 134.282 41.654 134.282 43.15C134.282 44.668 133.215 45.889 131.686 45.889ZM138.425 47H139.767V42.336H141.637V41.192H136.555V42.336H138.425V47ZM146.223 47H147.554V41.192H146.223V43.755C145.838 43.975 145.321 44.14 144.804 44.14C144.21 44.14 143.847 43.656 143.847 43.128V41.192H142.516V43.447C142.516 44.635 143.341 45.273 144.496 45.273C145.123 45.273 145.816 45.042 146.223 44.833V47ZM151.886 47.132C152.953 47.132 153.712 46.703 154.262 46.043L153.481 45.35C153.019 45.801 152.557 46.043 151.908 46.043C151.05 46.043 150.379 45.515 150.236 44.569H154.504C154.515 44.503 154.526 44.283 154.526 44.195C154.526 42.523 153.591 41.071 151.743 41.071C150.082 41.071 148.905 42.435 148.905 44.096C148.905 45.911 150.203 47.132 151.886 47.132ZM150.225 43.689C150.346 42.787 150.918 42.16 151.732 42.16C152.612 42.16 153.118 42.831 153.206 43.689H150.225ZM157.105 47H158.447V42.336H160.317V41.192H155.235V42.336H157.105V47ZM164.671 47H166.002V42.336H168.521V47H169.852V41.192H164.671V47ZM174.285 47.132C176.078 47.132 177.398 45.757 177.398 44.107C177.398 42.424 176.089 41.071 174.307 41.071C172.525 41.071 171.205 42.446 171.205 44.107C171.205 45.779 172.514 47.132 174.285 47.132ZM174.307 45.977C173.273 45.977 172.536 45.119 172.536 44.107C172.536 43.073 173.218 42.237 174.285 42.237C175.33 42.237 176.067 43.084 176.067 44.107C176.067 45.13 175.385 45.977 174.307 45.977ZM182.052 47H183.306L186.067 43.128V47H187.354V41.192H186.1C185.176 42.49 184.263 43.788 183.35 45.086V41.192H182.052V47ZM190.267 47H191.609V42.336H193.479V41.192H188.397V42.336H190.267V47ZM197.295 47.132C199.088 47.132 200.408 45.757 200.408 44.107C200.408 42.424 199.099 41.071 197.317 41.071C195.535 41.071 194.215 42.446 194.215 44.107C194.215 45.779 195.524 47.132 197.295 47.132ZM197.317 45.977C196.283 45.977 195.546 45.119 195.546 44.107C195.546 43.073 196.228 42.237 197.295 42.237C198.34 42.237 199.077 43.084 199.077 44.107C199.077 45.13 198.395 45.977 197.317 45.977ZM201.764 47H203.095V42.336H205.878V41.192H201.764V47ZM211.804 47V43.557C211.804 42.006 210.968 41.104 209.252 41.104C208.306 41.104 207.679 41.302 207.041 41.588L207.404 42.655C207.932 42.435 208.416 42.292 209.065 42.292C209.989 42.292 210.495 42.732 210.495 43.535V43.645C210.044 43.502 209.593 43.403 208.889 43.403C207.536 43.403 206.535 44.019 206.535 45.306C206.535 46.494 207.503 47.121 208.603 47.121C209.483 47.121 210.088 46.758 210.484 46.285V47H211.804ZM210.517 44.899C210.517 45.625 209.857 46.12 208.977 46.12C208.35 46.12 207.855 45.812 207.855 45.262C207.855 44.679 208.35 44.338 209.186 44.338C209.703 44.338 210.176 44.437 210.517 44.569V44.899ZM213.387 47H214.685V43.15L216.5 45.735L218.326 43.128V47H219.668V41.192H218.348L216.522 43.887L214.707 41.192H213.387V47ZM224.865 47H226.218V39.3H224.865V47ZM230.82 47.055H232.008L235.209 39.3H233.746L231.436 45.218L229.115 39.3H227.619L230.82 47.055ZM239.673 47H240.993V45.603L241.939 44.602L243.699 47H245.272L242.83 43.634L245.085 41.192H243.523L240.993 43.975V41.192H239.673V47ZM246.193 47H249.207C250.527 47 251.352 46.406 251.352 45.427C251.352 44.602 250.857 44.173 250.153 43.975C250.648 43.755 251.088 43.381 251.088 42.644C251.088 41.753 250.329 41.192 249.174 41.192H246.193V47ZM247.502 45.944V44.492H248.943C249.658 44.492 249.999 44.778 249.999 45.196C249.999 45.647 249.658 45.944 249.009 45.944H247.502ZM247.502 43.59V42.215H248.888C249.482 42.215 249.735 42.501 249.735 42.875C249.735 43.293 249.427 43.59 248.866 43.59H247.502ZM257.555 47V43.557C257.555 42.006 256.719 41.104 255.003 41.104C254.057 41.104 253.43 41.302 252.792 41.588L253.155 42.655C253.683 42.435 254.167 42.292 254.816 42.292C255.74 42.292 256.246 42.732 256.246 43.535V43.645C255.795 43.502 255.344 43.403 254.64 43.403C253.287 43.403 252.286 44.019 252.286 45.306C252.286 46.494 253.254 47.121 254.354 47.121C255.234 47.121 255.839 46.758 256.235 46.285V47H257.555ZM256.268 44.899C256.268 45.625 255.608 46.12 254.728 46.12C254.101 46.12 253.606 45.812 253.606 45.262C253.606 44.679 254.101 44.338 254.937 44.338C255.454 44.338 255.927 44.437 256.268 44.569V44.899ZM259.138 48.76H260.469V46.098C260.876 46.637 261.481 47.121 262.438 47.121C263.824 47.121 265.144 46.032 265.144 44.107C265.144 42.16 263.813 41.071 262.438 41.071C261.503 41.071 260.898 41.555 260.469 42.16V41.192H259.138V48.76ZM262.13 45.966C261.228 45.966 260.436 45.229 260.436 44.107C260.436 42.974 261.228 42.226 262.13 42.226C263.032 42.226 263.791 42.963 263.791 44.085C263.791 45.251 263.043 45.966 262.13 45.966ZM267.75 47H269.092V42.336H270.962V41.192H265.88V42.336H267.75V47ZM276.891 47V43.557C276.891 42.006 276.055 41.104 274.339 41.104C273.393 41.104 272.766 41.302 272.128 41.588L272.491 42.655C273.019 42.435 273.503 42.292 274.152 42.292C275.076 42.292 275.582 42.732 275.582 43.535V43.645C275.131 43.502 274.68 43.403 273.976 43.403C272.623 43.403 271.622 44.019 271.622 45.306C271.622 46.494 272.59 47.121 273.69 47.121C274.57 47.121 275.175 46.758 275.571 46.285V47H276.891ZM275.604 44.899C275.604 45.625 274.944 46.12 274.064 46.12C273.437 46.12 272.942 45.812 272.942 45.262C272.942 44.679 273.437 44.338 274.273 44.338C274.79 44.338 275.263 44.437 275.604 44.569V44.899ZM278.43 47.066C279.717 47.066 280.509 46.549 280.509 42.336H282.324V47H283.655V41.192H279.266C279.266 45.614 278.804 45.944 278.133 45.944C278.045 45.944 277.836 45.922 277.748 45.9L277.649 46.989C277.847 47.022 278.221 47.066 278.43 47.066ZM290.2 47V43.557C290.2 42.006 289.364 41.104 287.648 41.104C286.702 41.104 286.075 41.302 285.437 41.588L285.8 42.655C286.328 42.435 286.812 42.292 287.461 42.292C288.385 42.292 288.891 42.732 288.891 43.535V43.645C288.44 43.502 287.989 43.403 287.285 43.403C285.932 43.403 284.931 44.019 284.931 45.306C284.931 46.494 285.899 47.121 286.999 47.121C287.879 47.121 288.484 46.758 288.88 46.285V47H290.2ZM288.913 44.899C288.913 45.625 288.253 46.12 287.373 46.12C286.746 46.12 286.251 45.812 286.251 45.262C286.251 44.679 286.746 44.338 287.582 44.338C288.099 44.338 288.572 44.437 288.913 44.569V44.899Z" fill="#393939"/>
<path id="&#208;&#190;&#209;&#130;&#208;&#179;&#209;&#128;&#209;&#131;&#208;&#183;&#208;&#186;&#208;&#176;, &#209;&#131;&#208;&#191;&#208;&#176;&#208;&#186;&#208;&#190;&#208;&#178;&#208;&#186;&#208;&#176;, &#208;&#180;&#208;&#190;&#209;&#129;&#209;&#130;&#208;&#176;&#208;&#178;&#208;&#186;&#208;&#176;" d="M132.665 66.263C132.093 66.8423 131.385 67.132 130.542 67.132C129.699 67.132 128.995 66.8423 128.43 66.263C127.873 65.6837 127.594 64.9833 127.594 64.162C127.594 63.348 127.876 62.6513 128.441 62.072C129.013 61.4853 129.721 61.192 130.564 61.192C131.407 61.192 132.111 61.4817 132.676 62.061C133.241 62.6403 133.523 63.3407 133.523 64.162C133.523 64.976 133.237 65.6763 132.665 66.263ZM130.564 66.373C131.173 66.373 131.671 66.1603 132.06 65.735C132.456 65.3097 132.654 64.7853 132.654 64.162C132.654 63.546 132.449 63.0217 132.038 62.589C131.635 62.1563 131.136 61.94 130.542 61.94C129.933 61.94 129.435 62.1563 129.046 62.589C128.657 63.0143 128.463 63.5387 128.463 64.162C128.463 64.778 128.665 65.3023 129.068 65.735C129.471 66.1603 129.97 66.373 130.564 66.373ZM136.432 67V62.061H134.397V61.313H139.325V62.061H137.29V67H136.432ZM140.557 67V61.313H144.418V62.061H141.404V67H140.557ZM145.649 68.76V61.313H146.496V62.457C147.068 61.6137 147.794 61.192 148.674 61.192C149.4 61.192 150.034 61.4633 150.577 62.006C151.12 62.5413 151.391 63.26 151.391 64.162C151.391 65.0493 151.12 65.7643 150.577 66.307C150.034 66.8497 149.4 67.121 148.674 67.121C147.779 67.121 147.053 66.7177 146.496 65.911V68.76H145.649ZM148.52 66.362C149.092 66.362 149.569 66.164 149.95 65.768C150.331 65.3647 150.522 64.8257 150.522 64.151C150.522 63.4983 150.328 62.9703 149.939 62.567C149.55 62.1563 149.077 61.951 148.52 61.951C147.97 61.951 147.49 62.16 147.079 62.578C146.668 62.996 146.463 63.524 146.463 64.162C146.463 64.8 146.668 65.328 147.079 65.746C147.49 66.1567 147.97 66.362 148.52 66.362ZM153.834 68.793C153.423 68.793 153.02 68.6977 152.624 68.507L152.91 67.836C153.181 67.9753 153.478 68.045 153.801 68.045C154.057 68.045 154.274 67.9643 154.45 67.803C154.626 67.649 154.798 67.374 154.967 66.978L152.382 61.313H153.317L155.385 66.054L157.211 61.313H158.113L155.726 67.187C155.484 67.7663 155.216 68.177 154.923 68.419C154.629 68.6683 154.266 68.793 153.834 68.793ZM161.257 67.132C160.384 67.132 159.6 66.8497 158.903 66.285L159.332 65.658C159.911 66.1493 160.546 66.395 161.235 66.395C161.624 66.395 161.954 66.307 162.225 66.131C162.504 65.9477 162.643 65.6983 162.643 65.383C162.643 65.0897 162.518 64.8623 162.269 64.701C162.02 64.5323 161.668 64.448 161.213 64.448H160.454V63.755H161.224C161.598 63.755 161.902 63.667 162.137 63.491C162.372 63.3077 162.489 63.0693 162.489 62.776C162.489 62.5193 162.372 62.314 162.137 62.16C161.91 62.006 161.616 61.929 161.257 61.929C160.582 61.929 160.007 62.1197 159.53 62.501L159.112 61.907C159.728 61.4303 160.461 61.192 161.312 61.192C161.943 61.192 162.441 61.335 162.808 61.621C163.182 61.8997 163.369 62.2627 163.369 62.71C163.369 63.3333 163.065 63.7697 162.456 64.019C163.16 64.2683 163.512 64.734 163.512 65.416C163.512 65.8927 163.307 66.2997 162.896 66.637C162.485 66.967 161.939 67.132 161.257 67.132ZM165.082 67V61.313H165.929V64.591L169.042 61.313H170.087L167.711 63.777L170.153 67H169.152L167.128 64.393L165.929 65.625V67H165.082ZM173.017 67.121C172.438 67.121 171.939 66.9633 171.521 66.648C171.103 66.3327 170.894 65.8927 170.894 65.328C170.894 64.734 171.114 64.2757 171.554 63.953C171.994 63.6303 172.584 63.469 173.325 63.469C173.912 63.469 174.491 63.5497 175.063 63.711V63.535C175.063 63.0363 174.916 62.655 174.623 62.391C174.33 62.127 173.915 61.995 173.38 61.995C172.823 61.995 172.247 62.1307 171.653 62.402L171.4 61.709C172.104 61.3863 172.793 61.225 173.468 61.225C174.275 61.225 174.887 61.434 175.305 61.852C175.701 62.248 175.899 62.8053 175.899 63.524V67H175.063V66.153C174.557 66.7983 173.875 67.121 173.017 67.121ZM173.182 66.439C173.71 66.439 174.157 66.296 174.524 66.01C174.891 65.724 175.074 65.3573 175.074 64.91V64.382C174.517 64.2207 173.963 64.14 173.413 64.14C172.892 64.14 172.485 64.2463 172.192 64.459C171.899 64.6643 171.752 64.9467 171.752 65.306C171.752 65.6507 171.888 65.9257 172.159 66.131C172.438 66.3363 172.779 66.439 173.182 66.439ZM177.385 68.342L177.253 67.957C177.744 67.7737 177.99 67.4913 177.99 67.11V67H177.594V65.845H178.606V66.835C178.606 67.275 178.507 67.6123 178.309 67.847C178.118 68.0817 177.81 68.2467 177.385 68.342ZM184.567 68.793C184.157 68.793 183.753 68.6977 183.357 68.507L183.643 67.836C183.915 67.9753 184.212 68.045 184.534 68.045C184.791 68.045 185.007 67.9643 185.183 67.803C185.359 67.649 185.532 67.374 185.7 66.978L183.115 61.313H184.05L186.118 66.054L187.944 61.313H188.846L186.459 67.187C186.217 67.7663 185.95 68.177 185.656 68.419C185.363 68.6683 185 68.793 184.567 68.793ZM190.186 67V61.313H195.114V67H194.267V62.061H191.033V67H190.186ZM198.702 67.121C198.122 67.121 197.624 66.9633 197.206 66.648C196.788 66.3327 196.579 65.8927 196.579 65.328C196.579 64.734 196.799 64.2757 197.239 63.953C197.679 63.6303 198.269 63.469 199.01 63.469C199.596 63.469 200.176 63.5497 200.748 63.711V63.535C200.748 63.0363 200.601 62.655 200.308 62.391C200.014 62.127 199.6 61.995 199.065 61.995C198.507 61.995 197.932 62.1307 197.338 62.402L197.085 61.709C197.789 61.3863 198.478 61.225 199.153 61.225C199.959 61.225 200.572 61.434 200.99 61.852C201.386 62.248 201.584 62.8053 201.584 63.524V67H200.748V66.153C200.242 66.7983 199.56 67.121 198.702 67.121ZM198.867 66.439C199.395 66.439 199.842 66.296 200.209 66.01C200.575 65.724 200.759 65.3573 200.759 64.91V64.382C200.201 64.2207 199.648 64.14 199.098 64.14C198.577 64.14 198.17 64.2463 197.877 64.459C197.583 64.6643 197.437 64.9467 197.437 65.306C197.437 65.6507 197.572 65.9257 197.844 66.131C198.122 66.3363 198.463 66.439 198.867 66.439ZM203.378 67V61.313H204.225V64.591L207.338 61.313H208.383L206.007 63.777L208.449 67H207.448L205.424 64.393L204.225 65.625V67H203.378ZM214.338 66.263C213.766 66.8423 213.058 67.132 212.215 67.132C211.372 67.132 210.668 66.8423 210.103 66.263C209.546 65.6837 209.267 64.9833 209.267 64.162C209.267 63.348 209.549 62.6513 210.114 62.072C210.686 61.4853 211.394 61.192 212.237 61.192C213.08 61.192 213.784 61.4817 214.349 62.061C214.914 62.6403 215.196 63.3407 215.196 64.162C215.196 64.976 214.91 65.6763 214.338 66.263ZM212.237 66.373C212.846 66.373 213.344 66.1603 213.733 65.735C214.129 65.3097 214.327 64.7853 214.327 64.162C214.327 63.546 214.122 63.0217 213.711 62.589C213.308 62.1563 212.809 61.94 212.215 61.94C211.606 61.94 211.108 62.1563 210.719 62.589C210.33 63.0143 210.136 63.5387 210.136 64.162C210.136 64.778 210.338 65.3023 210.741 65.735C211.144 66.1603 211.643 66.373 212.237 66.373ZM216.73 67V61.313H219.48C220.045 61.313 220.496 61.4413 220.833 61.698C221.171 61.9547 221.339 62.2993 221.339 62.732C221.339 63.3407 221.024 63.777 220.393 64.041C221.229 64.2683 221.647 64.7377 221.647 65.449C221.647 65.9257 221.46 66.3033 221.086 66.582C220.712 66.8607 220.21 67 219.579 67H216.73ZM217.577 66.274H219.469C219.873 66.274 220.192 66.1897 220.426 66.021C220.661 65.8523 220.778 65.6177 220.778 65.317C220.778 65.0383 220.654 64.822 220.404 64.668C220.162 64.514 219.814 64.437 219.359 64.437H217.577V66.274ZM217.577 63.755H219.326C219.678 63.755 219.957 63.678 220.162 63.524C220.375 63.3627 220.481 63.1353 220.481 62.842C220.481 62.6 220.382 62.4057 220.184 62.259C219.986 62.1123 219.708 62.039 219.348 62.039H217.577V63.755ZM223.175 67V61.313H224.022V64.591L227.135 61.313H228.18L225.804 63.777L228.246 67H227.245L225.221 64.393L224.022 65.625V67H223.175ZM231.111 67.121C230.531 67.121 230.033 66.9633 229.615 66.648C229.197 66.3327 228.988 65.8927 228.988 65.328C228.988 64.734 229.208 64.2757 229.648 63.953C230.088 63.6303 230.678 63.469 231.419 63.469C232.005 63.469 232.585 63.5497 233.157 63.711V63.535C233.157 63.0363 233.01 62.655 232.717 62.391C232.423 62.127 232.009 61.995 231.474 61.995C230.916 61.995 230.341 62.1307 229.747 62.402L229.494 61.709C230.198 61.3863 230.887 61.225 231.562 61.225C232.368 61.225 232.981 61.434 233.399 61.852C233.795 62.248 233.993 62.8053 233.993 63.524V67H233.157V66.153C232.651 66.7983 231.969 67.121 231.111 67.121ZM231.276 66.439C231.804 66.439 232.251 66.296 232.618 66.01C232.984 65.724 233.168 65.3573 233.168 64.91V64.382C232.61 64.2207 232.057 64.14 231.507 64.14C230.986 64.14 230.579 64.2463 230.286 64.459C229.992 64.6643 229.846 64.9467 229.846 65.306C229.846 65.6507 229.981 65.9257 230.253 66.131C230.531 66.3363 230.872 66.439 231.276 66.439ZM235.479 68.342L235.347 67.957C235.838 67.7737 236.084 67.4913 236.084 67.11V67H235.688V65.845H236.7V66.835C236.7 67.275 236.601 67.6123 236.403 67.847C236.212 68.0817 235.904 68.2467 235.479 68.342ZM240.945 68.419V66.252H241.561C242.067 65.3207 242.32 64.0043 242.32 62.303V61.313H246.368V66.252H247.226L247.094 68.419H246.39V67H241.792L241.638 68.419H240.945ZM242.463 66.252H245.521V62.061H243.134V62.853C243.134 64.283 242.91 65.416 242.463 66.252ZM253.106 66.263C252.534 66.8423 251.827 67.132 250.983 67.132C250.14 67.132 249.436 66.8423 248.871 66.263C248.314 65.6837 248.035 64.9833 248.035 64.162C248.035 63.348 248.318 62.6513 248.882 62.072C249.454 61.4853 250.162 61.192 251.005 61.192C251.849 61.192 252.553 61.4817 253.117 62.061C253.682 62.6403 253.964 63.3407 253.964 64.162C253.964 64.976 253.678 65.6763 253.106 66.263ZM251.005 66.373C251.614 66.373 252.113 66.1603 252.501 65.735C252.897 65.3097 253.095 64.7853 253.095 64.162C253.095 63.546 252.89 63.0217 252.479 62.589C252.076 62.1563 251.577 61.94 250.983 61.94C250.375 61.94 249.876 62.1563 249.487 62.589C249.099 63.0143 248.904 63.5387 248.904 64.162C248.904 64.778 249.106 65.3023 249.509 65.735C249.913 66.1603 250.411 66.373 251.005 66.373ZM258.062 67.132C257.24 67.132 256.547 66.8423 255.983 66.263C255.425 65.6763 255.147 64.976 255.147 64.162C255.147 63.348 255.425 62.6513 255.983 62.072C256.547 61.4853 257.24 61.192 258.062 61.192C258.942 61.192 259.701 61.5293 260.339 62.204L259.8 62.776C259.272 62.2187 258.689 61.94 258.051 61.94C257.479 61.94 256.995 62.1563 256.599 62.589C256.21 63.0143 256.016 63.5387 256.016 64.162C256.016 64.778 256.214 65.3023 256.61 65.735C257.013 66.1603 257.512 66.373 258.106 66.373C258.714 66.373 259.286 66.087 259.822 65.515L260.383 66.032C259.723 66.7653 258.949 67.132 258.062 67.132ZM263.158 67V62.061H261.123V61.313H266.051V62.061H264.016V67H263.158ZM268.977 67.121C268.398 67.121 267.899 66.9633 267.481 66.648C267.063 66.3327 266.854 65.8927 266.854 65.328C266.854 64.734 267.074 64.2757 267.514 63.953C267.954 63.6303 268.544 63.469 269.285 63.469C269.872 63.469 270.451 63.5497 271.023 63.711V63.535C271.023 63.0363 270.876 62.655 270.583 62.391C270.29 62.127 269.875 61.995 269.34 61.995C268.783 61.995 268.207 62.1307 267.613 62.402L267.36 61.709C268.064 61.3863 268.753 61.225 269.428 61.225C270.235 61.225 270.847 61.434 271.265 61.852C271.661 62.248 271.859 62.8053 271.859 63.524V67H271.023V66.153C270.517 66.7983 269.835 67.121 268.977 67.121ZM269.142 66.439C269.67 66.439 270.117 66.296 270.484 66.01C270.851 65.724 271.034 65.3573 271.034 64.91V64.382C270.477 64.2207 269.923 64.14 269.373 64.14C268.852 64.14 268.445 64.2463 268.152 64.459C267.859 64.6643 267.712 64.9467 267.712 65.306C267.712 65.6507 267.848 65.9257 268.119 66.131C268.398 66.3363 268.739 66.439 269.142 66.439ZM273.653 67V61.313H276.403C276.968 61.313 277.419 61.4413 277.756 61.698C278.093 61.9547 278.262 62.2993 278.262 62.732C278.262 63.3407 277.947 63.777 277.316 64.041C278.152 64.2683 278.57 64.7377 278.57 65.449C278.57 65.9257 278.383 66.3033 278.009 66.582C277.635 66.8607 277.133 67 276.502 67H273.653ZM274.5 66.274H276.392C276.795 66.274 277.114 66.1897 277.349 66.021C277.584 65.8523 277.701 65.6177 277.701 65.317C277.701 65.0383 277.576 64.822 277.327 64.668C277.085 64.514 276.737 64.437 276.282 64.437H274.5V66.274ZM274.5 63.755H276.249C276.601 63.755 276.88 63.678 277.085 63.524C277.298 63.3627 277.404 63.1353 277.404 62.842C277.404 62.6 277.305 62.4057 277.107 62.259C276.909 62.1123 276.63 62.039 276.271 62.039H274.5V63.755ZM280.098 67V61.313H280.945V64.591L284.058 61.313H285.103L282.727 63.777L285.169 67H284.168L282.144 64.393L280.945 65.625V67H280.098ZM288.034 67.121C287.454 67.121 286.956 66.9633 286.538 66.648C286.12 66.3327 285.911 65.8927 285.911 65.328C285.911 64.734 286.131 64.2757 286.571 63.953C287.011 63.6303 287.601 63.469 288.342 63.469C288.928 63.469 289.508 63.5497 290.08 63.711V63.535C290.08 63.0363 289.933 62.655 289.64 62.391C289.346 62.127 288.932 61.995 288.397 61.995C287.839 61.995 287.264 62.1307 286.67 62.402L286.417 61.709C287.121 61.3863 287.81 61.225 288.485 61.225C289.291 61.225 289.904 61.434 290.322 61.852C290.718 62.248 290.916 62.8053 290.916 63.524V67H290.08V66.153C289.574 66.7983 288.892 67.121 288.034 67.121ZM288.199 66.439C288.727 66.439 289.174 66.296 289.541 66.01C289.907 65.724 290.091 65.3573 290.091 64.91V64.382C289.533 64.2207 288.98 64.14 288.43 64.14C287.909 64.14 287.502 64.2463 287.209 64.459C286.915 64.6643 286.769 64.9467 286.769 65.306C286.769 65.6507 286.904 65.9257 287.176 66.131C287.454 66.3363 287.795 66.439 288.199 66.439Z" fill="#686868"/>
</g>
</g>
</g>
<defs>
<filter id="filter0_ddd_996_13959" x="7.48125" y="-27.9125" width="372.038" height="185.038" filterUnits="userSpaceOnUse" color-interpolation-filters="sRGB">
<feFlood flood-opacity="0" result="BackgroundImageFix"/>
<feColorMatrix in="SourceAlpha" type="matrix" values="0 0 0 0 0 0 0 0 0 0 0 0 0 0 0 0 0 0 127 0" result="hardAlpha"/>
<feOffset dy="0.74375"/>
<feGaussianBlur stdDeviation="4.27812"/>
<feColorMatrix type="matrix" values="0 0 0 0 0 0 0 0 0 0 0 0 0 0 0 0 0 0 0.0195 0"/>
<feBlend mode="normal" in2="BackgroundImageFix" result="effect1_dropShadow_996_13959"/>
<feColorMatrix in="SourceAlpha" type="matrix" values="0 0 0 0 0 0 0 0 0 0 0 0 0 0 0 0 0 0 127 0" result="hardAlpha"/>
<feOffset dy="3.4"/>
<feGaussianBlur stdDeviation="12.025"/>
<feColorMatrix type="matrix" values="0 0 0 0 0 0 0 0 0 0 0 0 0 0 0 0 0 0 0.03 0"/>
<feBlend mode="normal" in2="effect1_dropShadow_996_13959" result="effect2_dropShadow_996_13959"/>
<feColorMatrix in="SourceAlpha" type="matrix" values="0 0 0 0 0 0 0 0 0 0 0 0 0 0 0 0 0 0 127 0" result="hardAlpha"/>
<feOffset dy="8.60625"/>
<feGaussianBlur stdDeviation="32.2594"/>
<feColorMatrix type="matrix" values="0 0 0 0 0 0 0 0 0 0 0 0 0 0 0 0 0 0 0.0405 0"/>
<feBlend mode="normal" in2="effect2_dropShadow_996_13959" result="effect3_dropShadow_996_13959"/>
<feBlend mode="normal" in="SourceGraphic" in2="effect3_dropShadow_996_13959" result="shape"/>
</filter>
<clipPath id="clip0_996_13959">
<path d="M0 76C0 58.3269 14.3269 44 32 44H354C371.673 44 386 58.3269 386 76V316H0V76Z" fill="white"/>
</clipPath>
</defs>
</svg>
