<svg width="443" height="460" viewBox="0 0 443 460" fill="none" xmlns="http://www.w3.org/2000/svg">
<path d="M350.652 193.457C277.882 151.438 160.28 151.438 87.9753 193.457C15.6703 235.476 16.063 303.598 88.8329 345.609C161.603 387.62 279.213 387.628 351.51 345.609C423.807 303.59 423.43 235.476 350.652 193.457Z" fill="white"/>
<path d="M376.932 267.341C382.302 264.247 390.973 264.247 396.311 267.341C401.648 270.434 401.616 275.459 396.247 278.561C390.877 281.662 382.205 281.662 376.868 278.561C371.53 275.459 371.562 270.458 376.932 267.341Z" fill="#E0E0E0"/>
<path d="M224.268 271.869L214.339 258.373C213.337 257.01 212.053 255.879 210.574 255.058C209.096 254.236 207.458 253.743 205.771 253.612L191.137 252.49L167.896 238.361L176.591 233.336C176.705 233.264 176.799 233.164 176.865 233.045C176.93 232.927 176.964 232.794 176.964 232.659C176.964 232.524 176.93 232.391 176.865 232.272C176.799 232.154 176.705 232.054 176.591 231.982L172.977 229.922C172.264 229.514 171.457 229.3 170.637 229.3C169.816 229.3 169.009 229.514 168.296 229.922L83.0643 279.202C82.95 279.274 82.856 279.374 82.7908 279.493C82.7256 279.611 82.6914 279.744 82.6914 279.879C82.6914 280.014 82.7256 280.147 82.7908 280.266C82.856 280.384 82.95 280.484 83.0643 280.556L86.5906 282.592C87.3054 283.006 88.1168 283.223 88.9427 283.223C89.7687 283.223 90.5801 283.006 91.2949 282.592L128.289 261.226L151.218 274.377L154.215 282.816C155.138 285.407 156.839 287.649 159.086 289.234C161.333 290.82 164.016 291.671 166.766 291.672H188.164L202.686 300.055L237.772 279.659L224.268 271.869Z" fill="#E0E0E0"/>
<path d="M354.822 259.415C331.628 246.031 294.145 246.031 271.104 259.415C250.74 271.244 248.48 289.565 264.228 302.917C251.517 302.115 238.358 304.519 228.652 310.185C211.622 320.083 211.71 336.128 228.853 346.025C245.995 355.923 273.733 355.915 290.723 346.025C304.267 338.147 306.968 326.382 298.882 316.918C318.405 319.747 339.891 316.741 355.102 307.909C378.143 294.526 378.023 272.815 354.822 259.415Z" fill="#E0E0E0"/>
<path d="M85.5882 296.377C79.4813 292.85 69.6077 292.85 63.5409 296.377C57.4741 299.903 57.5061 305.625 63.613 309.151C69.7199 312.678 79.5935 312.678 85.6604 309.151C91.7272 305.625 91.7032 299.903 85.5882 296.377Z" fill="#E0E0E0"/>
<path d="M145.048 20.4524L149.335 18L149.6 111.719L149.592 111.727L115.034 131.459L115.018 126.554L114.762 37.7392L145.048 20.4524Z" fill="#F0F0F0"/>
<path opacity="0.1" d="M145.303 109.259L145.047 20.4524L149.335 18L149.599 111.719L149.591 111.727L145.287 109.267L145.303 109.259Z" fill="black"/>
<path opacity="0.2" d="M115.018 126.554L145.288 109.267L149.591 111.727L115.034 131.458L115.018 126.554Z" fill="black"/>
<path d="M97.7548 47.4525L102.042 45.0002L102.307 138.719L102.299 138.727L67.7412 158.459L67.7252 153.554L67.4688 64.7394L97.7548 47.4525Z" fill="#F0F0F0"/>
<path opacity="0.1" d="M98.0104 136.259L97.7539 47.4525L102.042 45.0002L102.306 138.719L102.298 138.727L97.9943 136.267L98.0104 136.259Z" fill="black"/>
<path opacity="0.2" d="M67.7246 153.554L97.9946 136.267L102.298 138.727L67.7406 158.459L67.7246 153.554Z" fill="black"/>
<path d="M244.966 73.0506C244.702 72.7701 244.445 72.4816 244.165 72.185L243.996 71.9927C243.572 71.5038 243.195 71.0069 242.762 70.494L242.634 70.3257C242.313 69.917 242.009 69.5243 241.704 69.0675L241.568 68.8832C241.279 68.4664 240.999 68.0817 240.726 67.6169C240.654 67.5127 240.59 67.4085 240.526 67.3043C240.302 66.9517 240.085 66.5991 239.877 66.2384C239.827 66.1666 239.781 66.0916 239.741 66.014C239.5 65.6053 239.268 65.2126 239.043 64.7718L238.883 64.4512C238.707 64.1227 238.539 63.7861 238.37 63.4495L238.21 63.1129C238.002 62.6881 237.809 62.2633 237.617 61.8306L237.545 61.6462C237.376 61.2535 237.216 60.8448 237.064 60.4761L236.928 60.1235C236.751 59.6587 236.583 59.1939 236.431 58.729C236.431 58.729 236.431 58.6569 236.391 58.6168C236.23 58.136 236.086 57.6551 235.95 57.1743L235.878 56.9018C235.718 56.3408 235.581 55.7798 235.461 55.2268C235.461 55.0986 235.413 54.9783 235.381 54.8581L235.261 54.201C235.261 54.0647 235.205 53.9285 235.189 53.7842C235.189 53.5598 235.116 53.3354 235.084 53.111C235.052 52.8866 235.044 52.8465 235.028 52.7103C234.964 52.2294 234.924 51.7486 234.884 51.2757C234.884 51.1715 234.884 51.0674 234.884 50.9712C234.884 50.4823 234.836 49.9934 234.836 49.5126C234.836 49.184 234.836 48.8554 234.836 48.5428V48.1822C234.836 47.9899 234.836 47.7895 234.884 47.6052C234.932 47.4208 234.884 47.3647 234.924 47.2445C234.964 47.1243 234.924 46.8759 234.988 46.6996C235.052 46.5232 235.036 46.4511 235.052 46.3309C235.068 46.2107 235.108 46.0023 235.14 45.842C235.173 45.6817 235.197 45.5936 235.221 45.4654C235.245 45.3371 235.293 45.1688 235.325 45.0166C235.357 44.8643 235.397 44.7761 235.429 44.6559C235.461 44.5357 235.509 44.3754 235.557 44.2392L235.677 43.8865C235.726 43.7583 235.766 43.6221 235.822 43.4938C235.878 43.3656 235.918 43.2774 235.958 43.1652C235.998 43.053 236.062 42.9168 236.118 42.7966C236.174 42.6764 236.222 42.5882 236.279 42.484C236.335 42.3798 236.391 42.2516 236.455 42.1394L236.631 41.8509L236.823 41.5223L237.016 41.2498C237.088 41.1537 237.152 41.0495 237.232 40.9533C237.312 40.8571 237.368 40.785 237.441 40.6968C237.513 40.6087 237.585 40.5125 237.665 40.4244C237.745 40.3362 237.817 40.2641 237.889 40.1839L238.13 39.9355L238.37 39.7191L238.627 39.4947L238.883 39.3024L239.156 39.102L239.42 38.9257C240.245 38.4105 241.153 38.0442 242.105 37.8438C240.302 39.8714 239.244 42.9569 239.228 46.932C239.228 47.4128 239.228 47.9017 239.276 48.3906C239.276 48.4948 239.276 48.5909 239.276 48.6951C239.276 49.168 239.356 49.6488 239.42 50.1297C239.42 50.2659 239.46 50.4022 239.476 50.5304C239.492 50.6586 239.54 50.9792 239.58 51.2036C239.62 51.428 239.628 51.5081 239.661 51.6604L239.781 52.3176C239.781 52.4378 239.837 52.558 239.861 52.6862C239.981 53.2392 240.117 53.8002 240.27 54.3612C240.301 54.4533 240.328 54.5469 240.35 54.6417C240.486 55.1146 240.63 55.5954 240.791 56.0763C240.791 56.0763 240.791 56.1564 240.831 56.1885C240.983 56.6613 241.151 57.1262 241.328 57.583C241.376 57.7032 241.416 57.8234 241.464 57.9356C241.616 58.3283 241.776 58.737 241.945 59.1057L242.017 59.29C242.209 59.7228 242.401 60.1476 242.61 60.5723C242.658 60.6845 242.714 60.7967 242.77 60.9089C242.938 61.2455 243.107 61.5821 243.283 61.9187L243.443 62.2313C243.668 62.648 243.9 63.0327 244.141 63.4735C244.181 63.5536 244.229 63.6258 244.277 63.7059C244.485 64.0585 244.702 64.4192 244.926 64.7718L245.118 65.0764C245.399 65.5011 245.679 65.9259 245.968 66.3426L246.104 66.5269C246.409 66.9597 246.713 67.3765 247.034 67.7932L247.162 67.9615C247.563 68.4744 247.963 68.9713 248.396 69.4602L248.556 69.6525L249.358 70.5261L249.406 70.5742C249.686 70.8707 249.975 71.1672 250.263 71.4477C250.32 71.5118 250.384 71.568 250.448 71.6321C250.824 71.9927 251.201 72.3533 251.594 72.698L251.698 72.7941C252.099 73.1468 252.499 73.4754 252.916 73.8039L253.157 73.9883C253.557 74.3008 253.958 74.5974 254.391 74.8859L254.607 75.0301C255.048 75.3186 255.489 75.5991 255.93 75.8316C256.37 76.064 256.643 76.2243 256.995 76.4086L257.292 76.5528L258.093 76.9215L258.374 77.0417L259.111 77.3222L259.296 77.3863C259.6 77.4905 259.905 77.5867 260.201 77.6668L260.73 77.7951L260.971 77.8592C261.227 77.9153 261.475 77.9553 261.724 77.9954C262.095 78.0558 262.47 78.0933 262.846 78.1076H263.07C263.399 78.1076 263.719 78.1076 264.04 78.1076H264.2C264.455 78.091 264.71 78.0616 264.962 78.0195H265.194L265.435 77.9634C264.84 78.6396 264.139 79.2136 263.359 79.6624L263.279 79.7025H263.223C263.022 79.8147 262.814 79.9108 262.605 80.007L262.389 80.0952C262.17 80.186 261.946 80.2661 261.716 80.3356H261.596C261.331 80.4077 261.059 80.4718 260.794 80.5199H260.578C260.329 80.5199 260.089 80.584 259.833 80.6081H259.64C259.328 80.6081 259.007 80.6081 258.687 80.6081H258.478H257.949L257.34 80.536L256.955 80.4638L256.587 80.3917L256.362 80.3356H256.298L255.825 80.2234C255.529 80.1352 255.232 80.0471 254.936 79.9429L254.751 79.8788L254.006 79.5983L253.742 79.4861C253.475 79.3739 253.207 79.2537 252.94 79.1254L252.764 79.0373C252.719 79.0208 252.676 78.9993 252.636 78.9732C252.283 78.7968 251.93 78.6125 251.57 78.4041C251.209 78.1958 250.688 77.8672 250.255 77.6027H250.191L250.031 77.4985C249.614 77.21 249.23 76.9135 248.797 76.6009L248.645 76.4807L248.556 76.4166C248.148 76.088 247.755 75.7514 247.338 75.4068C247.315 75.3875 247.293 75.366 247.274 75.3427H247.234C246.841 75.0061 246.433 74.6454 246.088 74.2848L245.904 74.1005C245.615 73.82 245.327 73.5234 245.046 73.2269L244.966 73.0506Z" fill="#EBEBEB"/>
<path d="M265.203 63.9066V64.9404L268.112 66.6154V65.5816L265.203 63.9066Z" fill="white"/>
<path d="M241.681 42.1717L241.232 42.7968L243.749 45.9304L244.198 45.2973L241.681 42.1717Z" fill="white"/>
<path d="M270.573 67.521C270.573 78.156 263.015 82.4436 253.742 77.1382C244.47 71.8327 237.033 58.8095 237.057 48.1745C237.081 37.5395 244.614 33.2518 253.887 38.5573C263.159 43.8628 270.605 56.886 270.573 67.521ZM246.209 57.2547C246.279 57.4797 246.427 57.6727 246.626 57.7997C246.679 57.8327 246.74 57.852 246.802 57.8558L253.919 58.4168C253.968 58.4311 254.021 58.4287 254.069 58.4098C254.117 58.391 254.157 58.3568 254.183 58.3126L258.84 50.4185C258.882 50.2793 258.886 50.1312 258.851 49.99C258.815 49.8488 258.742 49.7199 258.639 49.6171C258.582 49.5504 258.514 49.4935 258.439 49.4488C258.279 49.3606 258.118 49.3686 258.038 49.5049L253.462 57.2707L246.449 56.7177C246.225 56.7177 246.113 56.9421 246.209 57.2627V57.2547ZM259.897 50.2902L261.356 48.2386L260.555 47.2769L259.152 49.3526L259.954 50.3143L259.897 50.2902ZM260.555 76.2646L261.356 76.2005L259.833 72.4338L259.032 72.4979L260.474 76.2326L260.555 76.2646ZM241.633 59.4907L244.157 59.2743L243.717 58.1202L241.184 58.3366L241.633 59.4907ZM265.948 73.5317L266.397 72.8986L263.881 69.765L263.432 70.3981L265.948 73.5317ZM241.681 42.1397L241.232 42.7648L243.749 45.8984L244.197 45.2653L241.681 42.1397ZM263.921 57.5753L266.445 57.3589L265.996 56.2128L263.472 56.4212L263.921 57.5753ZM247.091 39.4629L246.289 39.527L247.732 43.2617L248.533 43.1976L247.083 39.4629H247.091ZM247.01 68.4266L248.477 66.3669L247.676 65.4132L246.209 67.4649L247.01 68.4266ZM242.426 51.7569V50.7551L239.517 49.0801V50.1059L242.426 51.7889V51.7569ZM268.112 65.5896L265.203 63.9066V64.9404L268.112 66.6154V65.5896ZM253.326 74.0206L254.215 74.5335V71.1916L253.326 70.6706V74.0206ZM254.311 41.6749L253.422 41.162V44.544L254.311 45.0649V41.7149" fill="#E0E0E0"/>
<path d="M253.414 41.1621L253.406 44.5041L254.296 45.025L254.312 41.675L253.414 41.1621Z" fill="white"/>
<path d="M260.619 47.2686L259.152 49.3202L259.93 50.2819L261.388 48.2303L260.619 47.2686Z" fill="white"/>
<path d="M265.997 56.2129L263.473 56.4213L263.921 57.5753L266.446 57.3589L265.997 56.2129Z" fill="white"/>
<path d="M263.88 69.7651L263.432 70.3983L265.948 73.5319L266.397 72.8987L263.88 69.7651Z" fill="white"/>
<path d="M259.865 72.4336L259.088 72.4977L260.53 76.2324L261.308 76.1683L259.865 72.4336Z" fill="white"/>
<path d="M253.334 70.6709L253.326 74.0209L254.216 74.5338L254.224 71.1918L253.334 70.6709Z" fill="white"/>
<path d="M247.707 65.4131L246.24 67.4647L247.01 68.4265L248.476 66.3668L247.707 65.4131Z" fill="white"/>
<path d="M243.708 58.1203L241.184 58.3367L241.632 59.4907L244.157 59.2743L243.708 58.1203Z" fill="white"/>
<path d="M239.518 49.0801V50.1059L242.427 51.7889V50.7551L239.518 49.0801Z" fill="white"/>
<path d="M247.09 39.4629L246.32 39.527L247.763 43.2617L248.54 43.1976L247.09 39.4629Z" fill="white"/>
<path d="M253.815 57.3669C253.762 57.3338 253.701 57.3146 253.639 57.3108H253.495L246.482 56.7578C246.258 56.7578 246.145 56.9822 246.242 57.3028C246.312 57.5278 246.46 57.7208 246.658 57.8478C246.712 57.8808 246.772 57.9001 246.835 57.9039L253.951 58.4649C254.176 58.4649 254.28 58.2485 254.184 57.9279C254.132 57.7027 254.001 57.5036 253.815 57.3669Z" fill="white"/>
<path d="M258.471 49.4406C258.311 49.3525 258.15 49.3605 258.07 49.4967L253.494 57.2626H253.638C253.701 57.2664 253.762 57.2856 253.815 57.3187C254.013 57.4444 254.158 57.6382 254.223 57.8637C254.32 58.1842 254.223 58.4247 253.991 58.4006C254.04 58.415 254.093 58.4125 254.141 58.3937C254.189 58.3748 254.229 58.3406 254.256 58.2965L258.912 50.4024C258.954 50.2632 258.958 50.115 258.923 49.9738C258.888 49.8326 258.814 49.7037 258.711 49.6009C258.642 49.5334 258.56 49.4791 258.471 49.4406Z" fill="#F5F5F5"/>
<path d="M265.293 80.6083L265.557 80.4C265.656 80.3237 265.75 80.2407 265.838 80.1515C265.926 80.0794 266.014 80.0073 266.094 79.9271L266.359 79.6546L266.599 79.3982C266.688 79.3047 266.771 79.2057 266.847 79.1017C266.92 79.0135 267 78.9253 267.072 78.8292C267.144 78.733 267.224 78.6128 267.296 78.5086C267.368 78.4044 267.44 78.3163 267.505 78.2121C267.569 78.1079 267.649 77.9797 267.713 77.8594C267.777 77.7392 267.849 77.6511 267.905 77.5469C267.961 77.4427 268.034 77.2984 268.098 77.1702L268.274 76.8336L268.442 76.4329C268.49 76.3127 268.546 76.2005 268.595 76.0803C268.643 75.9601 268.699 75.7918 268.747 75.6475C268.795 75.5032 268.843 75.3991 268.883 75.2788C268.923 75.1586 268.971 74.9743 269.011 74.822C269.051 74.6698 269.091 74.5656 269.123 74.4293C269.156 74.2931 269.204 74.1168 269.236 73.9565L269.332 73.5397C269.332 73.3714 269.388 73.1951 269.42 73.0268L269.492 72.6101L269.564 72.017L269.612 71.6403L269.66 70.9591V70.6305C269.66 70.2886 269.66 69.936 269.66 69.5727C269.66 69.0517 269.66 68.5308 269.612 67.9698C269.609 67.9352 269.609 67.9002 269.612 67.8656C269.572 67.2806 269.524 66.6875 269.444 66.0864V65.8861L269.3 64.9163C269.3 64.7561 269.244 64.5958 269.212 64.4275C269.164 64.1951 269.123 63.9546 269.075 63.7142V63.602C268.793 62.2629 268.435 60.941 268.001 59.6429C267.423 57.8963 266.726 56.1907 265.918 54.5378L265.87 54.4336C265.405 53.496 264.916 52.5663 264.387 51.6607L264.243 51.4122C264.002 51.0035 263.754 50.6108 263.505 50.2101L263.329 49.9296C262.64 48.8637 261.919 47.8379 261.149 46.8521C260.396 45.885 259.594 44.9581 258.745 44.0711C258.432 43.7345 258.112 43.414 257.791 43.0854L257.631 42.9411C257.214 42.5244 256.789 42.1397 256.349 41.739H256.301C255.852 41.3383 255.387 40.9375 254.922 40.5849L254.674 40.3846C254.233 40.048 253.792 39.7274 253.335 39.4228L253.287 39.3828C252.999 39.1904 252.71 38.9981 252.422 38.8218C252.133 38.6455 251.925 38.5092 251.668 38.365C251.284 38.1406 250.867 37.9402 250.522 37.7478C249.428 37.1887 248.282 36.7378 247.1 36.4014L246.788 36.3213L246.291 36.2011L245.946 36.137L245.481 36.0568H245.441H245.105L244.512 35.9927H244.463H244.279C243.849 35.9687 243.419 35.9687 242.989 35.9927H242.804C242.532 35.9927 242.26 36.0408 242.003 36.0809C241.624 36.1355 241.249 36.2158 240.881 36.3213H240.817H240.745C240.496 36.4014 240.256 36.4896 240.016 36.5858L239.903 36.6339C239.575 36.7781 239.246 36.9304 238.934 37.1067L243.374 34.5261L243.47 34.47L243.59 34.4059C243.806 34.2937 244.031 34.1815 244.255 34.0853C244.296 34.0608 244.339 34.0393 244.383 34.0212H244.488C244.755 33.9143 245.022 33.8182 245.289 33.7327C245.587 33.6472 245.889 33.5776 246.195 33.5243H246.299H246.443C246.708 33.4771 246.976 33.445 247.244 33.4281H247.381H247.421C247.77 33.4081 248.121 33.4081 248.471 33.4281H248.575H248.919H249.16C249.4 33.4281 249.649 33.4762 249.897 33.5163L250.699 33.6686L250.955 33.7327L251.476 33.8609H251.524C251.845 33.9491 252.173 34.0452 252.502 34.1574L252.702 34.2376C252.967 34.3257 253.231 34.4299 253.504 34.5421L253.616 34.5822L253.816 34.6704C254.097 34.7906 254.385 34.9268 254.674 35.0631L255.002 35.2233C255.379 35.4157 255.804 35.616 256.148 35.8404C256.493 36.0648 257.102 36.4175 257.575 36.738L257.815 36.8983C258.264 37.2029 258.713 37.5234 259.154 37.86L259.402 38.0604C259.851 38.413 260.292 38.7737 260.724 39.1584C260.766 39.1888 260.803 39.2238 260.837 39.2626C261.261 39.6312 261.638 40.0159 262.079 40.4166L262.199 40.5288L262.279 40.609C262.592 40.9135 262.896 41.2261 263.201 41.5546L263.249 41.6027C263.538 41.9153 263.818 42.2278 264.099 42.5484L264.179 42.6366L264.275 42.7568C264.732 43.2857 265.18 43.8227 265.613 44.3596V44.4077C265.648 44.4485 265.68 44.4913 265.709 44.536C266.057 44.9848 266.393 45.4416 266.719 45.9064L266.823 46.0427C266.84 46.0649 266.853 46.0892 266.863 46.1148C267.184 46.5556 267.489 47.0124 267.785 47.4772C267.81 47.523 267.839 47.566 267.873 47.6054L267.993 47.8138C268.234 48.1905 268.466 48.6152 268.699 48.9599L268.803 49.1362C268.806 49.1601 268.806 49.1843 268.803 49.2083C269.067 49.6571 269.316 50.1059 269.556 50.5547L269.612 50.6669L269.733 50.8913L270.286 51.9813C270.286 52.0534 270.358 52.1335 270.398 52.2057C270.438 52.2778 270.438 52.3018 270.462 52.3419C270.678 52.8067 270.895 53.2716 271.095 53.7364C271.11 53.7858 271.129 53.834 271.151 53.8806C271.335 54.3054 271.504 54.7302 271.672 55.1549C271.672 55.227 271.728 55.2912 271.76 55.3633C271.792 55.4354 271.8 55.4755 271.816 55.5396C272.009 56.0365 272.193 56.5414 272.361 57.0463V57.1345C272.538 57.6687 272.698 58.203 272.842 58.7373L272.898 58.9377C272.902 58.9723 272.902 59.0072 272.898 59.0419C273.058 59.6509 273.211 60.252 273.339 60.8531C273.343 60.9065 273.343 60.96 273.339 61.0134L273.387 61.2538C273.435 61.4862 273.475 61.7267 273.523 61.9591C273.571 62.1915 273.579 62.2876 273.611 62.4559C273.644 62.6242 273.684 62.9448 273.716 63.1853C273.716 63.2975 273.756 63.4097 273.772 63.5299C273.768 63.5591 273.768 63.5888 273.772 63.618C273.836 64.139 273.884 64.6599 273.924 65.1728C273.924 65.285 273.924 65.3892 273.924 65.5014C273.924 66.0303 273.98 66.5513 273.98 67.1042C273.98 72.8184 271.945 76.8336 268.699 78.725L264.259 81.3056L264.539 81.1213C264.635 81.0652 264.732 81.0091 264.82 80.945L265.293 80.6083Z" fill="#EBEBEB"/>
<path d="M233.482 48.6793C233.482 60.1718 241.497 74.1728 251.539 79.9351C256.716 82.9244 261.396 83.1408 264.706 81.017C264.802 80.9609 264.898 80.9048 264.987 80.8407L265.291 80.6163L265.556 80.4079C265.655 80.3317 265.749 80.2487 265.836 80.1595C265.924 80.0874 266.012 80.0152 266.093 79.9351L266.357 79.6626L266.598 79.4062C266.687 79.3127 266.77 79.2136 266.846 79.1096C266.918 79.0215 266.998 78.9333 267.07 78.8371C267.143 78.741 267.223 78.6208 267.295 78.5166C267.367 78.4124 267.439 78.3242 267.503 78.22C267.567 78.1158 267.647 77.9876 267.712 77.8674C267.776 77.7472 267.848 77.659 267.904 77.5549C267.96 77.4507 268.032 77.3064 268.096 77.1782L268.273 76.8416L268.441 76.4409C268.489 76.3206 268.545 76.2084 268.593 76.0882C268.641 75.968 268.697 75.7997 268.745 75.6555C268.793 75.5112 268.842 75.407 268.882 75.2868C268.922 75.1666 268.97 74.9823 269.01 74.83C269.05 74.6777 269.09 74.5735 269.122 74.4373C269.154 74.301 269.202 74.1247 269.234 73.9644L269.33 73.5477C269.33 73.3794 269.387 73.2031 269.419 73.0348L269.491 72.618L269.563 72.025L269.611 71.6483L269.659 70.9671V70.6385C269.659 70.2966 269.659 69.9439 269.659 69.5806C269.659 69.0597 269.659 68.5388 269.611 67.9778V67.8736C269.571 67.2885 269.523 66.6955 269.443 66.0944V65.894L269.298 64.9243C269.298 64.764 269.242 64.6037 269.21 64.4354C269.178 64.2671 269.122 63.9626 269.074 63.7222V63.61C268.792 62.2708 268.433 60.949 268 59.6509C267.421 57.9042 266.725 56.1986 265.916 54.5458L265.868 54.4416C265.403 53.5039 264.915 52.5743 264.386 51.6686L264.241 51.4202C264.001 51.0115 263.752 50.6188 263.504 50.2181L263.328 49.9376C262.638 48.8717 261.917 47.8458 261.148 46.8601C260.394 45.893 259.593 44.966 258.744 44.0791C258.431 43.7425 258.11 43.4219 257.79 43.0933L257.63 42.9491C257.213 42.5323 256.788 42.1476 256.347 41.7469H256.299C255.85 41.3462 255.386 40.9455 254.921 40.5929C254.832 40.5306 254.746 40.4637 254.664 40.3925C254.223 40.0559 253.783 39.7353 253.326 39.4308L253.278 39.3907C252.989 39.1984 252.701 39.006 252.412 38.8297C252.124 38.6534 251.915 38.5172 251.659 38.3729C251.274 38.1485 250.857 37.9482 250.513 37.7558C249.419 37.1967 248.273 36.7457 247.091 36.4094L246.762 36.3293L246.265 36.209C246.145 36.209 246.025 36.161 245.905 36.1369L245.44 36.0568L245.063 36.0087L244.47 35.9446H244.238C243.808 35.9205 243.377 35.9205 242.947 35.9446H242.739C242.466 35.9446 242.194 35.9927 241.938 36.0327C241.559 36.0873 241.184 36.1677 240.816 36.2732H240.679C240.431 36.3533 240.19 36.4415 239.95 36.5376L239.822 36.5857C239.493 36.73 239.165 36.8823 238.852 37.0586C235.526 38.9339 233.498 42.9411 233.482 48.6793ZM245.015 73.1069L244.967 73.0508C244.702 72.7703 244.446 72.4818 244.166 72.1853L243.997 71.9929C243.572 71.504 243.196 71.0072 242.763 70.4942L242.635 70.3259C242.314 69.9092 242.01 69.5245 241.705 69.0597L241.569 68.8754C241.28 68.4586 241 68.0739 240.727 67.6091C240.655 67.5049 240.591 67.4007 240.527 67.2965C240.303 66.9519 240.086 66.5913 239.878 66.2306C239.828 66.1588 239.782 66.0838 239.742 66.0062C239.501 65.5975 239.269 65.2048 239.044 64.764L238.884 64.4434C238.708 64.1149 238.539 63.7783 238.371 63.4417L238.211 63.1051C238.002 62.6803 237.81 62.2555 237.618 61.8228L237.546 61.6384C237.377 61.2457 237.217 60.837 237.065 60.4684L236.929 60.1157C236.752 59.6509 236.584 59.1861 236.432 58.7212C236.432 58.7212 236.432 58.6491 236.392 58.609C236.231 58.1282 236.087 57.6473 235.951 57.1665L235.879 56.894C235.718 56.333 235.582 55.772 235.462 55.219C235.462 55.0908 235.414 54.9705 235.382 54.8503L235.262 54.1932C235.262 54.0569 235.206 53.9207 235.189 53.7764C235.173 53.6321 235.109 53.3036 235.077 53.0631C235.045 52.8227 235.037 52.7987 235.021 52.6624C234.957 52.1816 234.917 51.7007 234.877 51.2279C234.877 51.1237 234.877 51.0195 234.877 50.9233C234.877 50.4344 234.829 49.9456 234.829 49.4647C234.829 49.1361 234.829 48.8075 234.829 48.495V48.1343C234.829 47.942 234.829 47.7416 234.877 47.5573C234.925 47.373 234.877 47.3169 234.917 47.1967C234.957 47.0764 234.917 46.828 234.981 46.6517C235.045 46.4754 235.029 46.4032 235.045 46.283C235.061 46.1628 235.101 45.9544 235.133 45.7942C235.165 45.6339 235.189 45.5457 235.214 45.4175C235.238 45.2893 235.286 45.121 235.318 44.9687C235.35 44.8164 235.39 44.7283 235.422 44.608C235.454 44.4878 235.502 44.3275 235.55 44.1913L235.67 43.8387C235.718 43.7104 235.758 43.5742 235.815 43.446C235.871 43.3177 235.911 43.2296 235.951 43.1174C235.991 43.0052 236.055 42.8689 236.111 42.7487C236.167 42.6285 236.215 42.5403 236.271 42.4362C236.328 42.332 236.384 42.2037 236.448 42.0915L236.624 41.803L236.816 41.4744L237.009 41.202C237.081 41.1058 237.145 41.0016 237.225 40.9054C237.305 40.8093 237.361 40.7371 237.433 40.649C237.506 40.5608 237.578 40.4646 237.658 40.3765C237.738 40.2883 237.81 40.2162 237.882 40.1361L238.123 39.8876L238.363 39.6712L238.62 39.4468L238.876 39.2545L239.149 39.0541L239.413 38.8778C240.238 38.3626 241.146 37.9964 242.098 37.7959C244.799 37.2189 248.068 37.852 251.595 39.8876C260.843 45.2251 268.329 58.1763 268.297 68.8112C268.297 72.8184 267.231 75.8638 265.427 77.8914C264.833 78.5677 264.132 79.1417 263.352 79.5905L263.272 79.6306C263.047 79.7508 262.815 79.863 262.582 79.9672L262.366 80.0553C262.147 80.1461 261.923 80.2263 261.693 80.2957H261.573C261.3 80.3679 261.02 80.432 260.771 80.4881H260.555C260.306 80.4881 260.066 80.5522 259.809 80.5762H259.617C259.305 80.5762 258.976 80.5762 258.647 80.5762H258.439H257.91L257.301 80.5041L256.916 80.432L256.548 80.3599C256.451 80.3599 256.355 80.3118 256.259 80.2877L255.786 80.1755C255.166 79.9991 254.556 79.7877 253.959 79.5424L253.694 79.4302C253.366 79.2859 253.045 79.1417 252.717 78.9734C252.672 78.9569 252.629 78.9354 252.589 78.9093C252.236 78.7329 251.883 78.5486 251.523 78.3402C251.162 78.1319 250.641 77.8033 250.208 77.5388H250.144C249.623 77.1862 249.102 76.8095 248.597 76.4168L248.509 76.3527C248.076 76.0081 247.644 75.6555 247.227 75.2788H247.187C246.794 74.9422 246.385 74.5815 246.041 74.2209L245.857 74.0366C245.584 73.7 245.296 73.3954 245.015 73.1069Z" fill="white"/>
<path d="M360.884 109.732L360.836 128.453L358.568 129.776L358.624 108.434L360.884 109.732Z" fill="#F0F0F0"/>
<path d="M385.328 142.599L385.32 145.219L358.568 129.776L360.836 128.453L385.328 142.599Z" fill="#F5F5F5"/>
<path d="M355.812 131.338L388.062 149.956L388.142 122.314L355.901 103.697L355.812 131.338ZM358.569 129.736L358.626 108.385L360.886 109.692L385.385 123.885L385.329 142.607V145.227L358.569 129.736Z" fill="#E0E0E0"/>
<path d="M355.893 103.697L358.161 102.383L390.402 121L388.134 122.315L355.893 103.697Z" fill="#F5F5F5"/>
<path d="M390.403 121L390.323 148.633L388.055 149.956L388.135 122.314L390.403 121Z" fill="#F0F0F0"/>
<path d="M361.848 71.8001L361.799 90.5215L359.523 91.8359L359.588 70.4938L361.848 71.8001Z" fill="#F0F0F0"/>
<path d="M386.291 104.659L386.283 107.288L359.523 91.836L361.799 90.5216L386.291 104.659Z" fill="#F5F5F5"/>
<path d="M356.807 93.4307L389.048 112.048L389.128 84.4066L356.855 65.7653L356.807 93.4307ZM359.556 91.8278L359.62 70.4857L361.848 71.792L386.347 85.9373L386.291 104.651V107.279L359.556 91.8278Z" fill="#E0E0E0"/>
<path d="M356.855 65.7654L359.124 64.443L391.365 83.0602L389.097 84.3826L356.855 65.7654Z" fill="#F5F5F5"/>
<path d="M391.364 83.0602L391.284 110.702L389.016 112.016L389.096 84.3826L391.364 83.0602Z" fill="#F0F0F0"/>
<path d="M368.675 116.84L361.991 122.106L361.975 127.243L384.19 140.066L384.206 134.929L379.975 126.522L376.176 129.471L377.514 133.646L375.567 129.944L368.675 116.84Z" fill="#E0E0E0"/>
<path d="M375.968 119.429C374.926 118.828 374.068 119.317 374.068 120.519C374.103 121.174 374.293 121.81 374.622 122.378C374.95 122.945 375.409 123.425 375.96 123.781C377.002 124.39 377.851 123.901 377.859 122.699C377.824 122.043 377.634 121.406 377.305 120.837C376.977 120.269 376.518 119.787 375.968 119.429Z" fill="#E0E0E0"/>
<path d="M369.629 78.9088L362.954 84.1662L362.938 89.3034L385.153 102.134L385.169 96.9971L380.938 88.5821L377.131 91.5394L378.477 95.7148L376.53 92.0042L369.629 78.9088Z" fill="#E0E0E0"/>
<path d="M376.931 81.4974C375.881 80.8963 375.031 81.3771 375.031 82.5793C375.065 83.2343 375.253 83.8722 375.58 84.4406C375.907 85.0089 376.365 85.4916 376.915 85.8491C377.964 86.4502 378.814 85.9693 378.814 84.7672C378.781 84.1121 378.593 83.4743 378.265 82.9059C377.938 82.3376 377.481 81.8549 376.931 81.4974Z" fill="#E0E0E0"/>
<path d="M293.894 50.2416L341.876 77.9871C342.687 78.4566 343.362 79.1306 343.831 79.942C344.301 80.7534 344.55 81.6738 344.553 82.6113V130.857C344.526 131.78 344.257 132.679 343.773 133.465C343.289 134.251 342.607 134.896 341.795 135.335C340.983 135.774 340.07 135.992 339.148 135.967C338.225 135.942 337.325 135.675 336.538 135.193L316.503 123.3L316.07 123.997C316.07 123.997 316.03 124.037 316.006 124.061H315.958C315.156 124.582 313.802 125.32 313.497 125.48C313.426 125.503 313.348 125.498 313.281 125.465C313.214 125.432 313.162 125.374 313.137 125.304L311.389 120.351L288.525 107.512C287.709 107.046 287.032 106.373 286.56 105.561C286.089 104.749 285.84 103.827 285.84 102.888V54.5773C285.84 50.7304 291.498 48.8631 293.894 50.2416Z" fill="#83C150"/>
<path opacity="0.2" d="M315.998 123.998C315.998 123.998 315.958 124.038 315.934 124.062H315.886C315.085 124.583 313.73 125.32 313.426 125.48C313.462 125.475 313.497 125.461 313.528 125.44C313.558 125.419 313.583 125.392 313.602 125.36L315.293 122.619L314.957 122.427L316.447 123.276L315.998 123.998Z" fill="white"/>
<path opacity="0.4" d="M338.558 83.0121C338.213 82.3229 337.727 81.714 337.131 81.2249C336.927 81.0607 336.71 80.9133 336.482 80.7841L288.501 53.0305C288.23 52.8761 287.923 52.7955 287.612 52.7968C287.3 52.7981 286.994 52.8812 286.725 53.0378C286.455 53.1944 286.232 53.4191 286.077 53.6892C285.921 53.9594 285.84 54.2657 285.84 54.5773C285.84 50.7304 291.498 48.8631 293.894 50.2416L341.876 77.9871C342.706 78.4683 343.392 79.1628 343.863 79.9987L338.558 83.0121Z" fill="white"/>
<path opacity="0.2" d="M339.175 133.655V85.4167C339.176 84.578 338.969 83.7522 338.574 83.0124L343.88 79.999C344.329 80.7965 344.567 81.6961 344.569 82.6117V130.858C344.542 131.78 344.273 132.68 343.789 133.465C343.305 134.251 342.623 134.896 341.811 135.335C341 135.774 340.087 135.992 339.164 135.968C338.241 135.943 337.342 135.676 336.555 135.194C336.824 135.338 337.125 135.411 337.43 135.405C337.736 135.399 338.034 135.315 338.297 135.16C338.56 135.006 338.779 134.786 338.933 134.522C339.087 134.259 339.17 133.96 339.175 133.655Z" fill="white"/>
<path d="M297.589 72.8496L325.439 88.9263L323.764 108.016C323.668 109.178 322.77 109.619 321.704 108.978L300.37 96.6361C299.943 96.3756 299.571 96.0355 299.272 95.6343L299.312 96.1793C299.44 97.3925 299.838 98.5618 300.476 99.6017C301.114 100.642 301.976 101.526 302.999 102.19L303.937 102.727C304.289 102.81 304.626 102.945 304.938 103.128C305.306 103.35 305.642 103.62 305.94 103.929L315.934 109.699C316.288 109.777 316.626 109.913 316.936 110.1C317.299 110.31 317.635 110.563 317.938 110.853L320.061 112.08C320.298 112.238 320.493 112.449 320.632 112.697C320.772 112.945 320.851 113.222 320.863 113.506C320.863 114.027 320.486 114.236 320.061 113.979L319.893 113.883C320.133 114.515 320.258 115.186 320.262 115.862C320.262 117.978 318.763 118.836 316.912 117.77C315.944 117.138 315.138 116.287 314.56 115.286C313.982 114.285 313.649 113.162 313.586 112.008C313.569 111.466 313.702 110.931 313.971 110.461L307.864 106.934C308.098 107.569 308.223 108.238 308.232 108.914C308.232 111.038 306.726 111.887 304.882 110.821C303.912 110.193 303.104 109.342 302.526 108.341C301.947 107.339 301.615 106.214 301.556 105.059C301.539 104.495 301.686 103.938 301.981 103.456C299.543 101.454 297.984 98.578 297.637 95.442L295.746 69.7962C295.688 69.2571 295.511 68.7376 295.227 68.2759C294.942 67.8141 294.558 67.4217 294.103 67.1274L290.657 65.1319C290.422 64.9745 290.227 64.7641 290.088 64.5178C289.949 64.2715 289.869 63.996 289.855 63.7133C289.855 63.1844 290.232 62.976 290.657 63.2405L294.103 65.228C295.012 65.8196 295.778 66.6063 296.345 67.531C296.912 68.4557 297.266 69.495 297.381 70.5736L297.589 72.8496ZM312.167 100.026L312.207 84.7349C312.186 84.3481 312.074 83.9717 311.881 83.6362C311.687 83.3007 311.418 83.0154 311.093 82.8034C310.476 82.4508 309.979 82.7313 309.971 83.4446L309.931 98.7359C309.957 99.1183 310.071 99.4896 310.264 99.8206C310.457 100.152 310.725 100.433 311.045 100.643C311.662 100.996 312.167 100.707 312.167 100.002V100.026ZM316.976 102.791L317.016 87.4998C316.995 87.113 316.883 86.7367 316.689 86.4011C316.496 86.0656 316.226 85.7803 315.902 85.5684C315.285 85.2157 314.78 85.4962 314.78 86.2095V101.501C314.8 101.888 314.911 102.265 315.105 102.6C315.298 102.936 315.569 103.221 315.894 103.432C316.511 103.785 317.008 103.496 317.016 102.791H316.976ZM321.825 105.58L321.873 90.2888C321.846 89.9048 321.73 89.5323 321.534 89.2011C321.338 88.8699 321.067 88.5892 320.743 88.3814C320.126 88.0287 319.621 88.3092 319.621 89.0225L319.581 104.314C319.604 104.707 319.722 105.088 319.925 105.425C320.127 105.763 320.408 106.047 320.743 106.253C321.352 106.606 321.857 106.317 321.857 105.612L321.825 105.58ZM307.367 97.2452L307.407 81.9539C307.391 81.5659 307.281 81.1876 307.087 80.8512C306.893 80.5149 306.621 80.2305 306.293 80.0224C305.676 79.6698 305.179 79.9503 305.171 80.6636V95.9549C305.193 96.3415 305.305 96.7176 305.498 97.0531C305.692 97.3885 305.961 97.6739 306.285 97.8863C306.902 98.239 307.407 97.9505 307.407 97.2452H307.367ZM302.598 94.4562L302.646 79.1649C302.624 78.7784 302.512 78.4025 302.318 78.0672C302.125 77.7319 301.856 77.4464 301.532 77.2335C300.915 76.8808 300.41 77.1613 300.41 77.8746L300.362 93.1659C300.383 93.5516 300.495 93.9268 300.689 94.2611C300.882 94.5953 301.152 94.8791 301.476 95.0893C302.093 95.45 302.598 95.1615 302.598 94.4562ZM305.002 105.556C304.313 105.155 303.752 105.476 303.744 106.269C303.769 106.703 303.895 107.124 304.112 107.5C304.329 107.876 304.631 108.195 304.995 108.433C305.692 108.834 306.245 108.513 306.253 107.72C306.23 107.286 306.105 106.864 305.888 106.488C305.67 106.112 305.367 105.792 305.002 105.556ZM317.024 112.504C316.335 112.104 315.774 112.424 315.774 113.218C315.795 113.651 315.918 114.073 316.134 114.449C316.35 114.825 316.652 115.145 317.016 115.382C317.705 115.782 318.274 115.462 318.274 114.66C318.25 114.228 318.124 113.808 317.907 113.433C317.689 113.058 317.387 112.74 317.024 112.504Z" fill="white"/>
<path d="M333.412 89.3352C333.772 89.5542 334.067 89.8637 334.27 90.2328C334.743 91.0342 334.743 91.9318 334.27 92.1963L327.193 96.2035C327.055 96.2666 326.903 96.2917 326.752 96.2762C326.602 96.2607 326.458 96.2052 326.336 96.1153C325.979 95.8927 325.684 95.584 325.478 95.2177L322.016 89.207C321.535 88.4055 321.543 87.5079 322.016 87.2355C322.154 87.1739 322.306 87.1497 322.456 87.1652C322.607 87.1807 322.751 87.2353 322.873 87.3236C323.23 87.5462 323.525 87.8549 323.731 88.2212L326.352 92.7894L332.571 89.247C332.706 89.1869 332.856 89.1634 333.003 89.1789C333.151 89.1944 333.292 89.2483 333.412 89.3352Z" fill="white"/>
<path d="M328.155 81.9221C332.875 84.647 336.682 91.2508 336.666 96.6684C336.65 102.086 332.819 104.266 328.099 101.541C323.378 98.8163 319.58 92.2285 319.596 86.8028C319.612 81.3772 323.443 79.2053 328.155 81.9221ZM327.153 96.2357L334.23 92.2285C334.711 91.964 334.711 91.0825 334.23 90.265C334.028 89.8959 333.732 89.5864 333.372 89.3674C333.25 89.2775 333.106 89.222 332.956 89.2065C332.805 89.191 332.653 89.2161 332.515 89.2793L326.352 92.7895L323.739 88.2534C323.533 87.8871 323.238 87.5784 322.882 87.3558C322.759 87.2675 322.615 87.2129 322.465 87.1974C322.314 87.1819 322.162 87.2061 322.024 87.2677C321.551 87.5401 321.543 88.4137 322.024 89.2392L325.486 95.2499C325.692 95.6162 325.987 95.9249 326.344 96.1475C326.466 96.2374 326.61 96.2929 326.761 96.3084C326.911 96.3239 327.064 96.2988 327.201 96.2357" fill="#83C150"/>
<path opacity="0.3" d="M328.155 81.9221C332.875 84.647 336.682 91.2508 336.666 96.6684C336.65 102.086 332.819 104.266 328.099 101.541C323.378 98.8163 319.58 92.2285 319.596 86.8028C319.612 81.3772 323.443 79.2053 328.155 81.9221ZM327.153 96.2357L334.23 92.2285C334.711 91.964 334.711 91.0825 334.23 90.265C334.028 89.8959 333.732 89.5864 333.372 89.3674C333.25 89.2775 333.106 89.222 332.956 89.2065C332.805 89.191 332.653 89.2161 332.515 89.2793L326.352 92.7895L323.739 88.2534C323.533 87.8871 323.238 87.5784 322.882 87.3558C322.759 87.2675 322.615 87.2129 322.465 87.1974C322.314 87.1819 322.162 87.2061 322.024 87.2677C321.551 87.5401 321.543 88.4137 322.024 89.2392L325.486 95.2499C325.692 95.6162 325.987 95.9249 326.344 96.1475C326.466 96.2374 326.61 96.2929 326.761 96.3084C326.911 96.3239 327.064 96.2988 327.201 96.2357" fill="white"/>
<path d="M174.331 58.6809C173.77 56.7014 169.746 52.9346 165.739 53.0148C165.355 53.0268 164.976 53.1027 164.617 53.2392L86.8865 97.4381C85.5865 98.1769 84.5434 99.2954 83.8971 100.644C83.3842 101.656 83.1101 102.771 83.0957 103.906V272.086C83.0957 276.365 88.0325 280.453 92.6728 278.497C92.7781 278.468 92.8802 278.427 92.9773 278.377L170.716 234.074C171.855 233.423 172.801 232.483 173.46 231.349C174.119 230.214 174.466 228.926 174.467 227.614V59.4903C174.484 59.2136 174.438 58.9366 174.331 58.6809Z" fill="#455A64"/>
<path d="M93.9375 121.697C93.9401 121.045 94.1149 120.405 94.4442 119.842C94.7735 119.279 95.2456 118.813 95.8128 118.491L168.03 77.4017C168.312 77.2408 168.631 77.1565 168.955 77.1572C169.28 77.1579 169.599 77.2436 169.88 77.4056C170.161 77.5677 170.395 77.8006 170.558 78.0811C170.722 78.3616 170.809 78.68 170.811 79.0046V214.607C170.804 215.258 170.628 215.896 170.299 216.459C169.97 217.021 169.5 217.487 168.935 217.812L96.7505 258.974C96.4686 259.135 96.1495 259.219 95.8249 259.218C95.5003 259.218 95.1816 259.132 94.9004 258.97C94.6191 258.808 94.3853 258.575 94.222 258.294C94.0587 258.014 93.9716 257.696 93.9696 257.371L93.9375 121.697Z" fill="#83C150"/>
<path opacity="0.2" d="M93.9375 121.697C93.9401 121.045 94.1149 120.405 94.4442 119.842C94.7735 119.279 95.2456 118.813 95.8128 118.491L168.03 77.4017C168.312 77.2408 168.631 77.1565 168.955 77.1572C169.28 77.1579 169.599 77.2436 169.88 77.4056C170.161 77.5677 170.395 77.8006 170.558 78.0811C170.722 78.3616 170.809 78.68 170.811 79.0046V214.607C170.804 215.258 170.628 215.896 170.299 216.459C169.97 217.021 169.5 217.487 168.935 217.812L96.7505 258.974C96.4686 259.135 96.1495 259.219 95.8249 259.218C95.5003 259.218 95.1816 259.132 94.9004 258.97C94.6191 258.808 94.3853 258.575 94.222 258.294C94.0587 258.014 93.9716 257.696 93.9696 257.371L93.9375 121.697Z" fill="black"/>
<path opacity="0.1" d="M93.9375 121.697C93.9401 121.045 94.1149 120.405 94.4442 119.842C94.7735 119.279 95.2456 118.813 95.8128 118.491L168.03 77.4017C168.312 77.2408 168.631 77.1565 168.955 77.1572C169.28 77.1579 169.599 77.2436 169.88 77.4056C170.161 77.5677 170.395 77.8006 170.558 78.0811C170.722 78.3616 170.809 78.68 170.811 79.0046V214.607C170.804 215.258 170.628 215.896 170.299 216.459C169.97 217.021 169.5 217.487 168.935 217.812L96.7505 258.974C96.4686 259.135 96.1495 259.219 95.8249 259.218C95.5003 259.218 95.1816 259.132 94.9004 258.97C94.6191 258.808 94.3853 258.575 94.222 258.294C94.0587 258.014 93.9716 257.696 93.9696 257.371L93.9375 121.697Z" fill="white"/>
<path opacity="0.3" d="M83.127 103.921V272.086C83.127 276.365 88.0638 280.453 92.704 278.497C92.4255 278.599 92.1265 278.632 91.8325 278.594C91.5384 278.555 91.2579 278.447 91.0148 278.277C90.7718 278.107 90.5733 277.881 90.4362 277.618C90.2992 277.355 90.2276 277.063 90.2276 276.766V108.57C90.2475 107.103 90.7021 105.675 91.534 104.466L83.8963 100.644C83.3921 101.663 83.1289 102.784 83.127 103.921Z" fill="black"/>
<path opacity="0.1" d="M165.747 53.0066C165.363 53.0187 164.984 53.0945 164.625 53.231L86.8858 97.4379C85.5858 98.1768 84.5428 99.2953 83.8965 100.644L91.5341 104.466C92.1675 103.477 93.0274 102.653 94.0426 102.062L171.781 57.8393C172.001 57.7129 172.245 57.6333 172.497 57.6054C172.749 57.5775 173.004 57.6019 173.246 57.6771C173.489 57.7523 173.713 57.8767 173.905 58.0425C174.097 58.2083 174.252 58.412 174.362 58.6407C173.777 56.6932 169.754 52.9265 165.747 53.0066Z" fill="white"/>
<path d="M141.969 85.6407C142.522 85.3282 142.97 85.5766 142.97 86.2018C142.95 86.5463 142.849 86.8813 142.676 87.1804C142.504 87.4794 142.264 87.7342 141.977 87.9248L126.749 96.7406C126.204 97.0611 125.764 96.7967 125.764 96.1635C125.782 95.8235 125.88 95.4926 126.05 95.1974C126.22 94.9023 126.457 94.6512 126.741 94.4645L141.969 85.6407Z" fill="#263238"/>
<path d="M122.789 96.7084C123.334 96.3959 123.774 96.6443 123.774 97.2774C123.755 97.6204 123.656 97.954 123.485 98.2518C123.314 98.5495 123.075 98.8032 122.789 98.9925C122.244 99.3051 121.795 99.0486 121.795 98.4235C121.812 98.0791 121.911 97.7438 122.084 97.4455C122.257 97.1472 122.498 96.8944 122.789 96.7084Z" fill="#263238"/>
<path d="M132.568 84.3665C133.658 83.7333 134.539 84.2382 134.539 85.4885C134.505 86.1734 134.31 86.8405 133.968 87.4353C133.627 88.0301 133.15 88.5357 132.576 88.9106C131.486 89.5437 130.58 89.0308 130.58 87.7726C130.62 87.0886 130.821 86.4237 131.167 85.8319C131.512 85.2402 131.992 84.7381 132.568 84.3665Z" fill="#263238"/>
<path d="M132.567 242.673C134.795 241.391 136.575 242.417 136.575 244.965C136.504 246.362 136.104 247.722 135.407 248.935C134.711 250.148 133.738 251.18 132.567 251.946C130.347 253.228 128.504 252.178 128.496 249.621C128.579 248.224 128.991 246.867 129.699 245.659C130.406 244.452 131.389 243.428 132.567 242.673Z" fill="#263238"/>
<path d="M170.573 75.2705L196.828 97.0614L187.259 102.591L161.012 80.8004L170.573 75.2705Z" fill="#83C150"/>
<path d="M151.442 86.3301L177.689 108.113L168.12 113.643L141.881 91.8599L151.442 86.3301Z" fill="#83C150"/>
<path d="M141.88 91.8599L168.118 113.643L158.549 119.173L132.311 97.3897L141.88 91.8599Z" fill="white"/>
<path d="M161.01 80.8003L187.257 102.591L177.688 108.113L151.441 86.3302L161.01 80.8003Z" fill="white"/>
<path d="M113.18 108.441L139.411 130.224L129.842 135.754L103.611 113.971L113.18 108.441Z" fill="#83C150"/>
<path d="M132.311 97.3896L158.55 119.173L148.981 124.694L122.742 102.912L132.311 97.3896Z" fill="#83C150"/>
<path d="M93.8672 119.605L103.613 113.971L129.843 135.754L120.074 141.396L93.8672 119.605Z" fill="white"/>
<path d="M122.741 102.912L148.98 124.694L139.411 130.224L113.18 108.441L122.741 102.912Z" fill="white"/>
<path d="M196.827 97.0612L187.258 102.591C187.257 103.24 187.427 103.877 187.751 104.439C188.074 105.001 188.54 105.468 189.101 105.792C189.663 106.117 190.3 106.289 190.948 106.289C191.596 106.29 192.234 106.12 192.796 105.797C194.016 105.084 195.028 104.063 195.731 102.837C196.435 101.611 196.804 100.222 196.803 98.8083L196.827 97.0612Z" fill="#83C150"/>
<path d="M187.257 102.591L177.688 108.121C177.687 108.769 177.857 109.406 178.18 109.968C178.504 110.53 178.97 110.997 179.531 111.322C180.092 111.647 180.729 111.818 181.378 111.819C182.026 111.82 182.663 111.65 183.225 111.326C184.447 110.615 185.46 109.594 186.163 108.368C186.867 107.141 187.235 105.752 187.233 104.338L187.257 102.591Z" fill="#E0E0E0"/>
<path d="M177.688 108.121L168.119 113.643C168.118 114.291 168.289 114.928 168.612 115.49C168.936 116.052 169.402 116.519 169.963 116.844C170.524 117.169 171.161 117.34 171.809 117.341C172.458 117.342 173.095 117.172 173.657 116.848C174.879 116.137 175.892 115.116 176.595 113.89C177.298 112.663 177.667 111.274 177.664 109.86L177.688 108.121Z" fill="#83C150"/>
<path d="M168.12 113.643L158.551 119.172C158.548 119.822 158.716 120.461 159.039 121.024C159.362 121.587 159.828 122.055 160.39 122.381C160.952 122.706 161.59 122.877 162.24 122.877C162.889 122.876 163.527 122.704 164.089 122.378C165.31 121.668 166.322 120.649 167.026 119.424C167.729 118.199 168.098 116.81 168.096 115.398L168.12 113.643Z" fill="#E0E0E0"/>
<path d="M158.552 119.173L148.982 124.687C148.982 125.335 149.152 125.972 149.475 126.534C149.799 127.096 150.265 127.563 150.826 127.888C151.387 128.213 152.024 128.384 152.673 128.385C153.321 128.386 153.958 128.216 154.52 127.892C155.742 127.181 156.755 126.16 157.458 124.934C158.161 123.707 158.53 122.318 158.527 120.904L158.552 119.173Z" fill="#83C150"/>
<path d="M148.981 124.687L139.412 130.208C139.411 130.857 139.581 131.494 139.905 132.056C140.229 132.618 140.695 133.085 141.256 133.41C141.817 133.735 142.454 133.906 143.102 133.907C143.751 133.908 144.388 133.738 144.95 133.414C146.17 132.701 147.183 131.681 147.886 130.454C148.589 129.228 148.958 127.839 148.957 126.426L148.981 124.687Z" fill="#E0E0E0"/>
<path d="M139.413 130.225L129.844 135.754C129.841 136.404 130.009 137.043 130.332 137.606C130.655 138.169 131.121 138.637 131.683 138.963C132.245 139.288 132.883 139.459 133.533 139.459C134.182 139.458 134.82 139.286 135.382 138.96C136.607 138.253 137.623 137.234 138.327 136.006C139.031 134.779 139.397 133.387 139.389 131.972L139.413 130.225Z" fill="#83C150"/>
<path opacity="0.2" d="M196.827 97.0612L187.258 102.591C187.257 103.24 187.427 103.877 187.751 104.439C188.074 105.001 188.54 105.468 189.101 105.792C189.663 106.117 190.3 106.289 190.948 106.289C191.596 106.29 192.234 106.12 192.796 105.797C194.016 105.084 195.028 104.063 195.731 102.837C196.435 101.611 196.804 100.222 196.803 98.8083L196.827 97.0612Z" fill="black"/>
<path opacity="0.2" d="M177.688 108.121L168.119 113.643C168.118 114.291 168.289 114.928 168.612 115.49C168.936 116.052 169.402 116.519 169.963 116.844C170.524 117.169 171.161 117.34 171.809 117.341C172.458 117.342 173.095 117.172 173.657 116.848C174.879 116.137 175.892 115.116 176.595 113.89C177.298 112.663 177.667 111.274 177.664 109.86L177.688 108.121Z" fill="black"/>
<path opacity="0.2" d="M158.552 119.173L148.982 124.687C148.982 125.335 149.152 125.972 149.475 126.534C149.799 127.096 150.265 127.563 150.826 127.888C151.387 128.213 152.024 128.384 152.673 128.385C153.321 128.386 153.958 128.216 154.52 127.892C155.742 127.181 156.755 126.16 157.458 124.934C158.161 123.707 158.53 122.318 158.527 120.904L158.552 119.173Z" fill="black"/>
<path opacity="0.2" d="M139.413 130.225L129.844 135.754C129.841 136.404 130.009 137.043 130.332 137.606C130.655 138.169 131.121 138.637 131.683 138.963C132.245 139.288 132.883 139.459 133.533 139.459C134.182 139.458 134.82 139.286 135.382 138.96C136.607 138.253 137.623 137.234 138.327 136.006C139.031 134.779 139.397 133.387 139.389 131.972L139.413 130.225Z" fill="black"/>
<path d="M129.844 135.754L120.074 141.364C120.072 142.012 120.241 142.65 120.563 143.212C120.886 143.774 121.351 144.241 121.912 144.567C122.473 144.892 123.109 145.063 123.758 145.064C124.406 145.064 125.043 144.894 125.604 144.57C126.894 143.825 127.965 142.754 128.709 141.464C129.453 140.174 129.845 138.71 129.844 137.221V135.754Z" fill="#E0E0E0"/>
<path d="M140.998 163.957C138.159 164.293 135.406 165.143 132.871 166.465C126.963 169.513 122.448 174.71 120.257 180.987C119.306 183.683 118.853 186.528 118.918 189.386C119.548 186.686 120.459 184.059 121.635 181.548C124.267 175.922 128.416 171.143 133.617 167.747C135.939 166.232 138.413 164.962 140.998 163.957Z" fill="#83C150"/>
<path d="M133.513 205.919C131.955 205.893 130.411 205.623 128.937 205.118C127.299 204.575 125.787 203.708 124.49 202.57C123.193 201.431 122.138 200.044 121.388 198.49C120.694 197.096 120.226 195.6 120.001 194.058C119.833 195.671 120.045 197.301 120.618 198.819C121.264 200.586 122.344 202.163 123.758 203.403C125.172 204.644 126.876 205.509 128.713 205.919C130.291 206.293 131.935 206.293 133.513 205.919Z" fill="#83C150"/>
<path d="M145.936 180.145C146.092 182.281 146.06 184.427 145.84 186.557C145.332 191.37 143.755 196.009 141.224 200.133C140.099 201.966 138.815 203.696 137.385 205.302C139.226 204.071 140.851 202.544 142.193 200.782C145.302 196.724 146.992 191.757 147.002 186.645C147.006 184.435 146.646 182.239 145.936 180.145Z" fill="#83C150"/>
<path d="M120.811 171.298C118.873 173.161 117.29 175.361 116.138 177.789C113.425 183.425 112.971 189.886 114.872 195.846C115.682 198.411 116.944 200.81 118.599 202.93C117.547 200.539 116.741 198.047 116.195 195.493C114.995 189.773 115.412 183.832 117.397 178.334C118.285 175.876 119.429 173.517 120.811 171.298Z" fill="#83C150"/>
<path d="M151.424 172.243C151.219 170.054 150.434 167.96 149.148 166.176C147.689 164.07 145.647 162.435 143.273 161.471C140.899 160.507 138.295 160.257 135.78 160.751C133.617 161.142 131.596 162.099 129.922 163.524C131.804 162.601 133.843 162.041 135.933 161.873C138.238 161.661 140.561 162.005 142.707 162.875C144.853 163.745 146.759 165.116 148.267 166.874C149.648 168.449 150.719 170.271 151.424 172.243Z" fill="#83C150"/>
<path d="M185.798 147.126C188.336 146.868 190.879 147.578 192.916 149.115C194.954 150.652 196.336 152.901 196.785 155.413L200.504 176.25L223.826 192.559L218.616 198.899L196.433 187.246C195.126 186.56 193.97 185.62 193.033 184.48C192.095 183.34 191.396 182.024 190.975 180.61L183.826 156.495L185.798 147.126Z" fill="#FFA8A7"/>
<path d="M194.453 169.519C196.514 168.422 198.164 166.687 199.158 164.574L197.066 155.021C196.532 152.595 195.125 150.45 193.112 148.994C191.099 147.539 188.621 146.874 186.15 147.127L185.798 147.167L183.826 156.552L186.904 170.368C189.44 171.002 192.121 170.7 194.453 169.519Z" fill="#455A64"/>
<path d="M194.454 169.519C192.121 170.7 189.441 171.002 186.904 170.368L187.706 173.774C190.599 174.423 198.012 174.207 199.944 168.084L199.142 164.558C198.156 166.674 196.511 168.415 194.454 169.519Z" fill="#455A64"/>
<path opacity="0.2" d="M194.453 169.519C196.514 168.422 198.164 166.687 199.158 164.574L197.066 155.021C196.532 152.595 195.125 150.45 193.112 148.994C191.099 147.539 188.621 146.874 186.15 147.127L185.798 147.167L183.826 156.552L186.904 170.368C189.44 171.002 192.121 170.7 194.453 169.519Z" fill="white"/>
<path opacity="0.5" d="M194.454 169.519C192.121 170.7 189.441 171.002 186.904 170.368L187.706 173.774C190.599 174.423 198.012 174.207 199.944 168.084L199.142 164.558C198.156 166.674 196.511 168.415 194.454 169.519Z" fill="white"/>
<path d="M190.958 156.094C190.958 156.094 190.029 149.002 185.797 147.15C185.797 147.15 175.667 150.188 167.268 153.378C163.946 154.589 160.693 155.98 157.523 157.545C155.615 159.196 150.142 164.109 147.569 165.431C146.312 166.059 144.957 166.466 143.562 166.633C141.799 166.916 140.107 167.534 138.577 168.452C130.867 172.908 124.64 183.68 124.664 192.551C124.664 198.362 127.389 201.88 131.42 202.369H131.605C132.241 202.437 132.883 202.437 133.52 202.369C140.532 202.305 151.777 202.249 156.192 200.982C176.821 194.924 193.042 179.985 190.958 156.094Z" fill="#455A64"/>
<path d="M171.302 153.185L174.324 147.704L186.481 155.894L181.673 162.354C180.663 162.848 179.562 163.127 178.439 163.173C177.316 163.218 176.195 163.03 175.149 162.618C174.115 162.142 173.19 161.457 172.432 160.608C171.674 159.759 171.098 158.763 170.741 157.681C170.528 156.933 170.468 156.149 170.564 155.376C170.661 154.604 170.912 153.859 171.302 153.185Z" fill="#FFA8A7"/>
<path opacity="0.2" d="M175.461 148.465C175.461 155.069 180.71 158.162 183.916 159.332L186.481 155.894L175.461 148.465Z" fill="black"/>
<path d="M169.971 141.877C169.522 139.241 169.065 136.532 169.578 133.903C170.091 131.275 171.79 128.71 174.387 127.941C174.914 126.817 175.668 125.814 176.602 124.996C177.536 124.179 178.629 123.563 179.812 123.188C182.133 122.555 184.533 122.263 186.937 122.323C189.59 122.164 192.252 122.312 194.871 122.763C197.51 123.235 199.909 124.595 201.667 126.618C202.569 127.86 203.208 129.271 203.547 130.767C203.886 132.264 203.917 133.813 203.639 135.322C203.064 138.337 201.948 141.223 200.345 143.841C195.248 144.202 190.055 144.787 184.958 145.147C182.361 145.42 179.745 145.444 177.144 145.219C174.49 144.79 172.007 143.634 169.971 141.877Z" fill="#263238"/>
<path d="M201.178 129.655C202.485 137.499 201.62 145.55 198.678 152.937C197.997 154.644 197.075 156.415 195.512 157.321C193.949 158.226 191.77 158.082 189.902 157.794C186.814 157.442 183.802 156.595 180.982 155.285C178.145 153.947 175.934 151.563 174.811 148.633C173.801 148.837 172.753 148.745 171.794 148.368C170.834 147.991 170.004 147.346 169.402 146.509C168.218 144.773 167.605 142.712 167.647 140.611C167.647 139.273 167.895 137.694 169.097 137.109C170.299 136.524 171.55 137.173 172.519 137.958C174.109 139.251 175.271 140.994 175.853 142.959C176.735 139.697 178.105 136.548 178.987 133.342C179.339 132.06 179.788 130.665 180.886 129.952C182.249 129.078 184.028 129.575 185.607 129.952C190.738 131.18 196.098 131.078 201.178 129.655Z" fill="#FFA8A7"/>
<path d="M191.688 139.537L195.495 145.941L190.959 146.798L191.688 139.537Z" fill="#F28F8F"/>
<path d="M186.583 149.002L190.029 150.677C189.735 151.07 189.32 151.355 188.849 151.49C188.377 151.625 187.874 151.601 187.417 151.422C187.022 151.175 186.724 150.8 186.572 150.36C186.42 149.919 186.424 149.44 186.583 149.002Z" fill="#F28F8F"/>
<path opacity="0.3" d="M186.583 149.002L190.029 150.677C189.735 151.07 189.32 151.355 188.849 151.49C188.377 151.625 187.874 151.601 187.417 151.422C187.022 151.175 186.724 150.8 186.572 150.36C186.42 149.919 186.424 149.44 186.583 149.002Z" fill="black"/>
<path d="M188.612 151.534C188.212 151.615 187.796 151.576 187.418 151.422C187.101 151.245 186.844 150.977 186.68 150.653C186.515 150.329 186.452 149.963 186.496 149.603C186.99 149.604 187.47 149.77 187.859 150.075C188.29 150.445 188.56 150.968 188.612 151.534Z" fill="#F28F8F"/>
<path d="M185.118 139.793C185.092 140.051 185.143 140.31 185.265 140.538C185.386 140.766 185.573 140.953 185.801 141.075C186.029 141.197 186.288 141.249 186.545 141.224C186.802 141.198 187.046 141.097 187.246 140.934C187.446 140.77 187.593 140.55 187.668 140.303C187.743 140.055 187.743 139.791 187.668 139.544C187.592 139.296 187.446 139.077 187.246 138.913C187.046 138.749 186.802 138.648 186.544 138.623C186.2 138.59 185.857 138.694 185.589 138.913C185.322 139.133 185.152 139.449 185.118 139.793Z" fill="#263238"/>
<path d="M196.049 140.467C196.024 140.722 196.075 140.979 196.195 141.206C196.315 141.432 196.5 141.618 196.726 141.74C196.952 141.861 197.209 141.913 197.465 141.889C197.72 141.864 197.962 141.765 198.161 141.603C198.36 141.441 198.507 141.223 198.582 140.978C198.658 140.733 198.659 140.471 198.585 140.225C198.512 139.979 198.368 139.761 198.17 139.597C197.973 139.433 197.731 139.331 197.476 139.305C197.306 139.287 197.134 139.303 196.97 139.352C196.806 139.401 196.654 139.482 196.521 139.59C196.389 139.698 196.279 139.831 196.198 139.981C196.117 140.132 196.066 140.297 196.049 140.467Z" fill="#263238"/>
<path d="M197.828 135.434L200.505 137.71C200.665 137.366 200.717 136.981 200.652 136.607C200.588 136.234 200.411 135.888 200.144 135.618C199.814 135.375 199.422 135.228 199.012 135.196C198.603 135.163 198.193 135.246 197.828 135.434Z" fill="#263238"/>
<path d="M187.17 135.258L184.1 136.957C184.01 136.588 184.035 136.201 184.171 135.848C184.307 135.494 184.548 135.19 184.861 134.977C185.234 134.805 185.648 134.74 186.055 134.79C186.463 134.839 186.849 135.001 187.17 135.258Z" fill="#263238"/>
<path d="M203.615 132.292C192.466 134.077 181.104 134.077 169.955 132.292C170.476 118.668 176.607 114.204 187.186 114.204C197.765 114.204 203.735 119.878 203.615 132.292Z" fill="#455A64"/>
<path d="M203.614 132.292C203.614 127.074 202.605 123.067 200.625 120.158L196.193 118.916C194.107 118.33 191.917 118.215 189.782 118.579L185.558 119.284C184.113 119.517 182.783 120.215 181.77 121.273C180.758 122.33 180.118 123.689 179.948 125.143L178.979 133.366C187.204 133.958 195.471 133.598 203.614 132.292Z" fill="#455A64"/>
<path opacity="0.29" d="M203.614 132.292C203.614 127.074 202.605 123.067 200.625 120.158L196.193 118.916C194.107 118.33 191.917 118.215 189.782 118.579L185.558 119.284C184.113 119.517 182.783 120.215 181.77 121.273C180.758 122.33 180.118 123.689 179.948 125.143L178.979 133.366C187.204 133.958 195.471 133.598 203.614 132.292Z" fill="white"/>
<path d="M204.937 120.823H202.981C202.348 120.823 201.723 120.823 201.098 120.895C195.364 121.312 189.93 123.618 185.646 127.451L179.059 133.366C187.258 133.952 195.498 133.591 203.614 132.292L207.902 127.09C208.358 126.527 208.645 125.847 208.732 125.128C208.818 124.409 208.699 123.68 208.389 123.025C208.08 122.37 207.591 121.816 206.98 121.426C206.37 121.037 205.661 120.828 204.937 120.823Z" fill="#455A64"/>
<path opacity="0.2" d="M204.937 120.823H202.981C202.348 120.823 201.723 120.823 201.098 120.895C195.364 121.312 189.93 123.618 185.646 127.451L179.059 133.366C187.258 133.952 195.498 133.591 203.614 132.292L207.902 127.09C208.358 126.527 208.645 125.847 208.732 125.128C208.818 124.409 208.699 123.68 208.389 123.025C208.08 122.37 207.591 121.816 206.98 121.426C206.37 121.037 205.661 120.828 204.937 120.823Z" fill="black"/>
<path d="M238.814 193.658L208.937 211.017L178.867 193.658L208.737 176.291L238.814 193.658Z" fill="#83C150"/>
<g opacity="0.3">
<path opacity="0.3" d="M238.812 193.658L208.935 211.017L178.865 193.658L208.735 176.291L238.812 193.658Z" fill="white"/>
</g>
<path d="M238.813 193.657L238.725 224.047L208.848 241.406L208.936 211.016L238.813 193.657Z" fill="#83C150"/>
<g opacity="0.1">
<path opacity="0.1" d="M238.813 193.657L238.725 224.047L208.848 241.406L208.936 211.016L238.813 193.657Z" fill="white"/>
</g>
<path d="M208.937 211.016L208.849 241.406L178.779 224.047L178.867 193.657L208.937 211.016Z" fill="#83C150"/>
<path d="M214.137 191.43L224.251 185.25L219.09 182.269L208.936 188.328L214.137 191.43Z" fill="#E0E0E0"/>
<path d="M214.137 191.429L208.936 188.328L198.622 182.173L193.477 185.162L203.727 191.429L208.936 194.611L222.689 203.026L228.203 199.82L214.137 191.429Z" fill="white"/>
<path d="M203.727 191.43L189.605 199.853L195.135 203.05L208.936 194.611L203.727 191.43Z" fill="#E0E0E0"/>
<path d="M228.201 199.82L222.688 203.026L222.736 203.05L222.816 233.288L228.394 230.05L228.314 199.876L228.201 199.82Z" fill="#E0E0E0"/>
<path d="M195.137 203.05L189.607 199.853L189.559 199.877L189.471 230.227L195.049 233.441L195.137 203.05Z" fill="white"/>
<path opacity="0.2" d="M195.137 203.05L189.607 199.853L189.559 199.877L189.471 230.227L195.049 233.441L195.137 203.05Z" fill="black"/>
<path d="M208.919 200.614L202.668 204.437L208.919 208.052L215.154 204.429L208.919 200.614Z" fill="white"/>
<path d="M149.775 199.564C149.775 199.564 152.107 165.624 152.596 163.5C154.464 155.43 166.164 156.007 167.278 164.213C167.735 167.563 162.39 200.093 162.39 200.093L181.752 220.578L185.671 224.176L189.165 223.471L197.132 224.224C197.344 224.246 197.543 224.335 197.699 224.48C197.855 224.625 197.96 224.816 197.997 225.026C198.048 225.274 198.002 225.532 197.868 225.747C197.733 225.962 197.521 226.117 197.276 226.18L192.011 227.462L195.809 230.059C196.342 230.424 196.945 230.672 197.581 230.788L203.535 231.918C203.798 231.967 204.034 232.11 204.198 232.322C204.362 232.533 204.443 232.797 204.425 233.064C204.412 233.275 204.339 233.479 204.214 233.649C204.089 233.82 203.917 233.951 203.719 234.026L200.514 235.22C198.437 236 196.216 236.322 194.002 236.164C191.789 236.006 189.636 235.373 187.691 234.306L180.799 230.476C179.788 229.932 178.835 229.287 177.953 228.552L153.245 208.116C152 207.092 151.031 205.774 150.425 204.281C149.819 202.787 149.595 201.166 149.775 199.564Z" fill="#FFA8A7"/>
<path d="M166.964 186.557L169.44 168.124C169.594 166.868 169.498 165.594 169.16 164.374C168.821 163.155 168.245 162.014 167.466 161.018C166.686 160.021 165.718 159.187 164.616 158.565C163.515 157.942 162.301 157.542 161.045 157.389C159.789 157.235 158.515 157.33 157.296 157.669C156.076 158.008 154.936 158.583 153.939 159.363C152.942 160.142 152.108 161.111 151.486 162.212C150.863 163.314 150.464 164.528 150.31 165.784L148.242 184.593C151.051 186.216 154.17 187.227 157.396 187.561C160.622 187.895 163.882 187.545 166.964 186.533V186.557Z" fill="#455A64"/>
<path opacity="0.2" d="M166.964 186.557L169.44 168.124C169.594 166.868 169.498 165.594 169.16 164.374C168.821 163.155 168.245 162.014 167.466 161.018C166.686 160.021 165.718 159.187 164.616 158.565C163.515 157.942 162.301 157.542 161.045 157.389C159.789 157.235 158.515 157.33 157.296 157.669C156.076 158.008 154.936 158.583 153.939 159.363C152.942 160.142 152.108 161.111 151.486 162.212C150.863 163.314 150.464 164.528 150.31 165.784L148.242 184.593C151.051 186.216 154.17 187.227 157.396 187.561C160.622 187.895 163.882 187.545 166.964 186.533V186.557Z" fill="white"/>
<path d="M157.019 187.542C153.916 187.162 150.919 186.167 148.203 184.617L147.73 188.953C156.057 195.364 166.268 191.405 166.268 191.405L166.925 186.557C163.731 187.589 160.353 187.925 157.019 187.542Z" fill="#455A64"/>
<path opacity="0.5" d="M157.019 187.542C153.916 187.162 150.919 186.167 148.203 184.617L147.73 188.953C156.057 195.364 166.268 191.405 166.268 191.405L166.925 186.557C163.731 187.589 160.353 187.925 157.019 187.542Z" fill="white"/>
<path d="M373.588 249.525L386.587 249.91L399.586 249.525C400.139 258.341 398.432 267.253 396.068 271.621C395.508 272.742 394.608 273.657 393.495 274.233C389.656 276.453 383.461 276.453 379.647 274.233C378.52 273.645 377.618 272.701 377.082 271.549C374.726 267.157 373.035 258.261 373.588 249.525Z" fill="white"/>
<path d="M377.427 244.204C372.338 247.145 372.306 251.914 377.363 254.855C382.42 257.796 390.65 257.788 395.747 254.855C400.845 251.922 400.869 247.145 395.804 244.204C390.739 241.263 382.516 241.263 377.427 244.204Z" fill="#EBEBEB"/>
<path d="M379.439 245.374C375.432 247.666 375.432 251.385 379.391 253.685C383.35 255.985 389.762 255.977 393.737 253.685C397.712 251.393 397.744 247.666 393.777 245.374C389.81 243.082 383.414 243.082 379.439 245.374Z" fill="#E0E0E0"/>
<g opacity="0.15">
<path opacity="0.15" d="M379.439 245.374C375.432 247.666 375.432 251.385 379.391 253.685C383.35 255.985 389.762 255.977 393.737 253.685C397.712 251.393 397.744 247.666 393.777 245.374C389.81 243.082 383.414 243.082 379.439 245.374Z" fill="black"/>
</g>
<path d="M393.215 222.934C395.331 220.305 397.783 217.949 399.723 215.192C401.045 213.309 402.127 211.001 401.59 208.781C401.283 207.755 400.694 206.836 399.891 206.128C399.088 205.419 398.102 204.95 397.046 204.774C394.912 204.456 392.736 204.941 390.939 206.136C389.159 207.324 387.598 208.81 386.323 210.528C379.001 219.799 375.539 231.538 376.657 243.298C376.685 244.645 377.105 245.955 377.868 247.065C378.335 247.613 378.949 248.016 379.638 248.226C380.327 248.436 381.061 248.445 381.755 248.251C385.297 247.201 384.824 242.417 385.401 239.604C386.197 235.742 387.57 232.022 389.472 228.568C390.55 226.583 391.803 224.697 393.215 222.934Z" fill="#83C150"/>
<path opacity="0.2" d="M393.215 222.934C395.331 220.305 397.783 217.949 399.723 215.192C401.045 213.309 402.127 211.001 401.59 208.781C401.283 207.755 400.694 206.836 399.891 206.128C399.088 205.419 398.102 204.95 397.046 204.774C394.912 204.456 392.736 204.941 390.939 206.136C389.159 207.324 387.598 208.81 386.323 210.528C379.001 219.799 375.539 231.538 376.657 243.298C376.685 244.645 377.105 245.955 377.868 247.065C378.335 247.613 378.949 248.016 379.638 248.226C380.327 248.436 381.061 248.445 381.755 248.251C385.297 247.201 384.824 242.417 385.401 239.604C386.197 235.742 387.57 232.022 389.472 228.568C390.55 226.583 391.803 224.697 393.215 222.934Z" fill="white"/>
<path d="M381.529 244.661C381.598 244.647 381.659 244.61 381.705 244.556C381.75 244.502 381.775 244.435 381.777 244.364C382.026 238.682 383.877 219.288 397.245 208.3C397.277 208.275 397.304 208.244 397.324 208.208C397.344 208.172 397.356 208.133 397.359 208.092C397.363 208.052 397.358 208.011 397.346 207.972C397.333 207.933 397.312 207.898 397.285 207.867C397.26 207.835 397.229 207.809 397.194 207.789C397.158 207.769 397.119 207.757 397.079 207.752C397.038 207.748 396.998 207.751 396.959 207.763C396.92 207.774 396.884 207.794 396.852 207.819C383.284 218.991 381.409 238.618 381.16 244.364C381.158 244.446 381.188 244.525 381.243 244.585C381.299 244.645 381.375 244.681 381.457 244.685L381.529 244.661Z" fill="#F0F0F0"/>
<path d="M379.583 245.27C379.863 246.513 380.391 247.688 381.136 248.722C381.882 249.756 382.828 250.629 383.919 251.289C385.964 252.262 388.24 252.645 390.491 252.395C392.769 252.125 395.007 251.587 397.159 250.792C398.233 250.431 399.419 249.95 399.563 248.62C399.579 248.272 399.519 247.925 399.388 247.602C399.256 247.28 399.056 246.99 398.802 246.752C398.585 246.538 398.355 246.337 398.112 246.151C398.001 246.068 397.917 245.953 397.873 245.821C397.829 245.689 397.826 245.546 397.866 245.413C397.905 245.279 397.984 245.161 398.093 245.074C398.201 244.986 398.334 244.935 398.473 244.925C399.11 244.882 399.744 244.801 400.372 244.685C401.846 244.455 403.23 243.832 404.38 242.882C405.214 242.143 405.848 241.206 406.223 240.157C406.543 239.259 406.64 238.137 405.958 237.472C405.538 237.122 405.027 236.899 404.484 236.831C404.011 236.727 403.53 236.638 403.057 236.566C402.92 236.546 402.794 236.482 402.697 236.383C402.601 236.284 402.539 236.156 402.522 236.019C402.504 235.882 402.533 235.743 402.602 235.623C402.671 235.503 402.777 235.41 402.905 235.356L404.925 234.515C405.505 234.326 406.03 233.999 406.455 233.561C406.717 233.154 406.886 232.696 406.953 232.217C407.019 231.738 406.981 231.25 406.84 230.788C406.592 229.522 406.159 228.304 405.862 227.053C405.504 225.821 405.446 224.521 405.694 223.263C401.915 222.842 398.091 223.097 394.402 224.016C393.291 224.247 392.241 224.705 391.316 225.362C390.058 226.372 389.713 227.879 389.866 229.522C389.871 229.588 389.853 229.654 389.814 229.709C389.776 229.764 389.72 229.803 389.656 229.821C389.591 229.839 389.523 229.834 389.462 229.808C389.401 229.781 389.351 229.733 389.321 229.674L388.062 227.27C387.874 226.927 387.561 226.67 387.188 226.55C386.816 226.431 386.412 226.459 386.059 226.629C384.928 227.195 383.925 227.986 383.11 228.953C382.659 229.465 382.315 230.062 382.099 230.709C381.883 231.356 381.799 232.039 381.851 232.719C382.007 234.589 382.321 236.441 382.789 238.257C382.82 238.361 382.817 238.471 382.78 238.573C382.744 238.674 382.676 238.761 382.586 238.821C382.497 238.881 382.39 238.911 382.283 238.906C382.175 238.901 382.071 238.862 381.988 238.794H381.932C381.585 238.526 381.149 238.4 380.713 238.442C379.575 238.578 379.287 239.732 379.207 240.718C379.15 242.245 379.276 243.773 379.583 245.27Z" fill="#83C150"/>
<path opacity="0.2" d="M379.583 245.27C379.863 246.513 380.391 247.688 381.136 248.722C381.882 249.756 382.828 250.629 383.919 251.289C385.964 252.262 388.24 252.645 390.491 252.395C392.769 252.125 395.007 251.587 397.159 250.792C398.233 250.431 399.419 249.95 399.563 248.62C399.579 248.272 399.519 247.925 399.388 247.602C399.256 247.28 399.056 246.99 398.802 246.752C398.585 246.538 398.355 246.337 398.112 246.151C398.001 246.068 397.917 245.953 397.873 245.821C397.829 245.689 397.826 245.546 397.866 245.413C397.905 245.279 397.984 245.161 398.093 245.074C398.201 244.986 398.334 244.935 398.473 244.925C399.11 244.882 399.744 244.801 400.372 244.685C401.846 244.455 403.23 243.832 404.38 242.882C405.214 242.143 405.848 241.206 406.223 240.157C406.543 239.259 406.64 238.137 405.958 237.472C405.538 237.122 405.027 236.899 404.484 236.831C404.011 236.727 403.53 236.638 403.057 236.566C402.92 236.546 402.794 236.482 402.697 236.383C402.601 236.284 402.539 236.156 402.522 236.019C402.504 235.882 402.533 235.743 402.602 235.623C402.671 235.503 402.777 235.41 402.905 235.356L404.925 234.515C405.505 234.326 406.03 233.999 406.455 233.561C406.717 233.154 406.886 232.696 406.953 232.217C407.019 231.738 406.981 231.25 406.84 230.788C406.592 229.522 406.159 228.304 405.862 227.053C405.504 225.821 405.446 224.521 405.694 223.263C401.915 222.842 398.091 223.097 394.402 224.016C393.291 224.247 392.241 224.705 391.316 225.362C390.058 226.372 389.713 227.879 389.866 229.522C389.871 229.588 389.853 229.654 389.814 229.709C389.776 229.764 389.72 229.803 389.656 229.821C389.591 229.839 389.523 229.834 389.462 229.808C389.401 229.781 389.351 229.733 389.321 229.674L388.062 227.27C387.874 226.927 387.561 226.67 387.188 226.55C386.816 226.431 386.412 226.459 386.059 226.629C384.928 227.195 383.925 227.986 383.11 228.953C382.659 229.465 382.315 230.062 382.099 230.709C381.883 231.356 381.799 232.039 381.851 232.719C382.007 234.589 382.321 236.441 382.789 238.257C382.82 238.361 382.817 238.471 382.78 238.573C382.744 238.674 382.676 238.761 382.586 238.821C382.497 238.881 382.39 238.911 382.283 238.906C382.175 238.901 382.071 238.862 381.988 238.794H381.932C381.585 238.526 381.149 238.4 380.713 238.442C379.575 238.578 379.287 239.732 379.207 240.718C379.15 242.245 379.276 243.773 379.583 245.27Z" fill="black"/>
<path opacity="0.2" d="M379.583 245.27C379.863 246.513 380.391 247.688 381.136 248.722C381.882 249.756 382.828 250.629 383.919 251.289C385.964 252.262 388.24 252.645 390.491 252.395C392.769 252.125 395.007 251.587 397.159 250.792C398.233 250.431 399.419 249.95 399.563 248.62C399.579 248.272 399.519 247.925 399.388 247.602C399.256 247.28 399.056 246.99 398.802 246.752C398.585 246.538 398.355 246.337 398.112 246.151C398.001 246.068 397.917 245.953 397.873 245.821C397.829 245.689 397.826 245.546 397.866 245.413C397.905 245.279 397.984 245.161 398.093 245.074C398.201 244.986 398.334 244.935 398.473 244.925C399.11 244.882 399.744 244.801 400.372 244.685C401.846 244.455 403.23 243.832 404.38 242.882C405.214 242.143 405.848 241.206 406.223 240.157C406.543 239.259 406.64 238.137 405.958 237.472C405.538 237.122 405.027 236.899 404.484 236.831C404.011 236.727 403.53 236.638 403.057 236.566C402.92 236.546 402.794 236.482 402.697 236.383C402.601 236.284 402.539 236.156 402.522 236.019C402.504 235.882 402.533 235.743 402.602 235.623C402.671 235.503 402.777 235.41 402.905 235.356L404.925 234.515C405.505 234.326 406.03 233.999 406.455 233.561C406.717 233.154 406.886 232.696 406.953 232.217C407.019 231.738 406.981 231.25 406.84 230.788C406.592 229.522 406.159 228.304 405.862 227.053C405.504 225.821 405.446 224.521 405.694 223.263C401.915 222.842 398.091 223.097 394.402 224.016C393.291 224.247 392.241 224.705 391.316 225.362C390.058 226.372 389.713 227.879 389.866 229.522C389.871 229.588 389.853 229.654 389.814 229.709C389.776 229.764 389.72 229.803 389.656 229.821C389.591 229.839 389.523 229.834 389.462 229.808C389.401 229.781 389.351 229.733 389.321 229.674L388.062 227.27C387.874 226.927 387.561 226.67 387.188 226.55C386.816 226.431 386.412 226.459 386.059 226.629C384.928 227.195 383.925 227.986 383.11 228.953C382.659 229.465 382.315 230.062 382.099 230.709C381.883 231.356 381.799 232.039 381.851 232.719C382.007 234.589 382.321 236.441 382.789 238.257C382.82 238.361 382.817 238.471 382.78 238.573C382.744 238.674 382.676 238.761 382.586 238.821C382.497 238.881 382.39 238.911 382.283 238.906C382.175 238.901 382.071 238.862 381.988 238.794H381.932C381.585 238.526 381.149 238.4 380.713 238.442C379.575 238.578 379.287 239.732 379.207 240.718C379.15 242.245 379.276 243.773 379.583 245.27Z" fill="white"/>
<path d="M385.569 250.984C386.277 247.949 387.295 244.995 388.607 242.168C388.608 242.125 388.617 242.082 388.635 242.042C388.653 242.002 388.679 241.966 388.711 241.936L388.927 241.479C388.557 237.961 387.535 234.542 385.914 231.397C385.875 231.325 385.865 231.242 385.886 231.163C385.907 231.084 385.957 231.016 386.026 230.973C386.098 230.932 386.184 230.922 386.263 230.945C386.343 230.967 386.41 231.021 386.451 231.093C387.97 234.022 388.973 237.191 389.416 240.461C391.989 235.3 396.092 229.241 402.423 224.866C402.491 224.819 402.575 224.802 402.656 224.817C402.737 224.832 402.809 224.878 402.856 224.946C402.879 224.979 402.895 225.016 402.903 225.055C402.911 225.095 402.912 225.135 402.904 225.175C402.897 225.214 402.882 225.252 402.86 225.286C402.838 225.319 402.809 225.348 402.776 225.371C396.244 229.923 392.125 236.222 389.625 241.447C392.994 239.925 396.734 239.418 400.388 239.989C400.469 240.006 400.54 240.054 400.586 240.123C400.633 240.192 400.65 240.276 400.636 240.357C400.624 240.418 400.594 240.473 400.549 240.516C400.505 240.559 400.449 240.588 400.388 240.598H400.267C400.211 240.598 394.305 239.516 389.192 242.369C387.89 245.167 386.88 248.091 386.178 251.096C386.164 251.156 386.133 251.21 386.089 251.253C386.045 251.296 385.99 251.325 385.93 251.337H385.81C385.731 251.321 385.662 251.276 385.617 251.21C385.572 251.144 385.555 251.063 385.569 250.984Z" fill="#F0F0F0"/>
<path d="M89.3927 276.085L74.5983 276.518L59.8119 276.085C59.1708 286.071 61.1263 296.249 63.8191 301.226C64.4546 302.506 65.4822 303.551 66.7523 304.207C71.1121 306.732 78.1647 306.732 82.5004 304.207C83.7875 303.542 84.8166 302.468 85.4257 301.154C88.0944 296.145 90.0259 286.023 89.3927 276.085Z" fill="white"/>
<path d="M85.0246 270.026C90.8189 273.376 90.851 278.794 85.0967 282.144C79.3424 285.494 69.9737 285.486 64.1794 282.144C58.385 278.802 58.353 273.376 64.1073 270.026C69.8615 266.676 79.2302 266.684 85.0246 270.026Z" fill="#EBEBEB"/>
<path d="M82.716 271.348C87.2361 273.961 87.2601 278.193 82.7721 280.805C78.2841 283.418 70.975 283.41 66.455 280.805C61.9349 278.201 61.9109 273.961 66.3989 271.348C70.8869 268.736 78.212 268.752 82.716 271.348Z" fill="#E0E0E0"/>
<g opacity="0.15">
<path opacity="0.15" d="M82.716 271.348C87.2361 273.961 87.2601 278.193 82.7721 280.805C78.2841 283.418 70.975 283.41 66.455 280.805C61.9349 278.201 61.9109 273.961 66.3989 271.348C70.8869 268.736 78.212 268.752 82.716 271.348Z" fill="black"/>
</g>
<path d="M98.9221 212.972C65.5906 223.888 65.262 246.184 72.8035 262.06C74.6949 265.266 80.4331 267.005 85.418 247.257L76.6664 248.379L86.8686 243.202L89.5213 235.284L81.0101 235.917L91.8134 231.373C93.8003 225.098 96.1744 218.953 98.9221 212.972Z" fill="#83C150"/>
<path opacity="0.2" d="M98.9221 212.972C65.5906 223.888 65.262 246.184 72.8035 262.06C74.6949 265.266 80.4331 267.005 85.418 247.257L76.6664 248.379L86.8686 243.202L89.5213 235.284L81.0101 235.917L91.8134 231.373C93.8003 225.098 96.1744 218.953 98.9221 212.972Z" fill="black"/>
<path opacity="0.2" d="M98.9221 212.972C65.5906 223.888 65.262 246.184 72.8035 262.06C74.6949 265.266 80.4331 267.005 85.418 247.257L76.6664 248.379L86.8686 243.202L89.5213 235.284L81.0101 235.917L91.8134 231.373C93.8003 225.098 96.1744 218.953 98.9221 212.972Z" fill="white"/>
<path d="M89.4891 218.55C71.9137 231.886 70.3269 247.185 75.2957 263.15C73.5406 249.093 71.6412 234.875 89.4891 218.55Z" fill="white"/>
<path d="M42.4688 235.621C75.3274 240.245 79.3346 260.962 74.9427 276.999C73.7165 280.308 68.6595 282.873 60.7334 265.306L69.0923 264.937L58.6737 261.779L54.8909 254.839L62.9052 254.038L52.0939 251.633C49.2148 246.105 46.0004 240.757 42.4688 235.621Z" fill="#83C150"/>
<path opacity="0.2" d="M42.4688 235.621C75.3274 240.245 79.3346 260.962 74.9427 276.999C73.7165 280.308 68.6595 282.873 60.7334 265.306L69.0923 264.937L58.6737 261.779L54.8909 254.839L62.9052 254.038L52.0939 251.633C49.2148 246.105 46.0004 240.757 42.4688 235.621Z" fill="white"/>
<path opacity="0.1" d="M42.4688 235.621C75.3274 240.245 79.3346 260.962 74.9427 276.999C73.7165 280.308 68.6595 282.873 60.7334 265.306L69.0923 264.937L58.6737 261.779L54.8909 254.839L62.9052 254.038L52.0939 251.633C49.2148 246.105 46.0004 240.757 42.4688 235.621Z" fill="black"/>
<path d="M52.1738 239.291C70.759 248.796 74.7742 262.773 72.8026 278.465C72.1054 265.041 71.4963 251.489 52.1738 239.291Z" fill="white"/>
<path d="M108.53 243.387C78.4044 243.875 72.4658 262.1 74.6297 277.047C75.367 280.164 79.6386 283.041 88.7509 268.095L81.2736 266.796L90.9628 265.137L95.1543 259.327L88.0056 257.684L98.0234 256.698C101.249 252.049 104.758 247.604 108.53 243.387Z" fill="#83C150"/>
<path d="M99.3775 245.566C81.5617 252.05 76.3764 264.208 76.4005 278.569C78.5243 266.588 80.5759 254.438 99.3775 245.566Z" fill="white"/>
<path opacity="0.2" d="M108.53 243.387C78.4044 243.875 72.4658 262.1 74.6297 277.047C75.367 280.164 79.6386 283.041 88.7509 268.095L81.2736 266.796L90.9628 265.137L95.1543 259.327L88.0056 257.684L98.0234 256.698C101.249 252.049 104.758 247.604 108.53 243.387Z" fill="white"/>
<path d="M282.276 213.277C274.365 218.775 265.445 222.573 258.85 229.939C246.516 243.691 246.227 265.827 255.916 281.559C265.606 297.291 283.63 306.74 301.983 308.904C321.217 311.18 341.437 305.858 356.544 293.676C371.651 281.495 381.26 262.541 381.252 243.186C381.244 223.832 371.314 204.493 355.077 193.898C340.259 184.281 318.973 181.484 304.107 192.536C296.597 198.146 291.58 206.377 284.071 211.987C283.526 212.419 282.917 212.844 282.276 213.277Z" fill="#83C150"/>
<path opacity="0.2" d="M282.276 213.277C274.365 218.775 265.445 222.573 258.85 229.939C246.516 243.691 246.227 265.827 255.916 281.559C265.606 297.291 283.63 306.74 301.983 308.904C321.217 311.18 341.437 305.858 356.544 293.676C371.651 281.495 381.26 262.541 381.252 243.186C381.244 223.832 371.314 204.493 355.077 193.898C340.259 184.281 318.973 181.484 304.107 192.536C296.597 198.146 291.58 206.377 284.071 211.987C283.526 212.419 282.917 212.844 282.276 213.277Z" fill="black"/>
<path opacity="0.1" d="M282.276 213.277C274.365 218.775 265.445 222.573 258.85 229.939C246.516 243.691 246.227 265.827 255.916 281.559C265.606 297.291 283.63 306.74 301.983 308.904C321.217 311.18 341.437 305.858 356.544 293.676C371.651 281.495 381.26 262.541 381.252 243.186C381.244 223.832 371.314 204.493 355.077 193.898C340.259 184.281 318.973 181.484 304.107 192.536C296.597 198.146 291.58 206.377 284.071 211.987C283.526 212.419 282.917 212.844 282.276 213.277Z" fill="white"/>
<path opacity="0.1" d="M285.528 293.877C285.528 293.741 285.568 293.612 285.584 293.484C286.244 289.2 288.224 285.229 291.248 282.123C294.272 279.017 298.189 276.932 302.454 276.157C310.1 274.701 317.427 271.898 324.093 267.879C328.813 265.025 333.277 261.523 338.575 259.976C343.73 258.497 349.236 258.816 354.186 260.882C349.73 256.21 342.101 254.15 336.002 256.266C340.217 249.798 343.936 242.842 345.395 235.26C346.853 227.679 345.811 219.352 341.243 213.133C339.298 210.473 336.787 208.279 333.891 206.708C330.995 205.137 327.786 204.228 324.496 204.047C321.206 203.866 317.917 204.417 314.867 205.662C311.816 206.906 309.079 208.811 306.854 211.241C302.326 216.194 299.777 223.167 296.804 229.177C294.664 233.497 292.46 237.921 288.934 241.199C283.628 246.168 275.983 247.955 270.501 252.707C264.258 258.101 261.565 266.716 261.541 274.963C261.637 280.528 262.445 286.057 263.945 291.417C270.4 297.581 278.101 302.289 286.53 305.225C285.308 301.574 284.964 297.686 285.528 293.877Z" fill="black"/>
<path d="M370.953 240.518C370.703 227.133 365.715 214.271 356.878 204.215C348.041 194.16 335.925 187.563 322.683 185.596C320.846 185.778 319.022 186.084 317.226 186.509C331.152 187.248 344.282 193.235 353.972 203.265C363.663 213.294 369.195 226.622 369.455 240.566C369.815 258.606 360.984 276.999 345.845 289.758C333.983 299.759 318.227 306.395 300.9 308.776C301.269 308.832 301.646 308.88 302.014 308.92C303.569 309.104 305.132 309.232 306.703 309.321C322.09 306.331 336.027 299.992 346.774 290.888C362.29 277.832 371.314 259.007 370.953 240.518Z" fill="white"/>
<path d="M278.541 307.141L280.529 311.076C283.326 308.479 283.838 306.387 283.838 306.387C282.933 303.182 281.875 299.92 281.346 298.333C281.082 300.545 279.575 302.444 278.942 304.6C278.709 305.428 278.574 306.281 278.541 307.141Z" fill="#37474F"/>
<path d="M278.637 311.172L280.528 311.076L278.541 307.141C278.485 308.471 278.597 309.817 278.637 311.172Z" fill="#263238"/>
<path d="M280.08 293.692C279.394 292.699 278.607 291.781 277.731 290.951C278.211 292.67 278.197 294.489 277.691 296.201C277.106 298.477 276.04 300.616 275.503 302.909C274.854 305.698 275.006 308.695 273.82 311.308C273.234 312.575 272.36 313.689 271.268 314.56C270.176 315.431 268.896 316.035 267.529 316.324C266.522 316.605 265.444 316.475 264.532 315.964C264.149 315.691 263.867 315.3 263.73 314.85C263.136 316.092 262.414 317.268 261.575 318.36C260.645 319.562 259.483 320.893 259.739 322.367C259.89 322.983 260.221 323.54 260.689 323.968C261.157 324.396 261.741 324.676 262.368 324.772C263.623 324.948 264.902 324.841 266.111 324.459C268.767 323.885 271.303 322.852 273.604 321.406C275.923 319.924 277.618 317.643 278.364 314.994C278.637 313.718 278.734 312.41 278.653 311.107C278.653 309.761 278.501 308.406 278.557 307.1C278.588 306.241 278.719 305.388 278.95 304.559C279.591 302.404 281.097 300.504 281.354 298.292C281.354 298.172 281.394 298.06 281.402 297.94C281.42 296.42 280.957 294.933 280.08 293.692Z" fill="#455A64"/>
<path opacity="0.1" d="M280.08 293.692C279.394 292.699 278.607 291.781 277.731 290.951C278.211 292.67 278.197 294.489 277.691 296.201C277.106 298.477 276.04 300.616 275.503 302.909C274.854 305.698 275.006 308.695 273.82 311.308C273.234 312.575 272.36 313.689 271.268 314.56C270.176 315.431 268.896 316.035 267.529 316.324C266.522 316.605 265.444 316.475 264.532 315.964C264.149 315.691 263.867 315.3 263.73 314.85C263.136 316.092 262.414 317.268 261.575 318.36C260.645 319.562 259.483 320.893 259.739 322.367C259.89 322.983 260.221 323.54 260.689 323.968C261.157 324.396 261.741 324.676 262.368 324.772C263.623 324.948 264.902 324.841 266.111 324.459C268.767 323.885 271.303 322.852 273.604 321.406C275.923 319.924 277.618 317.643 278.364 314.994C278.637 313.718 278.734 312.41 278.653 311.107C278.653 309.761 278.501 308.406 278.557 307.1C278.588 306.241 278.719 305.388 278.95 304.559C279.591 302.404 281.097 300.504 281.354 298.292C281.354 298.172 281.394 298.06 281.402 297.94C281.42 296.42 280.957 294.933 280.08 293.692Z" fill="black"/>
<path d="M267.53 316.325C268.896 316.035 270.176 315.431 271.268 314.56C272.36 313.689 273.234 312.575 273.821 311.308C275.007 308.695 274.855 305.698 275.504 302.909C276.041 300.617 277.107 298.477 277.692 296.201C278.198 294.489 278.212 292.67 277.732 290.951C277.507 290.727 277.283 290.503 277.051 290.286C273.669 292.033 269.838 293.492 266.752 295.72C266.819 299.666 266.567 303.611 265.999 307.517C265.58 310.055 264.811 312.523 263.715 314.85C263.851 315.3 264.133 315.692 264.516 315.964C264.97 316.219 265.47 316.383 265.987 316.444C266.504 316.506 267.028 316.466 267.53 316.325Z" fill="#F28F8F"/>
<path d="M256.044 305.922C255.491 309.184 252.99 315.828 252.99 315.828C252.99 315.828 264.699 316.301 264.964 315.764L268.402 310.442L256.044 305.922Z" fill="#FFA8A7"/>
<path d="M291.092 228.28L261.239 244.901C258.531 246.41 256.365 248.731 255.047 251.536C253.728 254.341 253.323 257.49 253.89 260.537L259.684 291.793L254.932 306.9C259.035 312.398 268.452 312.678 268.452 312.678C273.709 302.14 277.564 297.668 280.545 288.836C283.527 280.004 285.522 273.913 285.522 273.913L310.367 267.133C316.041 265.59 321.123 262.381 324.956 257.921C328.789 253.461 331.197 247.955 331.869 242.112C332.294 238.362 332.31 235.805 332.31 235.805L291.092 228.28Z" fill="#455A64"/>
<path opacity="0.2" d="M289.088 238.113C289.092 241.447 290.276 244.672 292.43 247.218L273.604 258.974C270.508 260.91 268.215 263.898 267.145 267.39L259.684 291.793L266.416 264.617C267.19 261.491 269.158 258.792 271.897 257.099L289.112 246.504C287.125 241.535 289.088 238.113 289.088 238.113Z" fill="black"/>
<path d="M259.346 330.975L259.618 335.367C263.217 334.085 264.507 332.362 264.507 332.362C264.932 329.052 265.244 325.638 265.388 323.971C264.266 325.902 262.135 327.056 260.7 328.779C260.158 329.451 259.703 330.189 259.346 330.975Z" fill="#37474F"/>
<path d="M257.848 334.71L259.619 335.367L259.346 330.975C258.769 332.169 258.337 333.46 257.848 334.71Z" fill="#263238"/>
<path d="M266.038 319.202C265.799 318.022 265.439 316.87 264.964 315.764C264.728 317.532 264 319.198 262.865 320.573C261.43 322.432 259.603 323.979 258.216 325.87C256.517 328.186 255.475 330.999 253.368 332.931C252.329 333.867 251.086 334.548 249.738 334.921C248.39 335.294 246.974 335.348 245.602 335.078C244.568 334.937 243.632 334.392 242.997 333.564C242.744 333.163 242.631 332.689 242.677 332.217C241.643 333.132 240.518 333.938 239.319 334.622C237.988 335.367 236.393 336.128 236.041 337.611C235.946 338.231 236.035 338.865 236.297 339.435C236.559 340.005 236.983 340.485 237.515 340.817C238.598 341.473 239.814 341.878 241.074 342.003C243.743 342.52 246.483 342.566 249.168 342.139C251.875 341.695 254.323 340.268 256.044 338.132C256.8 337.065 257.407 335.9 257.848 334.67C258.336 333.419 258.769 332.129 259.346 330.935C259.704 330.152 260.159 329.417 260.701 328.747C262.135 327.016 264.267 325.862 265.389 323.939C265.445 323.842 265.517 323.746 265.573 323.634C266.192 322.243 266.355 320.691 266.038 319.202Z" fill="#455A64"/>
<path d="M245.603 335.087C246.975 335.356 248.391 335.302 249.739 334.929C251.087 334.557 252.33 333.875 253.369 332.939C255.477 331.007 256.518 328.194 258.217 325.878C259.604 323.987 261.423 322.44 262.866 320.581C264.002 319.206 264.729 317.54 264.966 315.772L264.605 314.891C260.806 315.171 256.703 314.987 252.992 315.836C251.505 319.491 249.723 323.018 247.663 326.383C246.283 328.557 244.605 330.527 242.678 332.234C242.632 332.706 242.745 333.179 242.998 333.58C243.634 334.405 244.57 334.947 245.603 335.087Z" fill="#FFA8A7"/>
<path d="M321.738 184.145C326.603 172.835 326.891 160.079 322.539 148.561C321.145 144.923 319.173 141.349 315.943 139.129C311.808 136.34 306.462 136.38 301.478 136.524C298.833 136.604 296.132 136.684 293.648 137.598C292.41 138.018 291.292 138.733 290.392 139.681C289.491 140.629 288.835 141.782 288.478 143.04C285.217 142.439 281.931 145.011 281.049 148.209C280.168 151.407 281.322 154.885 283.349 157.513C285.377 160.142 288.158 162.025 291.011 163.749C289.296 164.646 288.03 166.714 287.437 168.557C286.843 170.408 286.984 172.417 287.829 174.167C286.293 174.183 284.799 174.669 283.548 175.56C282.297 176.452 281.349 177.705 280.833 179.152C280.416 180.6 280.352 182.127 280.647 183.605C280.941 185.083 281.584 186.469 282.524 187.647C284.438 189.997 287.075 191.649 290.025 192.344C292.96 193.029 295.993 193.192 298.985 192.824C302.079 195.822 307.745 195.758 311.632 193.898C315.519 192.039 320.015 188.088 321.738 184.145Z" fill="#263238"/>
<path d="M294.048 176.62H293.287C288.198 176.676 281.754 180.146 278.605 189.026L266.375 212.716L280.336 218.903L287.974 196.543L294.048 176.62Z" fill="#FFA8A7"/>
<path d="M284.238 192.344C283.269 195.141 283.205 198.154 283.052 201.159C282.9 204.165 282.555 207.683 281.201 210.32C279.708 209.286 277.921 208.763 276.107 208.83C274.292 208.896 272.548 209.548 271.135 210.688C270.12 211.546 269.341 212.65 268.875 213.894L280.335 218.975L287.973 196.615L291.732 184.289C290.013 185.07 288.466 186.184 287.179 187.567C285.893 188.949 284.894 190.573 284.238 192.344Z" fill="#F28F8F"/>
<path d="M280.465 214.639C279.936 213.32 279.078 212.158 277.972 211.264C276.867 210.37 275.55 209.775 274.149 209.534C271.352 209.077 268.187 210.544 266.375 212.74C264.853 214.575 265.093 217.068 266.055 219.256C266.858 220.953 268.225 222.32 269.923 223.124C271.621 223.928 273.545 224.118 275.367 223.663C278.974 222.646 281.827 218.126 280.465 214.639Z" fill="#FFA8A7"/>
<path d="M295.331 176.187C289.946 177.045 286.604 190.669 284.857 195.846C283.045 201.192 285.506 205.071 288.247 208.3C288.742 208.887 289.11 209.571 289.326 210.308C289.543 211.045 289.604 211.819 289.505 212.58L283.879 233.634C299.347 245.118 325.281 239.556 332.317 235.806C332.399 228.451 330.847 221.17 327.773 214.488C325.702 210.172 324.534 205.478 324.343 200.695L324.079 192.969L325.946 179.633L312.514 176.428L300.677 175.899C298.891 175.893 297.106 175.99 295.331 176.187Z" fill="#83C150"/>
<path opacity="0.4" d="M295.331 176.187C289.946 177.045 286.604 190.669 284.857 195.846C283.045 201.192 285.506 205.071 288.247 208.3C288.742 208.887 289.11 209.571 289.326 210.308C289.543 211.045 289.604 211.819 289.505 212.58L283.879 233.634C299.347 245.118 325.281 239.556 332.317 235.806C332.399 228.451 330.847 221.17 327.773 214.488C325.702 210.172 324.534 205.478 324.343 200.695L324.079 192.969L325.946 179.633L312.514 176.428L300.677 175.899C298.891 175.893 297.106 175.99 295.331 176.187Z" fill="black"/>
<path d="M295.21 237.015C295.21 237.015 295.21 237.015 295.21 236.967C295.21 236.919 295.21 236.919 295.21 236.871V236.823V236.783V236.735L286.074 219.72V219.672V219.624V219.576L286.034 219.52V219.464C285.994 219.408 285.994 219.408 285.954 219.352L285.906 219.304L285.865 219.248V219.208V219.168V219.127L285.729 219.007H285.681H285.641H285.593H285.537L285.481 218.967H285.417L273.459 211.834H273.395H273.339H273.275H273.219H273.163H273.107H273.059H273.003H272.938H272.882H272.818H272.658C272.599 211.836 272.542 211.859 272.498 211.899L271.247 213.333H271.287C271.183 213.413 271.175 213.582 271.328 213.862L280.464 230.876C280.975 231.664 281.668 232.318 282.483 232.784L292.99 238.698C293.527 239.003 293.856 239.011 293.904 238.787C293.904 238.787 293.904 238.867 293.904 238.883L295.162 237.448C295.166 237.427 295.166 237.405 295.162 237.384C295.166 237.366 295.166 237.346 295.162 237.328L295.21 237.015ZM271.52 213.037C271.52 213.037 271.52 213.037 271.592 213.037H271.632H271.52ZM283.541 219.825C283.637 219.905 283.742 219.985 283.83 220.073C283.766 219.985 283.662 219.905 283.565 219.825H283.541ZM284.198 220.466L284.327 220.602L284.198 220.466ZM293.952 238.49C293.937 238.369 293.899 238.252 293.84 238.145C293.894 238.243 293.932 238.348 293.952 238.458C293.952 238.458 293.944 238.442 293.952 238.49Z" fill="#455A64"/>
<path opacity="0.15" d="M295.21 237.015C295.21 237.015 295.21 237.015 295.21 236.967C295.21 236.919 295.21 236.919 295.21 236.871V236.823V236.783V236.735L286.074 219.72L284.68 221.099L293.824 238.113C293.879 238.21 293.917 238.316 293.936 238.426C293.946 238.459 293.947 238.493 293.94 238.527C293.933 238.561 293.918 238.592 293.896 238.618L295.154 237.184C295.159 237.162 295.159 237.141 295.154 237.12C295.158 237.101 295.158 237.082 295.154 237.063L295.21 237.015Z" fill="white"/>
<path opacity="0.2" d="M285.922 219.616V219.568V219.52L285.882 219.464V219.408C285.842 219.352 285.842 219.352 285.802 219.296L285.754 219.248L285.714 219.191V219.151V219.111V219.071L285.578 218.951H285.53H285.489H285.441H285.385L285.329 218.911H285.265L273.46 211.834H273.396H273.34H273.276H273.22H273.163H273.107H273.059H273.003H272.939H272.883H272.819H272.659C272.599 211.836 272.542 211.859 272.498 211.898L271.248 213.333C271.307 213.269 271.411 213.253 271.561 213.285C271.763 213.337 271.958 213.418 272.138 213.525L282.644 219.44C282.855 219.554 283.056 219.685 283.245 219.833C283.447 219.987 283.64 220.153 283.822 220.329C284.001 220.494 284.167 220.67 284.319 220.858C284.45 221.013 284.566 221.179 284.664 221.355L285.922 219.921V219.616Z" fill="white"/>
<path d="M331.098 184.089C329.608 181.533 327.652 179.569 324.687 179.345C324.687 179.345 319.878 181.845 319.878 193.193L320.199 221.588C319.502 221.869 318.804 222.165 318.115 222.454C312.254 224.974 306.127 226.827 299.851 227.976C296.578 225.376 292.505 223.994 288.326 224.065L289.873 226.95C286.94 228.833 280.304 225.443 280.304 225.443C279.815 229.578 282.5 233.874 286.058 236.046C289.616 238.218 323.549 235.028 330.746 230.372C335.482 227.31 334.36 198.034 334.36 198.034C334.687 193.165 333.551 188.309 331.098 184.089Z" fill="#FFA8A7"/>
<path d="M273.131 216.851C272.904 217.968 272.776 219.102 272.746 220.241C273.009 222.955 274.158 225.507 276.016 227.502C276.401 227.94 276.884 228.281 277.426 228.496C277.692 228.6 277.981 228.631 278.263 228.586C278.545 228.541 278.809 228.421 279.029 228.24C279.428 227.763 279.631 227.153 279.598 226.533C279.689 225.614 279.637 224.687 279.446 223.784C279.259 222.87 278.742 222.058 277.995 221.5C277.419 221.158 276.802 220.889 276.16 220.698C275.544 220.428 274.996 220.023 274.557 219.512L273.131 216.851Z" fill="#FFA8A7"/>
<path d="M300.636 170.633V181.356C299.586 182.35 298.576 183.488 298.48 184.906C298.462 185.585 298.631 186.256 298.969 186.846C299.307 187.435 299.8 187.92 300.395 188.248C301.608 188.89 303.024 189.028 304.338 188.633C305.638 188.232 306.83 187.541 307.825 186.613C309.235 185.309 310.373 183.738 311.171 181.991C311.969 180.244 312.411 178.355 312.473 176.435V165.56L300.636 170.633Z" fill="#FFA8A7"/>
<path d="M312.017 165.56C310.895 171.458 308.595 176.571 300.637 178.382V170.593L312.017 165.56Z" fill="#F28F8F"/>
<path d="M309.236 159.357C309.12 160.301 309.12 161.257 309.236 162.202C309.366 162.915 309.723 163.567 310.254 164.061C310.512 164.296 310.824 164.463 311.163 164.548C311.501 164.633 311.855 164.634 312.194 164.55C311.969 163.62 312.112 162.64 312.593 161.814C313.074 160.987 313.855 160.378 314.774 160.113C315.693 159.849 316.678 159.949 317.525 160.393C318.372 160.838 319.014 161.592 319.318 162.498C319.507 163.152 319.55 163.839 319.443 164.511C319.336 165.182 319.083 165.822 318.701 166.385C317.927 167.507 316.904 168.434 315.712 169.094C315.025 169.355 314.268 169.366 313.574 169.126C312.88 168.886 312.292 168.409 311.913 167.78C308.491 172.5 302.344 176.187 296.437 175.93C294.82 175.911 293.243 175.427 291.893 174.536C289.601 172.933 289.329 170.312 288.944 167.748C288.39 164.513 288.28 161.218 288.615 157.954C289.152 153.45 290.964 148.962 294.322 145.933C296.702 155.566 305.79 158.78 309.236 159.357Z" fill="#FFA8A7"/>
<path d="M296.927 158.748L293.096 163.885L296.902 165.023L296.927 158.748Z" fill="#F28F8F"/>
<path d="M300.443 167.307L297.342 168.429C297.561 168.789 297.892 169.068 298.283 169.224C298.675 169.38 299.107 169.404 299.514 169.294C299.872 169.119 300.16 168.826 300.329 168.465C300.499 168.103 300.539 167.694 300.443 167.307Z" fill="#AB6160"/>
<path opacity="0.3" d="M300.443 167.307L297.342 168.429C297.561 168.789 297.892 169.068 298.283 169.224C298.675 169.38 299.107 169.404 299.514 169.294C299.872 169.119 300.16 168.826 300.329 168.465C300.499 168.103 300.539 167.694 300.443 167.307Z" fill="black"/>
<path d="M298.479 169.286C298.816 169.386 299.175 169.386 299.512 169.286C299.795 169.159 300.034 168.953 300.202 168.693C300.37 168.433 300.459 168.129 300.458 167.82C300.004 167.763 299.546 167.883 299.178 168.155C298.809 168.426 298.559 168.828 298.479 169.278V169.286Z" fill="#AB6160"/>
<path d="M302.519 159.557C302.519 159.779 302.453 159.997 302.33 160.181C302.206 160.366 302.03 160.51 301.825 160.594C301.619 160.679 301.393 160.701 301.176 160.657C300.958 160.613 300.758 160.505 300.601 160.348C300.445 160.19 300.338 159.989 300.296 159.771C300.254 159.553 300.277 159.327 300.363 159.122C300.449 158.917 300.594 158.743 300.78 158.62C300.965 158.498 301.183 158.433 301.405 158.435C301.552 158.435 301.698 158.464 301.834 158.521C301.969 158.577 302.092 158.66 302.196 158.764C302.3 158.868 302.381 158.992 302.437 159.128C302.492 159.264 302.52 159.41 302.519 159.557Z" fill="#263238"/>
<path d="M293.117 159.149C293.113 159.445 292.992 159.729 292.781 159.937C292.569 160.146 292.284 160.263 291.987 160.263C291.69 160.263 291.404 160.144 291.194 159.934C290.983 159.724 290.865 159.438 290.865 159.141C290.865 158.843 290.983 158.558 291.194 158.347C291.404 158.137 291.69 158.019 291.987 158.019C292.136 158.019 292.283 158.048 292.42 158.105C292.557 158.161 292.681 158.245 292.786 158.35C292.891 158.454 292.974 158.579 293.031 158.716C293.088 158.853 293.117 159 293.117 159.149Z" fill="#263238"/>
<path d="M292.045 154.692L289.553 156.399C289.448 156.091 289.439 155.758 289.527 155.444C289.616 155.13 289.798 154.851 290.05 154.644C290.354 154.465 290.702 154.375 291.055 154.383C291.407 154.392 291.75 154.499 292.045 154.692Z" fill="#263238"/>
<path d="M301.639 154.596L304.115 156.327C304.225 156.02 304.239 155.687 304.154 155.372C304.07 155.057 303.891 154.775 303.642 154.564C303.338 154.382 302.99 154.289 302.636 154.294C302.282 154.3 301.936 154.404 301.639 154.596Z" fill="#263238"/>
</svg>
