<svg width="386" height="316" viewBox="0 0 386 316" fill="none" xmlns="http://www.w3.org/2000/svg">
<g id="illustration 2">
<g id="illustration">
<g clip-path="url(#clip0_996_13827)">
<path d="M0 76C0 58.3269 14.3269 44 32 44H354C371.673 44 386 58.3269 386 76V316H0V76Z" fill="white"/>
<g id="item">
<rect id="Rectangle 333" x="45" y="264" width="62" height="62" rx="16" fill="#E1E1E1"/>
<g id="icons / 80 / picture">
<g id="Group 459">
<path id="Vector 177" d="M59 301.259C59 301.259 64.1739 295.704 67.1304 295.704C70.087 295.704 70.8261 300.519 75.2609 300.148C79.6957 299.778 80.0652 292 84.5 292C88.9348 292 93 302 93 302" stroke="white" stroke-width="2"/>
<path id="Vector 176" d="M59 307V282C59 281.448 59.4477 281 60 281H92C92.5523 281 93 281.448 93 282V307C93 307.552 92.5523 308 92 308H60C59.4477 308 59 307.552 59 307Z" stroke="white" stroke-width="2"/>
<circle id="Ellipse 13" cx="73" cy="289" r="2" stroke="white" stroke-width="2"/>
</g>
</g>
</g>
<g id="item_2">
<rect id="Rectangle 333_2" x="123" y="264" width="62" height="62" rx="16" fill="#E1E1E1"/>
<g id="icons / 80 / picture_2">
<g id="Group 459_2">
<path id="Vector 177_2" d="M137 301.259C137 301.259 142.174 295.704 145.13 295.704C148.087 295.704 148.826 300.519 153.261 300.148C157.696 299.778 158.065 292 162.5 292C166.935 292 171 302 171 302" stroke="white" stroke-width="2"/>
<path id="Vector 176_2" d="M137 307V282C137 281.448 137.448 281 138 281H170C170.552 281 171 281.448 171 282V307C171 307.552 170.552 308 170 308H138C137.448 308 137 307.552 137 307Z" stroke="white" stroke-width="2"/>
<circle id="Ellipse 13_2" cx="151" cy="289" r="2" stroke="white" stroke-width="2"/>
</g>
</g>
</g>
<g id="item_3">
<rect id="Rectangle 333_3" x="201" y="264" width="62" height="62" rx="16" fill="#E1E1E1"/>
<g id="icons / 80 / picture_3">
<g id="Group 459_3">
<path id="Vector 177_3" d="M215 301.259C215 301.259 220.174 295.704 223.13 295.704C226.087 295.704 226.826 300.519 231.261 300.148C235.696 299.778 236.065 292 240.5 292C244.935 292 249 302 249 302" stroke="white" stroke-width="2"/>
<path id="Vector 176_3" d="M215 307V282C215 281.448 215.448 281 216 281H248C248.552 281 249 281.448 249 282V307C249 307.552 248.552 308 248 308H216C215.448 308 215 307.552 215 307Z" stroke="white" stroke-width="2"/>
<circle id="Ellipse 13_3" cx="229" cy="289" r="2" stroke="white" stroke-width="2"/>
</g>
</g>
</g>
<g id="item_4">
<rect id="Rectangle 333_4" x="279" y="186" width="62" height="62" rx="16" fill="#E1E1E1"/>
<g id="icons / 80 / picture_4">
<g id="Group 459_4">
<path id="Vector 177_4" d="M293 223.259C293 223.259 298.174 217.704 301.13 217.704C304.087 217.704 304.826 222.519 309.261 222.148C313.696 221.778 314.065 214 318.5 214C322.935 214 327 224 327 224" stroke="white" stroke-width="2"/>
<path id="Vector 176_4" d="M293 229V204C293 203.448 293.448 203 294 203H326C326.552 203 327 203.448 327 204V229C327 229.552 326.552 230 326 230H294C293.448 230 293 229.552 293 229Z" stroke="white" stroke-width="2"/>
<circle id="Ellipse 13_4" cx="307" cy="211" r="2" stroke="white" stroke-width="2"/>
</g>
</g>
</g>
<g id="item_5">
<rect id="Rectangle 333_5" x="279" y="264" width="62" height="62" rx="16" fill="#E1E1E1"/>
<g id="icons / 80 / picture_5">
<g id="Group 459_5">
<path id="Vector 177_5" d="M293 301.259C293 301.259 298.174 295.704 301.13 295.704C304.087 295.704 304.826 300.519 309.261 300.148C313.696 299.778 314.065 292 318.5 292C322.935 292 327 302 327 302" stroke="white" stroke-width="2"/>
<path id="Vector 176_5" d="M293 307V282C293 281.448 293.448 281 294 281H326C326.552 281 327 281.448 327 282V307C327 307.552 326.552 308 326 308H294C293.448 308 293 307.552 293 307Z" stroke="white" stroke-width="2"/>
<circle id="Ellipse 13_5" cx="307" cy="289" r="2" stroke="white" stroke-width="2"/>
</g>
</g>
</g>
<g id="Group 471">
<g id="item_6">
<rect id="Rectangle 333_6" x="45" y="108" width="62" height="62" rx="16" fill="#9CD365"/>
<g id="icons / 80 / picture_6">
<g id="Group 459_6">
<path id="Vector 177_6" d="M59 145.259C59 145.259 64.1739 139.704 67.1304 139.704C70.087 139.704 70.8261 144.519 75.2609 144.148C79.6957 143.778 80.0652 136 84.5 136C88.9348 136 93 146 93 146" stroke="white" stroke-width="2"/>
<path id="Vector 176_6" d="M59 151V126C59 125.448 59.4477 125 60 125H92C92.5523 125 93 125.448 93 126V151C93 151.552 92.5523 152 92 152H60C59.4477 152 59 151.552 59 151Z" stroke="white" stroke-width="2"/>
<circle id="Ellipse 13_6" cx="73" cy="133" r="2" stroke="white" stroke-width="2"/>
</g>
</g>
</g>
<g id="Checkbox">
<g id="Group 6">
<rect id="Rectangle 82" x="83" y="100" width="16" height="16" rx="8" fill="#83C150"/>
<g id="icons/ 16 / checked">
<path id="Combined Shape" fill-rule="evenodd" clip-rule="evenodd" d="M90.5921 108.401C90.2024 108.786 89.5757 108.785 89.1863 108.4L88.4391 107.661C88.1753 107.4 87.7506 107.4 87.4868 107.661C87.2188 107.926 87.2188 108.359 87.4868 108.624L89.1862 110.305C89.5756 110.69 90.2024 110.69 90.5921 110.306L94.5125 106.434C94.7808 106.169 94.7809 105.736 94.5128 105.471C94.2491 105.21 93.8248 105.21 93.5608 105.47L90.5921 108.401Z" fill="white"/>
</g>
</g>
</g>
</g>
<g id="Group 475">
<g id="item_7">
<rect id="Rectangle 333_7" x="45" y="186" width="62" height="62" rx="16" fill="#9CD365"/>
<g id="icons / 80 / picture_7">
<g id="Group 459_7">
<path id="Vector 177_7" d="M59 223.259C59 223.259 64.1739 217.704 67.1304 217.704C70.087 217.704 70.8261 222.519 75.2609 222.148C79.6957 221.778 80.0652 214 84.5 214C88.9348 214 93 224 93 224" stroke="white" stroke-width="2"/>
<path id="Vector 176_7" d="M59 229V204C59 203.448 59.4477 203 60 203H92C92.5523 203 93 203.448 93 204V229C93 229.552 92.5523 230 92 230H60C59.4477 230 59 229.552 59 229Z" stroke="white" stroke-width="2"/>
<circle id="Ellipse 13_7" cx="73" cy="211" r="2" stroke="white" stroke-width="2"/>
</g>
</g>
</g>
<g id="Checkbox_2">
<g id="Group 6_2">
<rect id="Rectangle 82_2" x="83" y="178" width="16" height="16" rx="8" fill="#83C150"/>
<g id="icons/ 16 / checked_2">
<path id="Combined Shape_2" fill-rule="evenodd" clip-rule="evenodd" d="M90.5921 186.401C90.2024 186.786 89.5757 186.785 89.1863 186.4L88.4391 185.661C88.1753 185.4 87.7506 185.4 87.4868 185.661C87.2188 185.926 87.2188 186.359 87.4868 186.624L89.1862 188.305C89.5756 188.69 90.2024 188.69 90.5921 188.306L94.5125 184.434C94.7808 184.169 94.7809 183.736 94.5128 183.471C94.2491 183.21 93.8248 183.21 93.5608 183.47L90.5921 186.401Z" fill="white"/>
</g>
</g>
</g>
</g>
<g id="Group 476">
<g id="item_8">
<rect id="Rectangle 333_8" x="123" y="186" width="62" height="62" rx="16" fill="#9CD365"/>
<g id="icons / 80 / picture_8">
<g id="Group 459_8">
<path id="Vector 177_8" d="M137 223.259C137 223.259 142.174 217.704 145.13 217.704C148.087 217.704 148.826 222.519 153.261 222.148C157.696 221.778 158.065 214 162.5 214C166.935 214 171 224 171 224" stroke="white" stroke-width="2"/>
<path id="Vector 176_8" d="M137 229V204C137 203.448 137.448 203 138 203H170C170.552 203 171 203.448 171 204V229C171 229.552 170.552 230 170 230H138C137.448 230 137 229.552 137 229Z" stroke="white" stroke-width="2"/>
<circle id="Ellipse 13_8" cx="151" cy="211" r="2" stroke="white" stroke-width="2"/>
</g>
</g>
</g>
<g id="Checkbox_3">
<g id="Group 6_3">
<rect id="Rectangle 82_3" x="161" y="178" width="16" height="16" rx="8" fill="#83C150"/>
<g id="icons/ 16 / checked_3">
<path id="Combined Shape_3" fill-rule="evenodd" clip-rule="evenodd" d="M168.592 186.401C168.202 186.786 167.576 186.785 167.186 186.4L166.439 185.661C166.175 185.4 165.751 185.4 165.487 185.661C165.219 185.926 165.219 186.359 165.487 186.624L167.186 188.305C167.576 188.69 168.202 188.69 168.592 188.306L172.512 184.434C172.781 184.169 172.781 183.736 172.513 183.471C172.249 183.21 171.825 183.21 171.561 183.47L168.592 186.401Z" fill="white"/>
</g>
</g>
</g>
</g>
<g id="Group 472">
<g id="item_9">
<rect id="Rectangle 333_9" x="123" y="108" width="62" height="62" rx="16" fill="#9CD365"/>
<g id="icons / 80 / picture_9">
<g id="Group 459_9">
<path id="Vector 177_9" d="M137 145.259C137 145.259 142.174 139.704 145.13 139.704C148.087 139.704 148.826 144.519 153.261 144.148C157.696 143.778 158.065 136 162.5 136C166.935 136 171 146 171 146" stroke="white" stroke-width="2"/>
<path id="Vector 176_9" d="M137 151V126C137 125.448 137.448 125 138 125H170C170.552 125 171 125.448 171 126V151C171 151.552 170.552 152 170 152H138C137.448 152 137 151.552 137 151Z" stroke="white" stroke-width="2"/>
<circle id="Ellipse 13_9" cx="151" cy="133" r="2" stroke="white" stroke-width="2"/>
</g>
</g>
</g>
<g id="Checkbox_4">
<g id="Group 6_4">
<rect id="Rectangle 82_4" x="161" y="100" width="16" height="16" rx="8" fill="#83C150"/>
<g id="icons/ 16 / checked_4">
<path id="Combined Shape_4" fill-rule="evenodd" clip-rule="evenodd" d="M168.592 108.401C168.202 108.786 167.576 108.785 167.186 108.4L166.439 107.661C166.175 107.4 165.751 107.4 165.487 107.661C165.219 107.926 165.219 108.359 165.487 108.624L167.186 110.305C167.576 110.69 168.202 110.69 168.592 110.306L172.512 106.434C172.781 106.169 172.781 105.736 172.513 105.471C172.249 105.21 171.825 105.21 171.561 105.47L168.592 108.401Z" fill="white"/>
</g>
</g>
</g>
</g>
<g id="Group 473">
<g id="item_10">
<rect id="Rectangle 333_10" x="201" y="108" width="62" height="62" rx="16" fill="#9CD365"/>
<g id="icons / 80 / picture_10">
<g id="Group 459_10">
<path id="Vector 177_10" d="M215 145.259C215 145.259 220.174 139.704 223.13 139.704C226.087 139.704 226.826 144.519 231.261 144.148C235.696 143.778 236.065 136 240.5 136C244.935 136 249 146 249 146" stroke="white" stroke-width="2"/>
<path id="Vector 176_10" d="M215 151V126C215 125.448 215.448 125 216 125H248C248.552 125 249 125.448 249 126V151C249 151.552 248.552 152 248 152H216C215.448 152 215 151.552 215 151Z" stroke="white" stroke-width="2"/>
<circle id="Ellipse 13_10" cx="229" cy="133" r="2" stroke="white" stroke-width="2"/>
</g>
</g>
</g>
<g id="Checkbox_5">
<g id="Group 6_5">
<rect id="Rectangle 82_5" x="239" y="100" width="16" height="16" rx="8" fill="#83C150"/>
<g id="icons/ 16 / checked_5">
<path id="Combined Shape_5" fill-rule="evenodd" clip-rule="evenodd" d="M246.592 108.401C246.202 108.786 245.576 108.785 245.186 108.4L244.439 107.661C244.175 107.4 243.751 107.4 243.487 107.661C243.219 107.926 243.219 108.359 243.487 108.624L245.186 110.305C245.576 110.69 246.202 110.69 246.592 110.306L250.512 106.434C250.781 106.169 250.781 105.736 250.513 105.471C250.249 105.21 249.825 105.21 249.561 105.47L246.592 108.401Z" fill="white"/>
</g>
</g>
</g>
</g>
<g id="Group 474">
<g id="item_11">
<rect id="Rectangle 333_11" x="279" y="108" width="62" height="62" rx="16" fill="#9CD365"/>
<g id="icons / 80 / picture_11">
<g id="Group 459_11">
<path id="Vector 177_11" d="M293 145.259C293 145.259 298.174 139.704 301.13 139.704C304.087 139.704 304.826 144.519 309.261 144.148C313.696 143.778 314.065 136 318.5 136C322.935 136 327 146 327 146" stroke="white" stroke-width="2"/>
<path id="Vector 176_11" d="M293 151V126C293 125.448 293.448 125 294 125H326C326.552 125 327 125.448 327 126V151C327 151.552 326.552 152 326 152H294C293.448 152 293 151.552 293 151Z" stroke="white" stroke-width="2"/>
<circle id="Ellipse 13_11" cx="307" cy="133" r="2" stroke="white" stroke-width="2"/>
</g>
</g>
</g>
<g id="Checkbox_6">
<g id="Group 6_6">
<rect id="Rectangle 82_6" x="317" y="100" width="16" height="16" rx="8" fill="#83C150"/>
<g id="icons/ 16 / checked_6">
<path id="Combined Shape_6" fill-rule="evenodd" clip-rule="evenodd" d="M324.592 108.401C324.202 108.786 323.576 108.785 323.186 108.4L322.439 107.661C322.175 107.4 321.751 107.4 321.487 107.661C321.219 107.926 321.219 108.359 321.487 108.624L323.186 110.305C323.576 110.69 324.202 110.69 324.592 110.306L328.512 106.434C328.781 106.169 328.781 105.736 328.513 105.471C328.249 105.21 327.825 105.21 327.561 105.47L324.592 108.401Z" fill="white"/>
</g>
</g>
</g>
</g>
<g id="Group 478">
<g id="item_12">
<rect id="Rectangle 333_12" x="201" y="186" width="62" height="62" rx="16" fill="#E1E1E1"/>
<g id="Mask group">
<mask id="mask0_996_13827" style="mask-type:alpha" maskUnits="userSpaceOnUse" x="201" y="186" width="62" height="62">
<rect id="Rectangle 340" x="201" y="186" width="62" height="62" rx="16" fill="#E1E1E1"/>
</mask>
<g mask="url(#mask0_996_13827)">
<rect id="Rectangle 339" x="201" y="206" width="63" height="42" fill="#9CD365"/>
</g>
</g>
<g id="icons / 80 / picture_12">
<g id="Group 459_12">
<path id="Vector 177_12" d="M215 223.259C215 223.259 220.174 217.704 223.13 217.704C226.087 217.704 226.826 222.519 231.261 222.148C235.696 221.778 236.065 214 240.5 214C244.935 214 249 224 249 224" stroke="white" stroke-width="2"/>
<path id="Vector 176_12" d="M215 229V204C215 203.448 215.448 203 216 203H248C248.552 203 249 203.448 249 204V229C249 229.552 248.552 230 248 230H216C215.448 230 215 229.552 215 229Z" stroke="white" stroke-width="2"/>
<circle id="Ellipse 13_12" cx="229" cy="211" r="2" stroke="white" stroke-width="2"/>
</g>
</g>
<g id="icons / 80 / picture_13">
<g id="Group 459_13">
<path id="Vector 177_13" d="M215 223.259C215 223.259 220.174 217.704 223.13 217.704C226.087 217.704 226.826 222.519 231.261 222.148C235.696 221.778 236.065 214 240.5 214C244.935 214 249 224 249 224" stroke="white" stroke-width="2"/>
<path id="Vector 176_13" d="M215 229V204C215 203.448 215.448 203 216 203H248C248.552 203 249 203.448 249 204V229C249 229.552 248.552 230 248 230H216C215.448 230 215 229.552 215 229Z" stroke="white" stroke-width="2"/>
<circle id="Ellipse 13_13" cx="229" cy="211" r="2" stroke="white" stroke-width="2"/>
</g>
</g>
</g>
<g id="icon">
<circle id="Ellipse 206" cx="247" cy="186" r="8" fill="white"/>
<g id="Icons / 24 / loader " clip-path="url(#clip1_996_13827)">
<g id="Group">
<path id="Vector" d="M241 186C241 187.591 241.632 189.117 242.757 190.243C243.883 191.368 245.409 192 247 192C248.591 192 250.117 191.368 251.243 190.243C252.368 189.117 253 187.591 253 186C253 184.409 252.368 182.883 251.243 181.757C250.117 180.632 248.591 180 247 180C245.409 180 243.883 180.632 242.757 181.757C241.632 182.883 241 184.409 241 186ZM239 186C239 183.878 239.843 181.843 241.343 180.343C242.843 178.843 244.878 178 247 178C249.122 178 251.157 178.843 252.657 180.343C254.157 181.843 255 183.878 255 186C255 188.122 254.157 190.157 252.657 191.657C251.157 193.157 249.122 194 247 194C244.878 194 242.843 193.157 241.343 191.657C239.843 190.157 239 188.122 239 186Z" fill="#83C150"/>
<path id="Vector_2" d="M253 186C253 184.409 252.368 182.883 251.243 181.757C250.117 180.632 248.591 180 247 180L247 178C249.122 178 251.157 178.843 252.657 180.343C254.157 181.843 255 183.878 255 186L253 186Z" fill="#CDE6B9"/>
</g>
<circle id="Ellipse 207" cx="254" cy="186" r="1" fill="#83BF50"/>
<circle id="Ellipse 208" cx="247" cy="179" r="1" fill="#83BF50"/>
</g>
</g>
</g>
<g id="icon_2">
<circle id="Ellipse 206_2" cx="325" cy="186" r="8" fill="white"/>
<g id="Icons / 24 / loader _2" clip-path="url(#clip2_996_13827)">
<g id="Group_2">
<path id="Vector_3" d="M319 186C319 187.591 319.632 189.117 320.757 190.243C321.883 191.368 323.409 192 325 192C326.591 192 328.117 191.368 329.243 190.243C330.368 189.117 331 187.591 331 186C331 184.409 330.368 182.883 329.243 181.757C328.117 180.632 326.591 180 325 180C323.409 180 321.883 180.632 320.757 181.757C319.632 182.883 319 184.409 319 186ZM317 186C317 183.878 317.843 181.843 319.343 180.343C320.843 178.843 322.878 178 325 178C327.122 178 329.157 178.843 330.657 180.343C332.157 181.843 333 183.878 333 186C333 188.122 332.157 190.157 330.657 191.657C329.157 193.157 327.122 194 325 194C322.878 194 320.843 193.157 319.343 191.657C317.843 190.157 317 188.122 317 186Z" fill="#CCE5B9"/>
<path id="Vector_4" d="M331 186C331 184.409 330.368 182.883 329.243 181.757C328.117 180.632 326.591 180 325 180L325 178C327.122 178 329.157 178.843 330.657 180.343C332.157 181.843 333 183.878 333 186L331 186Z" fill="#CDE6B9"/>
</g>
<circle id="Ellipse 207_2" cx="332" cy="186" r="1" fill="#CCE5B9"/>
<circle id="Ellipse 208_2" cx="325" cy="179" r="1" fill="#CCE5B9"/>
</g>
</g>
<g id="icon_3">
<circle id="Ellipse 206_3" cx="325" cy="264" r="8" fill="white"/>
<g id="Icons / 24 / loader _3" clip-path="url(#clip3_996_13827)">
<g id="Group_3">
<path id="Vector_5" d="M319 264C319 265.591 319.632 267.117 320.757 268.243C321.883 269.368 323.409 270 325 270C326.591 270 328.117 269.368 329.243 268.243C330.368 267.117 331 265.591 331 264C331 262.409 330.368 260.883 329.243 259.757C328.117 258.632 326.591 258 325 258C323.409 258 321.883 258.632 320.757 259.757C319.632 260.883 319 262.409 319 264ZM317 264C317 261.878 317.843 259.843 319.343 258.343C320.843 256.843 322.878 256 325 256C327.122 256 329.157 256.843 330.657 258.343C332.157 259.843 333 261.878 333 264C333 266.122 332.157 268.157 330.657 269.657C329.157 271.157 327.122 272 325 272C322.878 272 320.843 271.157 319.343 269.657C317.843 268.157 317 266.122 317 264Z" fill="#CCE5B9"/>
<path id="Vector_6" d="M331 264C331 262.409 330.368 260.883 329.243 259.757C328.117 258.632 326.591 258 325 258L325 256C327.122 256 329.157 256.843 330.657 258.343C332.157 259.843 333 261.878 333 264L331 264Z" fill="#CDE6B9"/>
</g>
<circle id="Ellipse 207_3" cx="332" cy="264" r="1" fill="#CCE5B9"/>
<circle id="Ellipse 208_3" cx="325" cy="257" r="1" fill="#CCE5B9"/>
</g>
</g>
<g id="icon_4">
<circle id="Ellipse 206_4" cx="247" cy="264" r="8" fill="white"/>
<g id="Icons / 24 / loader _4" clip-path="url(#clip4_996_13827)">
<g id="Group_4">
<path id="Vector_7" d="M241 264C241 265.591 241.632 267.117 242.757 268.243C243.883 269.368 245.409 270 247 270C248.591 270 250.117 269.368 251.243 268.243C252.368 267.117 253 265.591 253 264C253 262.409 252.368 260.883 251.243 259.757C250.117 258.632 248.591 258 247 258C245.409 258 243.883 258.632 242.757 259.757C241.632 260.883 241 262.409 241 264ZM239 264C239 261.878 239.843 259.843 241.343 258.343C242.843 256.843 244.878 256 247 256C249.122 256 251.157 256.843 252.657 258.343C254.157 259.843 255 261.878 255 264C255 266.122 254.157 268.157 252.657 269.657C251.157 271.157 249.122 272 247 272C244.878 272 242.843 271.157 241.343 269.657C239.843 268.157 239 266.122 239 264Z" fill="#CCE5B9"/>
<path id="Vector_8" d="M253 264C253 262.409 252.368 260.883 251.243 259.757C250.117 258.632 248.591 258 247 258L247 256C249.122 256 251.157 256.843 252.657 258.343C254.157 259.843 255 261.878 255 264L253 264Z" fill="#CDE6B9"/>
</g>
<circle id="Ellipse 207_4" cx="254" cy="264" r="1" fill="#CCE5B9"/>
<circle id="Ellipse 208_4" cx="247" cy="257" r="1" fill="#CCE5B9"/>
</g>
</g>
<g id="icon_5">
<circle id="Ellipse 206_5" cx="169" cy="264" r="8" fill="white"/>
<g id="Icons / 24 / loader _5" clip-path="url(#clip5_996_13827)">
<g id="Group_5">
<path id="Vector_9" d="M163 264C163 265.591 163.632 267.117 164.757 268.243C165.883 269.368 167.409 270 169 270C170.591 270 172.117 269.368 173.243 268.243C174.368 267.117 175 265.591 175 264C175 262.409 174.368 260.883 173.243 259.757C172.117 258.632 170.591 258 169 258C167.409 258 165.883 258.632 164.757 259.757C163.632 260.883 163 262.409 163 264ZM161 264C161 261.878 161.843 259.843 163.343 258.343C164.843 256.843 166.878 256 169 256C171.122 256 173.157 256.843 174.657 258.343C176.157 259.843 177 261.878 177 264C177 266.122 176.157 268.157 174.657 269.657C173.157 271.157 171.122 272 169 272C166.878 272 164.843 271.157 163.343 269.657C161.843 268.157 161 266.122 161 264Z" fill="#CCE5B9"/>
<path id="Vector_10" d="M175 264C175 262.409 174.368 260.883 173.243 259.757C172.117 258.632 170.591 258 169 258L169 256C171.122 256 173.157 256.843 174.657 258.343C176.157 259.843 177 261.878 177 264L175 264Z" fill="#CDE6B9"/>
</g>
<circle id="Ellipse 207_5" cx="176" cy="264" r="1" fill="#CCE5B9"/>
<circle id="Ellipse 208_5" cx="169" cy="257" r="1" fill="#CCE5B9"/>
</g>
</g>
<g id="icon_6">
<circle id="Ellipse 206_6" cx="91" cy="264" r="8" fill="white"/>
<g id="Icons / 24 / loader _6" clip-path="url(#clip6_996_13827)">
<g id="Group_6">
<path id="Vector_11" d="M85 264C85 265.591 85.6321 267.117 86.7574 268.243C87.8826 269.368 89.4087 270 91 270C92.5913 270 94.1174 269.368 95.2426 268.243C96.3679 267.117 97 265.591 97 264C97 262.409 96.3679 260.883 95.2426 259.757C94.1174 258.632 92.5913 258 91 258C89.4087 258 87.8826 258.632 86.7574 259.757C85.6321 260.883 85 262.409 85 264ZM83 264C83 261.878 83.8429 259.843 85.3431 258.343C86.8434 256.843 88.8783 256 91 256C93.1217 256 95.1566 256.843 96.6569 258.343C98.1571 259.843 99 261.878 99 264C99 266.122 98.1571 268.157 96.6569 269.657C95.1566 271.157 93.1217 272 91 272C88.8783 272 86.8434 271.157 85.3431 269.657C83.8429 268.157 83 266.122 83 264Z" fill="#CCE5B9"/>
<path id="Vector_12" d="M97 264C97 262.409 96.3679 260.883 95.2426 259.757C94.1174 258.632 92.5913 258 91 258L91 256C93.1217 256 95.1566 256.843 96.6569 258.343C98.1571 259.843 99 261.878 99 264L97 264Z" fill="#CDE6B9"/>
</g>
<circle id="Ellipse 207_6" cx="98" cy="264" r="1" fill="#CCE5B9"/>
<circle id="Ellipse 208_6" cx="91" cy="257" r="1" fill="#CCE5B9"/>
</g>
</g>
</g>
</g>
<g id="download" filter="url(#filter0_ddd_996_13827)">
<rect x="61" y="28" width="264" height="56" rx="8" fill="white"/>
<g id="Group 467">
<g id="Icons/20x28/Xls">
<rect id="Rectangle 267" x="77" y="36" width="32" height="40" rx="4" fill="#E1E1E1"/>
<path id="Rectangle 268" d="M77 51H109V72C109 74.2091 107.209 76 105 76H81C78.7909 76 77 74.2091 77 72V51Z" fill="#83C150"/>
</g>
<g id="Group 466">
<rect id="Rectangle 337" x="116" y="70" width="193" height="6" rx="3" fill="#F4F5F6"/>
<rect id="Rectangle 338" x="116" y="70" width="85" height="5.86207" rx="2.93103" fill="#83C150"/>
</g>
<path id="&#208;&#161;&#208;&#191;&#208;&#184;&#209;&#129;&#208;&#190;&#208;&#186; &#209;&#130;&#208;&#190;&#208;&#178;&#208;&#176;&#209;&#128;&#208;&#190;&#208;&#178; &#208;&#183;&#208;&#176; 02.04.2022.xls" d="M120.565 47.132C122.006 47.132 122.886 46.604 123.689 45.768L122.82 44.888C122.16 45.504 121.555 45.889 120.609 45.889C119.135 45.889 118.068 44.657 118.068 43.15C118.068 41.621 119.135 40.411 120.609 40.411C121.489 40.411 122.149 40.796 122.765 41.368L123.634 40.367C122.897 39.663 122.039 39.168 120.62 39.168C118.288 39.168 116.649 40.961 116.649 43.15C116.649 45.383 118.321 47.132 120.565 47.132ZM124.957 47H126.288V42.336H128.807V47H130.138V41.192H124.957V47ZM131.811 47H133.065L135.826 43.128V47H137.113V41.192H135.859C134.935 42.49 134.022 43.788 133.109 45.086V41.192H131.811V47ZM141.466 47.132C142.599 47.132 143.27 46.681 143.842 46.043L143.039 45.251C142.621 45.68 142.159 45.977 141.532 45.977C140.509 45.977 139.794 45.141 139.794 44.107V44.085C139.794 43.073 140.498 42.237 141.466 42.237C142.137 42.237 142.566 42.534 142.973 42.963L143.798 42.072C143.259 41.478 142.577 41.071 141.477 41.071C139.739 41.071 138.463 42.457 138.463 44.107V44.129C138.463 45.779 139.739 47.132 141.466 47.132ZM147.774 47.132C149.567 47.132 150.887 45.757 150.887 44.107C150.887 42.424 149.578 41.071 147.796 41.071C146.014 41.071 144.694 42.446 144.694 44.107C144.694 45.779 146.003 47.132 147.774 47.132ZM147.796 45.977C146.762 45.977 146.025 45.119 146.025 44.107C146.025 43.073 146.707 42.237 147.774 42.237C148.819 42.237 149.556 43.084 149.556 44.107C149.556 45.13 148.874 45.977 147.796 45.977ZM152.242 47H153.562V45.603L154.508 44.602L156.268 47H157.841L155.399 43.634L157.654 41.192H156.092L153.562 43.975V41.192H152.242V47ZM163.304 47H164.646V42.336H166.516V41.192H161.434V42.336H163.304V47ZM170.332 47.132C172.125 47.132 173.445 45.757 173.445 44.107C173.445 42.424 172.136 41.071 170.354 41.071C168.572 41.071 167.252 42.446 167.252 44.107C167.252 45.779 168.561 47.132 170.332 47.132ZM170.354 45.977C169.32 45.977 168.583 45.119 168.583 44.107C168.583 43.073 169.265 42.237 170.332 42.237C171.377 42.237 172.114 43.084 172.114 44.107C172.114 45.13 171.432 45.977 170.354 45.977ZM174.801 47H177.815C179.135 47 179.96 46.406 179.96 45.427C179.96 44.602 179.465 44.173 178.761 43.975C179.256 43.755 179.696 43.381 179.696 42.644C179.696 41.753 178.937 41.192 177.782 41.192H174.801V47ZM176.11 45.944V44.492H177.551C178.266 44.492 178.607 44.778 178.607 45.196C178.607 45.647 178.266 45.944 177.617 45.944H176.11ZM176.11 43.59V42.215H177.496C178.09 42.215 178.343 42.501 178.343 42.875C178.343 43.293 178.035 43.59 177.474 43.59H176.11ZM186.162 47V43.557C186.162 42.006 185.326 41.104 183.61 41.104C182.664 41.104 182.037 41.302 181.399 41.588L181.762 42.655C182.29 42.435 182.774 42.292 183.423 42.292C184.347 42.292 184.853 42.732 184.853 43.535V43.645C184.402 43.502 183.951 43.403 183.247 43.403C181.894 43.403 180.893 44.019 180.893 45.306C180.893 46.494 181.861 47.121 182.961 47.121C183.841 47.121 184.446 46.758 184.842 46.285V47H186.162ZM184.875 44.899C184.875 45.625 184.215 46.12 183.335 46.12C182.708 46.12 182.213 45.812 182.213 45.262C182.213 44.679 182.708 44.338 183.544 44.338C184.061 44.338 184.534 44.437 184.875 44.569V44.899ZM187.745 48.76H189.076V46.098C189.483 46.637 190.088 47.121 191.045 47.121C192.431 47.121 193.751 46.032 193.751 44.107C193.751 42.16 192.42 41.071 191.045 41.071C190.11 41.071 189.505 41.555 189.076 42.16V41.192H187.745V48.76ZM190.737 45.966C189.835 45.966 189.043 45.229 189.043 44.107C189.043 42.974 189.835 42.226 190.737 42.226C191.639 42.226 192.398 42.963 192.398 44.085C192.398 45.251 191.65 45.966 190.737 45.966ZM197.875 47.132C199.668 47.132 200.988 45.757 200.988 44.107C200.988 42.424 199.679 41.071 197.897 41.071C196.115 41.071 194.795 42.446 194.795 44.107C194.795 45.779 196.104 47.132 197.875 47.132ZM197.897 45.977C196.863 45.977 196.126 45.119 196.126 44.107C196.126 43.073 196.808 42.237 197.875 42.237C198.92 42.237 199.657 43.084 199.657 44.107C199.657 45.13 198.975 45.977 197.897 45.977ZM202.344 47H205.358C206.678 47 207.503 46.406 207.503 45.427C207.503 44.602 207.008 44.173 206.304 43.975C206.799 43.755 207.239 43.381 207.239 42.644C207.239 41.753 206.48 41.192 205.325 41.192H202.344V47ZM203.653 45.944V44.492H205.094C205.809 44.492 206.15 44.778 206.15 45.196C206.15 45.647 205.809 45.944 205.16 45.944H203.653ZM203.653 43.59V42.215H205.039C205.633 42.215 205.886 42.501 205.886 42.875C205.886 43.293 205.578 43.59 205.017 43.59H203.653ZM214.11 47.132C215.518 47.132 216.442 46.34 216.442 45.361C216.442 44.613 216.013 44.173 215.386 43.953C215.892 43.733 216.299 43.337 216.299 42.633C216.299 41.731 215.408 41.071 214.132 41.071C213.186 41.071 212.361 41.39 211.767 41.907L212.361 42.743C212.801 42.358 213.406 42.149 214.011 42.149C214.561 42.149 214.968 42.413 214.968 42.809C214.968 43.249 214.572 43.568 213.945 43.568H213.23V44.525H213.945C214.704 44.525 215.122 44.822 215.122 45.251C215.122 45.735 214.627 46.054 214.022 46.054C213.362 46.054 212.713 45.801 212.196 45.361L211.569 46.241C212.251 46.824 213.076 47.132 214.11 47.132ZM222.696 47V43.557C222.696 42.006 221.86 41.104 220.144 41.104C219.198 41.104 218.571 41.302 217.933 41.588L218.296 42.655C218.824 42.435 219.308 42.292 219.957 42.292C220.881 42.292 221.387 42.732 221.387 43.535V43.645C220.936 43.502 220.485 43.403 219.781 43.403C218.428 43.403 217.427 44.019 217.427 45.306C217.427 46.494 218.395 47.121 219.495 47.121C220.375 47.121 220.98 46.758 221.376 46.285V47H222.696ZM221.409 44.899C221.409 45.625 220.749 46.12 219.869 46.12C219.242 46.12 218.747 45.812 218.747 45.262C218.747 44.679 219.242 44.338 220.078 44.338C220.595 44.338 221.068 44.437 221.409 44.569V44.899ZM230.712 47.132C232.736 47.132 234.078 45.35 234.078 43.15C234.078 40.928 232.747 39.168 230.734 39.168C228.71 39.168 227.368 40.95 227.368 43.15C227.368 45.372 228.688 47.132 230.712 47.132ZM230.734 45.911C229.535 45.911 228.765 44.668 228.765 43.15C228.765 41.599 229.524 40.389 230.712 40.389C231.9 40.389 232.681 41.632 232.681 43.15C232.681 44.69 231.933 45.911 230.734 45.911ZM235.24 47H240.806V45.812H237.143L238.727 44.492C240.08 43.37 240.729 42.721 240.729 41.511C240.729 40.114 239.695 39.19 238.188 39.19C236.813 39.19 236.087 39.773 235.35 40.807L236.307 41.555C236.901 40.785 237.385 40.4 238.089 40.4C238.793 40.4 239.332 40.84 239.332 41.599C239.332 42.292 238.947 42.787 237.891 43.678L235.24 45.933V47ZM242.195 47H243.658V45.493H242.195V47ZM248.372 47.132C250.396 47.132 251.738 45.35 251.738 43.15C251.738 40.928 250.407 39.168 248.394 39.168C246.37 39.168 245.028 40.95 245.028 43.15C245.028 45.372 246.348 47.132 248.372 47.132ZM248.394 45.911C247.195 45.911 246.425 44.668 246.425 43.15C246.425 41.599 247.184 40.389 248.372 40.389C249.56 40.389 250.341 41.632 250.341 43.15C250.341 44.69 249.593 45.911 248.394 45.911ZM256.893 47H258.191V45.273H259.291V44.162H258.191V39.245H257.036L252.757 44.305L253.01 45.273H256.893V47ZM254.363 44.162L256.893 41.115V44.162H254.363ZM260.597 47H262.06V45.493H260.597V47ZM263.342 47H268.908V45.812H265.245L266.829 44.492C268.182 43.37 268.831 42.721 268.831 41.511C268.831 40.114 267.797 39.19 266.29 39.19C264.915 39.19 264.189 39.773 263.452 40.807L264.409 41.555C265.003 40.785 265.487 40.4 266.191 40.4C266.895 40.4 267.434 40.84 267.434 41.599C267.434 42.292 267.049 42.787 265.993 43.678L263.342 45.933V47ZM273.52 47.132C275.544 47.132 276.886 45.35 276.886 43.15C276.886 40.928 275.555 39.168 273.542 39.168C271.518 39.168 270.176 40.95 270.176 43.15C270.176 45.372 271.496 47.132 273.52 47.132ZM273.542 45.911C272.343 45.911 271.573 44.668 271.573 43.15C271.573 41.599 272.332 40.389 273.52 40.389C274.708 40.389 275.489 41.632 275.489 43.15C275.489 44.69 274.741 45.911 273.542 45.911ZM278.048 47H283.614V45.812H279.951L281.535 44.492C282.888 43.37 283.537 42.721 283.537 41.511C283.537 40.114 282.503 39.19 280.996 39.19C279.621 39.19 278.895 39.773 278.158 40.807L279.115 41.555C279.709 40.785 280.193 40.4 280.897 40.4C281.601 40.4 282.14 40.84 282.14 41.599C282.14 42.292 281.755 42.787 280.699 43.678L278.048 45.933V47ZM284.794 47H290.36V45.812H286.697L288.281 44.492C289.634 43.37 290.283 42.721 290.283 41.511C290.283 40.114 289.249 39.19 287.742 39.19C286.367 39.19 285.641 39.773 284.904 40.807L285.861 41.555C286.455 40.785 286.939 40.4 287.643 40.4C288.347 40.4 288.886 40.84 288.886 41.599C288.886 42.292 288.501 42.787 287.445 43.678L284.794 45.933V47ZM291.749 47H293.212V45.493H291.749V47ZM294.285 47H295.704L297.123 44.965L298.553 47H300.005L297.86 44.019L299.917 41.192H298.498L297.156 43.106L295.814 41.192H294.362L296.419 44.052L294.285 47ZM301.249 47H302.58V38.97H301.249V47ZM306.31 47.11C307.52 47.11 308.466 46.505 308.466 45.284C308.466 44.217 307.509 43.832 306.662 43.568C306.629 43.557 306.585 43.546 306.552 43.535C305.914 43.326 305.353 43.15 305.353 42.754C305.353 42.391 305.65 42.149 306.167 42.149C306.651 42.149 307.245 42.358 307.806 42.699L308.334 41.753C307.718 41.346 306.926 41.093 306.2 41.093C305.045 41.093 304.132 41.764 304.132 42.864C304.132 43.997 305.089 44.349 305.947 44.602C305.98 44.613 306.013 44.624 306.046 44.635C306.684 44.822 307.245 44.976 307.245 45.405C307.245 45.812 306.915 46.054 306.343 46.054C305.749 46.054 305.067 45.812 304.44 45.339L303.846 46.241C304.572 46.813 305.485 47.11 306.31 47.11Z" fill="#393939"/>
<path id="44%" d="M195.456 64V62.672H192.504L192.344 62.216L195.512 58.36H196.064V62.144H196.936V62.672H196.064V64H195.456ZM193.104 62.144H195.456V59.256L193.104 62.144ZM200.823 64V62.672H197.871L197.711 62.216L200.879 58.36H201.431V62.144H202.303V62.672H201.431V64H200.823ZM198.471 62.144H200.823V59.256L198.471 62.144ZM205.326 60.776C205.086 61.0587 204.782 61.2 204.414 61.2C204.046 61.2 203.742 61.0613 203.502 60.784C203.268 60.5013 203.15 60.1627 203.15 59.768C203.15 59.3787 203.27 59.0427 203.51 58.76C203.75 58.4773 204.057 58.336 204.43 58.336C204.798 58.336 205.1 58.4773 205.334 58.76C205.569 59.0373 205.686 59.3733 205.686 59.768C205.686 60.1573 205.566 60.4933 205.326 60.776ZM203.726 64L207.838 58.4H208.406L204.302 64H203.726ZM207.71 64.064C207.342 64.064 207.041 63.9253 206.806 63.648C206.572 63.3653 206.454 63.0267 206.454 62.632C206.454 62.2427 206.574 61.9067 206.814 61.624C207.054 61.3413 207.358 61.2 207.726 61.2C208.094 61.2 208.396 61.3413 208.63 61.624C208.865 61.9013 208.982 62.2373 208.982 62.632C208.982 63.0267 208.862 63.3653 208.622 63.648C208.388 63.9253 208.084 64.064 207.71 64.064ZM204.43 60.752C204.644 60.752 204.817 60.6587 204.95 60.472C205.089 60.28 205.158 60.0453 205.158 59.768C205.158 59.4907 205.086 59.2587 204.942 59.072C204.798 58.88 204.622 58.784 204.414 58.784C204.201 58.784 204.025 58.88 203.886 59.072C203.753 59.2587 203.686 59.4907 203.686 59.768C203.686 60.0453 203.758 60.28 203.902 60.472C204.046 60.6587 204.222 60.752 204.43 60.752ZM207.726 63.616C207.945 63.616 208.121 63.5227 208.254 63.336C208.388 63.1493 208.454 62.9147 208.454 62.632C208.454 62.3547 208.382 62.1227 208.238 61.936C208.094 61.744 207.918 61.648 207.71 61.648C207.497 61.648 207.321 61.744 207.182 61.936C207.049 62.1227 206.982 62.3547 206.982 62.632C206.982 62.9093 207.054 63.144 207.198 63.336C207.342 63.5227 207.518 63.616 207.726 63.616Z" fill="#A1A1A1"/>
</g>
<path id="Vector 180" d="M93 48V64M93 64L101 56.7273M93 64L85 56.7273" stroke="white" stroke-width="2" stroke-linecap="round"/>
</g>
</g>
<defs>
<filter id="filter0_ddd_996_13827" x="-3.51875" y="-27.9125" width="393.038" height="185.038" filterUnits="userSpaceOnUse" color-interpolation-filters="sRGB">
<feFlood flood-opacity="0" result="BackgroundImageFix"/>
<feColorMatrix in="SourceAlpha" type="matrix" values="0 0 0 0 0 0 0 0 0 0 0 0 0 0 0 0 0 0 127 0" result="hardAlpha"/>
<feOffset dy="0.74375"/>
<feGaussianBlur stdDeviation="4.27812"/>
<feColorMatrix type="matrix" values="0 0 0 0 0 0 0 0 0 0 0 0 0 0 0 0 0 0 0.0195 0"/>
<feBlend mode="normal" in2="BackgroundImageFix" result="effect1_dropShadow_996_13827"/>
<feColorMatrix in="SourceAlpha" type="matrix" values="0 0 0 0 0 0 0 0 0 0 0 0 0 0 0 0 0 0 127 0" result="hardAlpha"/>
<feOffset dy="3.4"/>
<feGaussianBlur stdDeviation="12.025"/>
<feColorMatrix type="matrix" values="0 0 0 0 0 0 0 0 0 0 0 0 0 0 0 0 0 0 0.03 0"/>
<feBlend mode="normal" in2="effect1_dropShadow_996_13827" result="effect2_dropShadow_996_13827"/>
<feColorMatrix in="SourceAlpha" type="matrix" values="0 0 0 0 0 0 0 0 0 0 0 0 0 0 0 0 0 0 127 0" result="hardAlpha"/>
<feOffset dy="8.60625"/>
<feGaussianBlur stdDeviation="32.2594"/>
<feColorMatrix type="matrix" values="0 0 0 0 0 0 0 0 0 0 0 0 0 0 0 0 0 0 0.0405 0"/>
<feBlend mode="normal" in2="effect2_dropShadow_996_13827" result="effect3_dropShadow_996_13827"/>
<feBlend mode="normal" in="SourceGraphic" in2="effect3_dropShadow_996_13827" result="shape"/>
</filter>
<clipPath id="clip0_996_13827">
<path d="M0 76C0 58.3269 14.3269 44 32 44H354C371.673 44 386 58.3269 386 76V316H0V76Z" fill="white"/>
</clipPath>
<clipPath id="clip1_996_13827">
<rect width="16" height="16" fill="white" transform="translate(255 178) rotate(90)"/>
</clipPath>
<clipPath id="clip2_996_13827">
<rect width="16" height="16" fill="white" transform="translate(333 178) rotate(90)"/>
</clipPath>
<clipPath id="clip3_996_13827">
<rect width="16" height="16" fill="white" transform="translate(333 256) rotate(90)"/>
</clipPath>
<clipPath id="clip4_996_13827">
<rect width="16" height="16" fill="white" transform="translate(255 256) rotate(90)"/>
</clipPath>
<clipPath id="clip5_996_13827">
<rect width="16" height="16" fill="white" transform="translate(177 256) rotate(90)"/>
</clipPath>
<clipPath id="clip6_996_13827">
<rect width="16" height="16" fill="white" transform="translate(99 256) rotate(90)"/>
</clipPath>
</defs>
</svg>
