<svg width="228" height="280" viewBox="0 0 228 280" fill="none" xmlns="http://www.w3.org/2000/svg">
<g clip-path="url(#clip0_419_14248)">
<path d="M228 160V280C151.663 265.58 127 164.662 127 164.662H183.977C183.979 164.664 205.603 162.314 228 160Z" fill="black"/>
<path d="M228.12 111.886V167.249C218.632 175.622 208.174 182.558 197.073 187.989C195.385 188.814 193.682 189.605 191.965 190.358C173.574 198.447 153.606 202.506 133.482 202.217C133.435 202.217 133.39 202.216 133.344 202.216C120.864 202.02 108.329 200.153 96.0667 196.543C93.6011 195.817 91.2379 195.045 88.9919 194.233C85.6388 193.025 82.5498 191.732 79.7791 190.373C78.992 189.988 78.2309 189.597 77.4959 189.201C74.366 187.515 71.7274 185.741 69.6768 183.915C69.1056 183.409 68.5808 182.899 68.1063 182.384C65.9069 180.018 64.7234 177.586 64.7606 175.168C64.7699 174.463 64.8853 173.759 65.1086 173.057C65.1793 172.834 65.2612 172.613 65.3542 172.391C69.8536 161.66 72.5387 149.473 73.979 141.342C74.5874 137.907 75.4118 134.523 76.4482 131.214C79.8926 120.198 85.6741 110.01 93.5694 101.488C98.5154 96.1525 103.996 91.656 109.82 87.9115C111.61 86.7576 113.433 85.6763 115.283 84.6638C118.482 82.9107 121.764 81.3604 125.097 80.0036C127.611 78.9837 130.153 78.0699 132.708 77.2622C134.648 76.648 136.599 76.0915 138.549 75.5984C140.772 75.1666 143.022 74.8037 145.292 74.517C147.475 74.2379 149.674 74.0294 151.891 73.8954C156.223 73.6293 160.612 73.646 165.017 73.9941C166.295 74.0927 167.575 74.2193 168.857 74.3756C176.027 75.2466 183.221 77.0128 190.271 79.8529C200.643 84.0366 209.903 90.4538 217.549 98.5105C220.228 101.334 222.709 104.358 224.971 107.559C225.915 108.892 226.968 110.349 228.12 111.886Z" fill="black"/>
<path d="M219.139 93.0797C218.48 95.6778 217.663 98.3262 216.67 101.014C202.857 138.446 168.76 74.1968 168.76 74.1968C168.76 74.1968 188.222 42.6881 203.631 35.6382C205.613 34.7337 207.807 34.8212 209.636 35.7071C210.957 36.3473 212.09 37.4044 212.818 38.8021C217.334 47.488 225.533 67.9453 219.139 93.0797Z" fill="black"/>
<path d="M219.14 93.0797C209.691 84.9262 198.031 79.8453 202.733 53.8456C204.544 43.8216 207.095 38.4542 209.635 35.7072C210.956 36.3474 212.089 37.4045 212.817 38.8022C217.335 47.488 225.533 67.9454 219.14 93.0797Z" fill="#4D4D4D"/>
<path d="M71.8204 125.698C73.4467 127.829 75.2368 129.943 77.2055 132.025C104.598 161.033 110.75 88.5535 110.75 88.5535C110.75 88.5535 80.4843 67.2121 63.5473 66.7766C61.3683 66.7226 59.3866 67.6644 58.0524 69.1979C57.0885 70.3053 56.4614 71.7235 56.3404 73.2942C55.5905 83.0558 56.0762 105.09 71.8204 125.698Z" fill="black"/>
<path d="M71.8195 125.698C77.3107 114.488 86.0416 105.238 71.5162 83.1711C65.9171 74.6621 61.4642 70.7277 58.0497 69.1979C57.0858 70.3052 56.4587 71.7234 56.3377 73.2942C55.5897 83.0557 56.0754 105.089 71.8195 125.698Z" fill="#4D4D4D"/>
<path d="M139.414 144.916C139.414 144.916 129.556 122.962 111.231 125.606C92.9056 128.251 89.1412 146.559 89.4836 149.393C89.826 152.228 98.2833 164.016 115.935 163.56C133.586 163.104 140.979 147.864 139.414 144.916Z" fill="#83C150"/>
<path d="M126.937 155.975C133.113 149.798 133.113 139.783 126.937 133.606C120.761 127.429 110.747 127.429 104.571 133.606C98.3954 139.783 98.3954 149.798 104.571 155.975C110.747 162.153 120.761 162.153 126.937 155.975Z" fill="black"/>
<path d="M167.298 138.677C167.298 138.677 166.865 114.615 184.57 109.197C202.276 103.779 213.48 118.739 214.377 121.449C215.273 124.158 212.644 138.428 196.481 145.537C180.318 152.647 167.138 142.01 167.298 138.677Z" fill="#83C150"/>
<path d="M199.824 139.667C206 133.49 206 123.475 199.824 117.298C193.648 111.121 183.634 111.121 177.458 117.298C171.282 123.475 171.282 133.49 177.458 139.667C183.634 145.844 193.648 145.844 199.824 139.667Z" fill="black"/>
<path d="M162.122 153.287C160.838 152.211 158.656 152.73 157.184 153.043C156.789 153.128 156.369 153.21 155.937 153.307C155.49 153.408 155.077 153.512 154.683 153.603C153.218 153.945 151.023 154.407 150.319 155.928C149.443 157.813 151.112 159.611 152.55 160.603C154.156 161.706 156.021 162.335 157.79 161.626C159.694 161.513 161.114 160.15 162.096 158.468C162.974 156.957 163.719 154.619 162.122 153.287Z" fill="#4D4D4D"/>
<path d="M179.571 160.521C177.703 164.411 173.686 167.198 169.424 167.77C167.217 168.066 165.042 167.461 163.185 166.257C162.191 165.613 161.293 164.746 160.671 163.733C159.94 162.544 159.685 161.154 159.006 159.946C158.693 159.389 157.847 159.183 157.335 159.583C156.7 159.439 156.023 159.987 155.976 160.623C155.876 162.004 156.239 163.37 156.082 164.759C155.95 165.938 155.507 167.105 154.882 168.112C153.716 169.992 152.005 171.466 149.882 172.14C145.785 173.439 140.962 172.627 137.614 169.906C136.579 169.065 134.895 170.096 135.653 171.405C138.74 176.722 147.519 177.801 152.733 175.322C155.601 173.958 158.074 171.479 159.333 168.527C161.73 170.66 165.022 171.849 168.198 171.861C173.97 171.883 181.454 167.163 181.981 161.038C182.113 159.534 180.15 159.318 179.571 160.521Z" fill="#4D4D4D"/>
<path d="M113.914 177.252C112.079 176.845 110.17 176.913 108.314 176.698C106.221 176.454 104.096 176.418 101.993 176.325C97.7284 176.137 93.4653 176.093 89.1873 176.495C80.851 177.28 72.6876 179.882 64.7699 184.034C60.0714 186.496 55.5143 189.526 50.9609 192.521C50.4808 192.835 50.7842 193.878 51.2661 193.57C58.5307 188.925 66.1357 185.063 73.8246 182.333C82.4791 179.26 91.0983 178.719 99.8999 178.464C102.094 178.4 104.288 178.464 106.48 178.514C108.934 178.572 111.493 178.825 113.949 178.488C114.483 178.415 114.362 177.351 113.914 177.252Z" fill="#4D4D4D"/>
<path d="M114.172 173.402C112.382 172.73 110.486 172.525 108.663 172.043C106.605 171.498 104.502 171.157 102.425 170.762C98.2123 169.96 93.9902 169.301 89.7234 169.089C81.4075 168.674 73.1325 170.098 64.9915 173.104C60.1609 174.887 55.4289 177.258 50.7062 179.593C50.2094 179.839 50.4345 180.924 50.9332 180.686C58.462 177.092 66.2717 174.328 74.0852 172.709C82.8793 170.885 91.4576 171.585 100.2 172.598C102.379 172.851 104.548 173.228 106.716 173.595C109.144 174.005 111.662 174.628 114.118 174.645C114.654 174.647 114.61 173.565 114.172 173.402Z" fill="#4D4D4D"/>
<path d="M113.756 181.421C112.01 181.306 110.23 181.646 108.48 181.711C106.504 181.786 104.515 182.059 102.543 182.275C98.54 182.713 94.5504 183.284 90.5776 184.272C82.8367 186.199 75.3861 189.783 68.2741 194.769C64.0538 197.728 60.0066 201.192 55.9594 204.624C55.5332 204.985 55.8905 205.908 56.3185 205.552C62.7848 200.202 69.6232 195.527 76.6217 191.892C84.4984 187.799 92.5203 186.059 100.736 184.559C102.784 184.185 104.839 183.928 106.893 183.662C109.193 183.362 111.605 183.23 113.877 182.566C114.372 182.419 114.182 181.449 113.756 181.421Z" fill="#4D4D4D"/>
<path d="M228.121 145.185V147.884C224.468 149.138 220.907 150.629 217.338 152.187C215.326 153.065 213.369 154.057 211.407 155.036C209.212 156.134 207.005 157.456 204.64 158.196C204.122 158.358 203.78 157.344 204.143 157.063C205.63 155.911 207.386 155.161 208.974 154.174C210.764 153.063 212.671 152.125 214.534 151.145C218.313 149.157 222.15 147.3 226.191 145.842C226.83 145.612 227.473 145.392 228.121 145.185Z" fill="#4D4D4D"/>
<path d="M228.121 136.771V139.505C223.43 141.625 219.002 144.253 214.567 147.006C212.705 148.163 210.903 149.431 209.098 150.685C207.076 152.092 205.062 153.728 202.848 154.791C202.364 155.021 201.944 154.026 202.269 153.691C203.602 152.319 205.232 151.325 206.676 150.112C208.306 148.742 210.062 147.54 211.772 146.295C215.243 143.773 218.782 141.379 222.552 139.367C224.364 138.402 226.221 137.536 228.121 136.771Z" fill="#4D4D4D"/>
<path d="M228.122 153.493V155.903C225.119 156.518 222.155 157.266 219.179 158.057C217.168 158.591 215.197 159.235 213.226 159.868C211.018 160.577 208.781 161.485 206.442 161.852C205.93 161.932 205.688 160.975 206.062 160.767C207.592 159.92 209.349 159.467 210.96 158.781C212.778 158.006 214.695 157.405 216.572 156.76C220.34 155.462 224.153 154.29 228.122 153.493Z" fill="#4D4D4D"/>
</g>
<defs>
<clipPath id="clip0_419_14248">
<rect width="228" height="280" fill="white"/>
</clipPath>
</defs>
</svg>
