<svg width="443" height="460" viewBox="0 0 443 460" fill="none" xmlns="http://www.w3.org/2000/svg">
<path d="M221.889 371C326.209 371 410.778 322.172 410.778 261.94C410.778 201.708 326.209 152.88 221.889 152.88C117.568 152.88 33 201.708 33 261.94C33 322.172 117.568 371 221.889 371Z" fill="#FAFAFA"/>
<path d="M325.362 332.114C346.261 332.114 363.204 322.334 363.204 310.269C363.204 298.204 346.261 288.424 325.362 288.424C304.462 288.424 287.52 298.204 287.52 310.269C287.52 322.334 304.462 332.114 325.362 332.114Z" fill="#E0E0E0"/>
<path d="M79.3524 300.481L48.3236 282.568C46.5731 281.556 46.5731 279.923 48.3236 278.91L228.814 174.701C229.797 174.208 230.881 173.952 231.981 173.952C233.081 173.952 234.165 174.208 235.148 174.701L266.185 192.622C267.935 193.626 267.935 195.267 266.185 196.279L85.6947 300.481C84.7122 300.98 83.6257 301.24 82.5236 301.24C81.4215 301.24 80.335 300.98 79.3524 300.481Z" fill="#E0E0E0"/>
<path d="M100.185 35.4994L93.191 39.5497C93.191 39.2357 93.246 38.9296 93.246 38.6234V36.5904C93.246 32.9718 90.7106 31.504 87.5708 33.3172C86.2252 34.1452 85.074 35.2536 84.1956 36.5669C83.6775 32.0142 80.1139 30.2873 75.7731 32.8227C71.0635 35.5308 67.2879 42.1086 67.2879 47.5247V50.5624C67.2537 51.7764 67.4981 52.982 68.0022 54.0868L62.17 57.4542C61.2565 58.0528 60.4964 58.8576 59.951 59.8039C59.4057 60.7501 59.0903 61.8112 59.0303 62.9018C59.0303 64.9112 60.4432 65.7276 62.17 64.7228L100.185 42.7679C101.099 42.1699 101.859 41.3651 102.405 40.4188C102.95 39.4725 103.265 38.4111 103.325 37.3204C103.325 35.311 101.943 34.4946 100.185 35.4994Z" fill="#EBEBEB"/>
<path d="M136.544 52.3129L131.245 55.3742C131.276 55.14 131.292 54.904 131.292 54.6677V53.0978C131.292 50.3662 129.377 49.2595 127.014 50.6253C125.996 51.2464 125.125 52.0822 124.463 53.0743C124.071 49.6441 121.378 48.3646 118.105 50.2563C114.573 52.2972 111.7 57.2659 111.7 61.3476V63.6475C111.678 64.5614 111.863 65.4686 112.242 66.3006L107.846 68.8438C107.159 69.2968 106.587 69.9051 106.178 70.6196C105.769 71.3341 105.534 72.1347 105.491 72.9569C105.491 74.4718 106.559 75.0841 107.846 74.3306L136.544 57.7604C137.231 57.3069 137.802 56.6985 138.211 55.9841C138.62 55.2698 138.855 54.4693 138.898 53.6473C138.922 52.1873 137.862 51.5593 136.544 52.3129Z" fill="#EBEBEB"/>
<path d="M190.894 268.557L217.582 253.133C220.337 251.563 221.711 249.46 221.711 247.379C221.711 245.299 221.711 243.674 221.711 243.674L194.034 228.062C193.261 227.558 192.618 226.878 192.157 226.079C191.696 225.28 191.43 224.383 191.38 223.462V190.573L144.786 217.497V250.386C144.837 251.307 145.104 252.203 145.565 253.002C146.025 253.801 146.668 254.48 147.439 254.985L170.988 268.557C176.474 271.728 185.391 271.728 190.894 268.557Z" fill="#263238"/>
<path d="M155.963 256.21V259.907L147.423 254.985C146.652 254.48 146.01 253.801 145.551 253.001C145.091 252.202 144.826 251.306 144.777 250.386V217.504L153.647 212.379C153.836 214.631 154.032 216.963 154.22 219.231L147.996 222.834V248.533C148.042 249.455 148.307 250.353 148.768 251.153C149.23 251.952 149.874 252.631 150.649 253.133L155.963 256.21Z" fill="black"/>
<path d="M147.994 248.541C148.044 249.462 148.31 250.359 148.771 251.158C149.232 251.957 149.875 252.637 150.647 253.141L170.969 264.844C176.464 268.023 185.389 268.023 190.891 264.844L217.579 249.428C223.074 246.288 223.074 241.108 217.579 237.929L197.242 226.209C196.468 225.707 195.824 225.028 195.363 224.228C194.902 223.429 194.636 222.531 194.588 221.61V195.918L148.002 222.842L147.994 248.541Z" fill="#37474F"/>
<path d="M202.65 229.341L197.242 226.202C196.468 225.699 195.824 225.02 195.363 224.22C194.902 223.421 194.636 222.523 194.588 221.602V195.918L147.994 222.842V248.541C148.044 249.462 148.31 250.359 148.771 251.158C149.232 251.957 149.875 252.637 150.647 253.141L155.961 256.202L202.65 229.341Z" fill="#263238"/>
<path d="M221.7 243.714V247.426C221.7 249.507 220.319 251.579 217.572 253.172L190.884 268.588C187.959 270.149 184.693 270.958 181.378 270.943V267.246C184.693 267.265 187.96 266.455 190.884 264.891L217.572 249.459C220.319 247.842 221.7 245.762 221.7 243.714Z" fill="#455A64"/>
<path d="M73.1826 280.48C74.1883 280.966 75.2942 281.209 76.411 281.189C77.5278 281.168 78.6241 280.885 79.6113 280.363L259.803 176.326C260.771 175.698 261.576 174.851 262.153 173.852C262.73 172.853 263.063 171.732 263.123 170.58V24.3374C263.078 23.2188 262.771 22.1264 262.225 21.1487C261.68 20.171 260.912 19.3354 259.984 18.7094C258.978 18.2233 257.872 17.9807 256.755 18.0012C255.638 18.0216 254.542 18.3046 253.555 18.8271L73.3867 122.832C72.4204 123.461 71.6162 124.31 71.0392 125.308C70.4623 126.306 70.129 127.427 70.0664 128.578V274.852C70.1089 275.969 70.413 277.06 70.9542 278.037C71.4955 279.015 72.2588 279.852 73.1826 280.48Z" fill="#455A64"/>
<path d="M79.6103 280.355L259.802 176.326C260.768 175.697 261.573 174.849 262.15 173.85C262.726 172.852 263.06 171.732 263.122 170.58V24.3375C263.122 22.2182 261.639 21.3626 259.802 22.4222L79.6182 126.451C78.6519 127.08 77.8476 127.928 77.2707 128.927C76.6938 129.925 76.3605 131.045 76.2979 132.197V278.44C76.2979 280.559 77.7814 281.391 79.6103 280.355Z" fill="#83C150"/>
<path d="M79.6103 280.355L259.802 176.326C260.768 175.697 261.573 174.849 262.15 173.85C262.726 172.852 263.06 171.732 263.122 170.58V24.3375C263.122 22.2182 261.639 21.3626 259.802 22.4222L79.6182 126.451C78.6519 127.08 77.8476 127.928 77.2707 128.927C76.6938 129.925 76.3605 131.045 76.2979 132.197V278.44C76.2979 280.559 77.7814 281.391 79.6103 280.355Z" fill="#37474F"/>
<path d="M79.1238 284.146C78.181 284.553 77.1618 284.752 76.1352 284.73C75.1087 284.708 74.0988 284.466 73.174 284.021C72.2447 283.394 71.4762 282.557 70.9307 281.578C70.3852 280.599 70.0781 279.505 70.0342 278.385V265.111L76.2588 268.714V281.988C76.2902 283.918 77.5147 284.79 79.1238 284.146Z" fill="#263238"/>
<path d="M76.29 268.714V281.98C76.29 284.099 77.7736 284.955 79.6025 283.895L259.802 179.866C260.769 179.236 261.574 178.387 262.151 177.387C262.728 176.387 263.061 175.265 263.122 174.113V160.823L76.29 268.714Z" fill="#37474F"/>
<path opacity="0.2" d="M76.2979 268.683V281.98C76.2979 284.099 77.7814 284.955 79.6103 283.895L259.802 179.866C260.769 179.236 261.574 178.387 262.151 177.387C262.728 176.387 263.061 175.265 263.122 174.113V160.823L76.2979 268.683Z" fill="black"/>
<path d="M82.5225 252.057V134.269C82.5602 133.577 82.7604 132.904 83.1068 132.304C83.4532 131.704 83.936 131.194 84.5162 130.815L254.896 32.4458C256.003 31.81 256.89 32.3281 256.89 33.5918V151.388C256.852 152.08 256.652 152.753 256.306 153.353C255.959 153.953 255.476 154.463 254.896 154.842L84.4848 253.211C83.4094 253.847 82.5225 253.329 82.5225 252.057Z" fill="#83C150"/>
<path opacity="0.3" d="M82.5225 252.057V134.269C82.5602 133.577 82.7604 132.904 83.1068 132.304C83.4532 131.704 83.936 131.194 84.5162 130.815L254.896 32.4458C256.003 31.81 256.89 32.3281 256.89 33.5918V151.388C256.852 152.08 256.652 152.753 256.306 153.353C255.959 153.953 255.476 154.463 254.896 154.842L84.4848 253.211C83.4094 253.847 82.5225 253.329 82.5225 252.057Z" fill="black"/>
<path d="M169.706 218.988C168.796 219.576 168.037 220.371 167.491 221.308C166.945 222.245 166.629 223.298 166.566 224.38C166.566 226.366 167.964 227.175 169.706 226.178C170.618 225.59 171.377 224.795 171.923 223.858C172.469 222.921 172.785 221.868 172.846 220.785C172.822 218.799 171.425 217.991 169.706 218.988Z" fill="#455A64"/>
<path d="M77.2722 128.915C76.681 129.912 76.344 131.039 76.291 132.197V268.714L70.0664 265.111V128.609C70.1119 127.45 70.4494 126.322 71.0476 125.328L77.2722 128.915Z" fill="#263238"/>
<path d="M288.216 23.6469C287.949 23.5121 287.649 23.4532 287.35 23.4767C287.051 23.5003 286.764 23.6053 286.521 23.7803L106.934 127.495C106.251 127.933 105.683 128.526 105.273 129.226C104.864 129.926 104.626 130.712 104.579 131.522V252.599C104.551 252.992 104.627 253.385 104.799 253.739C104.972 254.093 105.234 254.396 105.56 254.617C105.937 254.821 107.915 255.982 108.527 256.304C108.739 256.413 108.975 256.463 109.213 256.449C109.45 256.435 109.68 256.358 109.877 256.226L289.488 152.472C290.171 152.034 290.74 151.441 291.149 150.741C291.559 150.042 291.796 149.255 291.843 148.445V26.7788C291.882 26.4757 291.836 26.1676 291.708 25.8899C291.58 25.6122 291.377 25.3762 291.121 25.2089C290.681 25.0598 288.64 23.9295 288.216 23.6469Z" fill="#83C150"/>
<path d="M109.91 129.182L289.489 25.4991C290.776 24.7613 291.844 25.3657 291.844 26.8492V148.516C291.797 149.325 291.56 150.112 291.15 150.812C290.741 151.512 290.172 152.105 289.489 152.542L109.91 256.226C108.622 256.963 107.555 255.762 107.555 254.279V133.209C107.601 132.4 107.839 131.613 108.248 130.913C108.658 130.213 109.227 129.62 109.91 129.182Z" fill="#FAFAFA"/>
<path d="M290.533 25.931C290.965 25.931 291.035 26.4804 291.035 26.8101V148.476C290.993 149.146 290.796 149.796 290.459 150.377C290.123 150.957 289.656 151.451 289.097 151.82L109.517 255.543C109.406 255.619 109.275 255.663 109.14 255.668C108.732 255.668 108.355 255.017 108.355 254.279V133.209C108.398 132.539 108.595 131.887 108.931 131.306C109.267 130.724 109.734 130.229 110.294 129.858L289.881 26.1429C290.077 26.0187 290.301 25.9458 290.533 25.931ZM290.533 25.146C290.164 25.16 289.805 25.2681 289.489 25.46L109.91 129.183C109.227 129.62 108.658 130.213 108.248 130.913C107.839 131.613 107.601 132.4 107.555 133.209V254.279C107.555 255.456 108.206 256.453 109.125 256.453C109.402 256.451 109.674 256.372 109.91 256.226L289.489 152.472C290.172 152.034 290.741 151.441 291.15 150.741C291.56 150.041 291.797 149.255 291.844 148.445V26.7787C291.844 25.719 291.318 25.1146 290.557 25.1146L290.533 25.146Z" fill="#E0E0E0"/>
<path d="M105.584 254.616C105.835 254.75 107.649 255.786 108.441 256.233C108.155 255.998 107.928 255.698 107.78 255.359C107.631 255.019 107.565 254.649 107.586 254.279V140.815L104.603 139.073V252.599C104.579 252.991 104.656 253.383 104.828 253.737C105 254.091 105.26 254.394 105.584 254.616Z" fill="#F0F0F0"/>
<path d="M291.82 26.7864C291.82 25.3186 290.768 24.722 289.465 25.4599L109.91 129.182C109.227 129.62 108.658 130.213 108.248 130.913C107.839 131.613 107.601 132.4 107.555 133.209V140.815L291.82 34.4239V26.7864Z" fill="#83C150"/>
<g opacity="0.4">
<path opacity="0.4" d="M289.488 25.4992L109.908 129.182C109.223 129.608 108.658 130.203 108.268 130.909L105.316 129.198C105.7 128.501 106.257 127.914 106.933 127.495L286.521 23.7802C286.763 23.6061 287.048 23.5011 287.345 23.4762C287.642 23.4513 287.941 23.5075 288.208 23.6389C288.624 23.8979 290.563 24.9968 291.05 25.2558C290.789 25.1678 290.511 25.144 290.239 25.1863C289.967 25.2287 289.709 25.336 289.488 25.4992Z" fill="white"/>
</g>
<path opacity="0.15" d="M104.603 139.081V131.522C104.632 130.688 104.878 129.876 105.317 129.167L108.276 130.87C107.85 131.566 107.612 132.362 107.585 133.178V140.784L104.603 139.081Z" fill="black"/>
<path d="M107.585 140.815L107.577 154.52L291.811 48.1448V34.424L107.585 140.815Z" fill="#EBEBEB"/>
<path d="M115.254 139.803L127.169 132.958V139.779L115.246 146.663L115.254 139.803Z" fill="#E0E0E0"/>
<path d="M130.113 131.223V133.924L136.055 130.485V127.793L130.113 131.223Z" fill="#E0E0E0"/>
<path d="M130.113 135.392V138.092L136.055 134.654V131.961L130.113 135.392Z" fill="#E0E0E0"/>
<path d="M139.03 126.074V128.774L144.972 125.344V122.644L139.03 126.074Z" fill="#E0E0E0"/>
<path d="M139.03 130.242V132.942L144.972 129.512V126.812L139.03 130.242Z" fill="#E0E0E0"/>
<path d="M147.938 120.925V123.625L153.881 120.195V117.495L147.938 120.925Z" fill="#E0E0E0"/>
<path d="M147.938 125.093V127.793L153.881 124.363V121.663L147.938 125.093Z" fill="#E0E0E0"/>
<path d="M174.682 105.485V108.185L180.624 104.755V102.055L174.682 105.485Z" fill="#E0E0E0"/>
<path d="M174.682 109.661V112.353L180.624 108.923V106.223L174.682 109.661Z" fill="#E0E0E0"/>
<path d="M183.601 100.343V103.036L189.543 99.6056V96.9054L183.601 100.343Z" fill="#E0E0E0"/>
<path d="M183.601 104.512V107.204L189.543 103.774V101.073L183.601 104.512Z" fill="#E0E0E0"/>
<path d="M192.508 95.1944L192.516 97.8946L198.458 94.4644V91.7642L192.508 95.1944Z" fill="#E0E0E0"/>
<path d="M192.508 99.3625L192.516 102.063L198.458 98.6246V95.9323L192.508 99.3625Z" fill="#E0E0E0"/>
<path d="M156.856 115.783L171.715 107.204V114.064L156.856 122.644V115.783Z" fill="#E0E0E0"/>
<path d="M201.434 90.045L213.349 83.2003V90.0293L201.426 96.9133L201.434 90.045Z" fill="#E0E0E0"/>
<path d="M216.285 81.4657L216.293 84.1659L222.235 80.7357V78.0355L216.285 81.4657Z" fill="#E0E0E0"/>
<path d="M216.285 85.6337L216.293 88.3339L222.235 84.9037V82.2035L216.285 85.6337Z" fill="#E0E0E0"/>
<path d="M225.202 76.3242V79.0244L231.144 75.5863V72.8861L225.202 76.3242Z" fill="#E0E0E0"/>
<path d="M225.202 80.4924V83.1926L231.144 79.7545V77.0543L225.202 80.4924Z" fill="#E0E0E0"/>
<path d="M234.119 71.1751V73.8753L240.061 70.4373V67.7371L234.119 71.1751Z" fill="#E0E0E0"/>
<path d="M234.119 75.3432V78.0434L240.061 74.6053V71.913L234.119 75.3432Z" fill="#E0E0E0"/>
<path d="M260.86 55.7352V58.4354L266.802 54.9973V52.2971L260.86 55.7352Z" fill="#E0E0E0"/>
<path d="M260.86 59.9034V62.6036L266.802 59.1655V56.4731L260.86 59.9034Z" fill="#E0E0E0"/>
<path d="M269.779 50.5861V53.2863L275.721 49.8561V47.1559L269.779 50.5861Z" fill="#E0E0E0"/>
<path d="M269.779 54.7539V57.4541L275.721 54.0239V51.3237L269.779 54.7539Z" fill="#E0E0E0"/>
<path d="M278.688 45.4367V48.1369L284.637 44.7067V42.0065L278.688 45.4367Z" fill="#E0E0E0"/>
<path d="M278.688 49.6049V52.3051L284.637 48.8749V46.1747L278.688 49.6049Z" fill="#E0E0E0"/>
<path d="M243.035 66.0258L257.894 57.4464V64.3147L243.035 72.8863V66.0258Z" fill="#E0E0E0"/>
<path d="M107.585 140.815L104.603 139.073V152.801L107.577 154.52L107.585 140.815Z" fill="#E0E0E0"/>
<path d="M244.276 56.4731V56.9833C244.276 57.7682 244.842 58.1136 245.54 57.7133L281.648 36.873C282.016 36.6313 282.322 36.3065 282.541 35.9247C282.761 35.5429 282.888 35.1149 282.911 34.6752V34.1728C282.911 33.3879 282.346 33.0346 281.648 33.4428L245.54 54.2831C245.172 54.5226 244.865 54.8459 244.646 55.2265C244.426 55.6071 244.299 56.0342 244.276 56.4731Z" fill="#F5F5F5"/>
<path d="M282.902 34.6752V34.1728C282.902 33.3879 282.337 33.0346 281.638 33.4428L276.929 36.143V39.5732L281.638 36.873C282.007 36.6313 282.313 36.3065 282.532 35.9247C282.752 35.5429 282.878 35.1149 282.902 34.6752Z" fill="#455A64"/>
<path d="M110.553 156.224L288.853 53.3018V60.1465L125.404 154.52V243.729L110.553 252.301V156.224Z" fill="#F0F0F0"/>
<path d="M125.404 154.52L140.255 145.949V152.793L125.404 161.381V154.52Z" fill="#83C150"/>
<path d="M125.404 209.412L140.255 200.84V207.685L125.404 216.272V209.412Z" fill="#83C150"/>
<path d="M125.404 216.272L140.255 207.7V214.545L125.404 223.132V216.272Z" fill="#83C150"/>
<path opacity="0.8" d="M125.404 216.272L140.255 207.7V214.545L125.404 223.132V216.272Z" fill="white"/>
<path d="M214.542 157.943L229.393 149.371V156.216L214.542 164.803V157.943Z" fill="#83C150"/>
<path opacity="0.3" d="M214.542 157.943L229.393 149.371V156.216L214.542 164.803V157.943Z" fill="black"/>
<path d="M214.542 164.803L229.393 156.232V163.076L214.542 171.664V164.803Z" fill="#83C150"/>
<path opacity="0.4" d="M214.542 164.803L229.393 156.232V163.076L214.542 171.664V164.803Z" fill="black"/>
<path d="M214.542 171.671L229.393 163.1V169.944L214.542 178.532V171.671Z" fill="#83C150"/>
<path opacity="0.5" d="M214.542 171.671L229.393 163.1V169.944L214.542 178.532V171.671Z" fill="black"/>
<path d="M214.542 178.532L229.393 169.96V176.805L214.542 185.392V178.532Z" fill="#83C150"/>
<path opacity="0.3" d="M214.542 178.532L229.393 169.96V176.805L214.542 185.392V178.532Z" fill="black"/>
<path d="M199.699 111.623L214.543 103.052V137.362L199.699 145.949V111.623Z" fill="#83C150"/>
<path d="M199.699 152.801L214.543 144.23V192.26L199.699 200.848V152.801Z" fill="#83C150"/>
<path d="M140.255 187.111L155.098 178.54V185.384L140.255 193.972V187.111Z" fill="#83C150"/>
<path opacity="0.3" d="M140.255 187.111L155.098 178.54V185.384L140.255 193.972V187.111Z" fill="black"/>
<path d="M169.981 135.642L184.833 127.071V133.916L169.981 142.503V135.642Z" fill="#83C150"/>
<path opacity="0.6" d="M169.981 135.642L184.833 127.071V133.916L169.981 142.503V135.642Z" fill="white"/>
<path d="M244.276 133.923L259.12 125.352V132.197L244.276 140.784V133.923Z" fill="#83C150"/>
<path opacity="0.8" d="M244.276 133.923L259.12 125.352V132.197L244.276 140.784V133.923Z" fill="white"/>
<path d="M244.276 147.652L259.12 139.08V145.925L244.276 154.512V147.652Z" fill="#83C150"/>
<path d="M110.389 155.918L110.208 156.02V252.945L289.026 149.685L289.215 149.583V52.6582L110.389 155.918ZM288.5 142.315L274.371 150.47V144.45L288.5 136.302V142.315ZM110.922 163.304L125.051 155.148V161.169L110.922 169.324V163.304ZM199.338 153.445V159.466L185.209 167.621V161.601L199.338 153.445ZM185.209 160.753V154.732L199.338 146.577V152.597L185.209 160.753ZM200.068 153.021L214.197 144.866V150.886L200.068 159.042V153.021ZM200.068 152.173V146.161L214.197 137.997V144.026L200.068 152.173ZM200.068 145.313V139.316L214.197 131.16V137.181L200.068 145.313ZM200.068 138.445V132.432L214.197 124.269V130.289L200.068 138.445ZM199.338 138.869L185.209 147.024V141.004L199.338 132.848V138.869ZM199.338 139.716V145.737L185.209 153.892V147.872L199.338 139.716ZM184.479 154.316L170.35 162.472V156.451L184.479 148.296V154.316ZM184.479 155.156V161.177L170.35 169.332V163.312L184.479 155.156ZM184.479 162.024V168.045L170.35 176.201V170.18L184.479 162.024ZM184.479 168.885V174.905L170.35 183.061V177.04L184.479 168.885ZM185.209 168.461L199.338 160.305V166.326L185.209 174.482V168.461ZM199.338 167.174V173.194L185.209 181.35V175.329L199.338 167.174ZM200.068 166.75L214.197 158.594V164.615L200.068 172.77V166.75ZM200.068 165.902V159.882L214.197 151.726V157.747L200.068 165.902ZM214.927 151.31L229.056 143.154V149.175L214.927 157.33V151.31ZM214.927 150.462V144.442L229.056 136.286V142.307L214.927 150.462ZM214.927 143.602V137.581L229.056 129.426V135.446L214.927 143.602ZM214.927 136.734V130.682L229.056 122.526V128.547L214.927 136.734ZM214.927 129.873V123.853L229.056 115.697V121.71L214.927 129.873ZM214.927 123.005V116.984L229.056 108.829V114.849L214.927 123.005ZM214.197 123.429L200.068 131.584V125.564L214.197 117.408V123.429ZM199.338 132.008L185.209 140.164V134.143L199.338 125.988V132.008ZM184.479 140.588L170.35 148.743V142.723L184.479 134.567V140.588ZM184.479 141.428V147.448L170.35 155.604V149.583L184.479 141.428ZM169.62 156.027L155.491 164.183V158.155L169.62 149.999V156.027ZM169.62 156.875V162.864L155.491 171.028V165.007L169.62 156.875ZM169.62 163.736V169.756L155.491 177.912V171.891L169.62 163.736ZM169.62 170.604V176.617L155.491 184.78V178.759L169.62 170.604ZM169.62 177.464V183.485L155.491 191.64V185.628L169.62 177.464ZM169.62 184.333V190.337L155.491 198.501V192.48L169.62 184.333ZM170.35 183.909L184.479 175.753V181.774L170.35 189.929V183.909ZM184.479 182.614V188.634L170.35 196.79V190.769L184.479 182.614ZM185.209 182.19L199.338 174.034V180.055L185.209 188.21V182.19ZM200.068 173.61L214.197 165.455V171.499L200.068 179.654V173.61ZM214.927 165.039L229.056 156.883V162.904L214.927 171.059V165.039ZM214.927 164.191V158.155L229.056 149.999V156.02L214.927 164.191ZM229.786 149.591L243.915 141.435V147.456L229.786 155.611V149.591ZM229.786 148.751V142.731L243.915 134.575V140.595L229.786 148.751ZM229.786 141.883V135.862L243.915 127.707V133.727L229.786 141.883ZM229.786 135.022V129.002L243.915 120.846V126.867L229.786 135.022ZM229.786 128.154V122.134L243.915 113.978V119.999L229.786 128.154ZM229.786 121.294V115.273L243.915 107.118V113.138L229.786 121.294ZM229.786 114.425V108.405L243.915 100.249V106.27L229.786 114.425ZM229.786 107.565V101.545L243.915 93.389V99.4095L229.786 107.565ZM229.056 107.981L214.927 116.144V110.124L229.056 101.968V107.981ZM214.197 116.553L200.068 124.708V118.696L214.197 110.532V116.553ZM199.338 125.132L185.209 133.288V127.267L199.338 119.112V125.132ZM184.479 133.712L170.35 141.867V135.847L184.479 127.691V133.712ZM169.62 142.299L155.491 150.454V144.434L169.62 136.278V142.299ZM169.62 143.147V149.159L155.491 157.323V151.302L169.62 143.147ZM154.761 157.739L140.632 165.894V159.882L154.761 151.718V157.739ZM154.761 158.586V164.607L140.632 172.763V166.742L154.761 158.586ZM154.761 165.447V171.499L140.632 179.654V173.634L154.761 165.447ZM154.761 172.315V178.336L140.632 186.491V180.471L154.761 172.315ZM154.761 179.175V185.196L140.632 193.352V187.339L154.761 179.175ZM154.761 186.044V192.064L140.632 200.22V194.199L154.761 186.044ZM154.761 192.904V198.925L140.632 207.08V201.068L154.761 192.904ZM154.761 199.772V205.793L140.632 213.948V207.928L154.761 199.772ZM155.491 199.349L169.62 191.193V197.214L155.491 205.369V199.349ZM169.62 198.061V204.082L155.491 212.237V206.217L169.62 198.061ZM170.35 197.637L184.479 189.482V195.502L170.35 203.658V197.637ZM185.209 189.058L199.338 180.902V186.923L185.209 195.078V189.058ZM200.068 180.478L214.197 172.323V178.343L200.068 186.499V180.478ZM214.927 171.899L229.056 163.743V169.764L214.927 177.92V171.899ZM229.786 163.32L243.915 155.164V161.185L229.786 169.34V163.32ZM229.786 162.48V156.459L243.915 148.304V154.324L229.786 162.48ZM244.614 147.88L258.743 139.724V145.745L244.614 153.9V147.88ZM244.614 147.032V141.012L258.743 132.856V138.876L244.614 147.032ZM244.614 140.172V134.151L258.743 125.972V131.993L244.614 140.172ZM244.614 133.303V127.283L258.743 119.127V125.187L244.614 133.303ZM244.614 126.443V120.422L258.743 112.267V118.287L244.614 126.443ZM244.614 119.575V113.554L258.743 105.399V111.419L244.614 119.575ZM244.614 112.714V106.694L258.743 98.5382V104.559L244.614 112.714ZM244.614 105.846V99.8255L258.743 91.6699V97.714L244.614 105.846ZM244.614 98.9856V93.0043L258.743 84.8488V90.8693L244.614 98.9856ZM244.614 92.1173V86.0968L258.743 77.9412V83.9618L244.614 92.1173ZM243.884 92.5412L229.755 100.697V94.6763L243.884 86.5207V92.5412ZM229.025 101.121L214.896 109.276V103.256L229.025 95.1001V101.121ZM214.166 109.7L200.037 117.856V111.843L214.166 103.687V109.7ZM199.338 118.28L185.209 126.435V120.415L199.338 112.259V118.28ZM184.479 126.859L170.35 135.015V128.994L184.479 120.838V126.859ZM169.62 135.431L155.491 143.594V137.573L169.62 129.418V135.431ZM154.761 144.026L140.632 152.181V146.169L154.761 138.005V144.026ZM154.761 144.873V150.894L140.632 159.05V153.029L154.761 144.873ZM139.902 159.473L125.773 167.629V161.608L139.902 153.453V159.473ZM139.902 160.313V166.334L125.773 174.489V168.469L139.902 160.313ZM139.902 167.182V173.202L125.773 181.358V175.337L139.902 167.182ZM139.902 174.042V180.062L125.773 188.218V182.198L139.902 174.042ZM139.902 180.91V186.931L125.773 195.047V189.027L139.902 180.91ZM139.902 187.771V193.791L125.773 201.947V195.91L139.902 187.771ZM139.902 194.639V200.659L125.773 208.815V202.794L139.902 194.639ZM139.902 201.499V207.52L125.773 215.675V209.655L139.902 201.499ZM139.902 208.368V214.388L125.773 222.52V216.5L139.902 208.368ZM139.902 215.228V221.248L125.773 229.404V223.384L139.902 215.228ZM140.632 214.812L154.761 206.649V212.669L140.632 220.825V214.812ZM154.761 213.517V219.537L140.632 227.693V221.657L154.761 213.517ZM155.491 213.093L169.62 204.937V210.958L155.491 219.113V213.093ZM170.35 204.466L184.479 196.311V202.331L170.35 210.487V204.466ZM185.209 195.887L199.338 187.731V193.752L185.209 201.907V195.887ZM200.068 187.315L214.197 179.152V185.172L200.068 193.328V187.315ZM214.927 178.736L229.056 170.58V176.601L214.927 184.756V178.736ZM229.786 170.156L243.915 162.001V168.021L229.786 176.177V170.156ZM244.614 161.608L258.743 153.445V159.466L244.614 167.621V161.608ZM244.614 160.761V154.74L258.743 146.585V152.605L244.614 160.761ZM259.528 146.169L273.657 138.005V144.026L259.528 152.181V146.169ZM259.528 145.321V139.316L273.657 131.16V137.181L259.528 145.321ZM259.528 138.453V132.44L273.657 124.276V130.297L259.528 138.453ZM259.528 131.592V125.572L273.657 117.416V123.437L259.528 131.592ZM259.528 124.724V118.711L273.657 110.548V116.553L259.528 124.724ZM259.528 117.864V111.843L273.657 103.687V109.708L259.528 117.864ZM259.528 110.995V104.983L273.657 96.8192V102.84L259.528 110.995ZM259.528 104.135V98.1143L273.657 89.9587V95.9793L259.528 104.135ZM259.528 97.2666V91.2539L273.657 83.0905V89.0796L259.528 97.2666ZM259.528 90.4062V84.3699L273.657 76.2144V82.2349L259.528 90.4062ZM259.528 83.5379V77.5252L273.657 69.3618V75.3823L259.528 83.5379ZM259.528 76.6775V70.657L273.657 62.5014V68.5219L259.528 76.6775ZM258.79 77.1014L244.661 85.2569V79.2364L258.79 71.0808V77.1014ZM243.939 85.6808L229.81 93.8364V87.8158L243.939 79.6603V85.6808ZM229.08 94.2524L214.951 102.416V96.3953L229.08 88.2397V94.2524ZM214.221 102.832L200.092 110.987V104.975L214.221 96.8192V102.832ZM199.362 111.411L185.233 119.567V113.554L199.362 105.399V111.411ZM184.503 119.991L170.374 128.146V122.134L184.503 113.978V119.991ZM169.644 128.57L155.515 136.726V130.682L169.644 122.526V128.57ZM154.785 137.15L140.656 145.305V139.316L154.785 131.153V137.15ZM139.902 145.729L125.773 153.885V147.864L139.902 139.709V145.729ZM139.902 146.569V152.589L125.773 160.745V154.724L139.902 146.569ZM110.922 170.172L125.051 162.017V168.037L110.922 176.193V170.172ZM110.922 177.033L125.051 168.877V174.898L110.922 183.053V177.033ZM110.922 183.901L125.051 175.745V181.766L110.922 189.921V183.901ZM110.922 190.761L125.051 182.606V188.626L110.922 196.782V190.761ZM110.922 197.63L125.051 189.474V195.494L110.922 203.65V197.63ZM110.922 204.49L125.051 196.334V202.355L110.922 210.51V204.49ZM110.922 211.358L125.051 203.203V209.223L110.922 217.379V211.358ZM110.922 218.219L125.051 210.063V216.084L110.922 224.239V218.219ZM110.922 225.087L125.051 216.931V222.952L110.922 231.107V225.087ZM110.922 231.947L125.051 223.792V229.812L110.922 237.968V231.947ZM110.922 238.816L125.051 230.66V236.649L110.922 244.805V238.816ZM125.773 230.236L139.902 222.081V228.101L125.773 236.257V230.236ZM139.902 228.941V234.938L125.773 243.101V237.097L139.902 228.941ZM140.632 228.517L154.761 220.361V226.366L140.632 234.522V228.517ZM155.491 219.945L169.62 211.79V217.81L155.491 225.966V219.945ZM170.35 211.366L184.479 203.21V209.176L170.35 217.332V211.366ZM185.209 202.787L199.338 194.631V200.628L185.209 208.784V202.787ZM200.068 194.207L214.197 186.052V192.049L200.068 200.204V194.207ZM214.927 185.628L229.056 177.472V183.469L214.927 191.625V185.628ZM229.786 177.048L243.915 168.893V174.89L229.786 183.045V177.048ZM244.614 168.469L258.743 160.313V166.31L244.614 174.466V168.469ZM259.528 159.897L273.657 151.734V157.731L259.528 165.886V159.897ZM259.528 159.05V153.029L273.657 144.873V150.894L259.528 159.05ZM288.508 135.454L274.379 143.61V137.589L288.508 129.434V135.454ZM288.508 128.586L274.379 136.741V130.721L288.508 122.573V128.586ZM288.508 121.725L274.363 129.897V123.876L288.492 115.721L288.508 121.725ZM288.508 114.857L274.379 123.013V116.992L288.508 108.837V114.857ZM288.508 107.997L274.379 116.152V110.132L288.508 101.976V107.997ZM288.508 101.129L274.379 109.284V103.264L288.508 95.108V101.129ZM288.508 94.2681L274.363 102.424V96.4031L288.492 88.2476L288.508 94.2681ZM288.508 87.3998L274.379 95.5554V89.5349L288.508 81.3793V87.3998ZM288.508 80.5394L274.379 88.695V82.6745L288.508 74.5189V80.5394ZM288.508 73.6712L274.379 81.8267V75.8062L288.508 67.6506V73.6712ZM288.508 66.8107L274.363 74.9506V68.9458L288.492 60.7902L288.508 66.8107ZM288.508 59.9425L274.379 68.0981V62.0854L288.508 53.9298V59.9425ZM125.043 148.288V154.308L110.914 162.456V156.444L125.043 148.288ZM110.914 245.676L125.043 237.52V243.517L110.914 251.673V245.676ZM274.363 157.315V151.318L288.492 143.162V149.159L274.363 157.315Z" fill="#E0E0E0"/>
<path d="M229.394 94.4565L288.853 60.1544V94.48L229.394 128.766V94.4565Z" fill="#FAFAFA"/>
<path d="M228.993 129.449V94.2288L229.189 94.1189L289.238 59.4794V94.7077L228.993 129.449ZM229.778 94.6841V128.091L288.453 94.2524V60.8216L229.778 94.6841Z" fill="#E0E0E0"/>
<path d="M232.393 120.477H232.298C232.224 120.449 232.164 120.393 232.131 120.321C232.097 120.25 232.092 120.168 232.118 120.093L240.156 98.1143C240.171 98.0747 240.196 98.039 240.226 98.0095C240.257 97.9801 240.294 97.9575 240.334 97.9434C240.374 97.9293 240.417 97.9239 240.459 97.9276C240.501 97.9314 240.543 97.9442 240.58 97.9651L249.269 103.209L258.037 94.2759C258.09 94.2325 258.156 94.2089 258.225 94.2089C258.294 94.2089 258.36 94.2325 258.414 94.2759L267.048 99.951L275.816 78.3494C275.832 78.3119 275.855 78.2782 275.885 78.2502C275.914 78.2222 275.949 78.2005 275.988 78.1866C276.026 78.1726 276.067 78.1666 276.107 78.169C276.148 78.1713 276.188 78.1819 276.224 78.2002L285.133 82.7686C285.167 82.7861 285.197 82.8102 285.222 82.8394C285.247 82.8686 285.265 82.9024 285.277 82.9388C285.289 82.9753 285.293 83.0137 285.29 83.0518C285.287 83.0899 285.276 83.1271 285.259 83.1611C285.241 83.1951 285.217 83.2253 285.188 83.25C285.159 83.2748 285.125 83.2935 285.088 83.3052C285.052 83.3168 285.014 83.3212 284.975 83.318C284.937 83.3148 284.9 83.3042 284.866 83.2867L276.232 78.8674L267.44 100.508C267.424 100.548 267.398 100.584 267.365 100.613C267.333 100.641 267.294 100.662 267.252 100.673C267.214 100.692 267.173 100.703 267.13 100.703C267.088 100.703 267.046 100.692 267.009 100.673L258.296 94.9352L249.536 103.86C249.489 103.907 249.429 103.937 249.363 103.945C249.298 103.954 249.232 103.94 249.175 103.907L240.595 98.7736L232.683 120.383C232.647 120.423 232.601 120.452 232.55 120.469C232.499 120.486 232.445 120.488 232.393 120.477Z" fill="#455A64"/>
<path d="M240.43 97.2272C240.167 97.3989 239.948 97.6309 239.793 97.9039C239.637 98.1769 239.549 98.4831 239.535 98.797C239.535 99.37 239.935 99.582 240.43 99.3151C240.693 99.1428 240.911 98.9107 241.066 98.6378C241.222 98.3649 241.31 98.059 241.325 97.7452C241.325 97.1722 240.925 96.9289 240.43 97.2272Z" fill="#83C150"/>
<path d="M249.324 102.533C249.062 102.707 248.844 102.939 248.689 103.212C248.533 103.484 248.444 103.79 248.429 104.103C248.429 104.676 248.829 104.888 249.324 104.621C249.585 104.448 249.803 104.216 249.958 103.943C250.114 103.67 250.203 103.365 250.218 103.052C250.234 102.486 249.834 102.251 249.324 102.533Z" fill="#83C150"/>
<path d="M258.248 93.436C257.987 93.6092 257.769 93.8415 257.614 94.1142C257.458 94.3869 257.369 94.6924 257.354 95.0059C257.354 95.5789 257.754 95.7909 258.248 95.524C258.511 95.3517 258.729 95.1196 258.885 94.8467C259.04 94.5738 259.129 94.2679 259.143 93.9541C259.143 93.3889 258.743 93.1534 258.248 93.436Z" fill="#83C150"/>
<path d="M267.158 99.2837C266.894 99.4555 266.676 99.6875 266.52 99.9605C266.365 100.234 266.276 100.54 266.263 100.854C266.263 101.427 266.663 101.639 267.158 101.372C267.421 101.2 267.639 100.968 267.795 100.695C267.95 100.422 268.039 100.116 268.052 99.8018C268.052 99.2838 267.652 99.0247 267.158 99.2837Z" fill="#83C150"/>
<path d="M276.067 77.376C275.804 77.5478 275.585 77.7798 275.43 78.0528C275.274 78.3258 275.186 78.6319 275.172 78.9459C275.172 79.5189 275.572 79.7308 276.067 79.4639C276.329 79.2917 276.547 79.0596 276.703 78.7867C276.859 78.5138 276.947 78.2079 276.962 77.8941C276.962 77.3054 276.561 77.0856 276.067 77.376Z" fill="#83C150"/>
<path d="M284.977 81.9444C284.714 82.1162 284.495 82.3482 284.34 82.6212C284.184 82.8942 284.096 83.2004 284.082 83.5143C284.082 84.0873 284.482 84.2992 284.977 84.0324C285.24 83.8606 285.458 83.6286 285.614 83.3556C285.77 83.0826 285.858 82.7764 285.872 82.4625C285.872 81.8895 285.471 81.654 284.977 81.9444Z" fill="#83C150"/>
<path d="M313.588 186.562L297.779 195.691L313.588 204.82L329.397 195.691L313.588 186.562Z" fill="#455A64"/>
<path d="M329.397 195.675V231.979L313.588 241.108V204.827L329.397 195.675Z" fill="#37474F"/>
<path d="M313.588 204.827V241.108L297.779 231.979V195.675L313.588 204.827Z" fill="#263238"/>
<path d="M292.786 214.317L276.978 223.446L292.786 232.575L308.595 223.446L292.786 214.317Z" fill="#83C150"/>
<path opacity="0.3" d="M292.786 214.317L276.978 223.446L292.786 232.575L308.595 223.446L292.786 214.317Z" fill="white"/>
<path d="M308.594 223.423V243.988L292.785 253.117V232.575L308.594 223.423Z" fill="#83C150"/>
<path d="M292.786 232.575V253.117L276.978 243.988V223.431L292.786 232.575Z" fill="#83C150"/>
<path opacity="0.1" d="M292.786 232.575V253.117L276.978 243.988V223.431L292.786 232.575Z" fill="black"/>
<path d="M271.985 217.787L256.176 226.916L271.985 236.045L287.793 226.916L271.985 217.787Z" fill="#83C150"/>
<path opacity="0.88" d="M271.985 217.787L256.176 226.916L271.985 236.045L287.793 226.916L271.985 217.787Z" fill="white"/>
<path d="M287.793 226.9V255.998L271.984 265.127V236.045L287.793 226.9Z" fill="#83C150"/>
<path opacity="0.75" d="M287.793 226.9V255.998L271.984 265.127V236.045L287.793 226.9Z" fill="white"/>
<path d="M271.985 236.045V265.127L256.176 255.998V226.9L271.985 236.045Z" fill="#83C150"/>
<path opacity="0.6" d="M271.985 236.045V265.127L256.176 255.998V226.9L271.985 236.045Z" fill="white"/>
<path d="M251.184 248.619L235.375 257.748L251.184 266.877L266.993 257.748L251.184 248.619Z" fill="#83C150"/>
<path opacity="0.3" d="M251.184 248.619L235.375 257.748L251.184 266.877L266.993 257.748L251.184 248.619Z" fill="black"/>
<path d="M266.992 257.725V268.008L251.184 277.136V266.877L266.992 257.725Z" fill="#83C150"/>
<path opacity="0.4" d="M266.992 257.725V268.008L251.184 277.136V266.877L266.992 257.725Z" fill="black"/>
<path d="M251.184 266.877V277.136L235.375 268.008V257.725L251.184 266.877Z" fill="#83C150"/>
<path opacity="0.55" d="M251.184 266.877V277.136L235.375 268.008V257.725L251.184 266.877Z" fill="black"/>
<path d="M165.06 312.475V318.464L159.149 302.396V296.422L165.06 312.475Z" fill="#263238"/>
<path d="M165.068 312.483V318.464L189.449 310.002V304.021L165.068 312.483Z" fill="#37474F"/>
<path d="M159.149 296.415L165.068 312.482L189.448 304.021C182.753 298.181 171.112 295.261 159.149 296.415Z" fill="#455A64"/>
<path d="M133.678 313.573C133.674 313.633 133.674 313.693 133.678 313.753V313.573Z" fill="#83C150"/>
<path d="M162.634 320.026L159.055 337.059C144.274 335.615 133.591 328.142 133.717 319.594V313.77C133.717 322.247 144.369 329.649 159.063 331.078L161.543 319.374L162.634 320.026Z" fill="#83C150"/>
<path opacity="0.4" d="M162.634 320.026L159.055 337.059C144.274 335.615 133.591 328.142 133.717 319.594V313.77C133.717 322.247 144.369 329.649 159.063 331.078L161.543 319.374L162.634 320.026Z" fill="black"/>
<path d="M161.786 331.274V337.255C167.888 337.599 173.998 336.754 179.777 334.767C186.747 332.349 191.669 328.487 193.639 323.958C194.217 322.641 194.527 321.221 194.55 319.782C194.55 319.209 194.55 313.597 194.55 313.597C194.55 313.597 192.862 313.464 190.884 311.36L186.316 312.93L165.413 320.183L161.786 331.274Z" fill="#83C150"/>
<path opacity="0.6" d="M161.786 331.274V337.255C167.888 337.599 173.998 336.754 179.777 334.767C186.747 332.349 191.669 328.487 193.639 323.958C194.217 322.641 194.527 321.221 194.55 319.782C194.55 319.209 194.55 313.597 194.55 313.597C194.55 313.597 192.862 313.464 190.884 311.36L186.316 312.93L165.413 320.183L161.786 331.274Z" fill="white"/>
<path d="M143.591 306.752L161.754 317.239V311.258L143.591 300.771V306.752Z" fill="#83C150"/>
<path opacity="0.1" d="M143.591 306.752L161.754 317.239V311.258L143.591 300.771V306.752Z" fill="black"/>
<path d="M133.936 311.611C131.951 320.96 143.128 329.524 159.055 331.078L162.673 314.045L141.652 301.909C137.225 304.664 134.721 307.843 133.936 311.611Z" fill="#83C150"/>
<path opacity="0.3" d="M133.936 311.611C131.951 320.96 143.128 329.524 159.055 331.078L162.673 314.045L141.652 301.909C137.225 304.664 134.721 307.843 133.936 311.611Z" fill="black"/>
<path d="M161.888 330.779L161.786 331.274C167.886 331.628 173.996 330.793 179.777 328.817C186.747 326.4 191.669 322.538 193.639 318.008C195.492 313.715 194.51 309.272 190.884 305.449L186.316 307.019L165.413 314.272L161.888 330.779Z" fill="#83C150"/>
<path opacity="0.75" d="M161.888 330.779L161.786 331.274C167.886 331.628 173.996 330.793 179.777 328.817C186.747 326.4 191.669 322.538 193.639 318.008C195.492 313.715 194.51 309.272 190.884 305.449L186.316 307.019L165.413 314.272L161.888 330.779Z" fill="white"/>
<path d="M143.591 300.771L161.754 311.258L156.417 296.752C151.933 297.302 147.587 298.664 143.591 300.771Z" fill="#83C150"/>
<path d="M162.636 320.026V314.045L159.01 331.078V337.059L162.636 320.026Z" fill="#83C150"/>
<path opacity="0.55" d="M162.636 320.026V314.045L159.01 331.078V337.059L162.636 320.026Z" fill="black"/>
<path d="M185.807 287.443L181.851 289.727L185.807 292.011L189.763 289.727L185.807 287.443Z" fill="#83C150"/>
<path opacity="0.3" d="M185.807 287.443L181.851 289.727L185.807 292.011L189.763 289.727L185.807 287.443Z" fill="black"/>
<path d="M189.762 289.727V292.019L185.806 294.303V292.011L189.762 289.727Z" fill="#83C150"/>
<path opacity="0.4" d="M189.762 289.727V292.019L185.806 294.303V292.011L189.762 289.727Z" fill="black"/>
<path d="M185.807 292.011V294.303L181.851 292.019V289.727L185.807 292.011Z" fill="#83C150"/>
<path opacity="0.55" d="M185.807 292.011V294.303L181.851 292.019V289.727L185.807 292.011Z" fill="black"/>
<path d="M191.85 285.669L206.513 277.207C206.984 276.957 207.508 276.822 208.041 276.812C208.574 276.803 209.102 276.919 209.582 277.152C210.367 277.623 210.367 278.416 209.48 278.926L194.817 287.388C194.345 287.636 193.822 287.77 193.289 287.78C192.756 287.789 192.228 287.674 191.748 287.443C190.932 286.972 190.971 286.179 191.85 285.669Z" fill="#E0E0E0"/>
<path d="M194.723 292.592L190.767 294.876L194.723 297.16L198.679 294.876L194.723 292.592Z" fill="#83C150"/>
<path opacity="0.88" d="M194.723 292.592L190.767 294.876L194.723 297.16L198.679 294.876L194.723 292.592Z" fill="white"/>
<path d="M198.68 294.868V297.16L194.724 299.445V297.16L198.68 294.868Z" fill="#83C150"/>
<path opacity="0.75" d="M198.68 294.868V297.16L194.724 299.445V297.16L198.68 294.868Z" fill="white"/>
<path d="M194.723 297.16V299.444L190.767 297.16V294.868L194.723 297.16Z" fill="#83C150"/>
<path opacity="0.6" d="M194.723 297.16V299.444L190.767 297.16V294.868L194.723 297.16Z" fill="white"/>
<path d="M200.766 290.81L215.421 282.349C215.892 282.097 216.415 281.961 216.948 281.95C217.482 281.939 218.01 282.054 218.491 282.286C219.315 282.765 219.275 283.557 218.396 284.06L203.734 292.537C203.262 292.785 202.738 292.919 202.206 292.929C201.673 292.938 201.145 292.823 200.664 292.592C199.872 292.113 199.872 291.32 200.766 290.81Z" fill="#E0E0E0"/>
<path d="M203.633 297.741L199.677 300.026L203.641 302.31L207.597 300.026L203.633 297.741Z" fill="#83C150"/>
<path opacity="0.3" d="M203.633 297.741L199.677 300.026L203.641 302.31L207.597 300.026L203.633 297.741Z" fill="white"/>
<path d="M207.596 300.018V302.31L203.64 304.594V302.31L207.596 300.018Z" fill="#83C150"/>
<path d="M203.641 302.31V304.594L199.677 302.31V300.018L203.641 302.31Z" fill="#83C150"/>
<path opacity="0.1" d="M203.641 302.31V304.594L199.677 302.31V300.018L203.641 302.31Z" fill="black"/>
<path d="M209.676 295.967L224.339 287.498C224.811 287.25 225.334 287.116 225.867 287.106C226.4 287.096 226.928 287.212 227.408 287.443C228.232 287.922 228.193 288.714 227.314 289.217L212.651 297.679C212.181 297.93 211.657 298.066 211.124 298.077C210.591 298.088 210.062 297.973 209.582 297.741C208.758 297.263 208.805 296.47 209.676 295.967Z" fill="#E0E0E0"/>
<path d="M212.548 302.883L208.592 305.167L212.548 307.451L216.504 305.167L212.548 302.883Z" fill="#455A64"/>
<path d="M216.505 305.167V307.459L212.549 309.743V307.451L216.505 305.167Z" fill="#37474F"/>
<path d="M212.548 307.451V309.743L208.592 307.459V305.167L212.548 307.451Z" fill="#263238"/>
<path d="M218.591 301.116L233.254 292.647C233.726 292.399 234.249 292.265 234.782 292.255C235.315 292.246 235.843 292.361 236.323 292.592C237.147 293.063 237.108 293.856 236.221 294.366L221.566 302.828C221.095 303.077 220.571 303.213 220.038 303.222C219.505 303.232 218.977 303.115 218.497 302.883C217.673 302.412 217.72 301.619 218.591 301.116Z" fill="#E0E0E0"/>
<path d="M336.634 178.94C342.073 178.94 344.656 180.51 346.618 185.675C348.581 190.84 353.769 202.826 353.871 206.374C353.981 210.055 342.097 221.217 342.552 221.029C342.678 220.966 338.934 214.263 338.934 214.263L345.606 206.091L341.783 195L336.634 178.94Z" fill="#FFA8A7"/>
<path d="M343.369 300.897C343.707 301.219 343.769 301.525 343.754 302.687C343.738 303.848 344.232 305.143 343.636 306.227C343.196 307.012 340.92 307.592 339.766 307.012C338.761 306.353 337.861 305.546 337.097 304.617C336.38 303.799 335.592 303.045 334.743 302.365C333.761 301.635 332.623 301.148 331.603 300.481C330.803 299.963 330.131 299.27 329.639 298.454C329.147 297.638 328.846 296.72 328.761 295.771C328.695 295.152 328.821 294.527 329.122 293.981C329.367 293.689 329.688 293.47 330.05 293.351C330.412 293.232 330.801 293.216 331.171 293.306C332.278 293.487 336.03 295.583 336.893 296.179C338.024 296.917 343.024 300.567 343.369 300.897Z" fill="#263238"/>
<path d="M337.858 296.093C337.819 296.925 334.311 294.978 332.874 295.167H332.835C331.493 295.81 332.607 297.686 333.847 298.644C335.088 299.602 339.154 302.569 339.154 302.569L339.986 297.757L337.858 296.093Z" fill="#FFA8A7"/>
<path d="M322.631 309.649C323.283 309.649 323.573 311.784 323.699 313.425C323.785 314.696 324.272 316.776 323.816 317.71C323.361 318.644 321.658 319.225 319.013 319.17C317.294 319.17 314.609 320.261 312.772 321.258C310.923 322.148 308.834 322.41 306.822 322.004C304.468 321.698 302.05 320.301 301.681 319.327C301.312 318.354 301.814 317.883 307.388 315.591C307.442 315.591 313.275 313.024 316.022 310.096L322.631 309.649Z" fill="#263238"/>
<path d="M307.411 315.591C306.626 315.905 305.974 316.188 305.385 316.439C305.236 316.965 305.44 317.805 307.905 318.213C311.657 318.841 322.693 310.528 322.693 310.528C322.693 310.528 321.124 310.968 320.817 310.065H316.021C313.274 313.024 307.411 315.568 307.411 315.591Z" fill="#FFA8A7"/>
<path d="M345.607 273.597C345.665 269.938 345.302 266.285 344.524 262.709C344.524 262.709 345.183 248.69 345.254 239.883C345.403 222.457 345.074 219.899 341.219 212.41C341.219 212.41 318.715 209.781 317.765 220.746C316.588 234.404 315.214 257.254 315.246 263.761C315.246 268.604 315.826 273.856 316.093 284.837C316.266 291.901 317.004 301.807 315.999 310.128C317.271 312.263 320.709 312.224 322.671 310.56C323.236 302.412 327.287 286.807 327.915 281.368C328.255 277.438 328.091 273.481 327.428 269.593C327.428 269.593 330.411 246.328 330.937 242.788C331.7 246.531 332.136 250.334 332.24 254.154C332.24 255.723 332.773 260.88 333.66 269.593C334.202 274.9 337.954 295.638 338.77 302.302C340.654 304.123 343.088 302.867 343.197 302.082C343.825 293.95 345.607 278.675 345.607 273.597Z" fill="#FFA8A7"/>
<path opacity="0.15" d="M330.959 242.764L332.945 231.469C336.332 230.945 339.45 229.31 341.807 226.822C341.807 226.822 340.614 231.335 334.742 232.874L332.388 243.078L331.995 252.395L330.959 242.764Z" fill="black"/>
<path d="M325.291 175.149L326.225 185.384L335.221 184.843L334.53 173.485L325.291 175.149Z" fill="#FFA8A7"/>
<path d="M343.346 215.134C342.315 212.41 340.999 209.803 339.421 207.355C343.267 194.969 344.5 190.801 343.754 185.502C343.275 182.135 340.614 178.767 337.349 178.948H334.884C334.743 181.303 328.22 181.405 325.747 179.788L323.463 179.851C321.854 180.424 316.399 188.485 315.771 193.783C315.276 198.108 318.675 201.86 318.675 201.86C318.687 203.697 318.58 205.533 318.353 207.355C318.353 207.355 318.353 217.834 318.353 223.054C318.353 223.054 319.617 227.073 332.82 225.817C344.594 224.702 344.845 220.691 344.845 220.691C344.564 218.787 344.061 216.922 343.346 215.134Z" fill="#83C150"/>
<g opacity="0.3">
<path opacity="0.3" d="M343.347 215.134C342.316 212.41 341 209.803 339.422 207.355C343.268 194.969 344.501 190.801 343.755 185.502C343.276 182.135 340.615 178.767 337.35 178.948H334.885C334.744 181.303 328.221 181.405 325.748 179.788L323.464 179.851C321.855 180.424 316.4 188.485 315.772 193.783C315.277 198.108 318.676 201.86 318.676 201.86C318.688 203.697 318.581 205.533 318.354 207.355C318.354 207.355 318.354 217.834 318.354 223.054C318.354 223.054 319.618 227.073 332.821 225.817C344.595 224.702 344.846 220.691 344.846 220.691C344.565 218.787 344.062 216.922 343.347 215.134Z" fill="black"/>
</g>
<path d="M326.65 151.192C325.323 151.018 323.974 151.165 322.716 151.622C321.458 152.078 320.328 152.83 319.421 153.814C314.821 158.995 319.868 162.809 319.868 162.809L326.65 151.192Z" fill="#263238"/>
<path d="M318.651 163.893C318.651 163.893 316.65 166.899 316.909 167.221C317.373 167.529 317.889 167.752 318.432 167.88L318.651 163.893Z" fill="#F28F8F"/>
<path d="M324.76 154.371C322.821 155.368 319.469 157.205 318.59 164.332C317.687 171.656 319.312 174.199 320.309 175.164C320.976 175.816 324.453 176.059 326.267 175.502C328.543 174.803 333.465 172.362 335.772 168.61C338.496 164.175 339.077 158.249 335.953 155.918C331.557 152.66 326.4 153.531 324.76 154.371Z" fill="#FFA8A7"/>
<path d="M323.793 162.794C319.735 160.729 320.771 155.345 320.771 155.345C320.771 155.345 326.564 147.064 337.255 152.417C340.952 154.269 343.173 158.477 343.087 163.406C343.087 166.483 341.864 169.434 339.689 171.61C337.513 173.785 334.562 175.008 331.485 175.008C329.691 175.008 327.97 174.295 326.701 173.026C325.432 171.757 324.719 170.036 324.719 168.241V167.794L325.064 167.904C325.616 168.034 326.192 168.026 326.74 167.879C327.288 167.733 327.791 167.453 328.204 167.064C329.986 165.494 330.198 162.519 327.945 161.766C325.692 161.012 324.523 163.649 324.523 163.649L323.651 166.004C323.441 165.928 323.248 165.811 323.083 165.66C322.918 165.509 322.784 165.327 322.689 165.125C322.595 164.922 322.541 164.703 322.531 164.479C322.521 164.256 322.555 164.032 322.631 163.822C322.726 163.569 322.882 163.343 323.084 163.164C323.287 162.984 323.53 162.857 323.793 162.794Z" fill="#263238"/>
<path d="M299.263 164.442L279.969 174.105L289.043 200.251L307.065 190.55L299.263 164.442Z" fill="#83C150"/>
<path d="M298.346 166.97L282.16 175.078L290.198 197.567L305.316 189.427L298.346 166.97Z" fill="#F5F5F5"/>
<path opacity="0.15" d="M294.923 169.325L294.625 168.54C294.46 168.1 293.118 168.343 291.626 169.081L288.777 170.486C287.293 171.224 286.218 172.182 286.383 172.629L286.681 173.414L294.923 169.325Z" fill="black"/>
<path d="M294.663 166.145C294.561 165.863 293.98 165.902 293.36 166.224L292.245 166.797C292.245 166.797 291.594 165.07 289.027 166.216C286.46 167.362 287.01 169.356 287.01 169.356L285.824 169.984C285.173 170.329 284.702 170.839 284.773 171.114L284.906 171.624L294.851 166.656L294.663 166.145Z" fill="#37474F"/>
<path d="M293.58 167.276C292.654 167.716 292.293 167.927 292.544 168.61C292.795 169.293 293.101 169.945 293.101 169.945L288.705 172.15C288.705 172.15 288.36 171.161 288.203 170.785C288.046 170.408 287.74 170.212 287.041 170.565L286.782 170.282L293.721 166.899L293.58 167.276Z" fill="#263238"/>
<path d="M295.102 169.372L294.811 168.587C294.647 168.147 293.304 168.383 291.813 169.12L288.964 170.533C287.472 171.271 286.405 172.229 286.57 172.668L286.86 173.453L295.102 169.372Z" fill="#37474F"/>
<path d="M323.438 179.851C320.4 179.804 318.564 180.07 314.419 186.224C310.275 192.378 302.582 203.682 301.687 205.181C300.432 207.222 300.118 210.354 301.169 212.245C302.119 214.027 303.799 214.647 308.579 209.569C312.111 205.809 319.568 195.824 319.568 195.824C319.568 195.824 325.338 185.063 323.438 179.851Z" fill="#FFA8A7"/>
<path d="M303.055 213.556C300.551 214.341 291.359 203.399 288.808 200.11C286.755 197.37 284.342 194.92 281.634 192.826C278.093 190.118 278.682 186.06 280.307 182.363C280.872 181.075 282.662 181.947 282.662 181.947L283.282 183.728L284.349 186.813C285.095 187.527 285.527 187.763 285.574 187.551C285.676 187.159 285.056 185.502 285.095 183.783C285.15 181.719 286.579 183.1 286.995 183.83C287.567 184.942 288.058 186.094 288.463 187.276C289.153 189.137 288.824 190.997 289.687 192.276C290.551 193.556 303.031 203.917 303.031 203.917L303.055 213.556Z" fill="#FFA8A7"/>
<path d="M339.454 207.355C339.454 207.355 330.655 212.551 318.332 207.355C317.233 213.819 316.486 220.339 316.095 226.884C315.655 235.22 314.689 253.109 314.689 253.109C314.689 253.109 318.324 257.356 331.307 256.492C343.787 255.708 345.985 252.411 345.985 252.411C345.985 252.411 345.985 236.343 346.079 229.318C346.166 220.338 344.91 215.456 339.454 207.355Z" fill="#83C150"/>
<path opacity="0.5" d="M339.454 207.355C339.454 207.355 330.655 212.551 318.332 207.355C317.233 213.819 316.486 220.339 316.095 226.884C315.655 235.22 314.689 253.109 314.689 253.109C314.689 253.109 318.324 257.356 331.307 256.492C343.787 255.708 345.985 252.411 345.985 252.411C345.985 252.411 345.985 236.343 346.079 229.318C346.166 220.338 344.91 215.456 339.454 207.355Z" fill="black"/>
<path d="M343.518 159.952L345.583 158.068C345.305 157.77 344.935 157.574 344.533 157.513C344.13 157.451 343.719 157.527 343.365 157.729C343.011 157.931 342.736 158.247 342.584 158.625C342.433 159.002 342.413 159.421 342.529 159.811C342.278 159.811 342.019 159.772 341.744 159.772V176.318C341.744 178.602 342.648 180.792 344.259 182.41C345.87 184.028 348.056 184.942 350.339 184.953V168.359C350.331 166.39 349.651 164.483 348.41 162.954C347.169 161.425 345.443 160.366 343.518 159.952Z" fill="#263238"/>
</svg>
