<svg width="101" height="100" viewBox="0 0 101 100" fill="none" xmlns="http://www.w3.org/2000/svg">
<circle cx="50.5" cy="50" r="44" fill="white"/>
<path d="M49.8801 60V41.334L45.7321 42.354L44.6441 38.07L51.4781 36.03H55.0481V60H49.8801Z" fill="#686868"/>
<path d="M50.5 -2.18557e-06C60.3891 -1.7533e-06 70.0561 2.93245 78.2785 8.42652C86.501 13.9206 92.9096 21.7295 96.694 30.8658C100.478 40.0021 101.469 50.0555 99.5393 59.7545C97.61 69.4536 92.848 78.3627 85.8553 85.3553C78.8627 92.348 69.9536 97.11 60.2545 99.0393C50.5555 100.969 40.5021 99.9784 31.3658 96.194C22.2295 92.4096 14.4206 86.001 8.92652 77.7785C3.43245 69.556 0.500002 59.8891 0.500002 50L6.49402 50C6.49402 58.7036 9.07492 67.2117 13.9104 74.4484C18.7458 81.6852 25.6186 87.3255 33.6596 90.6562C41.7007 93.9869 50.5488 94.8584 59.0851 93.1604C67.6215 91.4624 75.4626 87.2713 81.6169 81.1169C87.7713 74.9626 91.9624 67.1215 93.6604 58.5851C95.3584 50.0488 94.4869 41.2007 91.1562 33.1596C87.8255 25.1186 82.1852 18.2458 74.9484 13.4104C67.7117 8.57492 59.2036 5.99401 50.5 5.99401L50.5 -2.18557e-06Z" fill="url(#paint0_linear_270_4783)"/>
<defs>
<linearGradient id="paint0_linear_270_4783" x1="50.5" y1="1.50002" x2="50.5" y2="50" gradientUnits="userSpaceOnUse">
<stop offset="0.00437832" stop-color="#83C150"/>
<stop offset="1" stop-color="#9CD365" stop-opacity="0"/>
</linearGradient>
</defs>
</svg>
